<?xml version="1.0" encoding="iso-8859-1"?>
<!-- Generator: Adobe Illustrator 17.1.0, SVG Export Plug-In . SVG Version: 6.00 Build 0)  -->
<!DOCTYPE svg PUBLIC "-//W3C//DTD SVG 1.1//EN" "http://www.w3.org/Graphics/SVG/1.1/DTD/svg11.dtd">
<svg version="1.1" id="Capa_1" xmlns="http://www.w3.org/2000/svg" xmlns:xlink="http://www.w3.org/1999/xlink" x="0px" y="0px"
	 viewBox="0 0 330.372 330.372" style="enable-background:new 0 0 330.372 330.372;" xml:space="preserve">
<path d="M255.811,330.372H75.119c-2.493,0-4.604-1.835-4.951-4.304c-0.347-2.468,1.177-4.815,3.572-5.502l86.725-24.88v-55.749
	c-35.606-0.908-66.297-11.561-89.009-30.945C45.66,186.976,32.025,154.819,32.025,116c0-32.711,20.354-88.04,37.864-113.81
	C70.82,0.82,72.368,0,74.025,0h183c1.656,0,3.205,0.82,4.136,2.19C278.357,27.5,298.347,82.728,298.347,116
	c0,38.843-13.535,70.996-39.141,92.982c-22.582,19.389-53.181,30.044-88.742,30.955v55.749l86.725,24.88
	c2.396,0.688,3.919,3.034,3.572,5.502C260.416,328.537,258.303,330.372,255.811,330.372z M110.679,320.372h109.572l-54.545-15.648
	c-0.16,0.008-0.322,0.008-0.482,0L110.679,320.372z M60.289,181c20.599,30.937,57.531,49,105.176,49
	c40.341,0,82.562-13.814,105.505-49H60.289z M54.431,171h222.237c7.393-14.961,11.68-33.151,11.68-55
	c0-30.099-18.26-81.384-34.015-106H76.715c-16.062,25.02-34.69,76.422-34.69,106C42.025,136.703,46.356,155.218,54.431,171z
	 M68.079,83.758c-0.219,0-0.44-0.014-0.662-0.043c-2.738-0.362-4.663-2.875-4.301-5.613c2.699-20.398,16.947-45.862,17.552-46.936
	c1.356-2.405,4.404-3.256,6.81-1.901s3.257,4.404,1.903,6.81c-0.139,0.247-13.907,24.87-16.351,43.339
	C72.697,81.929,70.549,83.758,68.079,83.758z"/>
<g>
</g>
<g>
</g>
<g>
</g>
<g>
</g>
<g>
</g>
<g>
</g>
<g>
</g>
<g>
</g>
<g>
</g>
<g>
</g>
<g>
</g>
<g>
</g>
<g>
</g>
<g>
</g>
<g>
</g>
</svg>
