<?xml version="1.0" encoding="iso-8859-1"?>
<!-- Generator: Adobe Illustrator 17.1.0, SVG Export Plug-In . SVG Version: 6.00 Build 0)  -->
<!DOCTYPE svg PUBLIC "-//W3C//DTD SVG 1.1//EN" "http://www.w3.org/Graphics/SVG/1.1/DTD/svg11.dtd">
<svg version="1.1" id="Capa_1" xmlns="http://www.w3.org/2000/svg" xmlns:xlink="http://www.w3.org/1999/xlink" x="0px" y="0px"
	 viewBox="0 0 401.85 401.85" style="enable-background:new 0 0 401.85 401.85;" xml:space="preserve">
<g id="a_glass_of_wine">
	<path d="M270.925,401.85h-140c-2.463,0-4.56-1.794-4.94-4.228s1.068-4.782,3.415-5.534l66.525-21.313V232.65
		c-14.418-1.101-28.072-6.944-38.892-16.732c-12.012-10.865-19.5-25.633-21.083-41.583c-0.016-0.164-0.024-0.329-0.024-0.494V5
		c0-2.761,2.239-5,5-5h120c2.762,0,5,2.239,5,5v168.841c0,0.165-0.008,0.33-0.024,0.494c-1.584,15.95-9.071,30.718-21.084,41.583
		c-10.82,9.788-24.474,15.631-38.892,16.732v138.125l66.525,21.313c2.346,0.751,3.795,3.1,3.415,5.534
		C275.484,400.056,273.388,401.85,270.925,401.85z M162.92,391.85h76.009l-38.005-12.175L162.92,391.85z M145.925,173.588
		c2.871,27.64,26.982,49.253,55,49.253c28.019,0,52.13-21.613,55-49.253V71.841h-88V163c0,2.761-2.239,5-5,5s-5-2.239-5-5V71.841
		h-12V173.588z M167.925,61.841h88V10h-110v51.841h12V28c0-2.761,2.239-5,5-5s5,2.239,5,5V61.841z"/>
</g>
<g>
</g>
<g>
</g>
<g>
</g>
<g>
</g>
<g>
</g>
<g>
</g>
<g>
</g>
<g>
</g>
<g>
</g>
<g>
</g>
<g>
</g>
<g>
</g>
<g>
</g>
<g>
</g>
<g>
</g>
</svg>
