<?xml version="1.0" encoding="iso-8859-1"?>
<!-- Generator: Adobe Illustrator 17.1.0, SVG Export Plug-In . SVG Version: 6.00 Build 0)  -->
<!DOCTYPE svg PUBLIC "-//W3C//DTD SVG 1.1//EN" "http://www.w3.org/Graphics/SVG/1.1/DTD/svg11.dtd">
<svg version="1.1" id="Capa_1" xmlns="http://www.w3.org/2000/svg" xmlns:xlink="http://www.w3.org/1999/xlink" x="0px" y="0px"
	 viewBox="0 0 330.047 330.047" style="enable-background:new 0 0 330.047 330.047;" xml:space="preserve">
<path d="M201.361,330.047c-5.273,0-10.513-0.677-15.48-2.096c-10.095-2.885-16.732-7.29-20.856-10.995
	c-4.123,3.705-10.76,8.11-20.855,10.995c-20.495,5.854-45.644-0.922-58.505-15.761c-7.81-9.011-10.131-16.056-12.375-22.869
	c-1.3-3.945-2.645-8.025-5.154-12.73c-1.351-2.533-3.748-6.211-6.523-10.469c-11.699-17.946-31.281-47.983-34.942-83.854
	c-2.392-23.444,2.284-43.659,13.897-60.081c12.057-17.05,31.057-29.147,56.474-35.956c29.868-8,50.845,0.833,63.513,10.142
	c-0.216-8.347-1.865-21.688-8.479-37.982c-9.816-24.182-16.137-28.818-16.81-29.258c-2.329-0.941-3.628-3.505-2.935-5.981
	c0.744-2.66,3.507-4.214,6.162-3.467c2.938,0.822,11.047,5.873,22.848,34.944c1.496,3.687,2.762,7.237,3.827,10.631l11.44-10.896
	c0.1-5.731,2.377-33.092,35.922-48.515c36.477-16.771,69.716,7.749,71.113,8.801c1.229,0.926,1.964,2.365,1.991,3.903
	c0.019,1.003,0.051,24.797-34.343,44.51c-10.456,5.993-21.096,8.1-30.88,8.1c-16.369,0.002-30.353-5.891-37.137-9.339
	l-15.175,14.452c1.674,7.691,2.309,14.235,2.464,19.329c12.764-9.014,33.401-17.151,62.446-9.374
	c25.417,6.809,44.418,18.906,56.475,35.956c11.613,16.422,16.288,36.637,13.896,60.081c-3.661,35.871-23.243,65.908-34.942,83.854
	c-2.775,4.258-5.173,7.936-6.523,10.468c-2.51,4.705-3.854,8.785-5.153,12.73c-2.244,6.813-4.565,13.859-12.375,22.87
	C234.641,323.433,217.842,330.047,201.361,330.047z M165.024,304.739c1.516,0,2.949,0.688,3.898,1.869
	c2.373,2.956,8.089,8.409,19.706,11.729c16.721,4.777,37.89-0.799,48.2-12.694c6.496-7.496,8.321-13.035,10.434-19.45
	c1.365-4.145,2.913-8.843,5.827-14.307c1.558-2.921,3.946-6.585,6.971-11.224c11.204-17.187,29.956-45.951,33.37-79.409
	c4.387-42.987-17.99-73.303-63.01-85.361c-32.492-8.706-52.662,5.248-61.816,14.38c-0.084,0.086-0.173,0.17-0.263,0.25
	c-0.556,0.493-1.194,0.842-1.867,1.045c-0.64,0.195-1.325,0.262-2.027,0.181c-0.609-0.07-1.209-0.253-1.765-0.548
	c-0.464-0.245-0.88-0.56-1.237-0.927c-9.155-9.131-29.325-23.087-61.817-14.381c-45.019,12.059-67.396,42.374-63.01,85.361
	c3.414,33.458,22.166,62.223,33.37,79.409c3.024,4.639,5.413,8.303,6.971,11.224c2.914,5.464,4.462,10.162,5.828,14.308
	c2.113,6.414,3.938,11.954,10.434,19.449c10.31,11.895,31.479,17.471,48.201,12.694c11.618-3.32,17.332-8.772,19.703-11.728
	C162.073,305.427,163.507,304.739,165.024,304.739z M186.747,52.334c8.16,4.258,35.071,16.097,59.569,2.054
	c23.077-13.227,27.99-27.618,29.035-33.266c-7.527-4.724-32.619-18.152-58.646-6.187l0,0
	C191.778,26.395,187.476,45.383,186.747,52.334z M53.561,157.544c-0.375,0-0.757-0.042-1.138-0.131
	c-2.689-0.627-4.362-3.314-3.736-6.004c5.578-23.951,29.632-33.381,30.653-33.771c2.575-0.983,5.47,0.309,6.454,2.89
	c0.982,2.575-0.306,5.46-2.877,6.449l0,0c-0.201,0.078-20.136,8.001-24.49,26.699C57.889,155.986,55.833,157.544,53.561,157.544z"/>
<g>
</g>
<g>
</g>
<g>
</g>
<g>
</g>
<g>
</g>
<g>
</g>
<g>
</g>
<g>
</g>
<g>
</g>
<g>
</g>
<g>
</g>
<g>
</g>
<g>
</g>
<g>
</g>
<g>
</g>
</svg>
