<?xml version="1.0" encoding="iso-8859-1"?>
<!-- Generator: Adobe Illustrator 17.1.0, SVG Export Plug-In . SVG Version: 6.00 Build 0)  -->
<!DOCTYPE svg PUBLIC "-//W3C//DTD SVG 1.1//EN" "http://www.w3.org/Graphics/SVG/1.1/DTD/svg11.dtd">
<svg version="1.1" id="Capa_1" xmlns="http://www.w3.org/2000/svg" xmlns:xlink="http://www.w3.org/1999/xlink" x="0px" y="0px"
	 viewBox="0 0 362.194 362.194" style="enable-background:new 0 0 362.194 362.194;" xml:space="preserve">
<path d="M274.924,344.414H88.027c-2.762,0-5-2.238-5-5V163.978c-16.467-2.67-50.73-5.998-63.749,2.681
	c-8.556,5.704-9.468,14.963-9.249,19.974c0.468,10.771,6.588,21.185,15.228,25.916c18.173,9.952,17.116,26.858,14.02,34.408
	c-1.048,2.554-3.968,3.776-6.523,2.729c-2.555-1.048-3.776-3.969-2.729-6.523c0.536-1.368,4.943-13.895-9.57-21.842
	C8.676,214.87,0.663,201.425,0.038,187.067c-0.526-12.105,4.465-22.576,13.693-28.729c19.138-12.759,64.671-5.389,74.04-3.693
	c3.889-1.197,18.38-6.216,29.344-17.418c10.277-10.501,13.59-51.563,13.999-66.499c0.012-0.423,0.075-0.833,0.186-1.224
	c-0.122-0.433-0.188-0.89-0.188-1.361c0-23.606,0-50.363,50.363-50.363c22.599,0,36.511,4.794,43.783,15.086
	c6.587,9.321,6.583,21.461,6.579,34.314v0.963c0,0.472-0.065,0.928-0.188,1.359c0.11,0.392,0.175,0.802,0.187,1.226
	c0.409,14.937,3.722,55.998,13.998,66.499c12.713,12.989,30.171,17.665,30.346,17.71c0.088,0.023,0.175,0.049,0.262,0.076
	c15.066,2.698,52.686,6.976,66.475-2.217c8.556-5.704,9.467-14.962,9.249-19.974c-0.469-10.771-6.589-21.185-15.229-25.916
	c-18.173-9.952-17.116-26.859-14.019-34.408c1.049-2.555,3.968-3.777,6.523-2.729s3.776,3.969,2.729,6.523
	c-0.537,1.368-4.943,13.895,9.569,21.842c11.777,6.449,19.791,19.895,20.416,34.253c0.526,12.105-4.464,22.576-13.692,28.729
	c-16.597,11.064-53.041,6.989-68.54,4.608v173.689C279.924,342.176,277.685,344.414,274.924,344.414z M93.027,334.414h176.896
	V163.453c-6.509-2.244-20.202-7.959-31.235-19.232c-12.804-13.082-15.934-53.637-16.656-68.356h-81.113
	c-0.723,14.72-3.853,55.274-16.657,68.356c-11.033,11.273-24.726,16.988-31.234,19.232V334.414z M141.141,63.143h80.69
	c-0.055-9.987-0.542-18.566-4.739-24.507c-3.294-4.66-10.568-10.856-35.617-10.856c-24.558,0-31.888,6.373-35.266,11.166
	C142.112,44.762,141.289,52.755,141.141,63.143z M198.292,263.668h-33.634c-18.748,0-34-15.252-34-34v-43.581c0-2.762,2.238-5,5-5
	h91.634c2.762,0,5,2.238,5,5v43.581C232.292,248.416,217.04,263.668,198.292,263.668z M140.658,191.087v38.581
	c0,13.233,10.767,24,24,24h33.634c13.233,0,24-10.767,24-24v-38.581H140.658z"/>
<g>
</g>
<g>
</g>
<g>
</g>
<g>
</g>
<g>
</g>
<g>
</g>
<g>
</g>
<g>
</g>
<g>
</g>
<g>
</g>
<g>
</g>
<g>
</g>
<g>
</g>
<g>
</g>
<g>
</g>
</svg>
