<?xml version="1.0" encoding="iso-8859-1"?>
<!-- Generator: Adobe Illustrator 17.1.0, SVG Export Plug-In . SVG Version: 6.00 Build 0)  -->
<!DOCTYPE svg PUBLIC "-//W3C//DTD SVG 1.1//EN" "http://www.w3.org/Graphics/SVG/1.1/DTD/svg11.dtd">
<svg version="1.1" id="Capa_1" xmlns="http://www.w3.org/2000/svg" xmlns:xlink="http://www.w3.org/1999/xlink" x="0px" y="0px"
	 viewBox="0 0 378 378" style="enable-background:new 0 0 378 378;" xml:space="preserve">
<path d="M189.009,378c-0.004,0-0.007,0-0.011,0c-1.594,0-3.209-0.031-4.801-0.093C120.4,375.451,69.075,323.514,67.35,259.668
	c-0.657-24.327,5.841-47.984,18.792-68.414c8.211-12.955,14.61-26.206,19.018-39.386l0.102-0.302
	c6.895-20.684,12.203-55.95,14.755-72.898c0.485-3.228,0.869-5.777,1.144-7.42c0.135-0.807,0.206-1.7,0.281-2.646
	c0.059-0.742,0.119-1.483,0.206-2.223C126.325,26.675,153.45,0,189.143,0c18.609,0,34.938,6.918,47.222,20.006
	c11.485,12.237,18.704,29.503,20.327,48.618c0.002,0.032,0.005,0.064,0.007,0.097c0.08,1.08,1.972,26.139,5.59,43.624
	c3.689,17.835,10.688,39.039,10.758,39.251l0.362,1.079c4.486,13.318,10.73,26.354,18.558,38.749
	c12.252,19.401,18.729,41.837,18.729,64.881c0,32.508-12.658,63.07-35.642,86.055C252.071,365.343,221.513,378,189.009,378z
	 M189.143,10c-30.376,0-53.509,23.127-57.564,57.548c-0.072,0.614-0.12,1.231-0.17,1.848c-0.089,1.115-0.181,2.267-0.386,3.496
	c-0.268,1.607-0.643,4.104-1.119,7.264c-2.593,17.226-7.988,53.069-15.163,74.594l-0.105,0.314
	c-4.655,13.921-11.403,27.907-20.048,41.543c-11.882,18.746-17.844,40.458-17.241,62.791
	c1.583,58.596,48.687,106.263,107.236,108.517c1.464,0.056,2.95,0.085,4.417,0.085c0.002,0,0.008,0,0.01,0
	c29.835,0.001,57.878-11.616,78.973-32.711s32.713-49.146,32.713-78.983c0-21.152-5.942-41.741-17.184-59.542
	c-8.252-13.066-14.839-26.825-19.579-40.894l-0.378-1.129c-0.295-0.889-7.253-21.972-11.059-40.37
	c-3.805-18.389-5.686-43.757-5.772-44.95C243.687,33.875,220.552,10,189.143,10z M187.992,318.926
	c-13.698,0-26.447-7.52-35.9-21.174c-9.064-13.093-14.057-30.412-14.057-48.764s4.992-35.671,14.057-48.764
	c9.453-13.654,22.202-21.174,35.9-21.174s26.447,7.52,35.9,21.174c9.064,13.093,14.057,30.412,14.057,48.764
	s-4.992,35.671-14.057,48.764C214.439,311.407,201.69,318.926,187.992,318.926z M187.992,189.05
	c-22.032,0-39.957,26.888-39.957,59.938s17.925,59.938,39.957,59.938s39.957-26.888,39.957-59.938S210.024,189.05,187.992,189.05z"
	/>
<g>
</g>
<g>
</g>
<g>
</g>
<g>
</g>
<g>
</g>
<g>
</g>
<g>
</g>
<g>
</g>
<g>
</g>
<g>
</g>
<g>
</g>
<g>
</g>
<g>
</g>
<g>
</g>
<g>
</g>
</svg>
