<?xml version="1.0" encoding="iso-8859-1"?>
<!-- Generator: Adobe Illustrator 17.1.0, SVG Export Plug-In . SVG Version: 6.00 Build 0)  -->
<!DOCTYPE svg PUBLIC "-//W3C//DTD SVG 1.1//EN" "http://www.w3.org/Graphics/SVG/1.1/DTD/svg11.dtd">
<svg version="1.1" id="Capa_1" xmlns="http://www.w3.org/2000/svg" xmlns:xlink="http://www.w3.org/1999/xlink" x="0px" y="0px"
	 viewBox="0 0 369 369" style="enable-background:new 0 0 369 369;" xml:space="preserve">
<path d="M232.853,369h-96.705c-7.073,0-13.16-5.276-14.158-12.274c-6.127-42.941-19.616-145.571-12.567-171.059
	c4.098-14.817,13.225-24.237,22.051-33.349c10.148-10.476,19.734-20.37,23.203-38.66c6.75-35.591,4.927-107.801,4.908-108.525
	c-0.036-1.349,0.475-2.654,1.416-3.621S163.233,0,164.582,0h39c1.339,0,2.622,0.537,3.562,1.491
	c0.939,0.954,1.458,2.245,1.438,3.584c-0.011,0.726-1.011,72.975,5.742,108.583c3.469,18.29,13.055,28.185,23.203,38.66
	c8.826,9.111,17.953,18.531,22.051,33.349c7.049,25.487-6.44,128.117-12.567,171.059l0,0C246.013,363.723,239.926,369,232.853,369z
	 M167.373,94c-0.732,7.849-1.671,15.195-2.871,21.521c-4.027,21.233-15.619,33.198-25.846,43.756
	c-8.319,8.587-16.177,16.698-19.595,29.056c-5.348,19.337,3.12,98.936,12.829,166.98c0.3,2.102,2.131,3.687,4.259,3.687h96.705
	c2.128,0,3.959-1.585,4.259-3.687l0,0c9.708-68.045,18.177-147.644,12.829-166.98c-3.418-12.357-11.276-20.469-19.595-29.056
	c-10.227-10.558-21.819-22.522-25.846-43.756c-1.199-6.323-2.162-13.675-2.934-21.521H167.373z M168.182,84h32.516
	c-0.989-13.003-1.542-26.711-1.845-39H169.72C169.53,57.29,169.089,70.999,168.182,84z M169.826,35h28.827
	c-0.168-10.773-0.155-19.715-0.12-25h-28.844C169.781,15.301,169.889,24.243,169.826,35z M185.4,331.696
	c-0.152,0-0.304-0.007-0.454-0.021c-0.447,0.041-0.905,0.021-1.367-0.063c-0.888-0.164-21.867-4.227-33.287-23.041
	c-9.819-16.178-12.507-36.714-12.997-41.255l-0.504,0.135c-1.287,0.345-2.66,0.16-3.813-0.512c-1.151-0.672-1.987-1.776-2.32-3.067
	l-7-27.097c-0.668-2.588,0.815-5.243,3.37-6.029l25.671-7.903c0.077-0.024,0.154-0.046,0.232-0.065
	c19.827-5.072,43.5-5.072,63.327,0c0.081,0.021,0.162,0.043,0.242,0.068l25.48,7.903c2.484,0.771,3.962,3.316,3.4,5.856l-6,27.097
	c-0.293,1.321-1.108,2.468-2.261,3.177c-1.153,0.71-2.544,0.924-3.855,0.587l-0.665-0.169c-0.485,4.499-3.166,25.073-13,41.274
	c-11.42,18.814-32.399,22.877-33.287,23.041C186.007,331.669,185.702,331.696,185.4,331.696z M147.17,265.566
	c0.035,0.379,2.071,22,11.672,37.815c8.288,13.654,23.298,17.658,26.098,18.299c2.81-0.658,17.892-4.755,26.112-18.299
	c9.671-15.933,11.653-37.599,11.672-37.815c0.022-0.259,0.064-0.511,0.124-0.756l-10.814-2.757
	c-18.014-4.607-37.053-4.606-55.061-0.001l-9.95,2.662C147.095,264.989,147.145,265.273,147.17,265.566L147.17,265.566z
	 M184.514,248.601c10.096,0,20.183,1.255,29.993,3.765l16.227,4.136l3.89-17.564l-20.964-6.502
	c-17.944-4.564-40.194-4.563-58.135,0.001l-20.989,6.462l4.544,17.59l15.361-4.108C164.288,249.859,174.406,248.601,184.514,248.601
	z"/>
<g>
</g>
<g>
</g>
<g>
</g>
<g>
</g>
<g>
</g>
<g>
</g>
<g>
</g>
<g>
</g>
<g>
</g>
<g>
</g>
<g>
</g>
<g>
</g>
<g>
</g>
<g>
</g>
<g>
</g>
</svg>
