<?xml version="1.0" encoding="iso-8859-1"?>
<!-- Generator: Adobe Illustrator 17.1.0, SVG Export Plug-In . SVG Version: 6.00 Build 0)  -->
<!DOCTYPE svg PUBLIC "-//W3C//DTD SVG 1.1//EN" "http://www.w3.org/Graphics/SVG/1.1/DTD/svg11.dtd">
<svg version="1.1" id="Capa_1" xmlns="http://www.w3.org/2000/svg" xmlns:xlink="http://www.w3.org/1999/xlink" x="0px" y="0px"
	 viewBox="0 0 372.989 372.989" style="enable-background:new 0 0 372.989 372.989;" xml:space="preserve">
<path d="M89.475,372.989c-13.99,0-25.053-1.098-31.462-2.468c-16.498-3.527-27.358-9.866-33.564-14.563
	c-4.012-3.037-6.257-7.868-6.004-12.923l4.997,0.177l-4.994-0.249c0.114-2.282,0.748-4.542,1.833-6.534
	c4.04-7.408,15.996-26.251,39.702-41.202c10.849-6.842,24.795-11.634,40.945-17.183c27.472-9.439,58.61-20.139,87.366-44.837
	c31.942-27.435,53.506-86.955,67.775-126.341c6.173-17.036,10.632-29.346,14.38-34.725c9.332-13.393,20.954-18.266,26.651-19.934
	l11.589-48.373c0.32-1.339,1.18-2.486,2.374-3.172s2.618-0.849,3.937-0.449l19.357,5.856c2.165,0.655,3.62,2.683,3.549,4.943
	l-1.271,40.404c5.908,4.548,19.106,18.18,17.846,48.566c-1.445,34.806-20.647,140.304-91.206,209.569
	c-37.529,36.842-85.584,52.063-119.289,58.345C123.813,371.659,104.871,372.988,89.475,372.989z M28.434,343.462l-0.002,0.06
	c-0.088,1.761,0.679,3.425,2.051,4.464c4.418,3.344,14.143,9.448,29.62,12.757c12.675,2.709,44.989,4.232,82.051-2.674
	c32.337-6.026,78.384-20.573,114.115-55.65c68.244-66.992,86.82-169.141,88.22-202.847c1.309-31.521-14.646-40.798-15.325-41.178
	c-1.687-0.894-2.67-2.643-2.609-4.55l1.236-39.311l-10.612-3.211l-11.068,46.201c-0.479,1.999-2.132,3.501-4.168,3.786
	c-0.507,0.078-13.284,2.192-23.288,16.55c-2.998,4.303-7.718,17.33-13.183,32.414c-14.626,40.369-36.728,101.375-70.662,130.521
	c-30.209,25.947-63.712,37.458-90.632,46.708c-15.559,5.346-28.995,9.963-38.86,16.185c-22.331,14.082-33.397,32.287-36.257,37.53
	C28.685,341.905,28.474,342.661,28.434,343.462L28.434,343.462z M67.078,344.165c-4.391,0-6.84-0.155-7.083-0.171
	c-2.755-0.184-4.84-2.566-4.656-5.322c0.183-2.754,2.565-4.823,5.318-4.656l0,0c0.144,0.01,14.534,0.898,38.058-1.925
	c2.8-0.336,5.588-0.634,8.413-0.936c21.062-2.249,44.935-4.799,93.411-26.91c29.194-13.317,54.711-49.18,70.976-76.92
	c19.431-33.14,33.494-68.046,38.339-86.454c9.343-35.504,2.922-68.56,2.855-68.89c-0.541-2.708,1.215-5.342,3.923-5.884
	c2.717-0.534,5.342,1.216,5.884,3.923c0.287,1.438,6.935,35.678-2.992,73.396c-10.344,39.311-58.079,144.038-114.834,169.927
	c-49.952,22.785-74.682,25.426-96.5,27.757c-2.781,0.297-5.525,0.59-8.283,0.921C85.061,343.801,73.797,344.165,67.078,344.165z"/>
<g>
</g>
<g>
</g>
<g>
</g>
<g>
</g>
<g>
</g>
<g>
</g>
<g>
</g>
<g>
</g>
<g>
</g>
<g>
</g>
<g>
</g>
<g>
</g>
<g>
</g>
<g>
</g>
<g>
</g>
</svg>
