<?xml version="1.0" encoding="iso-8859-1"?>
<!-- Generator: Adobe Illustrator 17.1.0, SVG Export Plug-In . SVG Version: 6.00 Build 0)  -->
<!DOCTYPE svg PUBLIC "-//W3C//DTD SVG 1.1//EN" "http://www.w3.org/Graphics/SVG/1.1/DTD/svg11.dtd">
<svg version="1.1" id="Capa_1" xmlns="http://www.w3.org/2000/svg" xmlns:xlink="http://www.w3.org/1999/xlink" x="0px" y="0px"
	 viewBox="0 0 406.896 406.896" style="enable-background:new 0 0 406.896 406.896;" xml:space="preserve">
<path d="M293.311,406.896c-9.726,0-17.638-7.912-17.638-17.637c0-6.705,3.761-12.548,9.284-15.53l-21.228-75.182h-55.183v73.797
	c7.298,2.161,12.638,8.926,12.638,16.915c0,9.725-7.912,17.637-17.638,17.637c-9.725,0-17.637-7.912-17.637-17.637
	c0-7.989,5.34-14.754,12.637-16.915v-73.797h-53.51l-21.503,76.157c4.639,3.181,7.688,8.519,7.688,14.556
	c0,9.725-7.912,17.637-17.638,17.637c-9.725,0-17.637-7.912-17.637-17.637s7.912-17.637,17.637-17.637
	c0.144,0,0.285,0.001,0.428,0.005l43.738-154.905c-8.798-4.129-17.059-9.458-24.523-15.892
	c-19.322-16.655-32.148-39.632-36.114-64.699c-0.229-1.444,0.187-2.917,1.137-4.029c0.95-1.112,2.339-1.752,3.802-1.752h202.992
	c1.463,0,2.852,0.641,3.802,1.752c0.95,1.112,1.365,2.584,1.137,4.029c-3.966,25.066-16.791,48.043-36.114,64.699
	c-7.047,6.074-14.801,11.163-23.05,15.188c0.012,0.038,0.022,0.075,0.033,0.114l43.92,155.55
	c9.045,0.745,16.177,8.344,16.177,17.577C310.948,398.984,303.036,406.896,293.311,406.896z M293.311,381.622
	c-4.212,0-7.638,3.426-7.638,7.637c0,4.211,3.426,7.637,7.638,7.637c4.211,0,7.637-3.426,7.637-7.637
	C300.948,385.048,297.522,381.622,293.311,381.622z M203.548,381.622c-4.211,0-7.637,3.426-7.637,7.637
	c0,4.211,3.426,7.637,7.637,7.637c4.212,0,7.638-3.426,7.638-7.637C211.185,385.048,207.76,381.622,203.548,381.622z
	 M113.585,381.622c-4.211,0-7.637,3.426-7.637,7.637c0,4.211,3.426,7.637,7.637,7.637c4.212,0,7.638-3.426,7.638-7.637
	C121.222,385.048,117.797,381.622,113.585,381.622z M208.548,288.546h52.359l-19.351-68.535c-10.516,3.962-21.649,6.28-33.009,6.807
	V288.546z M147.862,288.546h50.686v-61.728c-10.813-0.502-21.426-2.628-31.492-6.249L147.862,288.546z M108.079,140.35
	c9.792,44.718,49.047,76.584,95.469,76.584c46.423,0,85.678-31.867,95.469-76.584H108.079z M248.403,107.978
	c-1.664,0-3.291-0.83-4.24-2.343c-1.465-2.335-0.764-5.414,1.564-6.885l0,0c0.16-0.102,15.934-10.334,15.934-27.286
	c0-7.634-3.039-10.443-7.244-14.332c-4.909-4.539-11.019-10.187-11.019-23.484c0-24.697,17.187-32.858,17.918-33.193
	c2.509-1.15,5.478-0.048,6.628,2.462c1.151,2.511,0.049,5.478-2.462,6.629c-0.451,0.219-12.084,6.042-12.084,24.103
	c0,8.923,3.445,12.108,7.808,16.141c4.658,4.307,10.455,9.667,10.455,21.674c0,22.56-19.764,35.22-20.605,35.748
	C250.23,107.731,249.311,107.978,248.403,107.978z M199.484,107.978c-1.664,0-3.291-0.83-4.24-2.343
	c-1.465-2.335-0.764-5.414,1.564-6.885l0,0c0.159-0.102,15.934-10.334,15.934-27.286c0-7.634-3.038-10.443-7.244-14.332
	c-4.909-4.539-11.019-10.187-11.019-23.484c0-24.697,17.187-32.858,17.918-33.193c2.509-1.15,5.478-0.048,6.628,2.462
	c1.151,2.511,0.049,5.478-2.462,6.629c-0.451,0.219-12.084,6.042-12.084,24.103c0,8.923,3.445,12.108,7.808,16.141
	c4.658,4.307,10.455,9.667,10.455,21.674c0,22.56-19.764,35.22-20.605,35.748C201.311,107.731,200.392,107.978,199.484,107.978z
	 M150.565,107.978c-1.664,0-3.291-0.83-4.24-2.343c-1.466-2.336-0.764-5.416,1.567-6.886c0.274-0.176,15.931-10.396,15.931-27.284
	c0-7.634-3.038-10.443-7.244-14.332c-4.909-4.539-11.019-10.187-11.019-23.484c0-24.697,17.187-32.858,17.918-33.193
	c2.509-1.15,5.478-0.048,6.628,2.462c1.151,2.511,0.049,5.478-2.462,6.629c-0.451,0.219-12.084,6.042-12.084,24.103
	c0,8.923,3.445,12.108,7.808,16.141c4.658,4.307,10.455,9.667,10.455,21.674c0,22.56-19.764,35.22-20.605,35.748
	C152.392,107.731,151.473,107.978,150.565,107.978z"/>
<g>
</g>
<g>
</g>
<g>
</g>
<g>
</g>
<g>
</g>
<g>
</g>
<g>
</g>
<g>
</g>
<g>
</g>
<g>
</g>
<g>
</g>
<g>
</g>
<g>
</g>
<g>
</g>
<g>
</g>
</svg>
