<?xml version="1.0" encoding="iso-8859-1"?>
<!-- Generator: Adobe Illustrator 17.1.0, SVG Export Plug-In . SVG Version: 6.00 Build 0)  -->
<!DOCTYPE svg PUBLIC "-//W3C//DTD SVG 1.1//EN" "http://www.w3.org/Graphics/SVG/1.1/DTD/svg11.dtd">
<svg version="1.1" id="Capa_1" xmlns="http://www.w3.org/2000/svg" xmlns:xlink="http://www.w3.org/1999/xlink" x="0px" y="0px"
	 viewBox="0 0 403.652 403.652" style="enable-background:new 0 0 403.652 403.652;" xml:space="preserve">
<path d="M285.947,403.652H109.249c-12.387,0-22.464-10.077-22.464-22.464V194.381C82.461,196.089,77.802,197,73.024,197
	c-20.678,0-37.5-16.822-37.5-37.5c0-4.469,0.776-8.818,2.312-12.967c-7.408-12.035-11.312-25.819-11.312-40.033
	c0-42.182,34.318-76.5,76.5-76.5c4.785,0,9.551,0.445,14.228,1.325C122.561,12.894,139.369,0,159.024,0
	c18.255,0,34.317,11.292,40.659,28.009C205.352,26.674,211.165,26,217.025,26c13.104,0,25.911,3.397,37.252,9.854
	c4.124-2.502,8.895-3.854,13.748-3.854c8.797,0,17.039,4.475,21.925,11.662c3.003-0.439,6.042-0.662,9.075-0.662
	c34.463,0,62.5,28.038,62.5,62.5c0,31.274-23.088,57.256-53.114,61.797v15.795c2.888-0.728,5.864-1.095,8.905-1.095h23.397
	c20.079,0,36.414,16.335,36.414,36.414v91.735c0,20.079-16.335,36.414-36.414,36.414h-23.397c-3.041,0-6.018-0.367-8.905-1.095
	v35.723C308.411,393.575,298.333,403.652,285.947,403.652z M96.785,188.504v192.684c0,6.873,5.591,12.464,12.464,12.464h176.698
	c6.873,0,12.464-5.591,12.464-12.464V167.997c-11.451-0.11-22.477-3.302-32.151-9.282C252.552,170.535,235.221,177,217.025,177
	c-0.024,0-0.045,0-0.074,0c-0.019,0-0.038,0-0.057,0h-0.003c-13.812-0.024-26.981-3.685-38.594-10.667v4.867
	c5.553,3.777,9,10.125,9,16.952c0,11.304-9.196,20.5-20.5,20.5s-20.5-9.196-20.5-20.5c0-6.411,3.002-12.395,8-16.243v-8.63
	c-13.896,12.604-31.904,19.663-51.037,19.721c-0.013,0-0.03,0-0.043,0c-0.021,0.001-0.043,0.002-0.064,0c-0.024,0-0.046,0-0.065,0
	c-0.272,0.004-0.553-0.001-0.841-0.005c-1.306,1.624-2.743,3.132-4.3,4.517C97.566,187.851,97.179,188.182,96.785,188.504z
	 M308.525,335.062c2.81,0.996,5.755,1.499,8.791,1.499h23.397c14.564,0,26.414-11.849,26.414-26.414v-91.735
	c0-14.565-11.85-26.414-26.414-26.414h-23.397c-3.036,0-5.981,0.503-8.791,1.499V335.062z M164.297,155.538v19.053
	c0,1.817-0.986,3.492-2.576,4.373c-3.346,1.854-5.424,5.375-5.424,9.188c0,5.79,4.71,10.5,10.5,10.5s10.5-4.71,10.5-10.5
	c0-4.066-2.395-7.803-6.102-9.521c-1.768-0.818-2.898-2.589-2.898-4.537v-14.917C166.926,158.017,165.591,156.802,164.297,155.538z
	 M103.024,40c-36.668,0-66.5,29.832-66.5,66.5c0,13.139,3.834,25.851,11.088,36.762c0.957,1.439,1.103,3.271,0.385,4.843
	c-1.641,3.599-2.474,7.432-2.474,11.395c0,15.164,12.336,27.5,27.5,27.5c6.216,0,12.163-2.106,16.943-5.847
	c0.707-0.554,1.384-1.14,2.031-1.756c0.001-0.001,0.002-0.002,0.004-0.004c0.005-0.004,0.009-0.009,0.014-0.013
	c1.257-1.2,2.409-2.528,3.435-3.971c0.001-0.001,0.002-0.003,0.003-0.004c0.004-0.006,0.008-0.012,0.013-0.018
	c0.005-0.008,0.011-0.016,0.017-0.023c0.001-0.002,0.003-0.004,0.004-0.006c0.006-0.008,0.012-0.017,0.018-0.024
	c0-0.001,0.001-0.002,0.002-0.003c0.058-0.083,0.116-0.166,0.173-0.249c0.223-0.324,0.48-0.616,0.765-0.873l0,0
	c0.007-0.006,0.014-0.013,0.021-0.019c0.917-0.819,2.153-1.253,3.369-1.271c0.045,0,0.091,0.001,0.136,0.003
	c0.016,0,0.033,0.001,0.049,0.002c1.194,0.054,2.18,0.086,3.058,0.077c0.034,0.001,0.04,0,0.057,0c0.019-0.001,0.039,0,0.056,0
	c0.014,0,0.024-0.001,0.038,0c16.546-0.051,32.213-6.219,44.231-17.025c2.841-2.563,5.486-5.393,7.901-8.471
	c0.063-0.08,0.127-0.157,0.194-0.232c0.969-1.249,1.899-2.537,2.786-3.864c0.88-1.316,2.331-2.137,3.913-2.215
	c1.571-0.078,3.105,0.599,4.109,1.823c2.958,3.605,6.248,6.845,9.81,9.693c0.077,0.054,0.152,0.111,0.227,0.17
	c2.077,1.645,4.23,3.152,6.451,4.519c10.127,6.203,21.854,9.582,34.056,9.603c0.013-0.004,0.034,0,0.052,0c0.022,0,0.042,0,0.064,0
	c16.95,0,33.035-6.468,45.293-18.212c1.732-1.66,4.398-1.854,6.354-0.466c8.914,6.332,19.41,9.678,30.353,9.678
	c1.207,0.018,2.481-0.054,4.01-0.169c0.132-0.01,0.27-0.01,0.396-0.014c26.895-2.246,48.095-24.853,48.095-52.317
	c0-28.949-23.552-52.5-52.5-52.5c-3.566,0-7.144,0.365-10.633,1.085c-2.236,0.466-4.519-0.659-5.515-2.725
	c-2.784-5.773-8.475-9.36-14.853-9.36c-3.824,0-7.415,1.275-10.386,3.688c-1.664,1.351-4.003,1.493-5.816,0.35
	C241.393,39.471,229.36,36,217.025,36c-6.53,0-12.99,0.964-19.201,2.865c-1.31,0.402-2.727,0.248-3.921-0.426
	c-1.193-0.673-2.058-1.807-2.392-3.135C187.765,20.405,174.406,10,159.024,10c-16.515,0-30.418,11.814-33.059,28.091
	c-0.226,1.389-1.025,2.618-2.204,3.387c-1.179,0.769-2.628,1.005-3.988,0.652C114.328,40.717,108.692,40,103.024,40z
	 M270.525,365.247c-2.762,0-5-2.239-5-5V196.413c0-2.761,2.238-5,5-5s5,2.239,5,5v163.834
	C275.525,363.008,273.287,365.247,270.525,365.247z M199.524,365.247c-2.761,0-5-2.239-5-5V196.413c0-2.761,2.239-5,5-5s5,2.239,5,5
	v163.834C204.525,363.008,202.286,365.247,199.524,365.247z M128.524,365.247c-2.761,0-5-2.239-5-5V196.413c0-2.761,2.239-5,5-5
	s5,2.239,5,5v163.834C133.524,363.008,131.286,365.247,128.524,365.247z"/>
<g>
</g>
<g>
</g>
<g>
</g>
<g>
</g>
<g>
</g>
<g>
</g>
<g>
</g>
<g>
</g>
<g>
</g>
<g>
</g>
<g>
</g>
<g>
</g>
<g>
</g>
<g>
</g>
<g>
</g>
</svg>
