<?xml version="1.0" encoding="iso-8859-1"?>
<!-- Generator: Adobe Illustrator 17.1.0, SVG Export Plug-In . SVG Version: 6.00 Build 0)  -->
<!DOCTYPE svg PUBLIC "-//W3C//DTD SVG 1.1//EN" "http://www.w3.org/Graphics/SVG/1.1/DTD/svg11.dtd">
<svg version="1.1" id="Capa_1" xmlns="http://www.w3.org/2000/svg" xmlns:xlink="http://www.w3.org/1999/xlink" x="0px" y="0px"
	 viewBox="0 0 411.29 411.29" style="enable-background:new 0 0 411.29 411.29;" xml:space="preserve">
<path d="M249.006,411.29h-86.723c-16.894,0-30.638-13.744-30.638-30.638V274.862c0-16.894,13.744-30.639,30.638-30.639h27.467
	v-72.108c-6.519-3.884-10.895-11.005-10.895-19.129V22.25c0-12.269,9.981-22.25,22.25-22.25h9.078c12.269,0,22.25,9.981,22.25,22.25
	v130.737c0,8.123-4.376,15.244-10.895,19.128v72.108h27.467c16.895,0,30.639,13.745,30.639,30.639v105.789
	C279.645,397.545,265.901,411.29,249.006,411.29z M162.283,254.224c-11.38,0-20.638,9.258-20.638,20.639v105.789
	c0,11.38,9.258,20.638,20.638,20.638h86.723c11.38,0,20.639-9.258,20.639-20.638V274.862c0-11.38-9.259-20.639-20.639-20.639
	H162.283z M199.75,243.316h11.789v-68.079H199.75V243.316z M201.106,165.237h9.078c6.755,0,12.25-5.495,12.25-12.25V22.25
	c0-6.755-5.495-12.25-12.25-12.25h-9.078c-6.755,0-12.25,5.495-12.25,12.25v130.737
	C188.855,159.742,194.351,165.237,201.106,165.237z M245.511,393.132h-0.227c-8.952,0-16.235-7.796-16.235-17.378v-93.271
	c0-9.582,7.283-17.378,16.235-17.378h0.227c8.952,0,16.235,7.796,16.235,17.378v93.271
	C261.746,385.336,254.463,393.132,245.511,393.132z M245.284,275.105c-3.438,0-6.235,3.31-6.235,7.378v93.271
	c0,4.068,2.797,7.378,6.235,7.378h0.227c3.438,0,6.235-3.31,6.235-7.378v-93.271c0-4.068-2.797-7.378-6.235-7.378H245.284z
	 M205.564,393.132h-0.227c-8.952,0-16.235-7.796-16.235-17.378v-93.271c0-9.582,7.283-17.378,16.235-17.378h0.227
	c8.952,0,16.235,7.796,16.235,17.378v93.271C221.799,385.336,214.516,393.132,205.564,393.132z M205.337,275.105
	c-3.438,0-6.235,3.31-6.235,7.378v93.271c0,4.068,2.797,7.378,6.235,7.378h0.227c3.438,0,6.235-3.31,6.235-7.378v-93.271
	c0-4.068-2.797-7.378-6.235-7.378H205.337z M165.616,393.132h-0.227c-8.952,0-16.235-7.796-16.235-17.378v-93.271
	c0-9.582,7.283-17.378,16.235-17.378h0.227c8.952,0,16.235,7.796,16.235,17.378v93.271
	C181.852,385.336,174.569,393.132,165.616,393.132z M165.39,275.105c-3.438,0-6.235,3.31-6.235,7.378v93.271
	c0,4.068,2.797,7.378,6.235,7.378h0.227c3.438,0,6.235-3.31,6.235-7.378v-93.271c0-4.068-2.797-7.378-6.235-7.378H165.39z"/>
<g>
</g>
<g>
</g>
<g>
</g>
<g>
</g>
<g>
</g>
<g>
</g>
<g>
</g>
<g>
</g>
<g>
</g>
<g>
</g>
<g>
</g>
<g>
</g>
<g>
</g>
<g>
</g>
<g>
</g>
</svg>
