<?xml version="1.0" encoding="iso-8859-1"?>
<!-- Generator: Adobe Illustrator 17.1.0, SVG Export Plug-In . SVG Version: 6.00 Build 0)  -->
<!DOCTYPE svg PUBLIC "-//W3C//DTD SVG 1.1//EN" "http://www.w3.org/Graphics/SVG/1.1/DTD/svg11.dtd">
<svg version="1.1" id="Capa_1" xmlns="http://www.w3.org/2000/svg" xmlns:xlink="http://www.w3.org/1999/xlink" x="0px" y="0px"
	 viewBox="0 0 397.02 397.02" style="enable-background:new 0 0 397.02 397.02;" xml:space="preserve">
<path d="M290.733,397.02H79.287c-2.761,0-5-2.238-5-5s2.239-5,5-5h5.565c0.008-0.142,0.021-0.282,0.041-0.423l7.42-52.564
	c0.234-5.169,4.779-9.307,10.333-9.307h30.397v-14.812h-14.131c-2.582,0-4.739-1.966-4.979-4.536L91.052,59.984
	c-0.043-0.463-0.021-0.926,0.062-1.375c0.051-0.915,0.335-1.817,0.848-2.616c10.107-15.706,42.021-26.717,81.294-28.558
	c-2.779-2.916-4.487-6.86-4.487-11.196C168.77,7.285,176.055,0,185.01,0s16.24,7.285,16.24,16.239c0,4.341-1.712,8.289-4.496,11.205
	c39.607,1.919,72.383,13.442,81.791,29.333c0.443,0.749,0.676,1.586,0.696,2.427h38.493c2.761,0,5,2.238,5,5v158.288
	c0,2.762-2.239,5-5,5h-19.669c-2.761,0-5-2.238-5-5V85.126h-16.441l-20.536,220.252c-0.24,2.57-2.397,4.536-4.979,4.536h-14.131
	v14.812h29.817c5.542,0,10.08,4.121,10.331,9.274l7.993,52.544c0.024,0.157,0.041,0.316,0.049,0.476h5.565c2.761,0,5,2.238,5,5
	S293.494,397.02,290.733,397.02z M95.185,387.02h179.649c0.092,0,0.172-0.011,0.238-0.027l-7.879-51.79
	c-0.021-0.137-0.036-0.274-0.045-0.412c-0.08-0.033-0.198-0.064-0.354-0.064H102.645c-0.155,0-0.274,0.031-0.354,0.064
	c-0.008,0.12-0.021,0.24-0.037,0.359l-7.318,51.84C95.005,387.007,95.088,387.02,95.185,387.02z M143.042,324.726h83.935v-14.812
	h-83.935V324.726z M123.467,299.914h123.085l21.948-235.394H101.519L123.467,299.914z M303.064,217.492h9.669V69.204h-34.625
	l-0.552,5.922h20.509c2.761,0,5,2.238,5,5V217.492z M107.702,54.324h154.52c-13.535-9.231-41.173-17.162-77.212-17.162
	C148.66,37.162,121.164,45.005,107.702,54.324z M185.01,10c-3.44,0-6.239,2.799-6.239,6.239s2.799,6.239,6.239,6.239
	s6.24-2.799,6.24-6.239S188.45,10,185.01,10z M185.01,379.224c-10.503,0-19.049-8.545-19.049-19.049s8.545-19.049,19.049-19.049
	c10.504,0,19.049,8.545,19.049,19.049S195.513,379.224,185.01,379.224z M185.01,351.126c-4.99,0-9.049,4.06-9.049,9.049
	s4.059,9.049,9.049,9.049s9.049-4.06,9.049-9.049S189.999,351.126,185.01,351.126z M151.951,281.464h-11.239
	c-2.595,0-4.758-1.984-4.981-4.569L119.434,88.401c-0.121-1.396,0.35-2.778,1.297-3.811c0.947-1.032,2.284-1.62,3.685-1.62h14.423
	c2.761,0,5,2.238,5,5s-2.239,5-5,5h-8.973l7.284,84.247h9.182c2.761,0,5,2.238,5,5s-2.239,5-5,5h-8.317l7.284,84.246h6.653
	c2.761,0,5,2.238,5,5S154.713,281.464,151.951,281.464z"/>
<g>
</g>
<g>
</g>
<g>
</g>
<g>
</g>
<g>
</g>
<g>
</g>
<g>
</g>
<g>
</g>
<g>
</g>
<g>
</g>
<g>
</g>
<g>
</g>
<g>
</g>
<g>
</g>
<g>
</g>
</svg>
