<?xml version="1.0" encoding="iso-8859-1"?>
<!-- Generator: Adobe Illustrator 17.1.0, SVG Export Plug-In . SVG Version: 6.00 Build 0)  -->
<!DOCTYPE svg PUBLIC "-//W3C//DTD SVG 1.1//EN" "http://www.w3.org/Graphics/SVG/1.1/DTD/svg11.dtd">
<svg version="1.1" id="Capa_1" xmlns="http://www.w3.org/2000/svg" xmlns:xlink="http://www.w3.org/1999/xlink" x="0px" y="0px"
	 viewBox="0 0 419 419" style="enable-background:new 0 0 419 419;" xml:space="preserve">
<path d="M249,419h-79c-9.374,0-17-7.626-17-17V181.5c0-14.829,5.761-28.863,16.223-39.517c4.779-4.868,7.95-10.954,9.169-17.602
	c1.305-7.117,1.967-13.638,1.967-19.381c0-15.846,6.185-56.958,8.195-69.901c-0.138-0.111-0.274-0.228-0.408-0.351
	c-1.377-1.266-3.019-3.638-3.019-7.748V5c0-2.761,2.239-5,5-5h39.744c2.762,0,5,2.239,5,5v22c0,4.11-1.642,6.482-3.019,7.748
	c-0.134,0.123-0.27,0.24-0.407,0.351c2.01,12.943,8.194,54.055,8.194,69.901c0,6.141,0.754,13.149,2.241,20.831
	c1.242,6.422,4.199,12.237,8.551,16.817C260.472,153.215,266,167.014,266,181.5V402C266,411.374,258.374,419,249,419z M163,351.031
	V402c0,3.86,3.14,7,7,7h79c3.859,0,7-3.14,7-7v-50.969l-44.298,21.731c-1.389,0.682-3.016,0.682-4.404,0L163,351.031z M163,339.893
	l46.5,22.811l46.5-22.811V211h-93V339.893z M163,201h93v-19.5c0-11.912-4.552-23.264-12.817-31.965
	c-5.668-5.966-9.513-13.505-11.119-21.804c-0.047-0.245-0.094-0.488-0.14-0.731h-43.853c-1.686,8.302-5.724,15.889-11.712,21.989
	C167.744,157.762,163,169.308,163,181.5V201z M189.615,117h40.769c-0.494-4.242-0.743-8.254-0.743-12
	c0-10.708-3.134-34.618-5.636-52h-28.01c-2.502,17.383-5.636,41.295-5.636,52C190.359,108.742,190.11,112.755,189.615,117z
	 M197.467,43h25.066c-0.916-6.086-1.55-10.065-1.573-10.21c-0.242-1.518,0.227-3.063,1.272-4.19
	c0.712-0.767,1.637-1.283,2.639-1.493c0.001-0.034,0.001-0.069,0.001-0.106v-2h-29.744v2c0,0.037,0,0.072,0.001,0.106
	c1.002,0.21,1.927,0.726,2.639,1.493c1.045,1.127,1.515,2.672,1.272,4.19C199.017,32.935,198.383,36.914,197.467,43z M195.128,15
	h29.744v-5h-29.744V15z"/>
<g>
</g>
<g>
</g>
<g>
</g>
<g>
</g>
<g>
</g>
<g>
</g>
<g>
</g>
<g>
</g>
<g>
</g>
<g>
</g>
<g>
</g>
<g>
</g>
<g>
</g>
<g>
</g>
<g>
</g>
</svg>
