<?xml version="1.0" encoding="iso-8859-1"?>
<!-- Generator: Adobe Illustrator 17.1.0, SVG Export Plug-In . SVG Version: 6.00 Build 0)  -->
<!DOCTYPE svg PUBLIC "-//W3C//DTD SVG 1.1//EN" "http://www.w3.org/Graphics/SVG/1.1/DTD/svg11.dtd">
<svg version="1.1" id="Capa_1" xmlns="http://www.w3.org/2000/svg" xmlns:xlink="http://www.w3.org/1999/xlink" x="0px" y="0px"
	 viewBox="0 0 391 391" style="enable-background:new 0 0 391 391;" xml:space="preserve">
<path d="M196.043,391c-0.187,0-0.367-0.008-0.546-0.021c-0.678,0.047-1.353,0-1.994-0.184c-5.719-0.868-10.306-4.462-13.084-7.232
	c-0.898,0.441-1.978,0.958-3.259,1.549c-7.281,3.359-18.457,3.832-25.792-3.069c-7.633-7.184-11.343-18.671-11.343-35.12
	c0-7.583,1.94-17.478,4.187-28.936c2.617-13.345,5.583-28.47,5.583-41.62c0-17.64-7.291-38.645-10.426-46.856
	c-1.735-4.545-2.593-9.31-2.548-14.159c0.047-4.957-0.03-12.35-0.119-20.909c-0.236-22.714-0.561-53.82,1.188-68.463
	c1.942-16.269,12.447-34.085,20.888-48.4c4.424-7.504,8.603-14.591,9.638-18.499c1.938-7.326,2.66-15.281,2.93-20.147
	c-1.817-0.749-3.097-2.537-3.097-4.625V13.667C168.248,6.131,174.379,0,181.914,0h27.172c7.535,0,13.666,6.131,13.666,13.667v20.641
	c0,2.087-1.278,3.875-3.094,4.624c0.271,4.874,0.994,12.844,2.928,20.148c1.034,3.908,5.213,10.995,9.637,18.499
	c8.44,14.315,18.945,32.132,20.888,48.4c1.748,14.643,1.424,45.749,1.188,68.463c-0.089,8.56-0.166,15.952-0.119,20.908
	c0.045,4.851-0.813,9.615-2.548,14.16l-4.671-1.783l4.671,1.783c-3.135,8.212-10.426,29.217-10.426,46.856
	c0,13.15,2.966,28.275,5.583,41.62c2.246,11.458,4.187,21.353,4.187,28.936c0,16.449-3.71,27.937-11.343,35.12
	c-8.329,7.836-19.895,5.617-25.413,3.069c-1.321-0.61-2.428-1.14-3.343-1.591c-2.862,2.753-7.617,6.4-13.379,7.274
	C197.027,390.931,196.539,391,196.043,391z M195.5,380.965c0.021,0,0.04,0,0.061,0c0.047-0.006,0.095-0.013,0.143-0.018
	c4.415-0.488,8.92-5.116,10.149-6.699c1.552-1.997,4.35-2.521,6.52-1.22c0.003,0.001,1.737,1.02,6.037,3.004
	c3.02,1.394,9.91,2.923,14.369-1.272c5.516-5.189,8.196-14.296,8.196-27.837c0-6.611-1.943-16.521-4-27.011
	c-2.704-13.792-5.77-29.424-5.77-43.545c0-18.609,6.944-39.579,11.084-50.423l0,0c0.689-1.808,1.192-3.662,1.506-5.547h-96.59
	c0.313,1.885,0.816,3.739,1.506,5.547c4.14,10.844,11.084,31.813,11.084,50.423c0,14.121-3.065,29.753-5.77,43.545
	c-2.057,10.49-4,20.399-4,27.011c0,13.541,2.681,22.647,8.196,27.837c4.194,3.95,11.272,2.878,14.748,1.272
	c4.3-1.983,6.033-3.002,6.051-3.012c2.219-1.312,5.082-0.73,6.6,1.353c1.227,1.656,5.38,6.099,9.677,6.574
	c0.048,0.005,0.096,0.012,0.143,0.018C195.46,380.965,195.479,380.965,195.5,380.965z M147.881,210.397h95.238v-68.693h-95.238
	V210.397z M147.386,131.704h96.229c-0.127-1.656-0.271-3.177-0.434-4.539c-0.695-5.823-2.775-12.089-5.538-18.388h-84.285
	c-2.763,6.299-4.843,12.564-5.538,18.388C147.656,128.527,147.513,130.048,147.386,131.704z M158.229,98.777h74.541
	c-2.975-5.626-6.203-11.102-9.162-16.119c-5.197-8.815-9.303-15.778-10.689-21.02c-2.187-8.262-2.977-17.014-3.262-22.331h-28.314
	c-0.285,5.317-1.074,14.069-3.261,22.331c-1.388,5.241-5.493,12.204-10.69,21.02C164.433,87.676,161.204,93.151,158.229,98.777z
	 M178.248,29.308h34.504V13.667c0-2.022-1.645-3.667-3.666-3.667h-27.172c-2.021,0-3.666,1.645-3.666,3.667V29.308z"/>
<g>
</g>
<g>
</g>
<g>
</g>
<g>
</g>
<g>
</g>
<g>
</g>
<g>
</g>
<g>
</g>
<g>
</g>
<g>
</g>
<g>
</g>
<g>
</g>
<g>
</g>
<g>
</g>
<g>
</g>
</svg>
