<?xml version="1.0" encoding="iso-8859-1"?>
<!-- Generator: Adobe Illustrator 17.1.0, SVG Export Plug-In . SVG Version: 6.00 Build 0)  -->
<!DOCTYPE svg PUBLIC "-//W3C//DTD SVG 1.1//EN" "http://www.w3.org/Graphics/SVG/1.1/DTD/svg11.dtd">
<svg version="1.1" id="Capa_1" xmlns="http://www.w3.org/2000/svg" xmlns:xlink="http://www.w3.org/1999/xlink" x="0px" y="0px"
	 viewBox="0 0 374.019 374.019" style="enable-background:new 0 0 374.019 374.019;" xml:space="preserve">
<path d="M187.808,374.019c-0.186,0-0.366-0.008-0.546-0.021c-0.671,0.047-1.349,0.001-1.991-0.184
	c-5.725-0.867-10.316-4.466-13.097-7.238c-0.899,0.442-1.981,0.959-3.264,1.551c-7.168,3.308-18.229,4.645-25.807-2.485
	l-0.382-0.359c-4.318-4.053-9.213-8.646-9.213-22.282c0-0.221,0.015-0.438,0.042-0.651V198.61c0-5.599,3.165-11.363,6.829-18.038
	c4.614-8.404,9.845-17.93,9.845-28.856c0-13.479-3.625-19.236-7.462-25.332c-1.627-2.583-3.309-5.254-4.651-8.443
	c-0.624-1.483-1.177-2.734-1.666-3.84c-3.12-7.061-3.937-9.431-3.937-22.101c0-11.696,11.346-21.52,20.463-29.413
	c3.45-2.988,7.361-6.374,8.267-8.063c1.807-3.373,2.103-10.066,1.84-15.216h-1.321c-2.762,0-5-2.238-5-5V13.667
	C156.757,6.131,162.888,0,170.424,0h33.171c7.536,0,13.667,6.131,13.667,13.667v20.641c0,2.762-2.238,5-5,5h-1.322
	c-0.262,5.148,0.033,11.843,1.84,15.217c0.905,1.688,4.815,5.074,8.267,8.062c9.117,7.894,20.463,17.717,20.463,29.414
	c0,12.67-0.816,15.039-3.936,22.101c-0.488,1.105-1.042,2.356-1.666,3.84c-1.343,3.189-3.025,5.86-4.651,8.443
	c-3.838,6.095-7.463,11.853-7.463,25.332c0,10.927,5.23,20.452,9.845,28.856c3.664,6.675,6.829,12.439,6.829,18.038v143.754
	c0.027,0.212,0.042,0.427,0.042,0.646c0,11.688-3.631,17.5-9.083,22.631c-7.484,7.046-18.376,5.74-25.429,2.486
	c-1.322-0.61-2.431-1.142-3.347-1.593c-2.865,2.756-7.624,6.407-13.392,7.28C188.79,373.949,188.302,374.019,187.808,374.019z
	 M187.265,363.983c0.021,0,0.041,0,0.062,0c0.047-0.006,0.095-0.012,0.143-0.018c4.419-0.489,8.928-5.121,10.158-6.706
	c1.553-1.998,4.354-2.521,6.521-1.219c0.003,0.002,1.738,1.021,6.039,3.006c0.938,0.433,9.31,4.09,14.385-0.688
	c3.174-2.987,5.813-6.173,5.933-14.737c-0.025-0.201-0.038-0.405-0.038-0.612V323h-86.916v20c0,0.211-0.013,0.419-0.038,0.623
	c0.101,8.782,2.361,10.903,6.052,14.367l0.393,0.369c4.231,3.98,11.507,2.19,14.763,0.688c4.302-1.984,6.037-3.004,6.055-3.015
	c2.216-1.309,5.083-0.731,6.601,1.353c1.228,1.657,5.386,6.105,9.686,6.581c0.048,0.006,0.096,0.012,0.143,0.018
	C187.224,363.983,187.245,363.983,187.265,363.983z M143.759,313h86.5v-86h-86.5V313z M143.551,217h86.916v-18.39
	c0-3.034-2.718-7.984-5.596-13.226c-4.936-8.989-11.078-20.178-11.078-33.669c0-16.365,4.782-23.96,9.001-30.66
	c1.477-2.346,2.872-4.562,3.896-6.996c0.65-1.545,1.227-2.849,1.735-4.001c2.04-4.616,2.773-6.276,2.998-12.059h-88.829
	c0.224,5.782,0.957,7.443,2.997,12.059c0.51,1.152,1.085,2.456,1.736,4.001c1.024,2.436,2.42,4.651,3.896,6.997
	c4.219,6.7,9,14.294,9,30.659c0,13.491-6.143,24.68-11.078,33.669c-2.878,5.241-5.596,10.191-5.596,13.226V217z M143.408,88h87.203
	c-2.586-6.145-10.236-12.769-16.11-17.854c-4.893-4.237-8.758-7.583-10.535-10.9c-2.961-5.528-3.266-13.753-3.064-19.246h-27.782
	c0.201,5.493-0.104,13.718-3.065,19.246c-1.776,3.317-5.643,6.664-10.536,10.9C153.644,75.232,145.994,81.855,143.408,88z
	 M166.757,29.308h40.505V13.667c0-2.022-1.645-3.667-3.667-3.667h-33.171c-2.022,0-3.667,1.645-3.667,3.667V29.308z"/>
<g>
</g>
<g>
</g>
<g>
</g>
<g>
</g>
<g>
</g>
<g>
</g>
<g>
</g>
<g>
</g>
<g>
</g>
<g>
</g>
<g>
</g>
<g>
</g>
<g>
</g>
<g>
</g>
<g>
</g>
</svg>
