<?xml version="1.0" encoding="iso-8859-1"?>
<!-- Generator: Adobe Illustrator 17.1.0, SVG Export Plug-In . SVG Version: 6.00 Build 0)  -->
<!DOCTYPE svg PUBLIC "-//W3C//DTD SVG 1.1//EN" "http://www.w3.org/Graphics/SVG/1.1/DTD/svg11.dtd">
<svg version="1.1" id="Capa_1" xmlns="http://www.w3.org/2000/svg" xmlns:xlink="http://www.w3.org/1999/xlink" x="0px" y="0px"
	 viewBox="0 0 310 310" style="enable-background:new 0 0 310 310;" xml:space="preserve">
<path d="M264,294.5H46c-12.131,0-22-9.869-22-22V125.45C8.919,114.958,0,97.984,0,79.5v-8c0-30.879,25.121-56,56-56h198
	c30.879,0,56,25.121,56,56v8c0,18.484-8.919,35.458-24,45.95V272.5C286,284.631,276.131,294.5,264,294.5z M56,25.5
	c-25.364,0-46,20.636-46,46v8c0,15.955,8.094,30.543,21.651,39.021c1.461,0.914,2.349,2.516,2.349,4.239V272.5
	c0,6.617,5.383,12,12,12h218c6.617,0,12-5.383,12-12V122.761c0-1.724,0.888-3.325,2.349-4.239C291.906,110.043,300,95.455,300,79.5
	v-8c0-25.364-20.636-46-46-46H56z M193.879,252.864c-1.28,0-2.56-0.488-3.536-1.465l-4.242-4.243
	c-1.952-1.953-1.952-5.119,0.001-7.071s5.118-1.951,7.071,0.001l4.242,4.243c1.952,1.953,1.952,5.119-0.001,7.071
	C196.438,252.376,195.158,252.864,193.879,252.864z M121.758,252.864c-1.279,0-2.56-0.488-3.535-1.465l-4.243-4.243
	c-1.953-1.952-1.953-5.118,0-7.07c1.951-1.953,5.119-1.953,7.07,0l4.243,4.243c1.953,1.952,1.953,5.118,0,7.07
	C124.317,252.376,123.037,252.864,121.758,252.864z M232,211.621c-1.279,0-2.56-0.488-3.535-1.465l-4.242-4.242
	c-1.953-1.952-1.953-5.118,0-7.07c1.951-1.953,5.119-1.953,7.07,0l4.242,4.242c1.953,1.952,1.953,5.118,0,7.07
	C234.56,211.133,233.279,211.621,232,211.621z M159.879,211.621c-1.279,0-2.56-0.488-3.535-1.465l-4.242-4.242
	c-1.953-1.952-1.953-5.118,0-7.07c1.951-1.953,5.119-1.953,7.07,0l4.242,4.242c1.953,1.952,1.953,5.118,0,7.07
	C162.438,211.133,161.158,211.621,159.879,211.621z M87.758,211.621c-1.279,0-2.559-0.488-3.535-1.464l-4.243-4.242
	c-1.953-1.952-1.953-5.118-0.001-7.071c1.953-1.953,5.118-1.952,7.071-0.001l4.243,4.242c1.953,1.952,1.953,5.118,0.001,7.071
	C90.317,211.133,89.037,211.621,87.758,211.621z M121.758,166.742c-1.279,0-2.559-0.488-3.535-1.464l-4.243-4.242
	c-1.953-1.952-1.953-5.118-0.001-7.071c1.953-1.953,5.118-1.952,7.071-0.001l4.243,4.242c1.953,1.952,1.953,5.118,0.001,7.071
	C124.317,166.254,123.037,166.742,121.758,166.742z M193.879,166.742c-1.279,0-2.56-0.488-3.535-1.465l-4.242-4.242
	c-1.953-1.952-1.953-5.118,0-7.07c1.951-1.953,5.119-1.953,7.07,0l4.242,4.242c1.953,1.952,1.953,5.118,0,7.07
	C196.438,166.254,195.158,166.742,193.879,166.742z M232,125.5c-1.279,0-2.56-0.488-3.535-1.465l-4.242-4.242
	c-1.953-1.952-1.953-5.118,0-7.07c1.951-1.953,5.119-1.953,7.07,0l4.242,4.242c1.953,1.952,1.953,5.118,0,7.07
	C234.56,125.012,233.279,125.5,232,125.5z M159.879,125.5c-1.279,0-2.56-0.488-3.535-1.465l-4.242-4.242
	c-1.953-1.952-1.953-5.118,0-7.07c1.951-1.953,5.119-1.953,7.07,0l4.242,4.242c1.953,1.952,1.953,5.118,0,7.07
	C162.438,125.012,161.158,125.5,159.879,125.5z M87.758,125.5c-1.279,0-2.559-0.488-3.535-1.464l-4.243-4.242
	c-1.953-1.952-1.953-5.118-0.001-7.071c1.953-1.953,5.118-1.952,7.071-0.001l4.243,4.242c1.953,1.952,1.953,5.118,0.001,7.071
	C90.317,125.012,89.037,125.5,87.758,125.5z M266,80.621c-1.279,0-2.56-0.488-3.535-1.465l-4.242-4.242
	c-1.953-1.952-1.953-5.118,0-7.07c1.951-1.953,5.119-1.953,7.07,0l4.242,4.242c1.953,1.952,1.953,5.118,0,7.07
	C268.56,80.133,267.279,80.621,266,80.621z M193.879,80.621c-1.279,0-2.56-0.488-3.535-1.465l-4.242-4.242
	c-1.953-1.952-1.953-5.118,0-7.07c1.951-1.953,5.119-1.953,7.07,0l4.242,4.242c1.953,1.952,1.953,5.118,0,7.07
	C196.438,80.133,195.158,80.621,193.879,80.621z M121.758,80.621c-1.279,0-2.559-0.488-3.535-1.464l-4.243-4.242
	c-1.953-1.952-1.953-5.118-0.001-7.071c1.953-1.953,5.118-1.952,7.071-0.001l4.243,4.242c1.953,1.952,1.953,5.118,0.001,7.071
	C124.317,80.133,123.037,80.621,121.758,80.621z M49.637,80.621c-1.279,0-2.559-0.488-3.535-1.464l-4.243-4.242
	c-1.953-1.952-1.953-5.118-0.001-7.071c1.953-1.953,5.118-1.952,7.071-0.001l4.243,4.242c1.953,1.952,1.953,5.118,0.001,7.071
	C52.196,80.133,50.916,80.621,49.637,80.621z"/>
<g>
</g>
<g>
</g>
<g>
</g>
<g>
</g>
<g>
</g>
<g>
</g>
<g>
</g>
<g>
</g>
<g>
</g>
<g>
</g>
<g>
</g>
<g>
</g>
<g>
</g>
<g>
</g>
<g>
</g>
</svg>
