<?xml version="1.0" encoding="iso-8859-1"?>
<!-- Generator: Adobe Illustrator 17.1.0, SVG Export Plug-In . SVG Version: 6.00 Build 0)  -->
<!DOCTYPE svg PUBLIC "-//W3C//DTD SVG 1.1//EN" "http://www.w3.org/Graphics/SVG/1.1/DTD/svg11.dtd">
<svg version="1.1" id="Capa_1" xmlns="http://www.w3.org/2000/svg" xmlns:xlink="http://www.w3.org/1999/xlink" x="0px" y="0px"
	 viewBox="0 0 343 343" style="enable-background:new 0 0 343 343;" xml:space="preserve">
<path d="M209,339.5h-86c-1.358,0-2.657-0.553-3.6-1.53s-1.447-2.297-1.397-3.653c0.016-0.442,1.461-44.739-11.788-88.363
	c-7.167-23.602-19.679-48.737-29.158-66.059c-3.594-2.266-6.756-5.133-9.354-8.466c-6.64,4.592-14.52,7.071-22.704,7.071
	c-22.056,0-40-17.944-40-40c0-7.241,1.908-14.196,5.551-20.339C3.72,109.793,0,99.405,0,88.5c0-25.916,21.084-47,47-47
	c2.084,0,4.169,0.138,6.23,0.411C60.135,33.459,70.479,28.5,81.5,28.5c1.442,0,2.888,0.087,4.326,0.258
	C96.461,14.134,113.298,5.5,131.5,5.5c14.823,0,28.828,5.738,39.324,15.934C179.564,10.236,193.093,3.5,207.5,3.5
	c22.71,0,41.671,16.367,45.708,37.924c9.463-6.45,20.636-9.924,32.292-9.924c31.706,0,57.5,25.794,57.5,57.5
	c0,15.099-5.962,29.562-16.484,40.279c2.289,4.728,3.484,9.917,3.484,15.221c0,19.299-15.701,35-35,35
	c-5.81,0-11.446-1.419-16.503-4.132c-5.599,4.273-12.03,7.299-18.875,8.874c-10.316,19.636-23.455,46.61-29.836,67.706
	c-11.716,38.729-15.766,82.563-15.806,83.001C213.747,337.526,211.587,339.5,209,339.5z M128.074,329.5h76.41
	c1.354-12.394,5.824-47.703,15.73-80.448c5.979-19.764,17.543-44.24,27.486-63.558c-5.127-0.081-10.117-0.932-14.901-2.536
	c-3.625,10.972-7.146,19.393-10.49,25.077c-5.833,9.915-12.344,16.625-16.78,20.509c-2.144,1.875-4.886,2.908-7.725,2.908
	c-4.482,0-8.52-2.485-10.537-6.484c-2.429-4.816-5.486-12.733-6.254-23.099c-0.393-5.312,0.105-12.817,1.481-22.369
	c-7.861-0.013-15.5-2.356-21.949-6.667c-0.32,0.234-0.643,0.463-0.969,0.687c-0.348,9.357-0.888,17.27-1.609,23.551
	c-1.368,11.923-4.819,21.663-7.474,27.734c-1.871,4.281-5.945,6.942-10.631,6.942c-2.631,0-5.204-0.834-7.439-2.41
	c-5.974-4.214-12.164-11.029-15.769-17.364c-3.394-5.967-7.06-15.254-10.916-27.652c-2.912,0.762-5.913,1.157-8.972,1.179
	c-0.069,0.001-0.147,0.004-0.206,0.001l0,0c-0.007,0-0.121-0.003-0.123,0c-1.771-0.006-3.531-0.138-5.265-0.394
	c8.695,16.725,18.496,37.804,24.611,57.94C126.982,279.918,128.087,316.261,128.074,329.5z M115.011,180.46
	c3.738,12.147,7.209,21.073,10.335,26.567c2.889,5.077,8.049,10.759,12.84,14.138c0.532,0.375,1.127,0.582,1.676,0.582
	c1.055,0,1.366-0.713,1.469-0.947c2.38-5.444,5.475-14.179,6.702-24.87c0.55-4.796,0.992-10.62,1.32-17.381
	c-3.969,1.286-8.139,1.951-12.353,1.951c-5.829,0-11.58-1.277-16.836-3.718C118.552,178.159,116.832,179.387,115.011,180.46z
	 M192.812,178.134c-1.567,10.071-2.197,17.979-1.826,22.997c0.646,8.723,3.19,15.328,5.21,19.333
	c0.462,0.917,1.348,0.988,1.608,0.988c0.427,0,0.81-0.146,1.138-0.434c3.882-3.397,9.591-9.288,14.748-18.054
	c3.044-5.176,6.459-13.478,9.946-24.158c-4.972-2.892-9.39-6.619-13.078-11.026C205.66,172.711,199.508,176.313,192.812,178.134z
	 M96.5,180.5l0.042-5c0.071,0,0.142-0.001,0.213-0.001c3.566-0.034,7.02-0.767,10.27-2.179c3.277-1.42,6.194-3.461,8.671-6.065
	c1.599-1.684,4.148-2.043,6.153-0.866c4.584,2.689,9.823,4.111,15.15,4.111c5.245,0,10.396-1.371,14.914-3.966
	c0.074-0.049,0.149-0.097,0.227-0.142c1.713-1.005,3.315-2.165,4.762-3.449c0.027-0.024,0.054-0.048,0.081-0.072
	c0.685-0.612,1.512-1.018,2.379-1.203c1.471-0.318,3.06-0.003,4.261,0.997c5.285,4.407,11.989,6.835,18.877,6.835
	c0.01,0,0.02,0,0.03,0c1.674-0.005,3.354-0.154,5.036-0.445c0.106-0.019,0.212-0.033,0.318-0.045
	c7.561-1.396,14.414-5.824,18.842-12.187c0.958-1.377,2.55-2.199,4.219-2.143c1.676,0.039,3.222,0.915,4.116,2.334
	c3.999,6.349,9.666,11.4,16.404,14.63c0.112,0.043,0.224,0.09,0.333,0.142c5.209,2.438,10.769,3.688,16.524,3.714l0.091,5l0.01-5
	l0.076,3.544V175.5l0.006,3.844l0.021-3.844c2.289-0.002,4.612-0.209,6.907-0.616c0.095-0.017,0.19-0.031,0.285-0.042
	c7.049-1.304,13.618-4.523,19.014-9.323c1.717-1.525,4.255-1.688,6.15-0.387c4.167,2.857,9.049,4.368,14.116,4.368
	c13.785,0,25-11.215,25-25c0-4.789-1.365-9.448-3.947-13.473c-1.331-2.075-0.951-4.812,0.896-6.445
	C327.149,115.559,333,102.59,333,89c0-26.191-21.309-47.5-47.5-47.5c-12.4,0-24.138,4.761-33.053,13.404
	c-1.462,1.418-3.639,1.807-5.501,0.983c-1.863-0.823-3.041-2.693-2.977-4.729l0.011-0.317c0.009-0.279,0.02-0.56,0.02-0.841
	c0-20.126-16.374-36.5-36.5-36.5c-13.078,0-25.234,7.073-31.725,18.461c-0.816,1.432-2.287,2.37-3.93,2.506
	c-1.637,0.141-3.248-0.546-4.29-1.823C158.673,21.749,145.531,15.5,131.5,15.5c-15.896,0-30.528,8.005-39.142,21.412
	c-1.126,1.753-3.218,2.629-5.259,2.186C85.257,38.701,83.373,38.5,81.5,38.5c-8.798,0-17.004,4.355-21.95,11.649
	c-1.132,1.67-3.158,2.5-5.135,2.094C51.99,51.75,49.495,51.5,47,51.5c-20.402,0-37,16.598-37,37c0,9.652,3.705,18.793,10.433,25.736
	c1.702,1.757,1.883,4.485,0.43,6.452C17.027,125.876,15,132.035,15,138.5c0,16.542,13.458,30,30,30
	c7.611,0,14.871-2.86,20.444-8.055c1.129-1.053,2.68-1.525,4.205-1.279c1.524,0.246,2.849,1.182,3.59,2.535
	c2.285,4.174,5.643,7.653,9.726,10.086c0.106,0.052,0.212,0.107,0.315,0.167c3.991,2.306,8.533,3.531,13.134,3.546L96.5,180.5z"/>
<g>
</g>
<g>
</g>
<g>
</g>
<g>
</g>
<g>
</g>
<g>
</g>
<g>
</g>
<g>
</g>
<g>
</g>
<g>
</g>
<g>
</g>
<g>
</g>
<g>
</g>
<g>
</g>
<g>
</g>
</svg>
