<?xml version="1.0" encoding="iso-8859-1"?>
<!-- Generator: Adobe Illustrator 17.1.0, SVG Export Plug-In . SVG Version: 6.00 Build 0)  -->
<!DOCTYPE svg PUBLIC "-//W3C//DTD SVG 1.1//EN" "http://www.w3.org/Graphics/SVG/1.1/DTD/svg11.dtd">
<svg version="1.1" id="Capa_1" xmlns="http://www.w3.org/2000/svg" xmlns:xlink="http://www.w3.org/1999/xlink" x="0px" y="0px"
	 viewBox="0 0 373 373" style="enable-background:new 0 0 373 373;" xml:space="preserve">
<path d="M336.5,297h-298c-1.361,0-2.664-0.556-3.607-1.537c-0.943-0.982-1.444-2.307-1.389-3.667
	c0.175-4.304,0.5-8.571,0.969-12.796h-7.775c-1.366,0-2.672-0.559-3.615-1.546s-1.442-2.318-1.379-3.683
	c0.098-2.142,0.231-4.271,0.399-6.392C9.37,264.694,0,253.506,0,240c0-9.734,5.012-18.57,12.962-23.624
	C10.379,212.075,9,207.141,9,202c0-12.159,7.923-22.791,19.108-26.548C28.036,174.637,28,173.818,28,173
	c0-14.774,11.501-26.912,26.021-27.931C54.007,144.713,54,144.356,54,144c0-15.439,12.561-28,28-28c0.819,0,1.637,0.036,2.452,0.108
	C88.209,104.923,98.841,97,111,97c3.539,0,7,0.659,10.238,1.932C126.009,89.913,135.491,84,146,84
	c5.765,0,11.338,1.784,15.991,5.022C167.841,80.953,177.283,76,187.5,76c9.861,0,18.947,4.537,24.85,12.137
	C216.721,85.442,221.763,84,227,84c10.509,0,19.991,5.913,24.762,14.932C255,97.659,258.461,97,262,97
	c12.159,0,22.791,7.923,26.548,19.108c0.815-0.072,1.633-0.108,2.452-0.108c15.439,0,28,12.561,28,28
	c0,0.356-0.007,0.713-0.021,1.069C333.499,146.088,345,158.226,345,173c0,0.818-0.036,1.637-0.108,2.452
	C356.077,179.209,364,189.841,364,202c0,5.141-1.379,10.075-3.962,14.376C367.988,221.43,373,230.266,373,240
	c0,12.509-8.423,23.437-20.144,26.874c0.188,2.289,0.334,4.584,0.44,6.897c0.063,1.364-0.436,2.695-1.379,3.683
	s-2.25,1.546-3.615,1.546h-7.769c0.465,4.224,0.788,8.492,0.963,12.796c0.056,1.36-0.446,2.685-1.389,3.667
	C339.164,296.444,337.861,297,336.5,297z M43.785,287h287.431c-0.242-3.449-0.582-6.854-1.019-10.228
	c-0.405-0.606-0.682-1.31-0.79-2.073c-10.615-75.189-70.31-129.762-141.941-129.762c-36.497,0-69.919,13.998-95.414,37.584
	C64.682,208.035,46.757,244.731,43.785,287z M339.15,269h3.842c-0.92-12.319-3.086-24.244-6.359-35.632
	c-17.368-56.396-59.327-98.515-111.172-112.421c-12.111-3.221-24.777-4.934-37.808-4.947
	c-74.869,0.083-140.157,60.235-154.349,141.055c-0.562,3.937-0.996,7.919-1.296,11.945h3.363c6.34-37.732,24.82-71.68,52.335-95.968
	c20.727-18.295,45.669-30.47,72.128-35.492c9.201-1.764,18.61-2.666,28.131-2.666c39.375,0,76.737,15.479,105.205,43.584
	C317.387,202.366,333.304,233.933,339.15,269z M56,155c-9.925,0-18,8.075-18,18c0,1.64,0.226,3.277,0.672,4.869
	c0.39,1.392,0.159,2.885-0.634,4.093c-0.793,1.209-2.071,2.015-3.503,2.211C25.679,185.384,19,193.048,19,202
	c0,4.779,1.855,9.281,5.224,12.677c1.217,1.226,1.714,2.993,1.316,4.674c-0.398,1.682-1.636,3.037-3.273,3.588
	C14.93,225.402,10,232.259,10,240c0,8.289,5.492,15.221,13.112,17.332c0.102-0.618,0.207-1.235,0.314-1.852
	C35.651,170.313,104.66,106,187.5,106c0.098,0,0.203,0,0.302,0c4.411,0,8.804,0.191,13.173,0.571
	c69.802,5.942,127.645,57.655,146.239,127.528c2.126,7.295,3.842,14.752,5.126,22.332C358.658,253.591,363,247.203,363,240
	c0-7.741-4.93-14.598-12.267-17.062c-1.638-0.551-2.875-1.906-3.273-3.588c-0.398-1.681,0.099-3.448,1.316-4.674
	C352.145,211.281,354,206.779,354,202c0-8.952-6.679-16.616-15.535-17.827c-1.432-0.196-2.709-1.002-3.503-2.211
	c-0.793-1.208-1.024-2.701-0.634-4.093C334.774,176.277,335,174.64,335,173c0-10.922-9.782-19.653-21.054-17.736
	c-1.691,0.281-3.416-0.314-4.562-1.595c-1.146-1.279-1.555-3.059-1.082-4.71C308.765,147.34,309,145.672,309,144
	c0-9.925-8.075-18-18-18c-1.641,0-3.279,0.226-4.87,0.672c-1.393,0.388-2.885,0.158-4.093-0.635c-1.208-0.793-2.015-2.07-2.21-3.503
	C278.617,113.679,270.953,107,262,107c-3.594,0-7.063,1.056-10.032,3.053c-1.336,0.898-3.023,1.097-4.531,0.539
	c-1.509-0.561-2.656-1.813-3.082-3.365C242.219,99.439,235.083,94,227,94c-4.663,0-9.088,1.782-12.458,5.018
	c-1.139,1.094-2.729,1.584-4.287,1.324c-1.558-0.261-2.901-1.242-3.623-2.646C202.926,90.481,195.595,86,187.5,86
	c-8.507,0-16.229,5.033-19.671,12.823c-0.689,1.559-2.125,2.66-3.81,2.92c-1.687,0.262-3.387-0.356-4.514-1.635
	C156.083,96.227,151.161,94,146,94c-8.083,0-15.219,5.439-17.355,13.227c-0.426,1.553-1.573,2.805-3.082,3.365
	c-1.509,0.56-3.196,0.359-4.531-0.539C118.063,108.056,114.594,107,111,107c-8.953,0-16.617,6.679-17.827,15.534
	c-0.196,1.433-1.002,2.71-2.21,3.503c-1.208,0.795-2.702,1.025-4.093,0.635C85.279,126.226,83.641,126,82,126
	c-9.925,0-18,8.075-18,18c0,1.672,0.235,3.34,0.698,4.959c0.473,1.651,0.064,3.431-1.082,4.71c-1.146,1.28-2.869,1.878-4.562,1.595
	C58.024,155.089,56.997,155,56,155z M307.5,275.874c-2.761,0-5-2.238-5-5v-8c0-2.762,2.239-5,5-5s5,2.238,5,5v8
	C312.5,273.636,310.261,275.874,307.5,275.874z M259.5,275.874c-2.761,0-5-2.238-5-5v-8c0-2.762,2.239-5,5-5s5,2.238,5,5v8
	C264.5,273.636,262.261,275.874,259.5,275.874z M211.5,275.874c-2.761,0-5-2.238-5-5v-8c0-2.762,2.239-5,5-5s5,2.238,5,5v8
	C216.5,273.636,214.261,275.874,211.5,275.874z M163.5,275.874c-2.761,0-5-2.238-5-5v-8c0-2.762,2.239-5,5-5s5,2.238,5,5v8
	C168.5,273.636,166.261,275.874,163.5,275.874z M115.5,275.874c-2.761,0-5-2.238-5-5v-8c0-2.762,2.239-5,5-5s5,2.238,5,5v8
	C120.5,273.636,118.261,275.874,115.5,275.874z M67.5,275.874c-2.761,0-5-2.238-5-5v-8c0-2.762,2.239-5,5-5s5,2.238,5,5v8
	C72.5,273.636,70.261,275.874,67.5,275.874z M283.5,240.874c-2.761,0-5-2.238-5-5v-8c0-2.762,2.239-5,5-5s5,2.238,5,5v8
	C288.5,238.636,286.261,240.874,283.5,240.874z M235.5,240.874c-2.761,0-5-2.238-5-5v-8c0-2.762,2.239-5,5-5s5,2.238,5,5v8
	C240.5,238.636,238.261,240.874,235.5,240.874z M187.5,240.874c-2.761,0-5-2.238-5-5v-8c0-2.762,2.239-5,5-5s5,2.238,5,5v8
	C192.5,238.636,190.261,240.874,187.5,240.874z M139.5,240.874c-2.761,0-5-2.238-5-5v-8c0-2.762,2.239-5,5-5s5,2.238,5,5v8
	C144.5,238.636,142.261,240.874,139.5,240.874z M91.5,240.874c-2.761,0-5-2.238-5-5v-8c0-2.762,2.239-5,5-5s5,2.238,5,5v8
	C96.5,238.636,94.261,240.874,91.5,240.874z M211.5,202.874c-2.761,0-5-2.238-5-5v-8c0-2.762,2.239-5,5-5s5,2.238,5,5v8
	C216.5,200.636,214.261,202.874,211.5,202.874z M115.5,202.874c-2.761,0-5-2.238-5-5v-8c0-2.762,2.239-5,5-5s5,2.238,5,5v8
	C120.5,200.636,118.261,202.874,115.5,202.874z M259.5,200.874c-2.761,0-5-2.238-5-5v-8c0-2.762,2.239-5,5-5s5,2.238,5,5v8
	C264.5,198.636,262.261,200.874,259.5,200.874z M163.5,200.874c-2.761,0-5-2.238-5-5v-8c0-2.762,2.239-5,5-5s5,2.238,5,5v8
	C168.5,198.636,166.261,200.874,163.5,200.874z"/>
<g>
</g>
<g>
</g>
<g>
</g>
<g>
</g>
<g>
</g>
<g>
</g>
<g>
</g>
<g>
</g>
<g>
</g>
<g>
</g>
<g>
</g>
<g>
</g>
<g>
</g>
<g>
</g>
<g>
</g>
</svg>
