<?xml version="1.0" encoding="iso-8859-1"?>
<!-- Generator: Adobe Illustrator 17.1.0, SVG Export Plug-In . SVG Version: 6.00 Build 0)  -->
<!DOCTYPE svg PUBLIC "-//W3C//DTD SVG 1.1//EN" "http://www.w3.org/Graphics/SVG/1.1/DTD/svg11.dtd">
<svg version="1.1" id="Capa_1" xmlns="http://www.w3.org/2000/svg" xmlns:xlink="http://www.w3.org/1999/xlink" x="0px" y="0px"
	 viewBox="0 0 391.078 391.078" style="enable-background:new 0 0 391.078 391.078;" xml:space="preserve">
<path d="M137.041,391.078c-0.312,0-0.627-0.029-0.941-0.09c-0.727-0.139-18.008-3.518-35.075-12.885
	c-17.146-9.411-27.529-21.118-27.963-21.612c-1.224-1.394-1.576-3.35-0.915-5.082l5.961-15.622c0.053-0.138,0.111-0.272,0.174-0.402
	c-9.322-8.636-23.401-25.207-37.53-55.132c-12.904-27.335-18.032-51.83-15.24-72.806c0,0,0,0,0-0.001
	c0.14-1.048,0.307-2.872,0.483-4.802c0.306-3.328,0.621-6.769,1.003-8.767c0.36-1.883,0.715-4.02,1.125-6.493
	c3.136-18.903,8.973-54.088,38.897-90.513c25.345-30.85,40.742-38.866,54.327-45.938c7.933-4.129,14.784-7.696,22.776-15.611
	c19.388-19.198,21.693-29.829,21.862-30.761c0.059-1.486,0.772-2.743,1.962-3.648c1.207-0.918,2.761-1.104,4.231-0.736
	c3.379,0.844,20.426,5.538,24.215,15.145c1.841,4.668,1.409,8.593,1.123,11.19c-0.073,0.664-0.169,1.536-0.154,1.992
	c0.028,0.02,0.063,0.043,0.102,0.068c0.49,0.311,1.46,0.327,2.946,0.333c4.146-0.016,11.086-0.008,15.579,11.109
	c3.181,7.869,1.249,13.997-0.928,18.737c9.428,1.049,29.855,3.946,47.956,10.75c12.489,4.694,23.465,11.53,30.474,16.439
	c3.98,2.788,7.122,5.256,9.058,6.835c0.246,0.201,0.484,0.396,0.713,0.583c3.352-3.756,5.895-5.853,7.899-7.506
	c2.429-2.003,3.648-3.008,5.139-5.991c5.307-10.625,20.689-10.771,24.352-9.857c1.485,0.371,2.734,1.365,3.427,2.728
	c1.241,2.442,0.385,4.549-0.911,7.736c-2.053,5.048-6.324,15.551-4.811,30.042c1.366,13.066,7.262,26.744,12.463,38.813
	c3.325,7.714,6.466,15,7.979,21.189c4.901,20.039,15.1,61.737-2.029,105.688c-8.163,20.946-20.65,41.264-35.283,57.737
	c-0.272,0.412-0.603,0.779-0.978,1.091c-3.615,4.001-7.356,7.767-11.193,11.25c-27.32,24.799-58.883,36.223-93.784,33.961
	c-20.611-1.338-41.209-4.754-61.222-10.154c-0.578-0.156-1.146-0.331-1.702-0.524l-11.262,19.062
	C140.435,390.162,138.786,391.078,137.041,391.078z M82.618,352.017c3.612,3.589,11.832,11.071,23.217,17.32
	c11.38,6.246,23.138,9.65,28.758,11.053l8.076-13.669c-6.33-1.933-15.495-4.804-21.649-7.047
	c-17.623-6.423-32.179-15.981-32.79-16.385c-0.286-0.189-0.547-0.403-0.781-0.637c-0.3-0.191-0.635-0.412-1.004-0.662
	L82.618,352.017z M152.281,336.814c-4.037,2.893-5.431,7.419-5.285,11.189c0.185,4.763,2.887,10.528,9.918,12.426
	c19.373,5.228,39.313,8.535,59.264,9.83c5.777,0.374,11.403,0.314,16.86-0.139c2.036-3.31,8.646-14.871,12.678-31.442
	c-2.258-2.363-9.658-10.463-13.377-18.83c-4.003-9.007-5.5-12.853-5.563-13.012c-0.998-2.574,0.279-5.469,2.853-6.468
	c2.575-1,5.47,0.278,6.471,2.851c0.015,0.037,1.495,3.833,5.378,12.568c1.629,3.665,4.251,7.408,6.626,10.4
	c3.22-20.478,2.409-27.175,2.4-27.244c-0.44-2.726,1.417-5.256,4.144-5.697c2.715-0.442,5.298,1.449,5.739,4.175
	c0.139,0.854,1.223,9.081-3.147,34.862c-2.69,15.879-7.928,28.43-11.795,36.09c27.01-5.392,49.534-20.518,67.11-39.556
	c0.344-4.051,0.63-15.931-5.478-31.184c-8.114-20.266-12.174-29.498-12.214-29.589c-1.113-2.526,0.031-5.478,2.559-6.592
	c2.53-1.114,5.478,0.033,6.592,2.558c0.166,0.376,4.156,9.449,12.347,29.906c3.61,9.015,5.254,17.01,5.934,23.325
	c10.903-14.202,19.342-29.752,25.156-44.674c3.098-7.947,5.23-15.842,6.623-23.545c-2.865-3.186-8.894-11.329-13-26.933
	c-4.915-18.677-7.925-28.736-7.954-28.836c-0.793-2.645,0.708-5.432,3.353-6.226c2.643-0.791,5.433,0.708,6.226,3.353
	c0.03,0.101,3.082,10.3,8.046,29.164c1.571,5.97,3.439,10.635,5.206,14.18c1.724-25.727-3.719-47.976-6.864-60.838
	c-1.314-5.375-4.294-12.288-7.448-19.607c-5.485-12.725-11.701-27.147-13.226-41.731c-1.481-14.176,1.695-24.929,4.156-31.469
	c-2.941,0.563-6.093,1.788-7.322,4.249c-2.438,4.88-4.887,6.899-7.722,9.237c-2.533,2.089-5.687,4.689-10.522,10.958
	c-4.146,5.375-2.642,9.732,0.374,16.971c2.108,5.061,4.498,10.798,3.41,17.216c-1.963,11.579-9.782,11.953-14.454,12.177
	c-1.908,0.091-3.606,0.172-5.024,0.785c0.895,1.738,3.188,4.716,4.947,7.003c5.092,6.615,12.066,15.674,14.287,26.759
	c1.28,6.393,0.818,10.814-1.455,13.916c-2.718,3.709-6.901,4.163-9.956,4.495c-3.698,0.401-3.75,0.608-4.036,1.757
	c-1.737,6.957-0.895,12.478,0.272,20.119c0.503,3.293,1.072,7.026,1.496,11.318c0.692,7.012-0.928,12.724-4.816,16.976
	c-5.794,6.335-16.292,9.197-33.104,9.063c-13.677-0.144-24.925,2.902-31.965,5.463c-2.852,1.038-4.903,3.291-7.044,6.579
	c-13.271,27.684-31.929,47.507-54.12,57.027C161.587,333.962,157.013,335.503,152.281,336.814z M109.053,343.586
	c4.564,2.282,9.842,4.67,15.391,6.693c3.789,1.381,8.874,3.042,13.682,4.56c-0.65-2.034-1.034-4.196-1.121-6.448
	c-0.113-2.931,0.288-5.747,1.144-8.358C127.67,341.971,117.331,343.019,109.053,343.586z M57.894,291.724
	c16.468,29.304,31.18,40.078,34.968,42.513c6.21-0.073,32.834-0.737,55.357-6.688c1.325-0.783,2.749-1.45,4.263-1.987
	c6.866-2.436,13.182-5.372,18.771-8.729c20.531-12.328,30.005-29.185,36.273-40.339c1.063-1.893,1.982-3.527,2.871-4.989
	c0.267-0.438,0.538-0.876,0.815-1.311c3.873-8.177,7.265-17.101,10.119-26.702c11.257-37.851,4.629-51.287,1.443-57.744
	l-0.474-0.967c-0.771-1.597-2.935-4.38-5.225-7.327c-6.167-7.935-14.612-18.801-14.421-29.47
	c0.182-10.194,8.936-14.411,16.66-18.131c5.441-2.621,11.069-5.332,14.381-9.92c7.003-9.704-4.6-24.65-11.713-31.197
	c-3.034-2.792-6.055-4.522-8.975-6.196c-5.124-2.936-10.422-5.971-11.283-13.477c-0.546-4.76,1.43-8.747,3.173-12.265
	c2.181-4.401,3.903-7.877,1.817-13.037c-1.964-4.86-3.184-4.856-6.301-4.857c-2.25,0.003-5.336,0.003-8.319-1.894
	c-5.417-3.444-4.856-8.545-4.521-11.592c0.239-2.18,0.446-4.063-0.486-6.428c-1.064-2.699-7.12-5.757-12.766-7.73
	c-2.414,6.024-8.388,16.535-23.165,31.168c-9.069,8.98-16.902,13.058-25.195,17.375c-12.736,6.63-27.171,14.145-51.219,43.416
	c-28.225,34.356-33.566,66.561-36.759,85.802c-0.403,2.433-0.784,4.731-1.168,6.736c-0.291,1.518-0.61,5.001-0.866,7.8
	c-0.188,2.036-0.363,3.958-0.53,5.21c-2.132,16.021,0.955,34.578,9.182,55.294c-0.74-19.932,1.122-47.758,12.072-77.269
	c20.594-55.504,82.508-104.828,85.134-106.9c2.167-1.711,5.311-1.34,7.021,0.826c1.711,2.167,1.342,5.311-0.825,7.022
	c-0.584,0.461-55.104,43.913-77.958,92.993c8.496-0.484,24.368-2.216,33.714-8.396c4.252-2.811,7.892-5.334,11.104-7.56
	c8.018-5.558,13.811-9.574,21.291-12.727c2.547-1.072,5.477,0.121,6.55,2.666c1.072,2.544-0.121,5.477-2.665,6.549
	c-5.695,2.4-10.347,5.428-16.628,9.757l7.464,3.199c2.538,1.088,3.714,4.027,2.626,6.565c-1.088,2.538-4.027,3.714-6.565,2.626
	l-13.259-5.683c-1.391,0.944-2.854,1.926-4.401,2.949c-13.751,9.092-37.063,10.122-43.462,10.23
	c-5.838,15.926-8.868,31.447-10.256,45.35c7.896-8.569,19.86-18.867,30.866-17.729c8.028,0.828,15.343,4.896,22.415,8.829
	c7.468,4.153,14.505,8.073,21.548,7.839c2.756-0.085,5.072,2.069,5.165,4.829c0.093,2.76-2.069,5.073-4.829,5.166
	c-9.804,0.329-18.414-4.461-26.744-9.094c-2.327-1.294-4.607-2.563-6.853-3.686c0.344,5.351,1.225,13.499,3.479,19.696
	c3.642,10.014,14.015,22.356,14.119,22.48c1.781,2.109,1.518,5.263-0.591,7.046c-2.108,1.783-5.262,1.519-7.045-0.588
	c-0.473-0.559-11.625-13.816-15.882-25.521c-3.461-9.518-4.137-22.105-4.269-26.831c-0.515-0.092-1.027-0.165-1.539-0.218
	c-9.255-0.943-24.49,15.919-30.421,24.242c-0.122,0.17-0.252,0.331-0.39,0.481C54.249,275.449,57.654,290.683,57.894,291.724z
	 M211.75,68.464c0.405,1.87,1.824,2.874,6.231,5.399c3.081,1.765,6.915,3.962,10.775,7.515
	c12.501,11.505,23.419,30.039,13.051,44.407c-4.797,6.646-11.892,10.063-18.151,13.078c-7.599,3.66-10.936,5.646-11.001,9.3
	c-0.128,7.141,7.066,16.397,12.318,23.156c2.851,3.667,5.102,6.564,6.333,9.113l0.438,0.894c3.749,7.598,11.548,23.41-0.825,65.018
	c-1.182,3.971-2.451,7.835-3.809,11.59c7.816-2.502,18.886-4.956,31.924-4.853c13.371,0.134,21.994-1.833,25.632-5.812
	c1.224-1.338,2.787-3.751,2.245-9.245c-0.397-4.027-0.923-7.466-1.431-10.791c-1.24-8.128-2.313-15.147-0.09-24.05
	c2.027-8.124,8.944-8.874,12.66-9.277c0.938-0.102,2.474-0.269,2.99-0.519c0.124-0.317,0.535-1.793-0.305-5.986
	c-1.763-8.798-7.665-16.464-12.406-22.624c-4.649-6.04-8.01-10.404-7.293-15.188c0.231-1.549,1.025-3.763,3.489-5.513
	c3.976-2.823,8.225-3.026,11.327-3.175c4.202-0.201,4.454-0.213,5.072-3.859c0.604-3.57-1.04-7.519-2.782-11.7
	c-2.805-6.734-6.231-14.958-0.994-24.049c-5.158-4.296-19.897-15.758-37.649-22.431C241.021,71.916,219.23,69.225,211.75,68.464z
	 M298.144,97.053l1.421,0.743L298.144,97.053z"/>
<g>
</g>
<g>
</g>
<g>
</g>
<g>
</g>
<g>
</g>
<g>
</g>
<g>
</g>
<g>
</g>
<g>
</g>
<g>
</g>
<g>
</g>
<g>
</g>
<g>
</g>
<g>
</g>
<g>
</g>
</svg>
