<?xml version="1.0" encoding="iso-8859-1"?>
<!-- Generator: Adobe Illustrator 17.1.0, SVG Export Plug-In . SVG Version: 6.00 Build 0)  -->
<!DOCTYPE svg PUBLIC "-//W3C//DTD SVG 1.1//EN" "http://www.w3.org/Graphics/SVG/1.1/DTD/svg11.dtd">
<svg version="1.1" id="Capa_1" xmlns="http://www.w3.org/2000/svg" xmlns:xlink="http://www.w3.org/1999/xlink" x="0px" y="0px"
	 viewBox="0 0 325.926 325.926" style="enable-background:new 0 0 325.926 325.926;" xml:space="preserve">
<path d="M229.853,325.926H96.072c-2.314,0-4.325-1.587-4.863-3.838L62.01,199.885c-17.819-0.869-32.047-15.639-32.047-33.669v-0.58
	c0-13.857,8.27-26.026,20.875-31.181c2.929-15.146,10.07-39.13,26.754-49.747c11.508-7.323,26.419-8.839,40.84-10.306
	c14.851-1.51,28.879-2.937,37.624-10.301c8.128-6.845,12.634-16.313,12.362-25.977c-0.196-6.936-2.865-12.991-7.141-16.198
	c-11.008-8.256-21.224-11.151-21.326-11.179c-2.214-0.614-3.729-2.66-3.667-4.957c0.063-2.296,1.678-4.256,3.922-4.748
	c1.699-0.374,41.979-8.695,72.922,28.696c18.206,21.998,18.225,43.459,16.578,54.409c6.297-0.118,15.653,1.158,25.344,7.619
	c16.077,10.718,23.072,24.882,21.35,43.261c11.854,5.45,19.563,17.275,19.563,30.609v0.58c0,18.031-14.229,32.8-32.048,33.669
	l-29.198,122.203C234.179,324.338,232.167,325.926,229.853,325.926z M138.528,315.926h87.379l27.536-115.243H130.096
	L138.528,315.926z M118.149,315.926h10.352l-8.433-115.243H99.411L118.149,315.926z M100.019,315.926h8L89.28,200.683H72.482
	L100.019,315.926z M162.967,10.895c1.413,0.931,2.854,1.938,4.309,3.03c6.693,5.02,10.856,13.96,11.137,23.916
	c0.359,12.729-5.442,25.088-15.916,33.909c-11.105,9.351-27.346,11.003-43.053,12.6c-13.262,1.348-26.975,2.743-36.483,8.793
	c-15.082,9.598-20.966,35.292-22.796,45.894c-0.321,1.857-1.658,3.376-3.46,3.929c-10.014,3.074-16.742,12.184-16.742,22.668v0.58
	c0,13.074,10.636,23.71,23.71,23.71h198.58c13.073,0,23.71-10.636,23.71-23.71v-0.58c0-10.385-6.646-19.469-16.538-22.604
	c-2.377-0.753-3.836-3.143-3.419-5.602c0.115-0.679,0.221-1.37,0.305-2.088c1.79-15.215-3.551-26.417-16.808-35.255
	c-12.928-8.619-24.737-5.387-24.853-5.353c-1.801,0.513-3.739-0.021-5.022-1.388c-1.281-1.367-1.69-3.336-1.061-5.101
	c0.355-1.023,8.62-25.834-13.143-52.13C191.448,19.226,175.391,12.965,162.967,10.895z M98.732,171.926
	c-1.168,0-2.342-0.407-3.291-1.237c-2.078-1.818-2.289-4.977-0.47-7.055l7-8c1.817-2.079,4.977-2.29,7.055-0.47
	c2.078,1.818,2.289,4.977,0.47,7.055l-7,8C101.509,171.348,100.124,171.926,98.732,171.926z M189.739,164.927
	c-1.758,0-3.462-0.928-4.376-2.573l-5-9c-1.341-2.414-0.471-5.458,1.943-6.799c2.413-1.342,5.457-0.471,6.799,1.942l5,9
	c1.341,2.414,0.471,5.458-1.943,6.799C191.394,164.724,190.561,164.927,189.739,164.927z M145.741,163.926
	c-0.253,0-0.509-0.019-0.767-0.059c-2.729-0.42-4.602-2.973-4.182-5.702l2-13c0.42-2.729,2.974-4.6,5.702-4.182
	c2.729,0.42,4.602,2.973,4.182,5.702l-2,13C150.296,162.158,148.166,163.926,145.741,163.926z M256.739,160.927
	c-1.736,0-3.423-0.905-4.346-2.521l-4-7c-1.37-2.397-0.537-5.452,1.86-6.822c2.398-1.371,5.452-0.536,6.821,1.861l4,7
	c1.37,2.397,0.537,5.452-1.86,6.822C258.433,160.714,257.58,160.927,256.739,160.927z M219.738,153.927
	c-1.834,0-3.6-1.013-4.476-2.765l-6-12c-1.235-2.47-0.234-5.473,2.235-6.708c2.471-1.235,5.474-0.233,6.708,2.236l6,12
	c1.235,2.47,0.234,5.473-2.235,6.708C221.253,153.757,220.489,153.927,219.738,153.927z M91.734,140.926
	c-1.28,0-2.559-0.488-3.536-1.464c-1.953-1.953-1.953-5.119,0-7.071l6-6c1.953-1.952,5.118-1.952,7.071,0
	c1.953,1.953,1.953,5.119,0,7.071l-6,6C94.293,140.437,93.014,140.926,91.734,140.926z M138.731,124.927
	c-0.678,0-1.368-0.139-2.028-0.433c-2.523-1.121-3.66-4.076-2.538-6.6l4-9c1.121-2.523,4.075-3.662,6.6-2.538
	c2.523,1.121,3.66,4.076,2.538,6.6l-4,9C142.475,123.82,140.647,124.927,138.731,124.927z M177.74,117.926
	c-0.151,0-0.305-0.007-0.459-0.021c-2.75-0.25-4.776-2.682-4.526-5.432l1-11c0.25-2.75,2.678-4.777,5.433-4.527
	c2.75,0.25,4.776,2.682,4.526,5.432l-1,11C182.478,115.975,180.297,117.926,177.74,117.926z M217.73,115.926
	c-1.072,0-2.153-0.344-3.065-1.053l-9-7c-2.18-1.695-2.573-4.837-0.877-7.017c1.694-2.179,4.836-2.574,7.016-0.877l9,7
	c2.18,1.695,2.573,4.837,0.878,7.017C220.695,115.263,219.221,115.926,217.73,115.926z M100.731,105.927
	c-2.199,0-4.214-1.462-4.821-3.686c-0.727-2.664,0.844-5.413,3.508-6.139l11-3c2.664-0.726,5.413,0.844,6.139,3.508
	s-0.844,5.413-3.508,6.139l-11,3C101.609,105.87,101.167,105.927,100.731,105.927z"/>
<g>
</g>
<g>
</g>
<g>
</g>
<g>
</g>
<g>
</g>
<g>
</g>
<g>
</g>
<g>
</g>
<g>
</g>
<g>
</g>
<g>
</g>
<g>
</g>
<g>
</g>
<g>
</g>
<g>
</g>
</svg>
