<?xml version="1.0" encoding="iso-8859-1"?>
<!-- Generator: Adobe Illustrator 17.1.0, SVG Export Plug-In . SVG Version: 6.00 Build 0)  -->
<!DOCTYPE svg PUBLIC "-//W3C//DTD SVG 1.1//EN" "http://www.w3.org/Graphics/SVG/1.1/DTD/svg11.dtd">
<svg version="1.1" id="Capa_1" xmlns="http://www.w3.org/2000/svg" xmlns:xlink="http://www.w3.org/1999/xlink" x="0px" y="0px"
	 viewBox="0 0 342.001 342.001" style="enable-background:new 0 0 342.001 342.001;" xml:space="preserve">
<path d="M337.001,334.124H5c-2.761,0-5-2.239-5-5V172.862c-0.003-0.337,0.027-0.667,0.089-0.989c0-0.002,0.001-0.005,0.001-0.006
	c0.173-0.898,0.586-1.711,1.171-2.369c0.375-0.423,0.823-0.784,1.328-1.062c0.002-0.001,0.006-0.003,0.008-0.004
	c0.488-0.268,1.025-0.457,1.595-0.549l183.46-33.356c-2.996-5.772-4.689-12.323-4.689-19.263c0-21.252,15.883-38.865,36.402-41.59
	c0.211-7.69,1.004-17.064,3.091-26.715c5.112-23.645,19.02-37.136,19.609-37.699c1.997-1.908,5.161-1.832,7.069,0.164
	c1.903,1.995,1.833,5.153-0.155,7.061c-0.171,0.166-12.324,12.119-16.75,32.587c-1.89,8.74-2.626,17.347-2.837,24.472
	c21.04,2.24,37.483,20.096,37.483,41.719c0,1.661-0.097,3.3-0.286,4.911l4.085-0.743c0.755-0.137,1.531-0.099,2.269,0.112
	c0.728,0.208,18.038,5.25,36.722,18.951c0,0,0,0,0,0c18.278,13.405,30.454,30.098,31.365,31.364
	c0.593,0.806,0.949,1.795,0.969,2.868c0,0.003,0,0.006,0,0.009c0,0,0,0.001,0,0.002c0.001,0.031,0.001,0.063,0.001,0.094v156.292
	C342.001,331.886,339.762,334.124,337.001,334.124z M10,324.124h322v-12H10V324.124z M10,302.124h322v-16.708
	c-1.354,0.16-2.718,0.241-4.088,0.241c-8.265,0-16.191-2.95-22.416-8.227c-6.226,5.277-14.152,8.227-22.416,8.227
	c-8.265,0-16.191-2.95-22.416-8.227c-6.227,5.277-14.152,8.227-22.416,8.227c-8.265,0-16.191-2.95-22.416-8.227
	c-6.226,5.277-14.152,8.227-22.416,8.227c-8.265,0-16.191-2.95-22.416-8.227c-6.227,5.277-14.152,8.227-22.417,8.227
	c-8.265,0-16.19-2.949-22.416-8.227c-6.226,5.277-14.151,8.227-22.416,8.227s-16.19-2.949-22.416-8.227
	c-6.226,5.277-14.151,8.227-22.416,8.227s-16.19-2.949-22.416-8.227c-6.226,5.277-14.151,8.227-22.416,8.227
	c-1.37,0-2.735-0.081-4.088-0.241V302.124z M305.497,265.421L305.497,265.421c1.448,0,2.826,0.628,3.775,1.722
	c4.698,5.411,11.492,8.514,18.641,8.514c1.375,0,2.741-0.114,4.088-0.339v-48.693c-1.347-0.226-2.713-0.339-4.088-0.339
	c-7.147,0-13.942,3.104-18.641,8.514c-0.95,1.094-2.327,1.722-3.775,1.722s-2.825-0.628-3.774-1.721
	c-4.7-5.411-11.495-8.515-18.642-8.515c-7.147,0-13.942,3.104-18.641,8.514c-0.95,1.094-2.327,1.722-3.775,1.722
	s-2.825-0.628-3.775-1.721c-4.699-5.411-11.494-8.515-18.641-8.515c-7.147,0-13.942,3.104-18.641,8.514
	c-0.95,1.094-2.327,1.722-3.775,1.722s-2.825-0.628-3.775-1.721c-4.699-5.411-11.494-8.515-18.641-8.515
	c-7.147,0-13.942,3.104-18.641,8.514c-0.95,1.094-2.327,1.722-3.775,1.722s-2.825-0.628-3.774-1.721
	c-4.7-5.411-11.495-8.515-18.642-8.515s-13.941,3.104-18.641,8.514c-0.95,1.094-2.327,1.722-3.775,1.722s-2.825-0.628-3.775-1.722
	c-4.7-5.411-11.494-8.514-18.641-8.514c-7.147,0-13.941,3.104-18.641,8.514c-0.95,1.094-2.327,1.722-3.775,1.722
	s-2.825-0.628-3.775-1.722c-4.7-5.411-11.494-8.514-18.641-8.514c-7.147,0-13.941,3.104-18.641,8.514
	c-0.95,1.094-2.327,1.722-3.775,1.722s-2.825-0.628-3.775-1.722c-4.7-5.411-11.494-8.514-18.641-8.514
	c-1.375,0-2.741,0.114-4.088,0.339v48.693c1.347,0.226,2.713,0.339,4.088,0.339c7.147,0,13.942-3.104,18.641-8.514
	c0.95-1.094,2.327-1.722,3.775-1.722s2.826,0.628,3.775,1.722c4.699,5.411,11.493,8.514,18.641,8.514s13.942-3.104,18.641-8.514
	c0.95-1.094,2.327-1.722,3.775-1.722s2.826,0.628,3.775,1.722c4.699,5.411,11.493,8.514,18.641,8.514s13.942-3.104,18.641-8.514
	c0.95-1.094,2.327-1.722,3.775-1.722s2.826,0.628,3.775,1.722c4.699,5.411,11.493,8.514,18.641,8.514
	c7.147,0,13.942-3.104,18.641-8.515c0.95-1.093,2.327-1.721,3.775-1.721l0,0c1.448,0,2.826,0.628,3.775,1.722
	c4.698,5.411,11.492,8.514,18.641,8.514c7.147,0,13.941-3.104,18.641-8.515c0.95-1.093,2.327-1.721,3.775-1.721l0,0
	c1.448,0,2.826,0.628,3.775,1.722c4.698,5.411,11.492,8.514,18.641,8.514c7.147,0,13.941-3.104,18.641-8.515
	c0.95-1.093,2.327-1.721,3.775-1.721l0,0c1.448,0,2.826,0.628,3.775,1.722c4.698,5.411,11.492,8.514,18.641,8.514
	c7.147,0,13.941-3.104,18.641-8.515C302.672,266.049,304.049,265.421,305.497,265.421z M58.92,216.285
	c8.264,0,16.19,2.95,22.416,8.227c6.226-5.277,14.152-8.227,22.416-8.227s16.19,2.95,22.416,8.227
	c6.226-5.277,14.152-8.227,22.416-8.227s16.19,2.95,22.417,8.227c6.226-5.277,14.151-8.227,22.416-8.227
	c8.264,0,16.189,2.95,22.416,8.227c6.226-5.278,14.151-8.227,22.416-8.227c8.264,0,16.189,2.95,22.416,8.227
	c6.226-5.277,14.151-8.227,22.416-8.227c8.264,0,16.189,2.95,22.416,8.227c6.226-5.278,14.151-8.227,22.416-8.227
	c1.37,0,2.734,0.081,4.088,0.241v-16.401H10v16.401c1.353-0.16,2.718-0.241,4.088-0.241c8.264,0,16.19,2.95,22.416,8.227
	C42.73,219.235,50.656,216.285,58.92,216.285z M10,190.124h322v-12.307H10V190.124z M60.451,167.818h266.083
	c-5.147-5.912-13.106-14.164-22.783-21.26c-14.72-10.794-28.63-15.801-32.498-17.067l-6.877,1.25
	c-5.948,16.454-21.739,27.69-39.457,27.69c-12.266,0-23.968-5.448-31.9-14.716L60.451,167.818z M219.398,83.785
	c-14.999,2.623-26.435,15.74-26.435,31.479c0,17.621,14.335,31.956,31.956,31.956s31.957-14.335,31.957-31.956
	c0-16.095-11.962-29.448-27.461-31.641c0.157,4.569,0.464,7.373,0.472,7.448c0.311,2.743-1.66,5.22-4.403,5.531
	c-2.741,0.311-5.219-1.657-5.532-4.399C219.914,91.871,219.569,88.747,219.398,83.785z"/>
<g>
</g>
<g>
</g>
<g>
</g>
<g>
</g>
<g>
</g>
<g>
</g>
<g>
</g>
<g>
</g>
<g>
</g>
<g>
</g>
<g>
</g>
<g>
</g>
<g>
</g>
<g>
</g>
<g>
</g>
</svg>
