<?xml version="1.0" encoding="iso-8859-1"?>
<!-- Generator: Adobe Illustrator 17.1.0, SVG Export Plug-In . SVG Version: 6.00 Build 0)  -->
<!DOCTYPE svg PUBLIC "-//W3C//DTD SVG 1.1//EN" "http://www.w3.org/Graphics/SVG/1.1/DTD/svg11.dtd">
<svg version="1.1" id="Capa_1" xmlns="http://www.w3.org/2000/svg" xmlns:xlink="http://www.w3.org/1999/xlink" x="0px" y="0px"
	 viewBox="0 0 374.99 374.99" style="enable-background:new 0 0 374.99 374.99;" xml:space="preserve">
<path d="M108.783,374.99c-0.152,0-0.305-0.003-0.459-0.01c-12.016-0.503-19.981-3.271-23.676-8.224
	c-2.826-3.789-3.558-7.554-4.203-10.877c-0.768-3.953-1.493-7.686-5.727-12.731c-4.109-4.897-9.162-7.3-14.512-9.845
	c-3.217-1.53-6.543-3.112-9.503-5.25c-0.216-0.156-0.419-0.329-0.607-0.517l-0.12-0.12c-7.771-6-10.2-12.364-12.156-17.488
	c-1.443-3.779-2.582-6.763-5.608-9.288c-5.06-4.222-8.792-4.952-12.744-5.726c-3.321-0.65-7.086-1.387-10.875-4.213
	c-4.953-3.694-7.72-11.659-8.225-23.675c-0.17-4.072,1.933-7.85,5.49-9.86c10.818-6.116,31.016-16.271,44.713-15.634
	c11.492,0.542,22.597,6.367,31.52,11.046c4.411,2.313,8.577,4.498,11.379,5.238c2.974,0.786,7.192,0.852,11.97,0.224
	c-25.69-33.485-16.116-89.404,23.572-129.093c20.312-20.312,45.436-33.456,70.745-37.011c22.377-3.144,42.604,1.494,57.929,13.106
	c0.622-4.763,0.554-8.964-0.229-11.93c-0.74-2.802-2.925-6.968-5.238-11.379c-4.68-8.923-10.504-20.028-11.046-31.52
	c-0.646-13.701,9.518-33.895,15.634-44.713c2.012-3.557,5.808-5.656,9.859-5.49c12.017,0.505,19.982,3.272,23.676,8.225
	c2.825,3.788,3.557,7.554,4.203,10.876c0.768,3.953,1.494,7.686,5.728,12.732c4.108,4.896,9.162,7.3,14.511,9.844
	c3.217,1.53,6.543,3.112,9.503,5.25c0.216,0.156,0.419,0.329,0.607,0.517l0.12,0.12c7.77,6.001,10.199,12.363,12.156,17.488
	c1.442,3.779,2.582,6.763,5.608,9.288c5.06,4.222,8.792,4.952,12.744,5.726c3.321,0.65,7.085,1.387,10.875,4.213
	c4.954,3.695,7.721,11.66,8.224,23.675c0.171,4.071-1.932,7.849-5.49,9.86c-10.816,6.116-30.994,16.268-44.712,15.635
	c-11.492-0.543-22.596-6.367-31.52-11.046c-4.411-2.313-8.577-4.499-11.38-5.238c-2.938-0.776-7.087-0.85-11.792-0.248
	c25.985,33.45,16.474,89.588-23.336,129.398c-39.684,39.684-95.595,49.258-129.083,23.581c-0.628,4.78-0.562,8.997,0.224,11.972
	c0.74,2.803,2.925,6.969,5.238,11.38c4.68,8.923,10.503,20.028,11.046,31.52c0.646,13.702-9.519,33.896-15.635,44.713
	C116.248,372.913,112.677,374.99,108.783,374.99z M56.869,320.166c2.167,1.507,4.826,2.771,7.633,4.106
	c5.798,2.757,12.369,5.883,17.877,12.448c5.896,7.027,6.998,12.696,7.883,17.252c0.547,2.814,0.942,4.847,2.402,6.806
	c1.356,1.817,6.854,3.825,16.079,4.211c0.306,0.015,0.583-0.148,0.736-0.42c3.509-6.206,14.914-27.381,14.351-39.319
	c-0.438-9.28-5.691-19.297-9.913-27.347c-2.695-5.139-5.023-9.578-6.051-13.472c-0.28-1.063-0.493-2.158-0.648-3.273
	c-1.748,3.99-3.328,8.674-3.893,13.422c-1.564,13.139-0.027,24.611-0.012,24.725c0.375,2.734-1.536,5.258-4.27,5.635
	c-2.728,0.374-5.256-1.529-5.636-4.263c-0.071-0.516-1.735-12.805-0.012-27.279c0.508-4.271,1.648-8.427,3.031-12.203
	c-4.762,1.889-10.322,3.153-16.372,2.784c-16.519-1.011-34.965-4.935-35.742-5.102c-2.7-0.579-4.419-3.236-3.841-5.937
	c0.578-2.7,3.235-4.419,5.936-3.842c0.183,0.039,18.504,3.934,34.258,4.898c7.483,0.46,14.167-2.596,18.753-5.526
	c-2.895-0.001-5.806-0.278-8.5-0.989c-3.895-1.028-8.333-3.355-13.471-6.051c-8.049-4.222-18.067-9.476-27.347-9.913
	c-11.923-0.572-33.113,10.841-39.319,14.35c-0.272,0.154-0.433,0.436-0.42,0.736c0.388,9.225,2.395,14.723,4.212,16.078
	c1.965,1.466,4,1.864,6.817,2.416c4.544,0.89,10.201,1.997,17.229,7.861c5.031,4.198,6.897,9.086,8.544,13.4
	c1.837,4.812,3.423,8.967,9.138,13.302c0.181,0.137,0.353,0.287,0.514,0.448L56.869,320.166z M147.001,272.704
	c28.606,6.177,64.623-5.752,92.32-33.45c18.786-18.786,30.924-41.893,34.18-65.064c1.609-11.456,0.938-22.225-1.879-31.829
	c-0.033,4.489-0.507,8.984-1.688,13.074c-4.953,17.145-5.146,17.338-6.215,18.409c-1.952,1.953-5.118,1.956-7.071,0.005
	c-1.525-1.523-1.861-3.787-1.007-5.636c0.192-0.523,1.143-3.29,4.686-15.553c2.546-8.813,0.918-20.624-0.722-28.442l-28.416,28.416
	c-1.953,1.952-5.118,1.952-7.071,0c-1.953-1.953-1.953-5.119,0-7.071l29.655-29.655c-7.448-1.78-21.552-4.363-31.646-1.447
	c-13.918,4.021-15.963,4.649-16.218,4.729c-2.524,0.848-5.292-0.437-6.257-2.947c-0.991-2.578,0.296-5.471,2.874-6.461
	c0.212-0.082,0.71-0.273,16.826-4.929c3.678-1.063,7.686-1.553,11.72-1.664c-9.116-2.369-19.219-2.858-29.924-1.353
	c-23.172,3.255-46.279,15.394-65.064,34.18c-29.943,29.943-41.457,69.611-31.588,99.127c-0.072-4.991,0.367-10.047,1.682-14.601
	c4.954-17.147,5.147-17.34,6.218-18.412c1.953-1.952,5.118-1.952,7.071,0c1.523,1.523,1.858,3.785,1.004,5.633
	c-0.192,0.522-1.142,3.286-4.686,15.554c-2.546,8.812-0.918,20.623,0.722,28.441l28.416-28.415c1.954-1.952,5.119-1.952,7.071,0
	c1.953,1.953,1.953,5.119,0,7.071l-29.655,29.655c7.448,1.78,21.551,4.364,31.646,1.447c13.921-4.021,15.964-4.649,16.217-4.729
	c2.521-0.85,5.29,0.435,6.256,2.943c0.993,2.577-0.291,5.47-2.868,6.463c-0.231,0.089-0.712,0.275-16.83,4.931
	C153.679,272.016,150.366,272.504,147.001,272.704z M283.149,107.281c0.311,0.069,0.619,0.145,0.924,0.225
	c3.895,1.028,8.333,3.356,13.472,6.051c8.049,4.222,18.067,9.475,27.347,9.913c11.942,0.581,33.114-10.841,39.319-14.351
	c0.271-0.153,0.433-0.435,0.42-0.735c-0.387-9.226-2.394-14.723-4.211-16.079c-1.965-1.466-4-1.864-6.817-2.416
	c-4.545-0.89-10.201-1.997-17.229-7.861c-5.032-4.198-6.898-9.087-8.545-13.4c-1.837-4.812-3.423-8.967-9.137-13.302
	c-0.181-0.137-0.353-0.287-0.514-0.448l-0.055-0.055c-2.167-1.507-4.826-2.771-7.633-4.106c-5.798-2.757-12.369-5.883-17.877-12.447
	c-5.896-7.027-6.998-12.697-7.883-17.252c-0.547-2.814-0.942-4.847-2.402-6.806c-1.355-1.817-6.853-3.824-16.079-4.212
	c-0.29-0.011-0.582,0.149-0.736,0.421c-3.508,6.206-14.914,27.382-14.35,39.319c0.438,9.28,5.691,19.298,9.913,27.347
	c2.695,5.139,5.022,9.577,6.051,13.471c0.158,0.601,0.295,1.212,0.413,1.831c1.68-5.04,2.925-10.461,2.822-15.293
	c-0.343-16.109,2.987-30.629,3.129-31.239c0.626-2.689,3.312-4.362,6.003-3.737c2.688,0.625,4.362,3.312,3.738,6l0,0
	c-0.032,0.138-3.187,13.953-2.872,28.763c0.16,7.531-2.157,15.829-4.82,22.792c6.739-3.146,15.045-5.636,23.405-4.651
	c14.665,1.728,26.266-6.92,26.381-7.008c2.195-1.665,5.329-1.245,7.001,0.945c1.671,2.189,1.265,5.313-0.918,6.992
	c-0.597,0.458-14.831,11.213-33.632,9.002C292.839,104.374,287.74,105.514,283.149,107.281z"/>
<g>
</g>
<g>
</g>
<g>
</g>
<g>
</g>
<g>
</g>
<g>
</g>
<g>
</g>
<g>
</g>
<g>
</g>
<g>
</g>
<g>
</g>
<g>
</g>
<g>
</g>
<g>
</g>
<g>
</g>
</svg>
