<?xml version="1.0" encoding="iso-8859-1"?>
<!-- Generator: Adobe Illustrator 17.1.0, SVG Export Plug-In . SVG Version: 6.00 Build 0)  -->
<!DOCTYPE svg PUBLIC "-//W3C//DTD SVG 1.1//EN" "http://www.w3.org/Graphics/SVG/1.1/DTD/svg11.dtd">
<svg version="1.1" id="Capa_1" xmlns="http://www.w3.org/2000/svg" xmlns:xlink="http://www.w3.org/1999/xlink" x="0px" y="0px"
	 viewBox="0 0 319.475 319.475" style="enable-background:new 0 0 319.475 319.475;" xml:space="preserve">
<path d="M5,319.45c-1.28,0-2.559-0.488-3.536-1.465c-1.953-1.952-1.953-5.118,0-7.07l130.188-130.188
	c-13.093-14.334-21.925-31.618-25.854-50.303c-0.046-0.173-0.083-0.349-0.109-0.527c-1.463-7.135-2.213-14.471-2.213-21.922
	c0-28.848,11.234-55.97,31.632-76.367c42.109-42.109,110.626-42.109,152.735,0c20.398,20.397,31.632,47.52,31.632,76.367
	s-11.234,55.97-31.632,76.367c-40.925,40.924-106.792,42.075-149.119,3.455L8.536,317.985C7.559,318.962,6.28,319.45,5,319.45z
	 M142.179,177.271c38.21,38.209,100.383,38.209,138.593,0c18.51-18.51,28.704-43.12,28.704-69.297s-10.194-50.787-28.704-69.297
	c-38.21-38.209-100.383-38.209-138.593,0c-12.442,12.442-21.126,27.639-25.483,44.216c16.912-33.221,51.447-56.029,91.21-56.029
	c45.667,0,82.82,37.153,82.82,82.82c0,36.742-30.45,66.634-67.878,66.634c-30.219,0-54.805-24.586-54.805-54.806
	c0-24.727,20.117-44.844,44.844-44.844c20.333,0,36.875,16.542,36.875,36.875c0,16.818-13.682,30.501-30.5,30.501
	c-14.005,0-25.4-11.395-25.4-25.4c0-11.756,9.564-21.32,21.32-21.32c9.956,0,18.056,8.101,18.056,18.057c0,2.762-2.239,5-5,5
	s-5-2.238-5-5c0-4.442-3.614-8.057-8.056-8.057c-6.242,0-11.32,5.078-11.32,11.32c0,8.492,6.908,15.4,15.4,15.4
	c11.304,0,20.5-9.196,20.5-20.501c0-14.819-12.056-26.875-26.875-26.875c-19.213,0-34.844,15.631-34.844,34.844
	c0,24.706,20.099,44.806,44.805,44.806c31.914,0,57.878-25.406,57.878-56.634c0-40.153-32.667-72.82-72.82-72.82
	c-50.694,0-91.972,41.094-92.273,91.719C119.532,146.896,128.626,163.719,142.179,177.271z"/>
<g>
</g>
<g>
</g>
<g>
</g>
<g>
</g>
<g>
</g>
<g>
</g>
<g>
</g>
<g>
</g>
<g>
</g>
<g>
</g>
<g>
</g>
<g>
</g>
<g>
</g>
<g>
</g>
<g>
</g>
</svg>
