<?xml version="1.0" encoding="iso-8859-1"?>
<!-- Generator: Adobe Illustrator 17.1.0, SVG Export Plug-In . SVG Version: 6.00 Build 0)  -->
<!DOCTYPE svg PUBLIC "-//W3C//DTD SVG 1.1//EN" "http://www.w3.org/Graphics/SVG/1.1/DTD/svg11.dtd">
<svg version="1.1" id="Capa_1" xmlns="http://www.w3.org/2000/svg" xmlns:xlink="http://www.w3.org/1999/xlink" x="0px" y="0px"
	 viewBox="0 0 348.763 348.763" style="enable-background:new 0 0 348.763 348.763;" xml:space="preserve">
<path d="M174.381,301.733C76.598,301.733,0,269.283,0,227.858c0-0.406,0.009-0.811,0.023-1.215C0.008,226.483,0,226.322,0,226.159
	V121.255c0-0.033,0-0.065,0.001-0.098C0,121.074,0,120.988,0,120.905C0,79.479,76.598,47.03,174.382,47.03
	c97.783,0,174.381,32.45,174.381,73.875c0,0.083,0,0.169-0.001,0.252c0.001,0.033,0.001,0.065,0.001,0.098v104.904
	c0,0.165-0.008,0.327-0.023,0.488c0.016,0.403,0.023,0.807,0.023,1.211C348.763,269.283,272.165,301.733,174.381,301.733z
	 M10,225.462c0.048,0.326,0.063,0.657,0.044,0.991C10.017,226.92,10,227.388,10,227.858c0,34.624,75.277,63.875,164.381,63.875
	c89.104,0,164.382-29.251,164.382-63.875c0-0.47-0.017-0.938-0.044-1.405c-0.021-0.343-0.005-0.684,0.044-1.018v-79.206
	c-23.798,28.688-87.599,48.742-164.382,48.742c-76.782,0-140.583-20.054-164.381-48.742V225.462z M10.009,121.555
	c0.938,34.338,75.829,63.225,164.373,63.225s163.434-28.886,164.372-63.225c0.002-0.109,0.003-0.218,0.004-0.328
	c0-0.062,0.002-0.123,0.005-0.185c0-0.046,0-0.092,0-0.138c0-34.624-75.277-63.875-164.381-63.875
	C85.277,57.03,10,86.281,10,120.905c0,0.046,0,0.092,0,0.139c0.003,0.061,0.005,0.123,0.005,0.184
	C10.006,121.337,10.007,121.446,10.009,121.555z M129.723,266.831c-1.03,0-2.069-0.317-2.962-0.975
	c-2.224-1.638-2.697-4.768-1.06-6.991l12.942-17.565l-12.942-17.565c-1.638-2.223-1.164-5.353,1.06-6.991
	c2.223-1.638,5.354-1.164,6.991,1.06l11.271,15.298c6.394-4.654,19.333-12.199,36.03-12.199c23.538,0,40.6,15.004,41.314,15.644
	c1.381,1.234,1.915,3.063,1.563,4.754c0.353,1.692-0.182,3.521-1.563,4.755c-0.715,0.639-17.776,15.644-41.314,15.644
	c-16.697,0-29.637-7.545-36.03-12.199l-11.271,15.298C132.771,266.126,131.257,266.831,129.723,266.831z M150.782,241.299
	c5.203,3.79,16.283,10.398,30.271,10.398c14.048,0,25.559-6.553,31.094-10.389c-5.559-3.834-17.124-10.407-31.094-10.407
	C167.069,230.901,155.991,237.506,150.782,241.299z M174.382,179.765c-40.267,0-78.196-5.745-106.801-16.176
	c-30.19-11.009-46.816-26.287-46.816-43.019s16.626-32.01,46.816-43.019c28.604-10.432,66.534-16.176,106.801-16.176
	s78.195,5.745,106.801,16.176c30.189,11.009,46.815,26.287,46.815,43.019s-16.626,32.01-46.815,43.019
	C252.577,174.02,214.648,179.765,174.382,179.765z M152.29,71.972c-30.714,1.678-59.004,6.849-81.283,14.974
	c-25.574,9.326-40.242,21.582-40.242,33.625c0,12.042,14.668,24.298,40.242,33.624c27.534,10.041,64.247,15.571,103.375,15.571
	c39.127,0,75.84-5.53,103.374-15.571c25.574-9.326,40.242-21.582,40.242-33.624c0-12.043-14.668-24.298-40.242-33.625
	c-21.626-7.886-48.911-12.99-78.583-14.817c0.038,0.1,0.076,0.2,0.112,0.301l8.685,23.88v0c1.679,4.619,0.998,9.78-1.822,13.805
	c-2.819,4.025-7.437,6.428-12.351,6.428h-34.744c-4.823,0-9.237-2.222-12.111-6.095c-2.873-3.874-3.719-8.743-2.32-13.358
	l7.236-23.879C151.985,72.788,152.13,72.375,152.29,71.972z M166.289,72.503c-2.254,0-4.208,1.449-4.861,3.606l-7.236,23.88
	c-0.472,1.555-0.187,3.195,0.781,4.5c0.969,1.305,2.455,2.053,4.08,2.053h34.744c1.68,0,3.196-0.789,4.16-2.166
	c0.965-1.376,1.188-3.072,0.614-4.651l-8.684-23.879c-0.728-2-2.646-3.344-4.774-3.344H166.289z M185.235,100.841
	c-0.011,0-0.021,0-0.03,0l-18.067-0.107c-2.762-0.017-4.987-2.269-4.971-5.03c0.017-2.751,2.252-4.97,4.999-4.97
	c0.011,0,0.021,0,0.03,0l18.067,0.107c2.762,0.017,4.987,2.269,4.971,5.03C190.218,98.622,187.982,100.841,185.235,100.841z"/>
<g>
</g>
<g>
</g>
<g>
</g>
<g>
</g>
<g>
</g>
<g>
</g>
<g>
</g>
<g>
</g>
<g>
</g>
<g>
</g>
<g>
</g>
<g>
</g>
<g>
</g>
<g>
</g>
<g>
</g>
</svg>
