<?xml version="1.0" encoding="iso-8859-1"?>
<!-- Generator: Adobe Illustrator 17.1.0, SVG Export Plug-In . SVG Version: 6.00 Build 0)  -->
<!DOCTYPE svg PUBLIC "-//W3C//DTD SVG 1.1//EN" "http://www.w3.org/Graphics/SVG/1.1/DTD/svg11.dtd">
<svg version="1.1" id="Capa_1" xmlns="http://www.w3.org/2000/svg" xmlns:xlink="http://www.w3.org/1999/xlink" x="0px" y="0px"
	 viewBox="0 0 333.167 333.167" style="enable-background:new 0 0 333.167 333.167;" xml:space="preserve">
<path d="M224,333.167H109.166c-30.648,0-55.583-24.935-55.583-55.583V128.667c0-24.453,12.335-49.175,30.708-61.572l35.792-27.04V28
	h-3.643c-3.781,0-6.857-3.012-6.857-6.714V6.714c0-3.702,3.076-6.714,6.857-6.714h100.285c3.781,0,6.857,3.012,6.857,6.714v14.572
	c0,3.702-3.076,6.714-6.857,6.714h-3.643v12.055l35.792,27.04c18.373,12.397,30.708,37.119,30.708,61.572v148.917
	C279.583,308.232,254.649,333.167,224,333.167z M74.217,92.167c-6.628,10.656-10.634,23.755-10.634,36.5v148.917
	c0,25.135,20.448,45.583,45.583,45.583H224c25.135,0,45.583-20.449,45.583-45.583v-14.5H102.972c-2.762,0-5-2.239-5-5v-128
	c0-2.761,2.238-5,5-5h166.507c-0.668-11.59-4.521-23.257-10.529-32.917H74.217z M107.972,253.083h161.611V206h-135
	c-2.762,0-5-2.239-5-5s2.238-5,5-5h135v-12h-135c-2.762,0-5-2.239-5-5s2.238-5,5-5h135v-12h-135c-2.762,0-5-2.239-5-5s2.238-5,5-5
	h135v-16.917H107.972V253.083z M81.916,82.167H251.25c-2.505-2.621-5.206-4.929-8.066-6.848c-0.077-0.052-0.153-0.106-0.228-0.162
	l-37.05-27.99H127.26l-37.05,27.99c-0.074,0.056-0.15,0.11-0.228,0.162C87.122,77.238,84.421,79.546,81.916,82.167z M130.083,37.167
	h73v-8.857h-73V37.167z M119.583,18h94v-8h-94V18z"/>
<g>
</g>
<g>
</g>
<g>
</g>
<g>
</g>
<g>
</g>
<g>
</g>
<g>
</g>
<g>
</g>
<g>
</g>
<g>
</g>
<g>
</g>
<g>
</g>
<g>
</g>
<g>
</g>
<g>
</g>
</svg>
