<?xml version="1.0" encoding="iso-8859-1"?>
<!-- Generator: Adobe Illustrator 17.1.0, SVG Export Plug-In . SVG Version: 6.00 Build 0)  -->
<!DOCTYPE svg PUBLIC "-//W3C//DTD SVG 1.1//EN" "http://www.w3.org/Graphics/SVG/1.1/DTD/svg11.dtd">
<svg version="1.1" id="Capa_1" xmlns="http://www.w3.org/2000/svg" xmlns:xlink="http://www.w3.org/1999/xlink" x="0px" y="0px"
	 viewBox="0 0 370.408 370.408" style="enable-background:new 0 0 370.408 370.408;" xml:space="preserve">
<path d="M10.859,369.091c-4.12,0-6.966-0.777-8.523-2.334c-4.337-4.338-2.627-18.68,5.082-42.63
	c10.757-33.418,27.743-73.107,44.33-103.579c16.402-30.131,49.038-63.8,69.841-72.05c15.726-6.242,35.199,6.477,44.872,14.084
	c0.186-0.244,0.396-0.475,0.633-0.688c0.404-0.364,40.482-36.81,45.682-63.464c5.114-26.223-3.073-41.576-3.156-41.729
	c-1.321-2.412-0.454-5.451,1.95-6.786c2.406-1.334,5.43-0.491,6.778,1.906c0.415,0.738,10.112,18.431,4.242,48.522
	c-5.759,29.526-45.949,66.393-48.704,68.891l1.068,1.176c4.738-3.893,48.621-40.512,64.607-73.814
	C256.3,61.728,252.925,7.194,252.889,6.647c-0.182-2.755,1.904-5.137,4.659-5.318c2.772-0.189,5.136,1.902,5.319,4.657
	c0.155,2.338,3.595,57.679-14.291,94.938c-16.716,34.821-59.964,71.21-66.887,76.897l2.34,2.573L333.031,31.394
	c1.951-1.953,5.119-1.953,7.07,0c1.953,1.952,1.953,5.118,0,7.07L191.215,187.352l2.803,2.547
	c6.042-7.34,42.187-50.141,76.783-66.749c37.261-17.888,92.602-14.447,94.938-14.292c2.755,0.183,4.84,2.564,4.657,5.319
	c-0.182,2.755-2.555,4.825-5.318,4.659c-0.546-0.038-55.08-3.41-89.949,13.329c-33.057,15.868-69.318,59.146-73.71,64.481
	c0.135,0.143,0.515,0.548,1.08,1.183c2.585-2.849,39.395-42.942,68.882-48.693c30.091-5.874,47.784,3.828,48.523,4.243
	c2.406,1.355,3.259,4.404,1.904,6.811c-1.351,2.398-4.386,3.254-6.787,1.917c-0.237-0.129-15.575-8.256-41.727-3.156
	c-26.686,5.206-63.099,45.276-63.464,45.681c-0.33,0.366-0.703,0.673-1.104,0.918c7.575,10.318,17.526,27.682,11.865,41.954
	c-8.252,20.804-41.92,53.439-72.05,69.841c-30.468,16.585-70.156,33.571-103.579,44.33
	C29.615,366.615,18.211,369.091,10.859,369.091z M9.986,359.104c2.395,0.103,7.632-0.218,18.056-2.896L17.81,345.975
	c-1.953-1.952-1.953-5.118,0-7.07c1.951-1.953,5.119-1.953,7.07,0l14.157,14.156c0.928-0.288,1.881-0.59,2.862-0.906
	c7.658-2.465,15.652-5.263,23.786-8.311l-6.545-6.546c-1.953-1.952-1.953-5.118,0-7.07c1.951-1.953,5.119-1.953,7.07,0l9.689,9.688
	c14.295-5.638,28.779-11.929,42.433-18.437l-10.828-10.829c-1.953-1.952-1.953-5.118,0-7.07c1.951-1.953,5.119-1.953,7.07,0
	l13.266,13.265c5.519-2.752,10.849-5.522,15.921-8.284c6.464-3.519,12.969-7.755,19.262-12.4l-14.254-14.256
	c-1.953-1.952-1.953-5.118,0-7.07c1.951-1.953,5.118-1.953,7.071,0l15.144,15.146c8.267-6.734,15.942-13.986,22.39-20.978
	l-13.35-13.352c-1.953-1.952-1.953-5.118,0-7.071c1.951-1.951,5.118-1.952,7.071,0.001l12.857,12.858
	c5.442-6.673,9.433-12.803,11.345-17.623c5.055-12.743-10.46-33.184-17.028-40.175l-14.921-13.562
	c-0.117-0.107-0.229-0.22-0.337-0.337l-13.563-14.92c-6.986-6.565-27.428-22.079-40.174-17.029c-0.609,0.242-1.24,0.517-1.89,0.824
	l19.327,19.327c1.953,1.952,1.953,5.118,0,7.07c-1.951,1.953-5.119,1.953-7.07,0l-21.108-21.106
	c-8.788,6.147-19.222,15.671-29.097,26.771l20.382,20.384c1.953,1.952,1.953,5.118,0,7.07c-1.951,1.953-5.119,1.953-7.07,0
	l-19.813-19.813c-6.992,8.606-13.42,17.849-18.406,27.009c-1.779,3.268-3.564,6.646-5.344,10.11l14.655,14.656
	c1.953,1.952,1.953,5.118,0,7.07c-1.951,1.953-5.119,1.953-7.07,0l-12.31-12.309c-5.481,11.186-10.853,23.049-15.864,35.003
	l9.752,9.753c1.953,1.952,1.953,5.118,0,7.07c-1.951,1.953-5.119,1.953-7.07,0l-6.793-6.792c-2.602,6.493-5.074,12.963-7.38,19.317
	l12.691,12.692c1.953,1.952,1.953,5.118,0,7.07c-1.951,1.953-5.119,1.953-7.07,0l-9.301-9.301c-0.863,2.537-1.694,5.047-2.49,7.521
	C10.498,347.191,9.848,355.835,9.986,359.104z M74.463,322.629c-1.279,0-2.56-0.488-3.535-1.465L56.15,306.386
	c-1.953-1.952-1.953-5.118,0-7.07c1.951-1.953,5.119-1.953,7.07,0l14.778,14.778c1.953,1.952,1.953,5.118,0,7.07
	C77.023,322.141,75.742,322.629,74.463,322.629z M122.123,295.279c-1.279,0-2.56-0.488-3.535-1.465l-19.564-19.564
	c-1.953-1.952-1.953-5.118,0-7.07c1.951-1.953,5.119-1.953,7.07,0l19.564,19.564c1.953,1.952,1.953,5.118,0,7.07
	C124.683,294.79,123.402,295.279,122.123,295.279z M70.602,290.848c-1.279,0-2.56-0.488-3.535-1.465l-14.779-14.779
	c-1.952-1.952-1.952-5.118,0.001-7.071c1.951-1.953,5.119-1.952,7.07,0.001l14.779,14.779c1.952,1.952,1.952,5.118-0.001,7.07
	C73.161,290.36,71.881,290.848,70.602,290.848z M163.14,266.284c-1.279,0-2.56-0.488-3.535-1.465l-21.254-21.253
	c-1.953-1.952-1.953-5.118,0-7.07c1.951-1.953,5.119-1.953,7.07,0l21.254,21.253c1.953,1.952,1.953,5.118,0,7.07
	C165.699,265.795,164.419,266.284,163.14,266.284z M112.491,257.726c-1.279,0-2.56-0.488-3.535-1.465l-19.563-19.564
	c-1.953-1.952-1.953-5.118,0-7.07c1.951-1.953,5.119-1.953,7.07,0l19.563,19.564c1.953,1.952,1.953,5.118,0,7.071
	C115.051,257.238,113.771,257.726,112.491,257.726z M201.062,235.863c-1.279,0-2.56-0.488-3.535-1.465l-21.253-21.253
	c-1.953-1.952-1.953-5.118,0-7.07c1.951-1.953,5.119-1.953,7.07,0l21.253,21.253c1.953,1.952,1.953,5.118,0,7.07
	C203.621,235.374,202.341,235.863,201.062,235.863z M151.471,226.695c-1.279,0-2.56-0.488-3.535-1.465l-21.253-21.253
	c-1.953-1.952-1.953-5.118,0-7.07c1.951-1.953,5.119-1.953,7.07,0l21.253,21.253c1.953,1.952,1.953,5.118,0,7.07
	C154.03,226.206,152.75,226.695,151.471,226.695z"/>
<g>
</g>
<g>
</g>
<g>
</g>
<g>
</g>
<g>
</g>
<g>
</g>
<g>
</g>
<g>
</g>
<g>
</g>
<g>
</g>
<g>
</g>
<g>
</g>
<g>
</g>
<g>
</g>
<g>
</g>
</svg>
