<?xml version="1.0" encoding="iso-8859-1"?>
<!-- Generator: Adobe Illustrator 17.1.0, SVG Export Plug-In . SVG Version: 6.00 Build 0)  -->
<!DOCTYPE svg PUBLIC "-//W3C//DTD SVG 1.1//EN" "http://www.w3.org/Graphics/SVG/1.1/DTD/svg11.dtd">
<svg version="1.1" id="Capa_1" xmlns="http://www.w3.org/2000/svg" xmlns:xlink="http://www.w3.org/1999/xlink" x="0px" y="0px"
	 viewBox="0 0 384.004 384.004" style="enable-background:new 0 0 384.004 384.004;" xml:space="preserve">
<path d="M239.639,384.004h-95.271c-4.612,0-8.365-3.752-8.365-8.365v-28.453C136.001,347.125,136,347.063,136,347
	s0.001-0.125,0.003-0.186V239.186C136.001,239.125,136,239.063,136,239s0.001-0.125,0.003-0.186v-5.81
	c0.01-1.661,0.436-40.505,18.134-85.819c17.261-44.197,21.536-70.459,23.386-103.461c0.315-5.621,0.531-9.838,0.66-13.894
	c-1.722-0.353-3.308-1.242-4.507-2.557c-1.581-1.732-2.365-4.066-2.151-6.402l1.216-13.271C173.139,3.267,176.72,0,181.071,0h21.859
	c4.352,0,7.933,3.268,8.33,7.601l1.217,13.271c0.214,2.336-0.57,4.669-2.151,6.402c-1.199,1.313-2.783,2.203-4.5,2.556
	c0.128,4.044,0.344,8.265,0.66,13.895c1.849,32.974,6.117,59.217,23.341,103.346c0.032,0.076,0.062,0.153,0.09,0.23
	c17.653,45.264,18.079,84.045,18.088,85.675v142.664C248.004,380.251,244.251,384.004,239.639,384.004z M146.004,374.004h92V352h-92
	V374.004z M146.004,342h92v-98h-92V342z M146.004,234h92v-0.996c-0.002-0.332-0.414-34.813-14.938-75.467l-28.769,25.223
	c-1.806,1.583-4.481,1.66-6.375,0.18l-28.167-22.005c-13.395,39.236-13.75,71.747-13.751,72.099V234z M163.359,151.061
	l27.458,21.451l28.471-24.962c-16.693-43.49-20.926-70.055-22.788-103.265c-0.36-6.422-0.593-11.048-0.715-15.689
	c-0.061-2.28,0.782-4.434,2.372-6.067c1.166-1.197,2.623-1.999,4.215-2.341L201.438,10h-18.875l-0.934,10.186
	c1.597,0.341,3.056,1.144,4.222,2.342c1.59,1.633,2.432,3.787,2.372,6.067c-0.124,4.658-0.356,9.28-0.715,15.689
	c-1.908,34.034-6.307,61.093-24.056,106.539C163.421,150.903,163.39,150.981,163.359,151.061z"/>
<g>
</g>
<g>
</g>
<g>
</g>
<g>
</g>
<g>
</g>
<g>
</g>
<g>
</g>
<g>
</g>
<g>
</g>
<g>
</g>
<g>
</g>
<g>
</g>
<g>
</g>
<g>
</g>
<g>
</g>
</svg>
