<?xml version="1.0" encoding="iso-8859-1"?>
<!-- Generator: Adobe Illustrator 17.1.0, SVG Export Plug-In . SVG Version: 6.00 Build 0)  -->
<!DOCTYPE svg PUBLIC "-//W3C//DTD SVG 1.1//EN" "http://www.w3.org/Graphics/SVG/1.1/DTD/svg11.dtd">
<svg version="1.1" id="Capa_1" xmlns="http://www.w3.org/2000/svg" xmlns:xlink="http://www.w3.org/1999/xlink" x="0px" y="0px"
	 viewBox="0 0 338.896 338.896" style="enable-background:new 0 0 338.896 338.896;" xml:space="preserve">
<path d="M309.831,279.135H114.564c-1.372,0-2.684-0.563-3.627-1.559c-0.944-0.995-1.438-2.334-1.366-3.704l0.031-0.498
	c0.013-0.191,0.029-0.382,0.029-0.576c0-11.25-9.152-20.402-20.402-20.402s-20.402,9.152-20.402,20.402
	c0,0.194,0.017,0.385,0.029,0.576l0.031,0.498c0.072,1.37-0.422,2.709-1.366,3.704c-0.943,0.995-2.255,1.559-3.627,1.559H5
	c-1.363,0-2.668-0.557-3.611-1.542s-1.443-2.313-1.384-3.675l2.653-61.041c0.035-1.139,0.455-2.19,1.14-3.021
	c0.11-0.133,0.228-0.261,0.351-0.383c0.001-0.001,0.002-0.002,0.003-0.002c0.001-0.002,0.003-0.003,0.005-0.005
	c0.83-0.815,1.948-1.346,3.199-1.421c0.004-0.001,0.008,0,0.014-0.001c0.004,0,0.008,0,0.012,0c0,0,0.001,0,0.002,0
	c2.202-0.129,51.444-3.525,51.444-47.554c0-12.794-3.77-23.029-11.205-30.425c-13.507-13.434-34.995-13.565-35.507-13.565l0,0
	c-1.075,0.017-2.132-0.325-3.017-0.979c-1.337-0.988-2.095-2.576-2.022-4.237l0.948-21.822C8.04,88.994,8.12,88.54,8.258,88.11
	c0-0.001,0.001-0.002,0.001-0.003C8.26,88.105,8.26,88.103,8.261,88.1c0.232-0.724,0.625-1.374,1.135-1.911
	c0.001-0.002,0.004-0.001,0.004-0.004c0.48-0.504,1.065-0.91,1.726-1.181c0.449-0.184,0.931-0.305,1.433-0.351l239.454-24.867
	c0.78-0.079,1.565,0.022,2.296,0.301l65.285,24.857c0.112,0.042,0.224,0.088,0.332,0.137c0.713,0.324,1.32,0.802,1.795,1.381
	c0.263,0.32,0.488,0.677,0.667,1.063c0.045,0.095,0.086,0.192,0.125,0.291c0.875,2.199,16.385,41.962,16.385,95.404
	c0,54.322-23.845,92.039-24.859,93.618C313.117,278.27,311.532,279.135,309.831,279.135z M119.412,269.135h187.567
	c4.971-8.783,21.917-41.955,21.917-85.914c0-43.428-10.916-78.239-14.537-88.589H17.808l-0.44,10.15
	c4.266-0.952,8.627-1.433,13.034-1.433c32.982,0,59.816,26.834,59.816,59.816s-26.834,59.815-59.816,59.815
	c-6.19,0-12.236-0.934-18.053-2.782l-2.128,48.936h48.825c1.813-15.044,14.658-26.739,30.183-26.739
	S117.599,254.092,119.412,269.135z M45.037,115.544c3.335,1.988,6.589,4.413,9.574,7.371c9.433,9.347,14.216,21.989,14.216,37.577
	c0,22.257-10.674,39.307-30.867,49.305c-2.497,1.236-4.99,2.289-7.411,3.186c27.401-0.079,49.67-22.396,49.67-49.815
	C80.219,140.788,65.388,121.809,45.037,115.544z M109.576,84.633h181.093l-38.808-14.776L109.576,84.633z M266.379,256.407
	c-12.709,0-23.049-10.34-23.049-23.049c0-12.71,10.34-23.05,23.049-23.05c12.71,0,23.05,10.34,23.05,23.05
	C289.429,246.067,279.089,256.407,266.379,256.407z M266.379,220.308c-7.195,0-13.049,5.854-13.049,13.05
	s5.854,13.049,13.049,13.049s13.05-5.854,13.05-13.049S273.574,220.308,266.379,220.308z M192.177,228.331
	c-16.026,0-29.065-13.039-29.065-29.066c0-16.026,13.039-29.065,29.065-29.065s29.065,13.039,29.065,29.065
	C221.242,215.292,208.203,228.331,192.177,228.331z M192.177,180.199c-10.513,0-19.065,8.553-19.065,19.065
	c0,10.514,8.553,19.066,19.065,19.066s19.065-8.553,19.065-19.066C211.242,188.752,202.689,180.199,192.177,180.199z
	 M291.113,161.481c-13.078,0-23.718-10.64-23.718-23.718s10.64-23.718,23.718-23.718s23.718,10.64,23.718,23.718
	S304.191,161.481,291.113,161.481z M291.113,124.046c-7.564,0-13.718,6.153-13.718,13.718s6.153,13.718,13.718,13.718
	s13.718-6.153,13.718-13.718S298.678,124.046,291.113,124.046z M122.654,152.123c-11.604,0-21.044-9.44-21.044-21.044
	s9.44-21.044,21.044-21.044s21.043,9.44,21.043,21.044S134.258,152.123,122.654,152.123z M122.654,120.035
	c-6.09,0-11.044,4.954-11.044,11.044s4.954,11.044,11.044,11.044c6.089,0,11.043-4.954,11.043-11.044
	S128.743,120.035,122.654,120.035z"/>
<g>
</g>
<g>
</g>
<g>
</g>
<g>
</g>
<g>
</g>
<g>
</g>
<g>
</g>
<g>
</g>
<g>
</g>
<g>
</g>
<g>
</g>
<g>
</g>
<g>
</g>
<g>
</g>
<g>
</g>
</svg>
