<?xml version="1.0" encoding="iso-8859-1"?>
<!-- Generator: Adobe Illustrator 17.1.0, SVG Export Plug-In . SVG Version: 6.00 Build 0)  -->
<!DOCTYPE svg PUBLIC "-//W3C//DTD SVG 1.1//EN" "http://www.w3.org/Graphics/SVG/1.1/DTD/svg11.dtd">
<svg version="1.1" id="Capa_1" xmlns="http://www.w3.org/2000/svg" xmlns:xlink="http://www.w3.org/1999/xlink" x="0px" y="0px"
	 viewBox="0 0 358 358" style="enable-background:new 0 0 358 358;" xml:space="preserve">
<path d="M199.02,358c-36.318,0-65.864-29.547-65.864-65.864c0-31.018,21.553-57.097,50.468-64.048
	c-2.313-17.487-4.345-46.144-1.455-85.454c3.868-52.609,27.817-94.746,39.588-112.575c-6.937,1.032-16.86,3.064-28.365,7.054
	c-20.503,7.111-50.402,22.096-76.406,53.101c-34.475,41.104-43.236,90.786-45.33,118.067c31.716,3.003,56.61,29.786,56.61,62.275
	c0,34.493-28.063,62.556-62.556,62.556S3.156,305.049,3.156,270.556c0-33.11,25.854-60.295,58.436-62.422
	c0.564-7.725,1.644-17.201,3.651-27.813c4.901-25.904,16.527-63.68,44.082-96.533c27.599-32.906,59.393-48.76,81.204-56.265
	c20.761-7.144,36.45-8.302,40.532-8.487l44.15-18.642c2.545-1.071,5.477,0.118,6.551,2.661c1.074,2.544-0.118,5.478-2.662,6.552
	l-37.896,16l22.527,21.025c10.06-1.935,35.983-3.373,64.693,23.156c21.724,20.073,26.357,39.54,26.419,52.335
	c0.068,14.138-5.264,23.462-5.491,23.853c-0.743,1.275-2.011,2.157-3.465,2.41c-1.505,0.261-37.255,6.076-70.178-23.188
	c-29.959-26.63-22.39-63.472-19.994-72.368L232.89,31.526c-9.441,13.667-36.749,57.461-40.748,111.841
	c-2.801,38.103-0.803,66.14,1.413,83.13c1.802-0.148,3.625-0.225,5.465-0.225c36.318,0,65.864,29.547,65.864,65.864
	S235.338,358,199.02,358z M185.145,238.016c-24.113,6.186-41.989,28.105-41.989,54.12c0,30.804,25.061,55.864,55.864,55.864
	s55.864-25.061,55.864-55.864s-25.061-55.864-55.864-55.864c-1.333,0-2.655,0.047-3.965,0.14c1.052,6.023,1.891,9.152,1.919,9.256
	l0,0.001c2.494-1.384,4.788-3.36,5.647-4.213c1.958-1.944,5.121-1.938,7.067,0.016c1.946,1.952,1.949,5.108,0,7.059
	c-0.729,0.73-7.343,7.175-14.712,8.402c-7.386,1.232-15.724-1.918-16.65-2.28c-2.571-1.008-3.838-3.909-2.831-6.48
	c1.007-2.566,3.903-3.838,6.471-2.833l0-0.001c0.921,0.357,2.808,0.965,4.959,1.394
	C186.525,245.067,185.875,242.155,185.145,238.016z M61.085,218.202c-26.821,2.349-47.93,24.933-47.93,52.354
	c0,28.979,23.576,52.556,52.556,52.556s52.556-23.576,52.556-52.556c0-27.154-20.699-49.564-47.148-52.279
	c-0.136,4.594-0.07,7.839-0.017,9.388c1.83-0.741,2.869-1.528,2.949-1.59c2.146-1.736,5.272-1.389,7.01,0.759
	c1.737,2.147,1.383,5.313-0.764,7.05c-0.646,0.523-6.587,5.107-16.142,5.113c-0.003,0-0.007,0-0.01,0
	c-8.161,0-13.331-6.169-13.894-6.873c-1.725-2.156-1.375-5.303,0.781-7.027c2.144-1.716,5.27-1.379,7.001,0.747
	c0.073,0.086,1.274,1.476,3.079,2.381C61.045,226.564,60.955,223.103,61.085,218.202z M265.076,56.56
	c-2.214,8.95-7.358,39.266,17.277,61.163c24.678,21.937,51.325,21.748,59.383,21.084c3.178-7.475,10.703-33.212-20.099-61.675
	C295.372,52.862,272.328,55.052,265.076,56.56z"/>
<g>
</g>
<g>
</g>
<g>
</g>
<g>
</g>
<g>
</g>
<g>
</g>
<g>
</g>
<g>
</g>
<g>
</g>
<g>
</g>
<g>
</g>
<g>
</g>
<g>
</g>
<g>
</g>
<g>
</g>
</svg>
