<?xml version="1.0" encoding="iso-8859-1"?>
<!-- Generator: Adobe Illustrator 17.1.0, SVG Export Plug-In . SVG Version: 6.00 Build 0)  -->
<!DOCTYPE svg PUBLIC "-//W3C//DTD SVG 1.1//EN" "http://www.w3.org/Graphics/SVG/1.1/DTD/svg11.dtd">
<svg version="1.1" id="Capa_1" xmlns="http://www.w3.org/2000/svg" xmlns:xlink="http://www.w3.org/1999/xlink" x="0px" y="0px"
	 viewBox="0 0 336.027 336.027" style="enable-background:new 0 0 336.027 336.027;" xml:space="preserve">
<path d="M64.183,329.513c-6.981,0-13.545-2.719-18.48-7.655c-3.352-3.351-5.68-7.45-6.83-11.923
	c-2.195,0.468-4.442,0.703-6.725,0.703c-8.59,0.001-16.666-3.344-22.739-9.418c-12.545-12.544-12.545-32.956,0-45.5
	c6.076-6.077,14.155-9.423,22.749-9.423c8.595,0,16.674,3.346,22.75,9.423c0.483,0.482,0.95,0.98,1.4,1.492l49.349-49.348
	c-7.238-13.207-10.782-28.938-10.164-45.895c0.876-24.044,10.06-49.712,25.858-72.277c1.858-2.653,3.215-5.733,4.033-9.156
	c4.966-20.745,16.929-39.543,33.684-52.933c17.267-13.798,38.099-21.091,60.245-21.091c26.798,0,51.708,10.72,70.142,30.185
	c2.663,2.813,5.572,5.433,8.648,7.788c24.101,18.45,37.924,46.417,37.924,76.729c0,43.122-28.971,81.365-70.45,93
	c-3.164,0.888-6.173,2.38-8.941,4.436c-24.82,18.43-53.159,28.58-79.791,28.58c-0.003,0-0.001,0-0.005,0
	c-16.482,0-31.368-3.838-43.907-11.223l-49.593,49.592c9.508,10.237,9.282,26.301-0.677,36.259
	C77.727,326.795,71.164,329.513,64.183,329.513z M43.048,298.366c0.959,0,1.912,0.275,2.738,0.816
	c1.412,0.925,2.263,2.499,2.262,4.187c-0.002,4.314,1.676,8.369,4.725,11.419c3.048,3.047,7.1,4.726,11.41,4.726
	c4.31,0,8.361-1.679,11.409-4.726c6.291-6.291,6.291-16.528,0-22.819c-0.708-0.707-1.514-1.368-2.393-1.963
	c-1.235-0.837-2.033-2.181-2.175-3.666c-0.142-1.484,0.388-2.955,1.442-4.01l50.828-50.828l-13.566-13.567l-50.495,50.494
	c-1.099,1.1-2.644,1.631-4.187,1.422c-1.541-0.202-2.9-1.11-3.678-2.455c-0.973-1.684-2.161-3.232-3.532-4.604
	c-4.188-4.188-9.756-6.493-15.68-6.493c-5.923,0-11.49,2.306-15.679,6.493c-8.646,8.646-8.646,22.714,0,31.359
	c4.185,4.185,9.75,6.488,15.669,6.488c3.09,0,6.083-0.624,8.897-1.854C41.687,298.505,42.369,298.366,43.048,298.366z
	 M219.313,16.513c-40.226,0-74.852,27.284-84.203,66.351c-1.112,4.649-2.985,8.878-5.567,12.565
	c-30.646,43.771-32.436,93.953-4.354,122.036c12.931,12.93,30.791,19.764,51.652,19.765c0.001,0,0.003,0,0.004,0
	c24.5,0,50.72-9.449,73.83-26.609c3.752-2.786,7.857-4.816,12.201-6.035c37.183-10.429,63.151-44.712,63.151-83.371
	c0-27.174-12.394-52.246-34.003-68.788c-3.496-2.678-6.804-5.655-9.831-8.853C265.667,26.124,243.336,16.513,219.313,16.513z"/>
<g>
</g>
<g>
</g>
<g>
</g>
<g>
</g>
<g>
</g>
<g>
</g>
<g>
</g>
<g>
</g>
<g>
</g>
<g>
</g>
<g>
</g>
<g>
</g>
<g>
</g>
<g>
</g>
<g>
</g>
</svg>
