<?xml version="1.0" encoding="iso-8859-1"?>
<!-- Generator: Adobe Illustrator 17.1.0, SVG Export Plug-In . SVG Version: 6.00 Build 0)  -->
<!DOCTYPE svg PUBLIC "-//W3C//DTD SVG 1.1//EN" "http://www.w3.org/Graphics/SVG/1.1/DTD/svg11.dtd">
<svg version="1.1" id="Capa_1" xmlns="http://www.w3.org/2000/svg" xmlns:xlink="http://www.w3.org/1999/xlink" x="0px" y="0px"
	 viewBox="0 0 379.13 379.13" style="enable-background:new 0 0 379.13 379.13;" xml:space="preserve">
<path d="M250.436,379.13h-122.4c-2.436,0-4.517-1.755-4.928-4.156L95.46,213.506L37.94,173.176
	c-2.261-1.585-2.809-4.703-1.223-6.964c1.584-2.261,4.703-2.809,6.964-1.224l53.853,37.758l19.806-59.651
	c0.679-2.045,2.591-3.425,4.745-3.425h125.314L288.326,3.562c0.795-2.646,3.582-4.145,6.228-3.349
	c2.644,0.795,4.144,3.583,3.348,6.228l-40.089,133.325c1.75,0.348,3.213,1.614,3.78,3.358l8.314,25.564L333.733,21.93
	c1.102-2.532,4.048-3.69,6.579-2.591c2.532,1.102,3.692,4.047,2.591,6.579l-68.331,157.117l5.999,18.448l52.053-36.495
	c2.262-1.584,5.379-1.037,6.964,1.224c1.585,2.261,1.038,5.379-1.223,6.964l-55.076,38.615c-0.012,0.132-0.029,0.264-0.052,0.396
	l-27.874,162.786C254.953,377.375,252.872,379.13,250.436,379.13z M132.253,369.13H246.22l26.162-152.786h-166.29L132.253,369.13z
	 M107.092,205.696h164.334l-18.22-56.025h-1.973c-0.076,0.002-0.152,0.002-0.229,0H125.693L107.092,205.696z"/>
<g>
</g>
<g>
</g>
<g>
</g>
<g>
</g>
<g>
</g>
<g>
</g>
<g>
</g>
<g>
</g>
<g>
</g>
<g>
</g>
<g>
</g>
<g>
</g>
<g>
</g>
<g>
</g>
<g>
</g>
</svg>
