<?xml version="1.0" encoding="iso-8859-1"?>
<!-- Generator: Adobe Illustrator 17.1.0, SVG Export Plug-In . SVG Version: 6.00 Build 0)  -->
<!DOCTYPE svg PUBLIC "-//W3C//DTD SVG 1.1//EN" "http://www.w3.org/Graphics/SVG/1.1/DTD/svg11.dtd">
<svg version="1.1" id="Capa_1" xmlns="http://www.w3.org/2000/svg" xmlns:xlink="http://www.w3.org/1999/xlink" x="0px" y="0px"
	 viewBox="0 0 403.185 403.185" style="enable-background:new 0 0 403.185 403.185;" xml:space="preserve">
<path d="M141.587,369.275c-1.279,0-2.56-0.488-3.535-1.464L1.465,231.225C0.526,230.287,0,229.015,0,227.689
	s0.526-2.598,1.465-3.536L184.379,41.239c0.959-0.959,2.247-1.506,3.622-1.463c1.356,0.023,2.645,0.597,3.569,1.589l0.29,0.311
	c0.619,0.665,1.237,1.331,1.885,1.979c3.19,3.19,6.637,6.151,10.247,8.803c0.068,0.045,0.137,0.092,0.204,0.142
	c11.055,8.071,24.086,13.508,37.685,15.724c0.164,0.027,0.325,0.062,0.482,0.104c12.331,1.938,25.074,1.236,37.083-2.038
	c0.148-0.057,0.3-0.107,0.454-0.15c12.902-3.592,24.545-9.92,34.604-18.807c0.112-0.099,0.227-0.192,0.345-0.279
	c1.262-1.125,2.506-2.301,3.703-3.499c2.399-2.4,4.669-4.965,6.938-7.841c0.885-1.121,2.206-1.811,3.632-1.895
	c1.425-0.085,2.819,0.445,3.829,1.456l68.77,68.769c0.938,0.938,1.465,2.209,1.465,3.536s-0.526,2.598-1.465,3.536L145.122,367.811
	C144.146,368.787,142.866,369.275,141.587,369.275z M12.071,227.689l129.516,129.516l249.526-249.526l-61.362-61.362
	c-1.356,1.542-2.736,3.016-4.129,4.408c-0.197,0.198-0.396,0.396-0.598,0.592l10.326,10.327c1.953,1.953,1.953,5.119,0,7.071
	L307.126,96.94c-0.938,0.938-2.209,1.464-3.535,1.464s-2.598-0.527-3.535-1.464l-20.302-20.302c-2.998,0.739-6.028,1.336-9.081,1.79
	l23.867,23.868c1.953,1.953,1.953,5.119,0,7.071l-28.225,28.225c-0.938,0.938-2.209,1.464-3.535,1.464s-2.598-0.527-3.535-1.464
	l-28.225-28.225c-1.953-1.953-1.953-5.119,0-7.071l22.821-22.822c-3.687-0.087-7.381-0.381-11.033-0.878l-17.744,17.744
	c-1.951,1.952-5.119,1.952-7.07,0l-28.226-28.225c-0.938-0.938-1.465-2.209-1.465-3.536c0-1.326,0.526-2.598,1.465-3.536
	l3.934-3.934c-2.011-1.659-3.961-3.402-5.838-5.216L12.071,227.689z M241.627,105.832l21.153,21.154l21.153-21.154L262.78,84.679
	L241.627,105.832z M290.565,73.308l13.025,13.025l21.153-21.154l-7.205-7.206C309.366,64.541,300.332,69.675,290.565,73.308z
	 M200.375,64.581l21.154,21.153l9.49-9.491c-10.368-2.745-20.282-7.19-29.198-13.108L200.375,64.581z M141.105,343.235
	c-1.279,0-2.56-0.488-3.535-1.464l-28.225-28.225c-1.953-1.953-1.953-5.119,0-7.071l28.225-28.225
	c0.938-0.938,2.209-1.464,3.535-1.464s2.598,0.527,3.535,1.464l28.226,28.225c0.938,0.938,1.465,2.209,1.465,3.536
	s-0.526,2.598-1.465,3.536l-28.226,28.225C143.665,342.747,142.385,343.235,141.105,343.235z M119.952,310.01l21.153,21.154
	l21.154-21.154l-21.154-21.154L119.952,310.01z M181.837,302.503c-1.279,0-2.56-0.488-3.535-1.464l-28.225-28.225
	c-1.953-1.953-1.953-5.119,0-7.071l28.225-28.225c1.951-1.952,5.119-1.952,7.07,0l28.226,28.225
	c0.938,0.938,1.465,2.209,1.465,3.536s-0.526,2.598-1.465,3.536l-28.226,28.225C184.396,302.015,183.116,302.503,181.837,302.503z
	 M160.684,269.278l21.153,21.154l21.154-21.154l-21.154-21.153L160.684,269.278z M99.854,301.983c-1.326,0-2.598-0.527-3.535-1.464
	l-28.226-28.225c-0.938-0.938-1.465-2.209-1.465-3.536s0.526-2.598,1.465-3.536l28.226-28.225c1.951-1.952,5.119-1.952,7.07,0
	l28.225,28.225c1.953,1.953,1.953,5.119,0,7.071l-28.225,28.225C102.452,301.457,101.181,301.983,99.854,301.983z M78.7,268.758
	l21.154,21.154l21.153-21.154l-21.153-21.153L78.7,268.758z M222.569,261.772c-1.326,0-2.598-0.527-3.535-1.464l-28.226-28.225
	c-0.938-0.938-1.465-2.209-1.465-3.536s0.526-2.598,1.465-3.536l28.226-28.225c1.951-1.952,5.119-1.952,7.07,0l28.225,28.225
	c1.953,1.953,1.953,5.119,0,7.071l-28.225,28.225C225.167,261.245,223.896,261.772,222.569,261.772z M201.415,228.547l21.154,21.154
	l21.153-21.154l-21.153-21.153L201.415,228.547z M140.586,261.252c-1.326,0-2.598-0.527-3.535-1.464l-28.225-28.225
	c-1.953-1.953-1.953-5.119,0-7.071l28.225-28.225c0.938-0.938,2.209-1.464,3.535-1.464s2.598,0.527,3.535,1.464l28.225,28.225
	c1.953,1.953,1.953,5.119,0,7.071l-28.225,28.225C143.184,260.725,141.912,261.252,140.586,261.252z M119.433,228.027l21.153,21.154
	l21.153-21.154l-21.153-21.153L119.433,228.027z M58.603,260.731c-1.279,0-2.56-0.488-3.535-1.464l-28.225-28.225
	c-1.953-1.953-1.953-5.119,0-7.071l28.225-28.225c1.951-1.952,5.119-1.952,7.07,0l28.225,28.225c1.953,1.953,1.953,5.119,0,7.071
	l-28.225,28.225C61.162,260.243,59.882,260.731,58.603,260.731z M37.449,227.507l21.153,21.153l21.153-21.153l-21.153-21.153
	L37.449,227.507z M263.301,221.04c-1.279,0-2.56-0.488-3.535-1.464l-28.225-28.225c-1.953-1.953-1.953-5.119,0-7.071l28.225-28.225
	c0.938-0.938,2.209-1.464,3.535-1.464s2.598,0.527,3.535,1.464l28.225,28.225c1.953,1.953,1.953,5.119,0,7.071l-28.225,28.225
	C265.86,220.552,264.58,221.04,263.301,221.04z M242.147,187.815l21.153,21.153l21.153-21.153l-21.153-21.154L242.147,187.815z
	 M181.317,220.52c-1.326,0-2.598-0.527-3.535-1.464l-28.225-28.225c-1.953-1.953-1.953-5.119,0-7.071l28.225-28.225
	c0.938-0.938,2.209-1.464,3.535-1.464s2.598,0.527,3.535,1.464l28.225,28.225c1.953,1.953,1.953,5.119,0,7.071l-28.225,28.225
	C183.915,219.993,182.644,220.52,181.317,220.52z M160.164,187.295l21.153,21.153l21.153-21.153l-21.153-21.154L160.164,187.295z
	 M99.334,220c-1.279,0-2.56-0.488-3.535-1.464l-28.225-28.225c-1.953-1.953-1.953-5.119,0-7.071l28.225-28.225
	c0.938-0.938,2.209-1.464,3.535-1.464s2.598,0.527,3.535,1.464l28.225,28.225c1.953,1.953,1.953,5.119,0,7.071l-28.225,28.225
	C101.894,219.512,100.613,220,99.334,220z M78.181,186.775l21.153,21.153l21.153-21.153l-21.153-21.154L78.181,186.775z
	 M304.032,180.309c-1.279,0-2.56-0.488-3.535-1.464l-28.225-28.225c-1.953-1.953-1.953-5.119,0-7.071l28.225-28.225
	c0.938-0.938,2.209-1.464,3.535-1.464s2.598,0.527,3.535,1.464l28.225,28.225c1.953,1.953,1.953,5.119,0,7.071l-28.225,28.225
	C306.592,179.82,305.312,180.309,304.032,180.309z M282.879,147.084l21.153,21.153l21.153-21.153l-21.153-21.154L282.879,147.084z
	 M222.049,179.789c-1.326,0-2.598-0.527-3.535-1.464l-28.225-28.225c-1.953-1.953-1.953-5.119,0-7.071l28.225-28.225
	c0.938-0.938,2.209-1.464,3.535-1.464s2.598,0.527,3.535,1.464l28.225,28.225c1.953,1.953,1.953,5.119,0,7.071l-28.225,28.225
	C224.646,179.262,223.375,179.789,222.049,179.789z M200.896,146.564l21.153,21.154l21.153-21.154l-21.153-21.153L200.896,146.564z
	 M140.065,179.269c-1.326,0-2.598-0.527-3.535-1.464l-28.225-28.225c-1.953-1.953-1.953-5.119,0-7.071l28.225-28.225
	c1.951-1.952,5.119-1.952,7.07,0l28.225,28.225c1.953,1.953,1.953,5.119,0,7.071l-28.225,28.225
	C142.663,178.742,141.392,179.269,140.065,179.269z M118.912,146.043l21.153,21.154l21.153-21.154l-21.153-21.153L118.912,146.043z
	 M344.764,139.577c-1.326,0-2.598-0.527-3.535-1.464l-28.225-28.225c-1.953-1.953-1.953-5.119,0-7.071l28.225-28.225
	c1.951-1.952,5.119-1.952,7.07,0l28.225,28.225c1.953,1.953,1.953,5.119,0,7.071l-28.225,28.225
	C347.361,139.05,346.09,139.577,344.764,139.577z M323.61,106.352l21.153,21.154l21.153-21.154l-21.153-21.153L323.61,106.352z
	 M180.797,138.537c-1.279,0-2.56-0.488-3.535-1.464l-28.225-28.225c-1.953-1.953-1.953-5.119,0-7.071l28.225-28.225
	c1.951-1.952,5.119-1.952,7.07,0l28.226,28.225c0.938,0.938,1.465,2.209,1.465,3.536s-0.526,2.598-1.465,3.536l-28.226,28.225
	C183.356,138.049,182.076,138.537,180.797,138.537z M159.644,105.312l21.153,21.154l21.154-21.154l-21.154-21.154L159.644,105.312z"
	/>
<g>
</g>
<g>
</g>
<g>
</g>
<g>
</g>
<g>
</g>
<g>
</g>
<g>
</g>
<g>
</g>
<g>
</g>
<g>
</g>
<g>
</g>
<g>
</g>
<g>
</g>
<g>
</g>
<g>
</g>
</svg>
