<?xml version="1.0" encoding="iso-8859-1"?>
<!-- Generator: Adobe Illustrator 17.1.0, SVG Export Plug-In . SVG Version: 6.00 Build 0)  -->
<!DOCTYPE svg PUBLIC "-//W3C//DTD SVG 1.1//EN" "http://www.w3.org/Graphics/SVG/1.1/DTD/svg11.dtd">
<svg version="1.1" id="Capa_1" xmlns="http://www.w3.org/2000/svg" xmlns:xlink="http://www.w3.org/1999/xlink" x="0px" y="0px"
	 viewBox="0 0 382.54 382.54" style="enable-background:new 0 0 382.54 382.54;" xml:space="preserve">
<path d="M135.142,382.54c-2.534,0-4.669-1.897-4.965-4.417l-26.492-225.714H95.02c-2.761,0-5-2.239-5-5v-22c0-2.761,2.239-5,5-5
	h1.783l4.017-13.44c0.633-2.118,2.581-3.568,4.791-3.568h126.017l28.809-99.785c0.766-2.653,3.538-4.184,6.19-3.417
	c2.653,0.766,4.183,3.538,3.417,6.19L242.035,103.4h34.896c2.21,0,4.158,1.451,4.791,3.568l4.017,13.44h1.782c2.762,0,5,2.239,5,5
	v22c0,2.761-2.238,5-5,5h-8.721l-24.146,225.094c-0.271,2.531-2.401,4.454-4.946,4.467l-114.54,0.571
	C135.159,382.54,135.15,382.54,135.142,382.54z M113.888,153.562l25.699,218.956l47.123-0.235
	c4.924-4.079,25.517-23.593,25.517-64.651c0-23.167-11.442-35.611-23.557-48.786c-12.041-13.096-24.492-26.637-24.492-50.379
	c0-19.703,7.815-37.201,22.6-50.604c1.916-1.736,3.829-3.297,5.688-4.693L113.888,153.562z M212.247,153.072
	c-5.103,2.105-38.069,17.195-38.069,55.395c0,19.844,10.615,31.388,21.853,43.61c12.279,13.354,26.196,28.489,26.196,55.555
	c0,33.114-12.394,53.851-21.447,64.582l44.406-0.222l23.515-219.201L212.247,153.072z M100.02,142.409h182.5v-12h-182.5V142.409z
	 M107.616,119.15h167.309l-1.719-5.75H109.334L107.616,119.15z"/>
<g>
</g>
<g>
</g>
<g>
</g>
<g>
</g>
<g>
</g>
<g>
</g>
<g>
</g>
<g>
</g>
<g>
</g>
<g>
</g>
<g>
</g>
<g>
</g>
<g>
</g>
<g>
</g>
<g>
</g>
</svg>
