<?xml version="1.0" encoding="utf-8"?>
<!-- Generator: Adobe Illustrator 16.0.0, SVG Export Plug-In . SVG Version: 6.00 Build 0)  -->
<!DOCTYPE svg PUBLIC "-//W3C//DTD SVG 1.1//EN" "http://www.w3.org/Graphics/SVG/1.1/DTD/svg11.dtd">
<svg version="1.1" id="Capa_1" xmlns="http://www.w3.org/2000/svg" xmlns:xlink="http://www.w3.org/1999/xlink" x="0px" y="0px"
	 width="200px" height="50px" viewBox="0 0 200 50" enable-background="new 0 0 200 50" xml:space="preserve">
<path fill="#333333" d="M109.052,50H90.69c-0.333,0-0.616-0.242-0.667-0.57c-0.052-0.329,0.144-0.646,0.461-0.748l8.841-2.832
	V31.774c-0.39-0.021-0.78-0.06-1.167-0.118c-1.751-0.259-4.186-1.19-5.427-2.077c-2.288-1.634-3.449-4.474-3.449-8.44
	c0-2.466,0.931-5.074,1.83-7.595c0.813-2.278,1.581-4.43,1.581-6.237c0-3.68-1.921-6.191-1.941-6.216
	c-0.158-0.203-0.188-0.48-0.074-0.711C90.791,0.147,91.026,0,91.284,0h17.432c0.259,0,0.494,0.147,0.607,0.38
	c0.112,0.232,0.083,0.509-0.076,0.712c-0.019,0.023-1.94,2.535-1.94,6.214c0,1.807,0.768,3.958,1.581,6.237
	c0.899,2.521,1.83,5.129,1.83,7.595c0,4.851-1.858,7.262-3.417,8.432c-1.313,0.983-3.855,1.85-5.459,2.086
	c-0.387,0.058-0.776,0.098-1.166,0.117v14.158l8.582,2.75c0.316,0.102,0.512,0.418,0.461,0.747S109.385,50,109.052,50z M95.01,48.65
	h9.722l-4.861-1.559L95.01,48.65z M93.927,5.627c0.074,0.53,0.117,1.091,0.117,1.68c0,2.04-0.806,4.299-1.66,6.691
	c-0.861,2.413-1.751,4.909-1.751,7.142c0,3.505,0.97,5.974,2.883,7.341c1.058,0.756,3.319,1.615,4.84,1.841
	c1.091,0.161,2.197,0.161,3.289,0c1.416-0.21,3.756-1.013,4.846-1.831c1.313-0.984,2.877-3.059,2.877-7.351
	c0-2.233-0.891-4.729-1.752-7.142c-0.853-2.392-1.658-4.65-1.658-6.69c0-0.589,0.043-1.15,0.115-1.68L93.927,5.627L93.927,5.627z
	 M93.662,4.277h12.676c0.315-1.237,0.771-2.235,1.151-2.927H92.511C92.891,2.042,93.346,3.04,93.662,4.277z M96.364,28.625
	c-0.073,0-0.148-0.012-0.221-0.037c-0.101-0.035-2.478-0.882-3.623-3.172c-1.129-2.258-0.618-4.666-0.596-4.768
	c0.081-0.364,0.44-0.595,0.805-0.514c0.364,0.08,0.594,0.439,0.515,0.803c-0.005,0.023-0.425,2.056,0.484,3.875
	c0.894,1.788,2.84,2.494,2.86,2.5c0.351,0.124,0.536,0.509,0.413,0.859C96.903,28.451,96.643,28.625,96.364,28.625z"/>
</svg>
