<?xml version="1.0" encoding="iso-8859-1"?>
<!-- Generator: Adobe Illustrator 17.1.0, SVG Export Plug-In . SVG Version: 6.00 Build 0)  -->
<!DOCTYPE svg PUBLIC "-//W3C//DTD SVG 1.1//EN" "http://www.w3.org/Graphics/SVG/1.1/DTD/svg11.dtd">
<svg version="1.1" id="Capa_1" xmlns="http://www.w3.org/2000/svg" xmlns:xlink="http://www.w3.org/1999/xlink" x="0px" y="0px"
	 viewBox="0 0 409.834 409.834" style="enable-background:new 0 0 409.834 409.834;" xml:space="preserve">
<path d="M291.574,409.834H166.863c-2.39,0-4.446-1.691-4.906-4.037c-0.461-2.345,0.804-4.688,3.016-5.592l50.993-20.822v-63.229
	c0-6.841-0.893-13.661-2.653-20.271l-49.156-184.639c-2.563,0.362-5.181,0.549-7.843,0.549c-30.821,0-55.896-25.075-55.896-55.896
	S125.492,0,156.313,0c28.396,0,51.916,21.286,55.44,48.739h92.663c1.553,0,3.018,0.722,3.964,1.953
	c0.947,1.231,1.268,2.832,0.868,4.333l-64.124,240.856c-1.76,6.611-2.652,13.432-2.652,20.271v63.229l50.992,20.822
	c2.212,0.903,3.477,3.247,3.016,5.592C296.02,408.143,293.964,409.834,291.574,409.834z M192.335,399.834h73.769l-30.521-12.463
	c-1.88-0.768-3.109-2.598-3.109-4.629v-66.589c0-7.708,1.006-15.394,2.988-22.844l53.661-201.557h-89.96
	c-6.595,7.868-15.314,13.901-25.266,17.208l49.08,184.349c1.983,7.448,2.989,15.135,2.989,22.844v66.589
	c0,2.031-1.229,3.861-3.109,4.629L192.335,399.834z M156.313,10c-25.308,0-45.896,20.589-45.896,45.896s20.589,45.896,45.896,45.896
	c1.773,0,3.525-0.102,5.247-0.298l-12.372-46.47c-0.399-1.501-0.079-3.102,0.868-4.333c0.946-1.231,2.411-1.953,3.964-1.953h47.632
	C198.205,26.819,179.186,10,156.313,10z M169.315,91.753l2.002,7.521c4.982-1.728,9.576-4.291,13.615-7.521H169.315z
	 M205.862,81.753h85.922l6.128-23.014h-85.773C211.723,67.007,209.501,74.808,205.862,81.753z M166.652,81.753h27.563
	c4.54-6.634,7.386-14.515,7.907-23.014h-41.598L166.652,81.753z M215.414,211.835c-2.209,0-4.229-1.474-4.827-3.709l-23-86
	c-0.714-2.668,0.87-5.409,3.538-6.122c2.665-0.718,5.408,0.869,6.122,3.538l23,86c0.714,2.668-0.87,5.409-3.538,6.122
	C216.276,211.78,215.842,211.835,215.414,211.835z"/>
<g>
</g>
<g>
</g>
<g>
</g>
<g>
</g>
<g>
</g>
<g>
</g>
<g>
</g>
<g>
</g>
<g>
</g>
<g>
</g>
<g>
</g>
<g>
</g>
<g>
</g>
<g>
</g>
<g>
</g>
</svg>
