<?xml version="1.0" encoding="iso-8859-1"?>
<!-- Generator: Adobe Illustrator 17.1.0, SVG Export Plug-In . SVG Version: 6.00 Build 0)  -->
<!DOCTYPE svg PUBLIC "-//W3C//DTD SVG 1.1//EN" "http://www.w3.org/Graphics/SVG/1.1/DTD/svg11.dtd">
<svg version="1.1" id="Capa_1" xmlns="http://www.w3.org/2000/svg" xmlns:xlink="http://www.w3.org/1999/xlink" x="0px" y="0px"
	 viewBox="0 0 345.329 345.329" style="enable-background:new 0 0 345.329 345.329;" xml:space="preserve">
<path d="M315.759,345.329H26.227c-2.762,0-5-2.238-5-5v-119.87c0-2.762,2.238-5,5-5h29.394
	c2.056-21.031,14.382-40.491,35.072-55.176c20.438-14.506,47.016-22.855,75.301-23.737v-22.741
	c0-16.993,13.824-30.817,30.817-30.817h81.72c11.479,0,20.818-9.339,20.818-20.818V38.866c-8.479-2.22-14.754-9.947-14.754-19.113
	C284.595,8.861,293.457,0,304.349,0c10.892,0,19.753,8.861,19.753,19.753c0,9.165-6.274,16.893-14.753,19.113v23.303
	c0,16.993-13.825,30.818-30.818,30.818h-81.72c-11.479,0-20.817,9.339-20.817,20.817v22.741c28.285,0.882,54.861,9.231,75.3,23.737
	c20.691,14.685,33.018,34.145,35.073,55.176h29.393c2.762,0,5,2.238,5,5v119.87C320.759,343.091,318.521,345.329,315.759,345.329z
	 M31.227,335.329h279.532v-109.87H31.227V335.329z M65.754,214.844h210.479c-2.243-17.504-12.999-33.823-30.727-46.405
	c-19.963-14.168-46.425-21.971-74.513-21.971s-54.55,7.803-74.513,21.971C78.753,181.021,67.998,197.34,65.754,214.844z M304.349,10
	c-5.378,0-9.754,4.375-9.754,9.753s4.376,9.754,9.754,9.754s9.753-4.376,9.753-9.754S309.727,10,304.349,10z M284.063,316.365
	H57.923c-2.762,0-5-2.238-5-5v-61.942c0-2.762,2.238-5,5-5h226.14c2.762,0,5,2.238,5,5v61.942
	C289.063,314.127,286.825,316.365,284.063,316.365z M62.923,306.365h216.14v-51.942H62.923V306.365z M170.994,297.684
	c-9.534,0-17.291-7.756-17.291-17.29s7.757-17.29,17.291-17.29s17.29,7.756,17.29,17.29S180.528,297.684,170.994,297.684z
	 M170.994,273.104c-4.021,0-7.291,3.271-7.291,7.29s3.271,7.29,7.291,7.29c4.02,0,7.29-3.271,7.29-7.29
	S175.013,273.104,170.994,273.104z"/>
<g>
</g>
<g>
</g>
<g>
</g>
<g>
</g>
<g>
</g>
<g>
</g>
<g>
</g>
<g>
</g>
<g>
</g>
<g>
</g>
<g>
</g>
<g>
</g>
<g>
</g>
<g>
</g>
<g>
</g>
</svg>
