<?xml version="1.0" encoding="iso-8859-1"?>
<!-- Generator: Adobe Illustrator 17.1.0, SVG Export Plug-In . SVG Version: 6.00 Build 0)  -->
<!DOCTYPE svg PUBLIC "-//W3C//DTD SVG 1.1//EN" "http://www.w3.org/Graphics/SVG/1.1/DTD/svg11.dtd">
<svg version="1.1" id="Capa_1" xmlns="http://www.w3.org/2000/svg" xmlns:xlink="http://www.w3.org/1999/xlink" x="0px" y="0px"
	 viewBox="0 0 337.739 337.739" style="enable-background:new 0 0 337.739 337.739;" xml:space="preserve">
<path d="M103.824,337.739c-45.328,0-85.775-44.438-94.084-103.366c-8.942-63.423,22.998-120.551,71.198-127.347
	c3.155-0.445,6.368-0.67,9.548-0.67c45.328,0,85.775,44.438,94.084,103.367c4.295,30.464-0.588,60.419-13.75,84.345
	c-13.422,24.399-33.824,39.67-57.449,43.001C110.217,337.513,107.004,337.739,103.824,337.739z M90.486,116.355
	c-2.715,0-5.458,0.193-8.152,0.573c-42.741,6.026-70.865,58.085-62.692,116.048c3.72,26.381,14.545,50.598,30.482,68.189
	c15.525,17.136,34.596,26.573,53.699,26.573c2.715,0,5.458-0.193,8.152-0.573c20.43-2.88,38.216-16.347,50.083-37.919
	c12.127-22.044,16.605-49.792,12.609-78.129c-3.72-26.381-14.545-50.598-30.483-68.189
	C128.661,125.792,109.59,116.355,90.486,116.355z M111.342,317.607c-1.079,0-2.162-0.348-3.07-1.055
	c-2-1.557-2.518-4.364-1.207-6.533c0.055-0.097,8.254-14.913,1.137-48.574c-3.398-16.067-10.382-23.557-17.777-31.486
	c-8.74-9.373-17.777-19.063-20.946-41.539c-4.088-28.992,15.422-57.4,16.255-58.595c1.312-1.883,3.737-2.63,5.881-1.814
	c2.145,0.816,3.458,2.989,3.186,5.268c-1.16,9.693-2.765,37.483,3.648,49.507c5.938,11.132,12.705,18.578,19.249,25.778
	c9.87,10.859,19.191,21.116,22.255,40.905c5.461,35.283-23.803,65.387-25.051,66.651
	C113.929,317.105,112.639,317.607,111.342,317.607z M83.749,155.841c-3.369,9.111-5.909,20.254-4.368,31.184
	c2.729,19.355,10.32,27.496,18.357,36.115c8.001,8.58,16.274,17.451,20.247,36.237c2.709,12.812,3.373,23.248,3.046,31.479
	c6.022-10.662,11.349-24.933,9.038-39.857c-2.603-16.817-10.18-25.154-19.772-35.708c-6.632-7.297-14.148-15.567-20.671-27.798
	C85.28,179.344,83.937,166.887,83.749,155.841z M248.471,185.313c-0.002,0-0.002,0-0.005,0c-4.129,0-8.259-0.461-12.274-1.369
	c-18.865-4.269-34.318-17.941-43.512-38.501c-8.974-20.067-10.91-44.407-5.451-68.536C197.31,32.344,230.111,0,265.221,0
	c4.128,0,8.258,0.46,12.275,1.369c18.865,4.269,34.318,17.941,43.512,38.501c8.974,20.067,10.91,44.407,5.451,68.536
	C316.377,152.969,283.578,185.313,248.471,185.313z M265.221,10c-14.332,0-29.058,6.755-41.463,19.022
	c-12.829,12.685-22.338,30.474-26.775,50.091c-4.985,22.034-3.271,44.14,4.825,62.247c7.877,17.614,20.872,29.273,36.591,32.83
	c3.293,0.745,6.681,1.123,10.068,1.123c0.001,0,0.003,0,0.004,0c14.33,0,29.054-6.755,41.459-19.021
	c12.828-12.685,22.337-30.475,26.775-50.093c4.985-22.033,3.271-44.14-4.825-62.247c-7.877-17.614-20.872-29.273-36.591-32.83
	C271.996,10.377,268.608,10,265.221,10z M241.821,169.153c-1.698,0-3.341-0.867-4.274-2.401c-1.317-2.165-0.807-4.974,1.189-6.536
	c0.045-0.039,10.066-8.631,14.201-35.232c1.966-12.655-1.069-20.083-4.284-27.948c-3.74-9.153-7.979-19.527-3.918-37.482
	c5.236-23.145,28.122-39.02,29.094-39.685c1.895-1.296,4.427-1.134,6.143,0.39c1.716,1.524,2.173,4.021,1.11,6.055
	c-3.563,6.819-12.514,26.816-11.168,37.325c1.262,9.848,4.176,17.25,6.994,24.407c4.343,11.028,8.444,21.445,5.07,37.355
	c-6.009,28.332-36.773,42.702-38.08,43.3C243.227,169.006,242.519,169.153,241.821,169.153z M262.757,44.644
	c-3.638,4.938-6.829,10.751-8.269,17.115c-3.367,14.882-0.222,22.58,3.421,31.493c3.423,8.375,7.302,17.866,4.908,33.267
	c-1.289,8.293-3.104,15.073-5.09,20.571c6.322-5.937,12.378-13.912,14.467-23.765c2.751-12.969-0.489-21.198-4.592-31.617
	c-2.901-7.367-6.188-15.717-7.608-26.801C259.231,58.946,260.644,51.596,262.757,44.644z"/>
<g>
</g>
<g>
</g>
<g>
</g>
<g>
</g>
<g>
</g>
<g>
</g>
<g>
</g>
<g>
</g>
<g>
</g>
<g>
</g>
<g>
</g>
<g>
</g>
<g>
</g>
<g>
</g>
<g>
</g>
</svg>
