<?xml version="1.0" encoding="iso-8859-1"?>
<!-- Generator: Adobe Illustrator 17.1.0, SVG Export Plug-In . SVG Version: 6.00 Build 0)  -->
<!DOCTYPE svg PUBLIC "-//W3C//DTD SVG 1.1//EN" "http://www.w3.org/Graphics/SVG/1.1/DTD/svg11.dtd">
<svg version="1.1" id="Capa_1" xmlns="http://www.w3.org/2000/svg" xmlns:xlink="http://www.w3.org/1999/xlink" x="0px" y="0px"
	 viewBox="0 0 389.523 389.523" style="enable-background:new 0 0 389.523 389.523;" xml:space="preserve">
<path d="M147.115,320.166H21.642c-10.277,0-18.638-7.607-18.638-16.957c0-0.268,0.021-0.535,0.064-0.8l19.494-120.301L0.688,144.833
	c-0.92-1.568-0.917-3.512,0.009-5.077c0.926-1.565,2.627-2.518,4.445-2.452l143,4.055c1.391,0.04,2.702,0.656,3.619,1.703
	c0.917,1.046,1.356,2.427,1.213,3.811l-3.042,29.351L374.408,69.839c1.198-0.569,2.573-0.636,3.822-0.191
	c1.249,0.446,2.27,1.37,2.837,2.568l7.973,16.823c1.179,2.489,0.124,5.463-2.361,6.651L153.445,207.259l12.268,95.312
	c0.027,0.211,0.041,0.425,0.041,0.638C165.754,312.559,157.393,320.166,147.115,320.166z M13.014,303.549
	c0.221,3.679,4.006,6.617,8.628,6.617h125.474c4.651,0,8.455-2.975,8.632-6.687l-12.789-99.357l-2.766-17.774l-89.594-0.173
	L33.932,286.179c-0.454,2.724-3.026,4.565-5.754,4.11c-2.724-0.454-4.563-3.03-4.11-5.754l16.397-98.38l-8.426-0.016L13.014,303.549
	z M150.821,186.868l1.281,9.95l55.768-26.677l-3.42-8.688L150.821,186.868z M30.652,176.136l109.214,0.211l2.605-25.145
	L13.88,147.556L30.652,176.136z M213.506,157.16l3.407,8.654L377.87,88.819l-3.697-7.802L213.506,157.16z"/>
<g>
</g>
<g>
</g>
<g>
</g>
<g>
</g>
<g>
</g>
<g>
</g>
<g>
</g>
<g>
</g>
<g>
</g>
<g>
</g>
<g>
</g>
<g>
</g>
<g>
</g>
<g>
</g>
<g>
</g>
</svg>
