<?xml version="1.0" encoding="iso-8859-1"?>
<!-- Generator: Adobe Illustrator 17.1.0, SVG Export Plug-In . SVG Version: 6.00 Build 0)  -->
<!DOCTYPE svg PUBLIC "-//W3C//DTD SVG 1.1//EN" "http://www.w3.org/Graphics/SVG/1.1/DTD/svg11.dtd">
<svg version="1.1" id="Capa_1" xmlns="http://www.w3.org/2000/svg" xmlns:xlink="http://www.w3.org/1999/xlink" x="0px" y="0px"
	 viewBox="0 0 334.231 334.231" style="enable-background:new 0 0 334.231 334.231;" xml:space="preserve">
<path d="M206.256,329.469H85.251c-0.744,0-1.479-0.167-2.152-0.487c-24.504-11.684-45.242-29.949-59.973-52.82
	C7.997,252.67,0,225.419,0,197.353c0-25.554,6.71-50.696,19.405-72.708c11.633-20.17,28.039-37.372,47.611-49.963L44.663,11.428
	c-0.561-1.585-0.286-3.346,0.729-4.687s2.642-2.079,4.314-1.969l168.627,11.173c2.627,0.174,4.669,2.356,4.669,4.989v1.525
	c9.96,0.079,34.33,0.716,49.6,4.876c22.409,6.106,51.031,55.803,57.13,83.779c6.835,31.34,3.885,66.523,3.756,68.006
	c-0.216,2.476-2.216,4.417-4.696,4.559l-13.732,0.784c-1.376,0.076-2.718-0.412-3.718-1.356c-1-0.944-1.567-2.258-1.567-3.634
	c0-0.313-0.163-31.842-11.139-61.748c-9.568-26.078-22.55-46.556-34.725-54.78c-6.421-4.338-27.028-4.441-40.908-3.416v14.208
	c20.229,12.669,37.173,30.228,49.099,50.908c12.695,22.013,19.405,47.155,19.405,72.708c0,28.066-7.997,55.317-23.126,78.809
	c-14.73,22.871-35.469,41.136-59.973,52.82C207.735,329.303,207,329.469,206.256,329.469z M86.393,319.469h118.722
	c46.442-22.625,76.393-70.433,76.393-122.116c0-16.939-3.063-33.321-8.833-48.516H44.441c-1.323,3.484-2.465,7.162-3.355,11.021
	c-7.978,34.568-1.943,59.802-1.882,60.053c0.661,2.678-0.972,5.389-3.648,6.054c-2.679,0.665-5.386-0.96-6.055-3.636
	c-0.278-1.112-6.711-27.663,1.841-64.72c0.7-3.033,1.532-5.956,2.473-8.772H18.833C13.063,164.032,10,180.414,10,197.353
	C10,249.036,39.95,296.844,86.393,319.469z M237.551,48.991c11.57,0,25.197,1.101,31.958,5.668
	c14.058,9.496,28.096,31.227,38.516,59.621c8.983,24.479,11.1,49.308,11.597,59.907l4.185-0.239
	c0.552-10.263,1.313-37.058-3.843-60.703c-6.378-29.252-34.409-72.016-49.989-76.261c-13.66-3.722-36.364-4.399-46.328-4.511v16.993
	C227.237,49.228,232.172,48.991,237.551,48.991z M48.959,138.837h219.445c-11.011-23.139-28.595-42.969-51.371-57.037H74.475
	c-22.776,14.068-40.361,33.898-51.372,57.037h14.672c11.921-25.922,31.771-40.253,32.789-40.976
	c2.252-1.598,5.373-1.069,6.971,1.184c1.598,2.25,1.069,5.368-1.178,6.967l0,0C76.146,106.163,59.954,117.92,48.959,138.837z
	 M76.604,71.8h136.398V25.614L56.62,15.252L76.604,71.8z"/>
<g>
</g>
<g>
</g>
<g>
</g>
<g>
</g>
<g>
</g>
<g>
</g>
<g>
</g>
<g>
</g>
<g>
</g>
<g>
</g>
<g>
</g>
<g>
</g>
<g>
</g>
<g>
</g>
<g>
</g>
</svg>
