<?xml version="1.0" encoding="iso-8859-1"?>
<!-- Generator: Adobe Illustrator 17.1.0, SVG Export Plug-In . SVG Version: 6.00 Build 0)  -->
<!DOCTYPE svg PUBLIC "-//W3C//DTD SVG 1.1//EN" "http://www.w3.org/Graphics/SVG/1.1/DTD/svg11.dtd">
<svg version="1.1" id="Capa_1" xmlns="http://www.w3.org/2000/svg" xmlns:xlink="http://www.w3.org/1999/xlink" x="0px" y="0px"
	 viewBox="0 0 362 362" style="enable-background:new 0 0 362 362;" xml:space="preserve">
<path d="M246.371,362H115.629C100.395,362,88,347.645,88,330V160c0-12.36,6.815-23.149,19.19-30.379l19.617-10.984l27.401-15.458
	V56.5h-4.542c-2.762,0-5-2.239-5-5V22c0-2.761,2.238-5,5-5h4.542V5c0-2.761,2.238-5,5-5h43.581c2.762,0,5,2.239,5,5v12h4.543
	c2.762,0,5,2.239,5,5v29.5c0,2.761-2.238,5-5,5h-4.543v47.107l46.442,25.584C263.766,134.322,274,145.128,274,160v170
	C274,347.645,261.605,362,246.371,362z M164.209,56.5v49.6c0,1.804-0.972,3.468-2.543,4.355l-29.959,16.9l-19.552,10.946
	C105.741,142.049,98,148.901,98,160v170c0,12.131,7.908,22,17.629,22h130.742c9.721,0,17.629-9.869,17.629-22V160
	c0-10.466-7.516-18.24-14.55-22.026l-49.072-27.033c-1.597-0.879-2.588-2.557-2.588-4.379V56.5H164.209z M202.79,46.5h4.543V27
	h-52.666v19.5H202.79z M164.209,17h33.581v-7h-33.581V17z M241.366,323H120.634c-2.762,0-5-2.239-5-5V168c0-2.761,2.238-5,5-5
	h120.732c2.762,0,5,2.239,5,5v150C246.366,320.761,244.128,323,241.366,323z M125.634,313h110.732V173H125.634V313z"/>
<g>
</g>
<g>
</g>
<g>
</g>
<g>
</g>
<g>
</g>
<g>
</g>
<g>
</g>
<g>
</g>
<g>
</g>
<g>
</g>
<g>
</g>
<g>
</g>
<g>
</g>
<g>
</g>
<g>
</g>
</svg>
