<?xml version="1.0" encoding="iso-8859-1"?>
<!-- Generator: Adobe Illustrator 17.1.0, SVG Export Plug-In . SVG Version: 6.00 Build 0)  -->
<!DOCTYPE svg PUBLIC "-//W3C//DTD SVG 1.1//EN" "http://www.w3.org/Graphics/SVG/1.1/DTD/svg11.dtd">
<svg version="1.1" id="Capa_1" xmlns="http://www.w3.org/2000/svg" xmlns:xlink="http://www.w3.org/1999/xlink" x="0px" y="0px"
	 viewBox="0 0 413.739 413.739" style="enable-background:new 0 0 413.739 413.739;" xml:space="preserve">
<path d="M268.827,413.739H144.912c-6.098,0-11.479-3.663-13.712-9.331c-4.806-12.203-14.07-36.251-22.125-60.192
	c-13.052-38.793-15.277-74.478-5.952-95.456c7.626-17.16,19.352-24.445,34.197-33.669c5.636-3.501,12.023-7.47,18.863-12.428
	c14.514-10.523,13.034-17.196,10.347-29.309c-1.227-5.529-2.617-11.795-2.617-19.294c0-12.921,3.46-27.067,6.807-40.748
	c2.796-11.433,5.438-22.23,5.438-30.269c0-10.39-2.497-18.188-4.591-22.9c-2.043-4.596-1.265-10.083,1.982-13.981l0.9-1.08
	l-6.223-24.004c-1.621-6.252,2.125-12.734,8.351-14.451l17.979-4.96c8.056-2.223,16.573-2.223,24.631,0l17.979,4.96
	c6.225,1.717,9.971,8.199,8.35,14.451l-6.223,24.004l0.899,1.079c3.247,3.899,4.025,9.388,1.983,13.982
	c-2.095,4.713-4.592,12.512-4.592,22.9c0,8.038,2.642,18.836,5.438,30.269c3.347,13.681,6.807,27.827,6.807,40.748
	c0,7.499-1.39,13.765-2.616,19.293c-2.688,12.113-4.168,18.786,10.347,29.31c6.84,4.958,13.227,8.927,18.862,12.428
	c14.846,9.224,26.571,16.509,34.198,33.669c9.324,20.979,7.099,56.664-5.952,95.456l0,0c-8.048,23.92-17.317,47.979-22.126,60.192
	C280.306,410.077,274.924,413.739,268.827,413.739z M174.188,159.422c0.424,4.196,1.273,8.026,2.104,11.767
	c2.874,12.956,5.589,25.193-14.24,39.57c-7.128,5.168-13.677,9.237-19.455,12.826c-14.428,8.964-23.959,14.886-30.337,29.235
	c-8.209,18.472-5.798,52.27,6.292,88.206c7.985,23.733,17.182,47.603,21.953,59.718c0.716,1.819,2.446,2.995,4.407,2.995h123.915
	c1.961,0,3.69-1.176,4.407-2.995c4.774-12.125,13.975-36.006,21.952-59.718c12.091-35.936,14.502-69.734,6.292-88.206
	c-6.378-14.35-15.909-20.271-30.337-29.235c-5.777-3.59-12.326-7.658-19.454-12.826c-19.829-14.377-17.114-26.614-14.24-39.57
	c0.829-3.74,1.679-7.57,2.104-11.767h-10.844c-1.849,13.299-10.938,23.428-21.837,23.428s-19.989-10.129-21.838-23.428H174.188z
	 M206.87,135.993c-6.603,0-12.181,8.439-12.181,18.429s5.578,18.428,12.181,18.428s12.181-8.438,12.181-18.428
	S213.473,135.993,206.87,135.993z M228.707,149.422h10.96c-0.697-10.579-3.57-22.326-6.361-33.733
	c-2.943-12.034-5.724-23.4-5.724-32.645c0-12.143,2.966-21.364,5.453-26.961c0.509-1.144,0.301-2.525-0.527-3.521l-1.043-1.25
	h-49.191l-1.043,1.252c-0.828,0.994-1.035,2.376-0.527,3.52c2.488,5.597,5.453,14.817,5.453,26.961c0,9.244-2.78,20.61-5.724,32.645
	c-2.791,11.407-5.664,23.154-6.361,33.733h10.96c1.849-13.299,10.938-23.429,21.838-23.429S226.858,136.123,228.707,149.422z
	 M183.801,41.312h46.136l5.896-22.743c0.258-0.996-0.338-2.027-1.329-2.301l-17.979-4.96c-6.316-1.744-12.994-1.744-19.312,0
	l-17.979,4.96c-0.992,0.273-1.587,1.306-1.33,2.301L183.801,41.312z M206.87,299.042c-32.874,0-58.625-16.28-58.625-37.064
	s25.751-37.064,58.625-37.064c32.875,0,58.625,16.28,58.625,37.064S239.744,299.042,206.87,299.042z M206.87,234.913
	c-26.358,0-48.625,12.394-48.625,27.064s22.268,27.064,48.625,27.064s48.625-12.394,48.625-27.064S233.228,234.913,206.87,234.913z"
	/>
<g>
</g>
<g>
</g>
<g>
</g>
<g>
</g>
<g>
</g>
<g>
</g>
<g>
</g>
<g>
</g>
<g>
</g>
<g>
</g>
<g>
</g>
<g>
</g>
<g>
</g>
<g>
</g>
<g>
</g>
</svg>
