<?xml version="1.0" encoding="iso-8859-1"?>
<!-- Generator: Adobe Illustrator 17.1.0, SVG Export Plug-In . SVG Version: 6.00 Build 0)  -->
<!DOCTYPE svg PUBLIC "-//W3C//DTD SVG 1.1//EN" "http://www.w3.org/Graphics/SVG/1.1/DTD/svg11.dtd">
<svg version="1.1" id="Capa_1" xmlns="http://www.w3.org/2000/svg" xmlns:xlink="http://www.w3.org/1999/xlink" x="0px" y="0px"
	 viewBox="0 0 387.5 387.5" style="enable-background:new 0 0 387.5 387.5;" xml:space="preserve">
<path d="M320.371,387.5H67.115c-5.31,0-9.72-4.074-10.258-9.479c-1.398-14.043-2.107-28.524-2.107-43.041
	c0-84.099,24.318-152.872,70.327-198.886c2.396-2.396,4.557-4.865,6.423-7.34l34.417-60.7c0.006-0.021,0.013-0.042,0.02-0.063
	l0.004-0.014V33.5h-5.691c-2.761,0-5-2.238-5-5V5c0-2.762,2.239-5,5-5h67c2.761,0,5,2.238,5,5v23.5c0,2.762-2.239,5-5,5h-5.691
	v33.677c0.022,0.037,0.043,0.074,0.064,0.111l35.258,62.315c1.814,2.421,3.897,4.827,6.197,7.156
	c21.819,22.101,38.816,49.313,50.518,80.88c12.71,34.285,19.154,73.765,19.154,117.341c0,14.404-0.711,28.865-2.115,42.98
	C330.094,383.399,325.682,387.5,320.371,387.5z M173.759,74.5l-33.718,59.466c-0.103,0.183-0.218,0.357-0.343,0.524
	c-2.195,2.941-4.735,5.86-7.55,8.675C88.056,187.263,64.75,253.591,64.75,334.98c0,14.188,0.692,28.335,2.058,42.051
	c0.032,0.324,0.235,0.469,0.307,0.469h253.256c0.063,0,0.276-0.159,0.313-0.529c1.371-13.787,2.066-27.915,2.066-41.99
	c0-80.824-23.095-146.938-66.789-191.195h0c-2.704-2.74-5.158-5.589-7.292-8.467c-0.123-0.165-0.234-0.338-0.335-0.517L214.214,74.5
	H173.759z M175.941,63.75h35.617V33.5h-35.617V63.75z M165.25,23.5h57V10h-57V23.5z M309.75,368.5h-232c-2.761,0-5-2.238-5-5
	s2.239-5,5-5h232c2.761,0,5,2.238,5,5S312.511,368.5,309.75,368.5z M193.75,298.5c-23.623,0-45.905-5.67-62.742-15.965
	c-17.604-10.765-27.3-25.338-27.3-41.035s9.695-30.271,27.3-41.035c16.836-10.295,39.119-15.965,62.742-15.965
	s45.905,5.67,62.742,15.965c17.604,10.765,27.3,25.338,27.3,41.035s-9.695,30.271-27.3,41.035
	C239.655,292.83,217.373,298.5,193.75,298.5z M193.75,194.5c-21.808,0-42.237,5.148-57.525,14.496
	c-14.52,8.879-22.517,20.422-22.517,32.504s7.997,23.625,22.517,32.504c15.288,9.348,35.717,14.496,57.525,14.496
	s42.237-5.148,57.525-14.496c14.52-8.879,22.517-20.422,22.517-32.504s-7.997-23.625-22.517-32.504
	C235.987,199.648,215.558,194.5,193.75,194.5z"/>
<g>
</g>
<g>
</g>
<g>
</g>
<g>
</g>
<g>
</g>
<g>
</g>
<g>
</g>
<g>
</g>
<g>
</g>
<g>
</g>
<g>
</g>
<g>
</g>
<g>
</g>
<g>
</g>
<g>
</g>
</svg>
