<?xml version="1.0" encoding="iso-8859-1"?>
<!-- Generator: Adobe Illustrator 17.1.0, SVG Export Plug-In . SVG Version: 6.00 Build 0)  -->
<!DOCTYPE svg PUBLIC "-//W3C//DTD SVG 1.1//EN" "http://www.w3.org/Graphics/SVG/1.1/DTD/svg11.dtd">
<svg version="1.1" id="Capa_1" xmlns="http://www.w3.org/2000/svg" xmlns:xlink="http://www.w3.org/1999/xlink" x="0px" y="0px"
	 viewBox="0 0 410.562 410.562" style="enable-background:new 0 0 410.562 410.562;" xml:space="preserve">
<path d="M277.553,269.29c-33.754,0-65.965-12.632-90.7-35.57c-9.586-8.89-17.718-19.01-24.231-30.024
	c-0.229-0.261-0.434-0.549-0.609-0.865l-9.228-16.544c-0.07-0.125-0.134-0.253-0.193-0.383c-1.41-3.132-4.411-5.228-7.833-5.47
	c-33.206-2.349-139.276-14.832-140.344-14.957C1.897,165.179,0,163.045,0,160.51v-10.413c0-1.36,0.554-2.662,1.535-3.605
	c0.98-0.942,2.303-1.439,3.663-1.391l139.74,5.531c-0.145-1.316-0.271-2.635-0.377-3.959c-0.112-1.391,0.363-2.766,1.31-3.791
	c0.947-1.025,2.279-1.609,3.674-1.609h256.018c1.396,0,2.728,0.583,3.674,1.609c0.946,1.025,1.421,2.4,1.31,3.791
	c-2.674,33.322-17.694,64.236-42.292,87.047C343.519,256.657,311.308,269.29,277.553,269.29z M155.083,151.272
	c7.638,60.994,60.41,108.017,122.471,108.017s114.833-47.023,122.471-108.017H155.083z M10,156.062
	c20.48,2.392,106.357,12.338,135.464,14.396c1.138,0.081,2.254,0.26,3.337,0.531c-0.922-3.39-1.71-6.819-2.364-10.29L10,155.299
	V156.062z M315.29,244.992c-2.761,0-5-2.239-5-5v-7.81c0-2.761,2.239-5,5-5s5,2.239,5,5v7.81
	C320.29,242.753,318.051,244.992,315.29,244.992z M277.975,244.992c-2.761,0-5-2.239-5-5v-7.81c0-2.761,2.239-5,5-5s5,2.239,5,5
	v7.81C282.975,242.753,280.736,244.992,277.975,244.992z M240.661,244.992c-2.761,0-5-2.239-5-5v-7.81c0-2.761,2.239-5,5-5
	s5,2.239,5,5v7.81C245.661,242.753,243.422,244.992,240.661,244.992z M352.604,212.884c-2.761,0-5-2.239-5-5v-7.81
	c0-2.761,2.239-5,5-5s5,2.239,5,5v7.81C357.604,210.645,355.365,212.884,352.604,212.884z M315.29,212.884c-2.761,0-5-2.239-5-5
	v-7.81c0-2.761,2.239-5,5-5s5,2.239,5,5v7.81C320.29,210.645,318.051,212.884,315.29,212.884z M277.975,212.884
	c-2.761,0-5-2.239-5-5v-7.81c0-2.761,2.239-5,5-5s5,2.239,5,5v7.81C282.975,210.645,280.736,212.884,277.975,212.884z
	 M240.661,212.884c-2.761,0-5-2.239-5-5v-7.81c0-2.761,2.239-5,5-5s5,2.239,5,5v7.81
	C245.661,210.645,243.422,212.884,240.661,212.884z M203.346,212.884c-2.761,0-5-2.239-5-5v-7.81c0-2.761,2.239-5,5-5s5,2.239,5,5
	v7.81C208.346,210.645,206.107,212.884,203.346,212.884z M352.604,180.777c-2.761,0-5-2.239-5-5v-7.81c0-2.761,2.239-5,5-5
	s5,2.239,5,5v7.81C357.604,178.538,355.365,180.777,352.604,180.777z M315.29,180.777c-2.761,0-5-2.239-5-5v-7.81
	c0-2.761,2.239-5,5-5s5,2.239,5,5v7.81C320.29,178.538,318.051,180.777,315.29,180.777z M277.975,180.777c-2.761,0-5-2.239-5-5
	v-7.81c0-2.761,2.239-5,5-5s5,2.239,5,5v7.81C282.975,178.538,280.736,180.777,277.975,180.777z M240.661,180.777
	c-2.761,0-5-2.239-5-5v-7.81c0-2.761,2.239-5,5-5s5,2.239,5,5v7.81C245.661,178.538,243.422,180.777,240.661,180.777z
	 M203.346,180.777c-2.761,0-5-2.239-5-5v-7.81c0-2.761,2.239-5,5-5s5,2.239,5,5v7.81
	C208.346,178.538,206.107,180.777,203.346,180.777z"/>
<g>
</g>
<g>
</g>
<g>
</g>
<g>
</g>
<g>
</g>
<g>
</g>
<g>
</g>
<g>
</g>
<g>
</g>
<g>
</g>
<g>
</g>
<g>
</g>
<g>
</g>
<g>
</g>
<g>
</g>
</svg>
