<?xml version="1.0" encoding="iso-8859-1"?>
<!-- Generator: Adobe Illustrator 17.1.0, SVG Export Plug-In . SVG Version: 6.00 Build 0)  -->
<!DOCTYPE svg PUBLIC "-//W3C//DTD SVG 1.1//EN" "http://www.w3.org/Graphics/SVG/1.1/DTD/svg11.dtd">
<svg version="1.1" id="Capa_1" xmlns="http://www.w3.org/2000/svg" xmlns:xlink="http://www.w3.org/1999/xlink" x="0px" y="0px"
	 viewBox="0 0 424.667 424.667" style="enable-background:new 0 0 424.667 424.667;" xml:space="preserve">
<path d="M290.737,424.667H133.93c-2.762,0-5-2.238-5-5V228.061c0-10.66,8.673-19.333,19.334-19.333h37.192
	c-4.853-8.923-10.176-11.043-20.887-15.31c-3.042-1.212-6.489-2.586-10.331-4.297c-2.612-1.164-5.017-2.14-7.342-3.084
	c-12.513-5.078-22.396-9.089-22.396-29.504V19.463C124.5,8.731,133.231,0,143.963,0h136.741c10.731,0,19.463,8.731,19.463,19.463
	v137.07c0,20.39-9.861,24.399-22.346,29.476c-2.339,0.95-4.758,1.934-7.387,3.109c-3.207,1.434-6.177,2.61-9.049,3.748
	c-10.097,3.999-17.02,6.742-22.152,15.861h37.17c10.661,0,19.334,8.673,19.334,19.333v191.606
	C295.737,422.429,293.499,424.667,290.737,424.667z M138.93,414.667h146.808V228.061c0-5.146-4.188-9.333-9.334-9.333h-128.14
	c-5.146,0-9.334,4.187-9.334,9.333V414.667z M196.607,208.728h31.452l0.958-2.009c6.935-14.534,17.015-18.526,28.686-23.149
	c2.773-1.099,5.641-2.235,8.649-3.58c2.786-1.246,5.397-2.308,7.702-3.244c12.052-4.9,16.112-6.552,16.112-20.212V58.978H134.5
	v97.556c0,13.682,4.071,15.334,16.157,20.238c2.29,0.93,4.885,1.982,7.651,3.215c3.658,1.63,7.007,2.965,9.962,4.142
	c11.898,4.74,20.496,8.165,27.379,22.591L196.607,208.728z M134.5,48.978h155.667V19.463c0-5.218-4.245-9.463-9.463-9.463H143.963
	c-5.218,0-9.463,4.245-9.463,9.463V48.978z M268.957,372.957H155.011c-2.762,0-5-2.238-5-5v-85.234c0-2.762,2.238-5,5-5h113.946
	c2.762,0,5,2.238,5,5v85.234C273.957,370.719,271.719,372.957,268.957,372.957z M199.985,362.957h63.972v-75.234h-18.748v16.68
	c2.215,1.57,3.662,4.153,3.662,7.068c0,4.774-3.885,8.658-8.659,8.658s-8.658-3.884-8.658-8.658c0-2.912,1.444-5.493,3.655-7.063
	v-16.685h-46.45v16.68c2.214,1.57,3.662,4.153,3.662,7.068c0,4.774-3.885,8.658-8.659,8.658s-8.659-3.884-8.659-8.658
	c0-2.912,1.445-5.493,3.656-7.064v-16.684h-18.748v75.234h8.572l-1.836-33.969c-0.073-1.371,0.419-2.712,1.363-3.708
	c0.944-0.997,2.257-1.562,3.63-1.562h25.089c1.373,0,2.686,0.564,3.63,1.562c0.944,0.996,1.437,2.338,1.363,3.708L199.985,362.957z
	 M178.567,362.398h11.434l1.551-28.68h-14.534L178.567,362.398z M264.08,145.551H160.587c-2.762,0-5-2.238-5-5V77.828
	c0-2.762,2.238-5,5-5H264.08c2.762,0,5,2.238,5,5v62.723C269.08,143.313,266.842,145.551,264.08,145.551z M165.587,135.551h93.493
	V82.828h-93.493V135.551z"/>
<g>
</g>
<g>
</g>
<g>
</g>
<g>
</g>
<g>
</g>
<g>
</g>
<g>
</g>
<g>
</g>
<g>
</g>
<g>
</g>
<g>
</g>
<g>
</g>
<g>
</g>
<g>
</g>
<g>
</g>
</svg>
