<?xml version="1.0" encoding="iso-8859-1"?>
<!-- Generator: Adobe Illustrator 17.1.0, SVG Export Plug-In . SVG Version: 6.00 Build 0)  -->
<!DOCTYPE svg PUBLIC "-//W3C//DTD SVG 1.1//EN" "http://www.w3.org/Graphics/SVG/1.1/DTD/svg11.dtd">
<svg version="1.1" id="Capa_1" xmlns="http://www.w3.org/2000/svg" xmlns:xlink="http://www.w3.org/1999/xlink" x="0px" y="0px"
	 viewBox="0 0 335.112 335.112" style="enable-background:new 0 0 335.112 335.112;" xml:space="preserve">
<path d="M176.394,335.112c-2.762,0-5-2.238-5-5V318.47c0-3.344-1.708-6.556-4.81-9.045l-1.312-1.054
	c-5.163-4.145-8.006-9.754-8.006-15.793s2.844-11.648,8.007-15.793l2.295-1.844c2.752-2.21,4.268-5.049,4.268-7.996
	s-1.516-5.786-4.267-7.995l-4.007-3.217c-5.163-4.146-8.006-9.755-8.006-15.794s2.843-11.648,8.006-15.793l7-5.62
	c2.752-2.209,4.267-5.049,4.267-7.996c0-2.946-1.516-5.786-4.267-7.994c-5.089-4.087-8.007-9.844-8.007-15.794v-51.621
	c0-0.238,0.017-0.473,0.049-0.702h-10.443c-2.761,0-5-2.238-5-5V79.757c-13.645-0.595-31.501-1.212-46.883-1.212
	c-16.221,0-29.811,2.472-41.802,4.653c-9.822,1.786-18.304,3.329-26.616,3.329c-24.385,0-24.385-19.795-24.385-47.191
	c0-32.503,5.93-37.814,26.327-39.197c8.122-0.552,16.354,0.638,25.886,2.013C71.048,3.791,85.183,5.83,104.84,5.83h125.433
	c19.656,0,33.792-2.039,45.15-3.678c9.532-1.376,17.764-2.567,25.886-2.013c20.397,1.383,26.327,6.694,26.327,39.197
	c0,27.396,0,47.191-24.385,47.191c-8.312,0-16.794-1.543-26.616-3.329c-11.991-2.182-25.581-4.653-41.802-4.653
	c-15.381,0-33.238,0.617-46.883,1.212v49.662c0,2.762-2.238,5-5,5h-10.443c0.032,0.229,0.049,0.464,0.049,0.702v51.621
	c0,2.946,1.516,5.786,4.268,7.996c5.162,4.144,8.006,9.753,8.006,15.792c0,6.04-2.843,11.649-8.007,15.795l-7,5.619
	c-2.751,2.209-4.267,5.048-4.267,7.995s1.516,5.786,4.267,7.996l4.007,3.216c5.163,4.146,8.007,9.755,8.007,15.794
	s-2.844,11.648-8.007,15.794l-2.295,1.843c-2.752,2.21-4.268,5.049-4.268,7.996s1.516,5.786,4.267,7.995l1.312,1.054
	c5.433,4.36,8.549,10.5,8.549,16.843v11.642C181.394,332.874,179.156,335.112,176.394,335.112z M157.162,124.419h20.789V74.977
	c0-2.672,2.1-4.871,4.769-4.995c14.148-0.655,34.675-1.437,52.114-1.437c17.123,0,31.185,2.558,43.591,4.814
	c9.346,1.7,17.418,3.168,24.827,3.168c11.659,0,14.385-3.43,14.385-37.191c0-14.277-1.067-21.839-3.57-25.283
	c-1.794-2.469-4.807-3.353-13.433-3.938c-7.068-0.475-14.442,0.585-23.782,1.934c-11.675,1.684-26.204,3.78-46.578,3.78H104.84
	c-20.375,0-34.904-2.097-46.578-3.78c-9.34-1.348-16.717-2.41-23.782-1.934c-8.626,0.585-11.639,1.469-13.433,3.938
	c-2.502,3.444-3.57,11.006-3.57,25.283c0,33.762,2.726,37.191,14.385,37.191c7.409,0,15.48-1.468,24.826-3.168
	c12.407-2.257,26.469-4.814,43.591-4.814c17.439,0,37.966,0.781,52.115,1.437c2.668,0.124,4.769,2.323,4.769,4.995V124.419z"/>
<g>
</g>
<g>
</g>
<g>
</g>
<g>
</g>
<g>
</g>
<g>
</g>
<g>
</g>
<g>
</g>
<g>
</g>
<g>
</g>
<g>
</g>
<g>
</g>
<g>
</g>
<g>
</g>
<g>
</g>
</svg>
