<?xml version="1.0" encoding="iso-8859-1"?>
<!-- Generator: Adobe Illustrator 17.1.0, SVG Export Plug-In . SVG Version: 6.00 Build 0)  -->
<!DOCTYPE svg PUBLIC "-//W3C//DTD SVG 1.1//EN" "http://www.w3.org/Graphics/SVG/1.1/DTD/svg11.dtd">
<svg version="1.1" id="Capa_1" xmlns="http://www.w3.org/2000/svg" xmlns:xlink="http://www.w3.org/1999/xlink" x="0px" y="0px"
	 viewBox="0 0 433 433" style="enable-background:new 0 0 433 433;" xml:space="preserve">
<path d="M217.017,433c-0.175,0-0.347-0.009-0.518-0.026c-0.17,0.018-0.342,0.026-0.517,0.026c-11.219,0-28.211-5.134-42.259-19.544
	c-10.815-11.094-23.707-31.777-23.707-67.306c0-55.857,40.419-139.164,49.466-157.108c-7.424-4.085-12.466-11.986-12.466-21.042V24
	c0-13.234,10.767-24,24-24h10c13.234,0,24,10.766,24,24v144c0,8.749-4.705,16.418-11.717,20.613
	c8.597,17.003,49.683,101.221,49.683,157.537c0,35.529-12.892,56.211-23.707,67.306C245.229,427.866,228.236,433,217.017,433z
	 M216.5,196.744c-6.819,23.534-27.483,98.961-27.483,148.748c0,51.098,16.945,71.935,27.482,75.82
	c10.538-3.885,27.483-24.722,27.483-75.82C243.983,295.708,223.321,220.284,216.5,196.744z M204.983,200.558
	c-12.732,26.391-44.965,97.921-44.965,145.592c0,32.167,11.348,50.56,20.867,60.325c5.228,5.363,10.875,9.207,16.343,11.829
	c-10.06-13.044-18.21-36.201-18.21-72.813C179.017,297.837,196.719,229.745,204.983,200.558z M228.018,200.561
	c8.263,29.187,25.964,97.276,25.964,144.931c0,36.612-8.15,59.769-18.21,72.813c5.468-2.623,11.115-6.466,16.343-11.829
	c9.52-9.766,20.867-28.158,20.867-60.325C272.983,298.479,240.75,226.952,228.018,200.561z M211.017,10c-7.72,0-14,6.28-14,14v144
	c0,7.72,6.28,14,14,14h10c7.72,0,14-6.28,14-14V24c0-7.72-6.28-14-14-14H211.017z"/>
<g>
</g>
<g>
</g>
<g>
</g>
<g>
</g>
<g>
</g>
<g>
</g>
<g>
</g>
<g>
</g>
<g>
</g>
<g>
</g>
<g>
</g>
<g>
</g>
<g>
</g>
<g>
</g>
<g>
</g>
</svg>
