<?xml version="1.0" encoding="iso-8859-1"?>
<!-- Generator: Adobe Illustrator 17.1.0, SVG Export Plug-In . SVG Version: 6.00 Build 0)  -->
<!DOCTYPE svg PUBLIC "-//W3C//DTD SVG 1.1//EN" "http://www.w3.org/Graphics/SVG/1.1/DTD/svg11.dtd">
<svg version="1.1" id="Capa_1" xmlns="http://www.w3.org/2000/svg" xmlns:xlink="http://www.w3.org/1999/xlink" x="0px" y="0px"
	 viewBox="0 0 286 286" style="enable-background:new 0 0 286 286;" xml:space="preserve">
<path d="M240,286H46c-25.364,0-46-20.636-46-46V46C0,20.636,20.636,0,46,0h194c25.364,0,46,20.636,46,46v194
	C286,265.364,265.364,286,240,286z M46,10c-19.851,0-36,16.149-36,36v194c0,19.851,16.149,36,36,36h194c19.851,0,36-16.149,36-36V46
	c0-19.851-16.149-36-36-36H46z M229,248.004c-2.761,0-5-2.238-5-5v-6c0-2.762,2.239-5,5-5s5,2.238,5,5v6
	C234,245.766,231.761,248.004,229,248.004z M143,248.004c-2.761,0-5-2.238-5-5v-6c0-2.762,2.239-5,5-5s5,2.238,5,5v6
	C148,245.766,145.761,248.004,143,248.004z M57,248.004c-2.761,0-5-2.238-5-5v-6c0-2.762,2.239-5,5-5s5,2.238,5,5v6
	C62,245.766,59.761,248.004,57,248.004z M184.337,204.004c-2.761,0-5-2.238-5-5v-6c0-2.762,2.239-5,5-5s5,2.238,5,5v6
	C189.337,201.766,187.098,204.004,184.337,204.004z M98.337,204.004c-2.761,0-5-2.238-5-5v-6c0-2.762,2.239-5,5-5s5,2.238,5,5v6
	C103.337,201.766,101.098,204.004,98.337,204.004z M229,153.004c-2.761,0-5-2.238-5-5v-6c0-2.762,2.239-5,5-5s5,2.238,5,5v6
	C234,150.766,231.761,153.004,229,153.004z M143,153.004c-2.761,0-5-2.238-5-5v-6c0-2.762,2.239-5,5-5s5,2.238,5,5v6
	C148,150.766,145.761,153.004,143,153.004z M57,153.004c-2.761,0-5-2.238-5-5v-6c0-2.762,2.239-5,5-5s5,2.238,5,5v6
	C62,150.766,59.761,153.004,57,153.004z M184.337,110.004c-2.761,0-5-2.238-5-5v-6c0-2.762,2.239-5,5-5s5,2.238,5,5v6
	C189.337,107.766,187.098,110.004,184.337,110.004z M98.337,110.004c-2.761,0-5-2.238-5-5v-6c0-2.762,2.239-5,5-5s5,2.238,5,5v6
	C103.337,107.766,101.098,110.004,98.337,110.004z M229,58.004c-2.761,0-5-2.238-5-5v-6c0-2.762,2.239-5,5-5s5,2.238,5,5v6
	C234,55.766,231.761,58.004,229,58.004z M143,58.004c-2.761,0-5-2.238-5-5v-6c0-2.762,2.239-5,5-5s5,2.238,5,5v6
	C148,55.766,145.761,58.004,143,58.004z M57,58.004c-2.761,0-5-2.238-5-5v-6c0-2.762,2.239-5,5-5s5,2.238,5,5v6
	C62,55.766,59.761,58.004,57,58.004z"/>
<g>
</g>
<g>
</g>
<g>
</g>
<g>
</g>
<g>
</g>
<g>
</g>
<g>
</g>
<g>
</g>
<g>
</g>
<g>
</g>
<g>
</g>
<g>
</g>
<g>
</g>
<g>
</g>
<g>
</g>
</svg>
