<?xml version="1.0" encoding="iso-8859-1"?>
<!-- Generator: Adobe Illustrator 17.1.0, SVG Export Plug-In . SVG Version: 6.00 Build 0)  -->
<!DOCTYPE svg PUBLIC "-//W3C//DTD SVG 1.1//EN" "http://www.w3.org/Graphics/SVG/1.1/DTD/svg11.dtd">
<svg version="1.1" id="Capa_1" xmlns="http://www.w3.org/2000/svg" xmlns:xlink="http://www.w3.org/1999/xlink" x="0px" y="0px"
	 viewBox="0 0 362.108 362.108" style="enable-background:new 0 0 362.108 362.108;" xml:space="preserve">
<path d="M253.881,351.099H98.044c-1.574,0-3.056-0.741-4-2l-8.125-10.833H5c-2.762,0-5-2.239-5-5s2.238-5,5-5h102.424v-16.171
	c-43.671-24.234-71.871-69.859-73.823-119.8c-0.054-1.359,0.449-2.681,1.393-3.661c0.942-0.98,2.243-1.534,3.604-1.534h276.603
	c1.36,0,2.661,0.554,3.604,1.534c0.943,0.98,1.445,2.302,1.393,3.661c-0.183,4.674-0.596,9.314-1.229,13.898
	c6.793-0.772,16.921-0.877,24.192,3.667c18.386,11.491,23.52,29.43,14.847,51.877c-5.008,12.961-13.575,21.33-25.465,24.875
	c-9.334,2.783-18.2,1.674-21.986,1.201c-7.135-0.892-21.738-6.102-25.254-7.382c-10.882,12.599-24.002,23.38-38.929,31.664v16.171
	h102.425c2.762,0,5,2.239,5,5s-2.238,5-5,5h-82.01l-9.042,11.007C256.795,350.429,255.377,351.099,253.881,351.099z
	 M100.544,341.099h150.974l2.327-2.833h-12.288c-0.062,0.002-0.123,0.003-0.186,0.003H112.424c-0.063,0-0.124-0.001-0.186-0.003
	H98.419L100.544,341.099z M117.424,328.265h118.947v-19.151c0-1.855,1.026-3.557,2.668-4.423
	c40.5-21.36,67.291-62.252,70.858-107.593H43.898c3.567,45.341,30.357,86.232,70.857,107.593c1.642,0.865,2.668,2.567,2.668,4.422
	V328.265z M291.92,272.172c6.015,2.096,15.449,5.165,19.874,5.718c11.982,1.5,28.832,1.08,36.883-19.757
	c6.917-17.903,3.379-30.919-10.819-39.792c-5.388-3.368-15.049-2.71-20.716-1.792C312.803,236.779,304.13,255.741,291.92,272.172z
	 M85.231,259.349c-1.392,0-2.776-0.578-3.765-1.708c-16.773-19.17-21.153-43.578-21.332-44.607c-0.471-2.721,1.353-5.309,4.074-5.78
	c2.718-0.469,5.305,1.351,5.778,4.068l0,0c0.039,0.226,4.13,22.733,19.005,39.734c1.818,2.078,1.608,5.237-0.47,7.055
	C87.573,258.942,86.4,259.349,85.231,259.349z M234.574,157.678c-1.664,0-3.291-0.83-4.24-2.343
	c-1.466-2.336-0.763-5.418,1.57-6.888c0.33-0.211,23.14-15.004,23.14-39.727c0-11.512-4.739-15.894-10.739-21.441
	c-6.906-6.386-14.735-13.624-14.735-31.308c0-33.197,22.869-44.061,23.843-44.507c2.508-1.149,5.478-0.049,6.628,2.462
	c1.151,2.51,0.049,5.478-2.462,6.628c-0.705,0.336-18.009,8.865-18.009,35.416c0,13.311,5.341,18.248,11.524,23.965
	c6.539,6.045,13.95,12.897,13.95,28.783c0,30.389-26.682,47.48-27.817,48.193C236.401,157.431,235.482,157.678,234.574,157.678z
	 M166.337,157.678c-1.664,0-3.291-0.83-4.24-2.343c-1.467-2.337-0.762-5.421,1.574-6.89c0.457-0.293,23.136-15.073,23.136-39.725
	c0-11.512-4.739-15.894-10.739-21.441c-6.907-6.386-14.735-13.624-14.735-31.308c0-33.197,22.869-44.061,23.843-44.507
	c2.509-1.149,5.479-0.049,6.628,2.462c1.151,2.51,0.049,5.478-2.462,6.628c-0.705,0.336-18.009,8.865-18.009,35.416
	c0,13.311,5.341,18.248,11.524,23.965c6.539,6.045,13.95,12.897,13.95,28.783c0,30.389-26.682,47.48-27.817,48.193
	C168.164,157.431,167.245,157.678,166.337,157.678z M98.1,157.678c-1.664,0-3.291-0.83-4.24-2.343
	c-1.468-2.339-0.762-5.425,1.578-6.893c0.222-0.141,23.132-14.945,23.132-39.722c0-11.512-4.739-15.894-10.739-21.441
	c-6.906-6.386-14.735-13.624-14.735-31.308c0-33.197,22.869-44.061,23.843-44.507c2.508-1.149,5.478-0.049,6.628,2.462
	c1.146,2.501,0.057,5.457-2.436,6.616c-0.8,0.381-18.035,8.929-18.035,35.428c0,13.311,5.341,18.248,11.524,23.965
	c6.539,6.045,13.95,12.897,13.95,28.783c0,30.389-26.682,47.48-27.817,48.193C99.927,157.431,99.008,157.678,98.1,157.678z"/>
<g>
</g>
<g>
</g>
<g>
</g>
<g>
</g>
<g>
</g>
<g>
</g>
<g>
</g>
<g>
</g>
<g>
</g>
<g>
</g>
<g>
</g>
<g>
</g>
<g>
</g>
<g>
</g>
<g>
</g>
</svg>
