<?xml version="1.0" encoding="iso-8859-1"?>
<!-- Generator: Adobe Illustrator 17.1.0, SVG Export Plug-In . SVG Version: 6.00 Build 0)  -->
<!DOCTYPE svg PUBLIC "-//W3C//DTD SVG 1.1//EN" "http://www.w3.org/Graphics/SVG/1.1/DTD/svg11.dtd">
<svg version="1.1" id="Capa_1" xmlns="http://www.w3.org/2000/svg" xmlns:xlink="http://www.w3.org/1999/xlink" x="0px" y="0px"
	 viewBox="0 0 286.63 286.63" style="enable-background:new 0 0 286.63 286.63;" xml:space="preserve">
<path d="M183.171,279.315H37.03c-2.063,0-3.914-1.267-4.661-3.19c-0.2-0.516-20.104-52.245-26.987-109.21
	C-1.467,110.227,0.164,13.2,0.182,12.226C0.23,9.5,2.454,7.315,5.181,7.315H215.02c2.727,0,4.951,2.185,4.999,4.911
	c0.007,0.389,0.271,16.064,0.15,38.372c2.043-0.108,4.089-0.086,6.111,0.063l14.959,1.106c13.005,0.961,24.887,6.964,33.456,16.902
	c8.57,9.938,12.761,22.573,11.799,35.577l-3.76,50.861c-1.882,25.451-23.343,45.388-48.859,45.388c-1.2,0-2.418-0.045-3.619-0.134
	l-14.959-1.105c-1.867-0.138-3.734-0.387-5.588-0.745c-8.626,43.181-21.715,77.196-21.877,77.614
	C187.085,278.048,185.235,279.315,183.171,279.315z M40.507,269.315h139.187c4.345-11.973,19.438-55.93,25.198-103.6
	c5.886-48.723,5.425-127.986,5.194-148.4H10.115c-0.23,20.414-0.691,99.678,5.194,148.4
	C21.069,213.385,36.162,257.342,40.507,269.315z M211.974,188.762c1.35,0.247,2.706,0.421,4.061,0.521l14.958,1.105
	c0.958,0.071,1.928,0.106,2.883,0.106c20.309,0,37.389-15.868,38.887-36.125l3.76-50.861c0.765-10.34-2.573-20.395-9.399-28.31
	c-6.825-7.915-16.279-12.695-26.619-13.459l-14.959-1.106c-1.66-0.123-3.34-0.138-5.018-0.041
	c-0.32,32.125-1.521,75.137-5.287,106.321C214.387,173.974,213.291,181.303,211.974,188.762z M110.26,189.311
	c-0.425,0-0.85-0.054-1.264-0.162c-1.057-0.276-26.084-6.974-43.198-25.404c-17.513-18.861-19.538-36.05-19.538-47.338
	c0-13.824,9.707-35.755,35.756-35.755c14.811,0,23.455,4.899,28.245,9.333c4.79-4.433,13.437-9.333,28.244-9.333
	c26.048,0,35.755,21.932,35.755,35.755c0,11.289-2.025,28.479-19.537,47.338c-17.114,18.43-42.143,25.127-43.199,25.404
	C111.11,189.257,110.685,189.311,110.26,189.311z M82.016,90.651c-21.024,0-25.756,19.074-25.756,25.755
	c0,10.415,1.917,24.434,16.866,40.534c13.05,14.054,32.081,20.609,37.134,22.163c5.045-1.551,24.082-8.106,37.135-22.163
	c14.948-16.099,16.865-30.118,16.865-40.534c0-6.682-4.731-25.755-25.755-25.755c-16.672,0-22.586,7.413-24.001,9.685
	c-0.913,1.465-2.518,2.356-4.244,2.356c0,0,0,0-0.001,0c-1.727,0-3.331-0.891-4.243-2.357
	C104.601,98.063,98.69,90.651,82.016,90.651z"/>
<g>
</g>
<g>
</g>
<g>
</g>
<g>
</g>
<g>
</g>
<g>
</g>
<g>
</g>
<g>
</g>
<g>
</g>
<g>
</g>
<g>
</g>
<g>
</g>
<g>
</g>
<g>
</g>
<g>
</g>
</svg>
