<?xml version="1.0" encoding="iso-8859-1"?>
<!-- Generator: Adobe Illustrator 17.1.0, SVG Export Plug-In . SVG Version: 6.00 Build 0)  -->
<!DOCTYPE svg PUBLIC "-//W3C//DTD SVG 1.1//EN" "http://www.w3.org/Graphics/SVG/1.1/DTD/svg11.dtd">
<svg version="1.1" id="Capa_1" xmlns="http://www.w3.org/2000/svg" xmlns:xlink="http://www.w3.org/1999/xlink" x="0px" y="0px"
	 viewBox="0 0 340.519 340.519" style="enable-background:new 0 0 340.519 340.519;" xml:space="preserve">
<path d="M284.03,340.519h-18.611c-2.761,0-5-2.239-5-5V129.776c-12.487-5.145-21.225-16.808-21.225-30.339V7.081
	c0-2.761,2.239-5,5-5s5,2.239,5,5v87.355h10.351V7.081c0-2.761,2.239-5,5-5s5,2.239,5,5v87.355h10.357V7.081c0-2.761,2.239-5,5-5
	s5,2.239,5,5v87.355h10.352V7.081c0-2.761,2.239-5,5-5s5,2.239,5,5v92.355c0,13.531-8.738,25.195-21.225,30.339v205.743
	C289.03,338.28,286.791,340.519,284.03,340.519z M270.419,330.519h8.611V132.582h-8.611V330.519z M249.794,104.437
	c2.528,10.367,12.746,18.145,24.931,18.145s22.403-7.778,24.931-18.145H249.794z M191.484,340.519h-19.208c-2.761,0-5-2.239-5-5
	V244.73h-16.533c-2.632,0-4.813-2.041-4.989-4.667c-0.061-0.907-5.998-91.34,0.021-144.396
	c6.142-54.206,40.555-92.437,42.017-94.038c1.392-1.524,3.579-2.036,5.5-1.29c1.924,0.746,3.192,2.598,3.192,4.662v330.519
	C196.484,338.28,194.245,340.519,191.484,340.519z M177.276,330.519h9.208V244.73h-9.208V330.519z M155.446,234.73h31.038V19.571
	c-10.395,14.742-26.878,42.85-30.772,77.222C150.572,142.103,154.329,215.593,155.446,234.73z M84.565,340.519H65.954
	c-2.761,0-5-2.239-5-5v-206.23c-6.827-3.263-13.028-8.886-18.142-16.589c-8.092-12.19-12.549-28.302-12.549-45.367
	c0-17.067,4.457-33.18,12.549-45.37C51.323,9.142,62.847,2.081,75.259,2.081s23.936,7.061,32.447,19.881
	c8.093,12.19,12.549,28.303,12.549,45.37c0,17.065-4.457,33.177-12.549,45.367c-5.113,7.703-11.313,13.326-18.141,16.588v206.23
	C89.565,338.28,87.326,340.519,84.565,340.519z M70.954,330.519h8.611V132.582h-8.611V330.519z M75.259,12.081
	c-19.296,0-34.996,24.786-34.996,55.251c0,30.464,15.699,55.249,34.996,55.249c19.297,0,34.996-24.785,34.996-55.249
	C110.255,36.867,94.556,12.081,75.259,12.081z"/>
<g>
</g>
<g>
</g>
<g>
</g>
<g>
</g>
<g>
</g>
<g>
</g>
<g>
</g>
<g>
</g>
<g>
</g>
<g>
</g>
<g>
</g>
<g>
</g>
<g>
</g>
<g>
</g>
<g>
</g>
</svg>
