<?xml version="1.0" encoding="iso-8859-1"?>
<!-- Generator: Adobe Illustrator 17.1.0, SVG Export Plug-In . SVG Version: 6.00 Build 0)  -->
<!DOCTYPE svg PUBLIC "-//W3C//DTD SVG 1.1//EN" "http://www.w3.org/Graphics/SVG/1.1/DTD/svg11.dtd">
<svg version="1.1" id="Capa_1" xmlns="http://www.w3.org/2000/svg" xmlns:xlink="http://www.w3.org/1999/xlink" x="0px" y="0px"
	 viewBox="0 0 403 403" style="enable-background:new 0 0 403 403;" xml:space="preserve">
<path d="M307.227,403H95.772C80.734,403,68.5,390.766,68.5,375.727V92.273C68.5,77.234,80.734,65,95.772,65h9.729
	c0.037-16.991,0.709-32.928,12.834-45.079C131.896,6.33,158.321,0,201.5,0c42.773,0,69.074,6.324,82.771,19.901
	C296.732,32.256,297.455,48.752,297.497,65h9.729c15.039,0,27.273,12.234,27.273,27.273v283.453
	C334.5,390.766,322.266,403,307.227,403z M95.772,75C86.248,75,78.5,82.749,78.5,92.273v283.453c0,9.524,7.748,17.273,17.272,17.273
	h211.454c9.524,0,17.273-7.749,17.273-17.273V92.273c0-9.524-7.749-17.273-17.273-17.273h-14.777c-1.365,0-2.672-0.559-3.615-1.546
	s-1.441-2.317-1.38-3.682c0.027-0.589,0.046-1.179,0.046-1.772c0-15.847,0-30.815-10.271-40.997C265.688,15.562,240.917,10,201.5,10
	c-39.795,0-64.683,5.556-76.086,16.983C115.5,36.921,115.5,51.323,115.5,68c0,0.594,0.018,1.184,0.045,1.772
	c0.062,1.364-0.437,2.694-1.38,3.682S111.915,75,110.55,75H95.772z M299,381H104c-7.168,0-13-5.949-13-13.262V100.262
	C91,92.949,96.832,87,104,87h195c7.168,0,13,5.949,13,13.262v267.477C312,375.051,306.168,381,299,381z M104,97
	c-1.654,0-3,1.463-3,3.262v267.477c0,1.799,1.346,3.262,3,3.262h195c1.654,0,3-1.463,3-3.262V100.262c0-1.799-1.346-3.262-3-3.262
	H104z M246.544,66h-90.089c-9.349,0-16.955-8.461-16.955-18.86V46.86c0-10.399,7.606-18.86,16.955-18.86h90.089
	c9.35,0,16.956,8.461,16.956,18.86v0.279C263.5,57.539,255.894,66,246.544,66z M156.455,38c-3.835,0-6.955,3.975-6.955,8.86v0.279
	c0,4.886,3.12,8.86,6.955,8.86h90.089c3.836,0,6.956-3.975,6.956-8.86V46.86c0-4.886-3.12-8.86-6.956-8.86H156.455z"/>
<g>
</g>
<g>
</g>
<g>
</g>
<g>
</g>
<g>
</g>
<g>
</g>
<g>
</g>
<g>
</g>
<g>
</g>
<g>
</g>
<g>
</g>
<g>
</g>
<g>
</g>
<g>
</g>
<g>
</g>
</svg>
