<?xml version="1.0" encoding="iso-8859-1"?>
<!-- Generator: Adobe Illustrator 17.1.0, SVG Export Plug-In . SVG Version: 6.00 Build 0)  -->
<!DOCTYPE svg PUBLIC "-//W3C//DTD SVG 1.1//EN" "http://www.w3.org/Graphics/SVG/1.1/DTD/svg11.dtd">
<svg version="1.1" id="Capa_1" xmlns="http://www.w3.org/2000/svg" xmlns:xlink="http://www.w3.org/1999/xlink" x="0px" y="0px"
	 viewBox="0 0 418.61 418.61" style="enable-background:new 0 0 418.61 418.61;" xml:space="preserve">
<path d="M413.61,348.239H5c-2.761,0-5-2.238-5-5v-20.431c0-2.762,2.239-5,5-5h408.61c2.761,0,5,2.238,5,5v20.431
	C418.61,346,416.372,348.239,413.61,348.239z M10,338.239h398.61v-10.431H10V338.239z M386.355,309.647h-354.1
	c-2.749,0-4.982-2.219-5-4.968l-0.006-0.446c-0.004-0.24-0.008-0.479-0.008-0.721c0-95.039,73.056-173.846,167.179-181.457v-9.497
	c-5.583-4.483-8.842-11.196-8.842-18.458c0-13.084,10.645-23.729,23.728-23.729s23.728,10.645,23.728,23.729
	c0,7.262-3.259,13.975-8.842,18.458v9.497c94.123,7.611,167.179,86.418,167.179,181.457c0,0.241-0.004,0.48-0.008,0.721
	l-0.006,0.446C391.337,307.428,389.104,309.647,386.355,309.647z M37.283,299.647h344.044
	c-1.982-89.571-72.605-162.984-162.411-167.928c-2.65-0.146-4.725-2.338-4.725-4.992v-16.742c0-1.726,0.89-3.329,2.354-4.242
	c4.063-2.534,6.489-6.887,6.489-11.643c0-7.57-6.158-13.729-13.728-13.729S195.577,86.53,195.577,94.1
	c0,4.756,2.426,9.108,6.488,11.643c1.464,0.913,2.354,2.517,2.354,4.242v16.742c0,2.654-2.075,4.847-4.725,4.992
	C109.889,136.663,39.266,210.076,37.283,299.647z M65.007,285.702c-0.142,0-0.284-0.006-0.428-0.018
	c-2.751-0.233-4.793-2.652-4.56-5.404c0.157-1.859,4.224-45.984,36.306-84.081c36.112-42.883,87.039-46.539,89.189-46.674
	c2.761-0.185,5.13,1.922,5.303,4.678c0.172,2.754-1.918,5.126-4.671,5.303l0,0c-0.485,0.031-48.894,3.618-82.171,43.135
	c-30.056,35.691-33.956,78.06-33.991,78.483C69.762,283.731,67.577,285.702,65.007,285.702z"/>
<g>
</g>
<g>
</g>
<g>
</g>
<g>
</g>
<g>
</g>
<g>
</g>
<g>
</g>
<g>
</g>
<g>
</g>
<g>
</g>
<g>
</g>
<g>
</g>
<g>
</g>
<g>
</g>
<g>
</g>
</svg>
