<?xml version="1.0" encoding="iso-8859-1"?>
<!-- Generator: Adobe Illustrator 17.1.0, SVG Export Plug-In . SVG Version: 6.00 Build 0)  -->
<!DOCTYPE svg PUBLIC "-//W3C//DTD SVG 1.1//EN" "http://www.w3.org/Graphics/SVG/1.1/DTD/svg11.dtd">
<svg version="1.1" id="Capa_1" xmlns="http://www.w3.org/2000/svg" xmlns:xlink="http://www.w3.org/1999/xlink" x="0px" y="0px"
	 viewBox="0 0 341.855 341.855" style="enable-background:new 0 0 341.855 341.855;" xml:space="preserve">
<g id="eggs">
	<path d="M102.592,341.855c-16.565,0-31.782-3.575-44.949-10.662c-23.122-12.444-39.265-35.658-46.686-67.132
		c-7.656-32.475-5.585-71.138,5.54-103.424c12.31-35.727,33.394-58.774,59.366-64.898c25.972-6.124,55.131,5.079,82.104,31.544
		c24.375,23.917,43.499,57.583,51.155,90.057c7.42,31.475,3.347,59.456-11.781,80.917c-13.672,19.396-35.917,33.189-64.328,39.888
		C122.504,340.623,112.315,341.855,102.592,341.855z M90.049,104.107c-4.047,0-8.019,0.452-11.892,1.365
		c-22.514,5.308-41.054,26.056-52.207,58.422c-10.534,30.573-12.501,67.161-5.26,97.872c12.949,54.921,54.079,79.835,110.028,66.646
		c25.995-6.128,46.207-18.548,58.449-35.916c13.625-19.328,17.063-43.842,10.222-72.861c-7.24-30.711-25.343-62.566-48.425-85.214
		C130.731,114.571,109.525,104.107,90.049,104.107z M34.573,211.862c-2.745,0-4.98-2.216-4.999-4.966
		c-0.291-42.377,29.434-76.799,30.7-78.244c1.819-2.077,4.977-2.287,7.056-0.466c2.076,1.818,2.286,4.975,0.469,7.052l0,0
		c-0.285,0.326-28.488,33.081-28.224,71.589c0.019,2.761-2.205,5.015-4.966,5.034C34.597,211.862,34.585,211.862,34.573,211.862z
		 M266.079,177.869c-6.956,0-14.236-0.876-21.742-2.638c-20.419-4.794-36.432-14.719-46.309-28.702
		c-10.945-15.496-13.919-35.658-8.602-58.306c5.445-23.192,19.074-47.241,36.458-64.33c19.4-19.069,40.466-27.135,59.313-22.708
		c18.851,4.426,34.125,21.021,43.011,46.731c7.963,23.04,9.466,50.64,4.021,73.833c-5.317,22.649-16.953,39.38-33.65,48.387
		C289.052,175.275,278.046,177.869,266.079,177.869z M275.133,10.038c-13.392,0-28.375,7.358-42.238,20.986
		c-16.092,15.818-28.702,38.055-33.733,59.483c-12.822,54.613,28.919,70.634,47.46,74.987c18.004,4.227,34.328,2.788,47.21-4.161
		c14.308-7.718,23.952-21.805,28.663-41.871c5.031-21.429,3.634-46.954-3.737-68.281c-7.613-22.027-20.678-36.702-35.845-40.263
		C280.397,10.33,277.795,10.038,275.133,10.038z M230.693,140.316c-0.948,0-1.905-0.269-2.754-0.831
		c-10.367-6.859-16.695-15.899-18.809-26.87c-4.336-22.509,10.914-44.861,11.564-45.802c1.572-2.271,4.686-2.836,6.958-1.264
		c2.269,1.571,2.835,4.683,1.267,6.953c-0.187,0.272-13.516,19.953-9.961,38.264c1.594,8.211,6.472,15.068,14.499,20.379
		c2.303,1.524,2.935,4.626,1.411,6.929C233.906,139.527,232.315,140.316,230.693,140.316z"/>
</g>
<g>
</g>
<g>
</g>
<g>
</g>
<g>
</g>
<g>
</g>
<g>
</g>
<g>
</g>
<g>
</g>
<g>
</g>
<g>
</g>
<g>
</g>
<g>
</g>
<g>
</g>
<g>
</g>
<g>
</g>
</svg>
