<?xml version="1.0" encoding="iso-8859-1"?>
<!-- Generator: Adobe Illustrator 17.1.0, SVG Export Plug-In . SVG Version: 6.00 Build 0)  -->
<!DOCTYPE svg PUBLIC "-//W3C//DTD SVG 1.1//EN" "http://www.w3.org/Graphics/SVG/1.1/DTD/svg11.dtd">
<svg version="1.1" id="Capa_1" xmlns="http://www.w3.org/2000/svg" xmlns:xlink="http://www.w3.org/1999/xlink" x="0px" y="0px"
	 viewBox="0 0 322.662 322.662" style="enable-background:new 0 0 322.662 322.662;" xml:space="preserve">
<path d="M247.831,322.662H53.581c-2.761,0-5-2.238-5-5v-21.929c0-4.896,2.081-9.315,5.404-12.421
	c-3.333-3.269-5.404-7.82-5.404-12.847V73.287c-0.365-0.361-0.68-0.786-0.928-1.269L14.384,7.286
	c-0.796-1.55-0.729-3.402,0.18-4.891c0.908-1.487,2.525-2.395,4.268-2.395h34.652C53.516,0,53.548,0,53.581,0h213.217
	c23.177,0,42.033,18.856,42.033,42.033v170.7c0,9.374-7.626,17-17,17s-17-7.626-17-17v-168c0-5.514-4.486-10-10-10h-12v235.732
	c0,5.026-2.071,9.578-5.404,12.847c3.324,3.105,5.404,7.524,5.404,12.421v21.929C252.831,320.424,250.592,322.662,247.831,322.662z
	 M58.581,312.662h184.25v-16.929c0-3.859-3.14-7-7-7H65.581c-3.86,0-7,3.141-7,7V312.662z M58.581,10.001v260.465
	c0,4.411,3.589,8,8,8h168.25c4.411,0,8-3.589,8-8V29.733c0-2.762,2.239-5,5-5h17c11.028,0,20,8.972,20,20v168c0,3.859,3.14,7,7,7
	s7-3.141,7-7v-170.7c0-17.663-14.37-32.033-32.033-32.033H67.43c-0.033,0.001-0.066,0.001-0.099,0.001H58.581z M27.022,10.001
	l21.559,41.947V10.001H27.022z M193.831,258.733h-14c-9.374,0-17-7.626-17-17v-182c0-9.374,7.626-17,17-17h14
	c9.374,0,17,7.626,17,17v182C210.831,251.107,203.205,258.733,193.831,258.733z M179.831,52.733c-3.86,0-7,3.141-7,7v182
	c0,3.859,3.14,7,7,7h14c3.86,0,7-3.141,7-7v-182c0-3.859-3.14-7-7-7H179.831z M190.581,243.733h-7.5c-2.761,0-5-2.238-5-5
	s2.239-5,5-5h7.5c2.761,0,5,2.238,5,5S193.342,243.733,190.581,243.733z M190.581,199.733h-7.5c-2.761,0-5-2.238-5-5s2.239-5,5-5
	h7.5c2.761,0,5,2.238,5,5S193.342,199.733,190.581,199.733z M190.581,155.733h-7.5c-2.761,0-5-2.238-5-5s2.239-5,5-5h7.5
	c2.761,0,5,2.238,5,5S193.342,155.733,190.581,155.733z M190.581,111.733h-7.5c-2.761,0-5-2.238-5-5s2.239-5,5-5h7.5
	c2.761,0,5,2.238,5,5S193.342,111.733,190.581,111.733z M190.581,67.733h-7.5c-2.761,0-5-2.238-5-5s2.239-5,5-5h7.5
	c2.761,0,5,2.238,5,5S193.342,67.733,190.581,67.733z"/>
<g>
</g>
<g>
</g>
<g>
</g>
<g>
</g>
<g>
</g>
<g>
</g>
<g>
</g>
<g>
</g>
<g>
</g>
<g>
</g>
<g>
</g>
<g>
</g>
<g>
</g>
<g>
</g>
<g>
</g>
</svg>
