<?xml version="1.0" encoding="iso-8859-1"?>
<!-- Generator: Adobe Illustrator 17.1.0, SVG Export Plug-In . SVG Version: 6.00 Build 0)  -->
<!DOCTYPE svg PUBLIC "-//W3C//DTD SVG 1.1//EN" "http://www.w3.org/Graphics/SVG/1.1/DTD/svg11.dtd">
<svg version="1.1" id="Capa_1" xmlns="http://www.w3.org/2000/svg" xmlns:xlink="http://www.w3.org/1999/xlink" x="0px" y="0px"
	 viewBox="0 0 363.002 363.002" style="enable-background:new 0 0 363.002 363.002;" xml:space="preserve">
<path d="M247.36,363.002H115.642c-1.771,0-3.411-0.938-4.31-2.464l-7.273-12.362c-0.459-0.748-0.727-1.626-0.734-2.565
	c0-0.002,0-0.004,0-0.007c0-0.002,0-0.005,0-0.008c0-0.004,0-0.007,0-0.011c0-0.002,0-0.003,0-0.005c0-0.004,0-0.009,0-0.014V48.361
	c0-4.182,3.308-8.407,6.479-11.497l-3.585-3.655c-0.917-0.935-1.431-2.191-1.431-3.501v-8.705c0-2.762,2.238-5,5-5h32.751
	L181.644,0.36c2.567-1.027,5.474,0.223,6.5,2.785c1.025,2.564-0.222,5.475-2.785,6.5l-15.895,6.357h83.751c2.762,0,5,2.238,5,5
	v8.705c0,1.31-0.514,2.566-1.431,3.501l-3.585,3.655c3.171,3.09,6.479,7.315,6.479,11.497v297.206c0,0.005,0,0.01,0,0.014
	c0,0.002,0,0.003,0,0.005c0,0.004,0,0.007,0,0.011c0,0.003,0,0.006,0,0.008c0,0.003,0,0.005,0,0.007
	c-0.008,0.939-0.275,1.817-0.734,2.565l-7.273,12.362C250.772,362.065,249.132,363.002,247.36,363.002z M118.501,353.002h126
	l1.434-2.436H117.067L118.501,353.002z M113.324,340.567h136.354V48.491c-0.332-1.212-2.827-4.022-5.543-6.323H118.867
	c-2.714,2.299-5.211,5.111-5.543,6.323V340.567z M119.205,32.168h124.592l4.418-4.504v-1.662H143.617
	c-0.077,0.002-0.154,0.002-0.229,0h-28.601v1.662L119.205,32.168z M142.498,300.003c-0.704,0-1.418-0.149-2.094-0.462
	c-2.289-1.058-3.433-3.654-2.667-6.058l32.619-102.356H146.09c-1.569,0-3.047-0.736-3.992-1.989
	c-0.944-1.252-1.246-2.876-0.815-4.385l26.322-92.125c0.613-2.146,2.575-3.626,4.808-3.626h44.268c1.65,0,3.195,0.814,4.127,2.177
	s1.131,3.097,0.533,4.636l-22.476,57.795h28.583c1.816,0,3.489,0.984,4.371,2.572s0.833,3.529-0.127,5.071l-84.946,136.393
	C145.806,299.153,144.179,300.003,142.498,300.003z M152.719,181.127h24.479c1.596,0,3.096,0.762,4.037,2.05
	s1.211,2.948,0.727,4.469l-22.541,70.733l59.022-94.77h-26.888c-1.65,0-3.195-0.814-4.127-2.177s-1.131-3.097-0.533-4.636
	l22.476-57.795h-33.187L152.719,181.127z"/>
<g>
</g>
<g>
</g>
<g>
</g>
<g>
</g>
<g>
</g>
<g>
</g>
<g>
</g>
<g>
</g>
<g>
</g>
<g>
</g>
<g>
</g>
<g>
</g>
<g>
</g>
<g>
</g>
<g>
</g>
</svg>
