<?xml version="1.0" encoding="iso-8859-1"?>
<!-- Generator: Adobe Illustrator 17.1.0, SVG Export Plug-In . SVG Version: 6.00 Build 0)  -->
<!DOCTYPE svg PUBLIC "-//W3C//DTD SVG 1.1//EN" "http://www.w3.org/Graphics/SVG/1.1/DTD/svg11.dtd">
<svg version="1.1" id="Capa_1" xmlns="http://www.w3.org/2000/svg" xmlns:xlink="http://www.w3.org/1999/xlink" x="0px" y="0px"
	 viewBox="0 0 385 385" style="enable-background:new 0 0 385 385;" xml:space="preserve">
<path d="M214.817,321.327c-0.297,0-0.598-0.027-0.9-0.082c-0.936-0.17-23.147-4.354-43.599-20.715
	c-7.159-5.728-12.826-12.725-17.19-19.473c-48.705-3.333-87.035-19.954-110.732-33.413C16.289,232.817,2.068,218.81,1.475,218.221
	c-1.493-1.484-1.896-3.744-1.01-5.652c0.463-0.997,11.643-24.695,38.048-48.601c20.055-18.157,52.375-39.188,98.815-46.023
	c-0.144-4.77,0.316-15.55,5.865-28.78c7.578-18.072,20.751-24.705,21.308-24.979c2.377-1.167,5.253-0.278,6.557,2.028
	c0.115,0.202,12.127,20.955,30.838,24.229c20.72,3.626,40.715,4.193,40.915,4.198c1.977,0.052,3.737,1.265,4.49,3.093
	c0.131,0.317,3.223,7.87,4.724,15.94c1.044,5.611,0.731,11.92,0.392,15.605c22.177,7.614,40.048,17.337,53.474,26.225
	c6.455,4.273,12.2,8.54,17.247,12.61c1.798-10.414,6.198-28.955,16.187-43.73c15.448-22.851,39.388-19.628,40.401-19.48
	c1.515,0.222,2.844,1.126,3.608,2.453s0.877,2.93,0.309,4.352c-0.07,0.176-7.109,17.995-6.58,31.75
	c0.561,14.583,0.555,29.637-6.057,39.397c-4.393,6.484-12.09,11.734-17.099,14.69c3.838,2.265,9.461,6.139,13.671,11.385
	c6.856,8.543,7.988,22.404,8.56,35.869c0.534,12.594,8.262,28.271,8.339,28.428c0.682,1.371,0.698,2.978,0.043,4.362
	c-0.654,1.384-1.906,2.393-3.398,2.736c-0.924,0.212-22.853,4.993-38.855-14.985c-10.526-13.143-15.964-30.338-18.309-39.646
	c-23.284,17.947-60.617,41.152-107.546,51.128c0.029,0.072,0.058,0.143,0.087,0.215c7.357,18.394,3.392,39.361,3.219,40.244
	C219.254,319.667,217.164,321.327,214.817,321.327z M152.405,257.721c3.183,8.066,10.848,24.351,24.16,35
	c12.844,10.275,26.728,15.291,34.014,17.396c0.613-6.728,0.867-18.786-3.365-29.365c-4.093-10.234-16.938-18.984-36.168-24.64
	C167.123,254.958,158.923,256.204,152.405,257.721z M332.627,218.746c1.15,5.519,6.034,26.096,17.446,40.345
	c7.453,9.305,16.525,11.536,22.482,11.857c-2.601-6.46-6.019-16.55-6.408-25.723c-0.479-11.289-1.406-23.851-6.367-30.034
	c-3.806-4.742-9.384-8.195-12.34-9.817C344.438,208.341,339.434,213.067,332.627,218.746z M88.318,257.522
	c17.055,6.013,36.567,10.829,58.235,12.955c-4.292-8.538-6.243-15.03-6.348-15.382c-0.784-2.646,0.724-5.428,3.369-6.214
	c2.039-0.606,20.197-5.838,29.835-3.004c12.268,3.608,28.358,10.262,37.77,21.812c67.966-13.44,116.764-57.309,129.104-69.342
	c-5.378-6.281-18.807-20.593-40.288-34.75c-26.249-17.3-70.283-37.922-130.997-37.922c-34.44,0-62.28,8.033-84.128,18.797
	C89.63,151.95,102,173.788,102,198.674C102,227.618,89.461,255.083,88.318,257.522z M11.2,213.578
	c7.631,6.73,31.303,25.938,67.767,40.438c0.068-0.216,0.152-0.43,0.252-0.641l0,0C79.346,253.105,92,226.05,92,198.674
	c0-22.913-12.282-43.72-16.008-49.504c-12.466,7.063-22.674,14.884-30.767,22.211C25.827,188.942,15.066,206.538,11.2,213.578z
	 M332.119,175.774c6.471,5.838,11.255,10.901,14.393,14.465c3.664-1.981,12.164-7.012,16.214-12.991
	c4.915-7.254,4.84-20.479,4.344-33.404c-0.394-10.233,2.604-21.809,4.877-28.976c-6.503,0.745-16.712,3.836-24.339,15.118
	C336.203,146.856,332.798,170.145,332.119,175.774z M169,115.674c27.956,0,52.53,4.208,73.626,10.473
	c0.185-3.068,0.223-7.123-0.432-10.644c-0.78-4.19-2.094-8.328-3.032-10.997c-6.713-0.315-22.431-1.314-38.99-4.212
	c-17.488-3.061-29.628-17.246-34.894-24.656c-3.586,2.852-9.069,8.346-12.863,17.394c-4.498,10.726-5.116,19.532-5.102,23.69
	C154.25,116.04,161.474,115.674,169,115.674z M67,206.674c-8.822,0-16-7.178-16-16s7.178-16,16-16s16,7.178,16,16
	S75.822,206.674,67,206.674z M67,184.674c-3.309,0-6,2.691-6,6s2.691,6,6,6c3.309,0,6-2.691,6-6S70.309,184.674,67,184.674z"/>
<g>
</g>
<g>
</g>
<g>
</g>
<g>
</g>
<g>
</g>
<g>
</g>
<g>
</g>
<g>
</g>
<g>
</g>
<g>
</g>
<g>
</g>
<g>
</g>
<g>
</g>
<g>
</g>
<g>
</g>
</svg>
