<?xml version="1.0" encoding="iso-8859-1"?>
<!-- Generator: Adobe Illustrator 17.1.0, SVG Export Plug-In . SVG Version: 6.00 Build 0)  -->
<!DOCTYPE svg PUBLIC "-//W3C//DTD SVG 1.1//EN" "http://www.w3.org/Graphics/SVG/1.1/DTD/svg11.dtd">
<svg version="1.1" id="Capa_1" xmlns="http://www.w3.org/2000/svg" xmlns:xlink="http://www.w3.org/1999/xlink" x="0px" y="0px"
	 viewBox="0 0 386.768 386.768" style="enable-background:new 0 0 386.768 386.768;" xml:space="preserve">
<path d="M280.077,386.768H144.773c-8.957,0-16.317-6.727-17.123-15.647L102.575,93.148c-0.432-4.797,1.183-9.587,4.432-13.142
	s7.875-5.594,12.69-5.594h28.293l-8.742-46.614c-0.939-5.008-4.423-8.764-8.668-9.347L68.744,9.954
	c-2.736-0.376-4.648-2.898-4.273-5.634c0.376-2.736,2.898-4.648,5.634-4.273l61.836,8.497c8.516,1.17,15.401,8.167,17.135,17.411
	l9.088,48.457h146.987c4.816,0,9.442,2.039,12.691,5.595c3.249,3.555,4.864,8.345,4.431,13.142l-25.075,277.973
	C296.394,380.041,289.033,386.768,280.077,386.768z M117.656,149.028l19.954,221.194c0.336,3.731,3.416,6.545,7.163,6.545h135.304
	c3.747,0,6.826-2.814,7.163-6.545l19.954-221.194H117.656z M170.283,139.028h137.812l4.22-46.778
	c0.184-2.036-0.474-3.988-1.854-5.498c-1.379-1.509-3.265-2.34-5.309-2.34H160.04L170.283,139.028z M116.754,139.028h43.354
	l-10.243-54.616h-30.168c-2.044,0-3.93,0.831-5.309,2.34c-1.379,1.509-2.038,3.461-1.854,5.498L116.754,139.028z M209.425,350.768
	c-13.233,0-24-10.767-24-24c0-13.234,10.767-24,24-24c13.234,0,24,10.766,24,24C233.425,340.001,222.659,350.768,209.425,350.768z
	 M209.425,312.768c-7.72,0-14,6.28-14,14s6.28,14,14,14s14-6.28,14-14S217.145,312.768,209.425,312.768z M184.425,267.768
	c-6.617,0-12-5.383-12-12c0-6.617,5.383-12,12-12s12,5.383,12,12C196.425,262.384,191.042,267.768,184.425,267.768z
	 M184.425,253.768c-1.103,0-2,0.897-2,2c0,1.103,0.897,2,2,2c1.103,0,2-0.897,2-2C186.425,254.665,185.527,253.768,184.425,253.768z
	 M240.425,239.768c-8.271,0-15-6.729-15-15s6.729-15,15-15s15,6.729,15,15S248.696,239.768,240.425,239.768z M240.425,219.768
	c-2.757,0-5,2.243-5,5s2.243,5,5,5s5-2.243,5-5S243.182,219.768,240.425,219.768z M198.925,200.768c-10.752,0-19.5-8.748-19.5-19.5
	s8.748-19.5,19.5-19.5s19.5,8.748,19.5,19.5S209.677,200.768,198.925,200.768z M198.925,171.768c-5.238,0-9.5,4.262-9.5,9.5
	s4.262,9.5,9.5,9.5s9.5-4.262,9.5-9.5S204.163,171.768,198.925,171.768z"/>
<g>
</g>
<g>
</g>
<g>
</g>
<g>
</g>
<g>
</g>
<g>
</g>
<g>
</g>
<g>
</g>
<g>
</g>
<g>
</g>
<g>
</g>
<g>
</g>
<g>
</g>
<g>
</g>
<g>
</g>
</svg>
