<?xml version="1.0" encoding="iso-8859-1"?>
<!-- Generator: Adobe Illustrator 17.1.0, SVG Export Plug-In . SVG Version: 6.00 Build 0)  -->
<!DOCTYPE svg PUBLIC "-//W3C//DTD SVG 1.1//EN" "http://www.w3.org/Graphics/SVG/1.1/DTD/svg11.dtd">
<svg version="1.1" id="Capa_1" xmlns="http://www.w3.org/2000/svg" xmlns:xlink="http://www.w3.org/1999/xlink" x="0px" y="0px"
	 viewBox="0 0 424 424" style="enable-background:new 0 0 424 424;" xml:space="preserve">
<path d="M260.379,424h-96.87c-8.552,0-15.509-6.638-15.509-14.796V191.556c0-8.073,4.77-14.819,9.382-21.343
	c4.34-6.138,8.438-11.936,8.438-18.269c0-4.721-1.847-7.325-4.642-11.269c-4.404-6.213-10.437-14.723-10.437-34.731
	c0-29.711,31.876-61.298,39.753-68.648V5c0-2.762,2.239-5,5-5h32.899c2.761,0,5,2.238,5,5v32.296
	c7.877,7.351,39.753,38.938,39.753,68.648c0,20.009-6.032,28.519-10.437,34.731c-2.795,3.943-4.642,6.548-4.642,11.269
	c0,6.333,4.099,12.131,8.438,18.269c4.612,6.523,9.382,13.27,9.382,21.343v26.724c0.073,0.34,0.111,0.692,0.111,1.054V359
	c0,0.361-0.039,0.714-0.111,1.054v49.15C275.889,417.362,268.931,424,260.379,424z M174.435,71
	c-7.439,10.753-13.693,23.265-13.693,34.944c0,16.824,4.566,23.266,8.595,28.948c3.188,4.497,6.484,9.146,6.484,17.052
	c0,9.512-5.458,17.23-10.273,24.041c-3.881,5.489-7.547,10.675-7.547,15.57v217.648c0,2.645,2.472,4.796,5.509,4.796h96.87
	c3.038,0,5.509-2.151,5.509-4.796V364H173c-2.761,0-5-2.238-5-5V219.333c0-2.762,2.239-5,5-5h92.889v-22.777
	c0-4.896-3.666-10.081-7.547-15.57c-4.815-6.811-10.273-14.529-10.273-24.041c0-7.905,3.296-12.555,6.484-17.052
	c4.028-5.683,8.594-12.124,8.594-28.948c0-11.687-6.261-24.207-13.707-34.964C249.295,70.993,249.148,71,249,71H174.435z M178,354
	h87.889V224.333H178V354z M182.023,61h59.842c-8.616-10.454-16.61-17.601-16.784-17.755c-1.072-0.949-1.687-2.313-1.687-3.745V30
	h-22.899v9.5c0,1.432-0.615,2.796-1.687,3.745C198.633,43.399,190.64,50.546,182.023,61z M200.495,20h22.899V10h-22.899V20z"/>
<g>
</g>
<g>
</g>
<g>
</g>
<g>
</g>
<g>
</g>
<g>
</g>
<g>
</g>
<g>
</g>
<g>
</g>
<g>
</g>
<g>
</g>
<g>
</g>
<g>
</g>
<g>
</g>
<g>
</g>
</svg>
