<?xml version="1.0" encoding="iso-8859-1"?>
<!-- Generator: Adobe Illustrator 17.1.0, SVG Export Plug-In . SVG Version: 6.00 Build 0)  -->
<!DOCTYPE svg PUBLIC "-//W3C//DTD SVG 1.1//EN" "http://www.w3.org/Graphics/SVG/1.1/DTD/svg11.dtd">
<svg version="1.1" id="Capa_1" xmlns="http://www.w3.org/2000/svg" xmlns:xlink="http://www.w3.org/1999/xlink" x="0px" y="0px"
	 viewBox="0 0 399 399" style="enable-background:new 0 0 399 399;" xml:space="preserve">
<path d="M237.329,399h-75.207c-6.792,0-12.721-4.821-14.098-11.465c-4.672-22.538-14.864-81.57-8.621-142.81
	c3.176-31.161,9.573-72.403,15.986-110.07c0.002-0.014,0.005-0.028,0.007-0.042c7.154-42.021,14.328-79.594,17.073-93.758
	c-2.747-0.018-4.968-2.249-4.968-5V13.167C167.502,5.906,173.408,0,180.668,0h37.664c7.261,0,13.167,5.906,13.167,13.167v22.688
	c0,2.412-1.708,4.425-3.979,4.896c4.946,26.605,25.298,137.933,32.03,203.975c6.237,61.181-3.589,120.188-8.104,142.717
	C250.105,394.14,244.167,399,237.329,399z M162.746,151.211c-5.493,33.168-10.654,67.645-13.395,94.528
	c-6.102,59.854,3.887,117.683,8.465,139.767c0.419,2.024,2.23,3.494,4.306,3.494h75.207c2.09,0,3.903-1.481,4.313-3.522
	c4.425-22.085,14.06-79.911,7.959-139.738c-2.745-26.93-7.776-61.478-13.097-94.693l-32.556,63.411
	c-0.856,1.667-2.574,2.716-4.448,2.716c-0.002,0-0.003,0-0.005,0c-1.876-0.002-3.594-1.055-4.447-2.726L162.746,151.211z
	 M166.003,135.604l33.509,65.6l33.486-65.22l-33.509-59.15L166.003,135.604z M199.5,61.711c0.002,0,0.004,0,0.006,0
	c1.798,0.002,3.458,0.971,4.344,2.535l25.818,45.574c-5.557-32.511-10.468-59.13-12.302-68.965h-34.711
	c-1.872,9.624-6.846,35.493-12.494,67.247l24.994-43.867C196.045,62.675,197.704,61.711,199.5,61.711z M178.539,30.855h42.96V13.167
	c0-1.746-1.421-3.167-3.167-3.167h-37.664c-1.746,0-3.167,1.421-3.167,3.167v17.688H178.539z"/>
<g>
</g>
<g>
</g>
<g>
</g>
<g>
</g>
<g>
</g>
<g>
</g>
<g>
</g>
<g>
</g>
<g>
</g>
<g>
</g>
<g>
</g>
<g>
</g>
<g>
</g>
<g>
</g>
<g>
</g>
</svg>
