<?xml version="1.0" encoding="iso-8859-1"?>
<!-- Generator: Adobe Illustrator 17.1.0, SVG Export Plug-In . SVG Version: 6.00 Build 0)  -->
<!DOCTYPE svg PUBLIC "-//W3C//DTD SVG 1.1//EN" "http://www.w3.org/Graphics/SVG/1.1/DTD/svg11.dtd">
<svg version="1.1" id="Capa_1" xmlns="http://www.w3.org/2000/svg" xmlns:xlink="http://www.w3.org/1999/xlink" x="0px" y="0px"
	 viewBox="0 0 431.047 431.047" style="enable-background:new 0 0 431.047 431.047;" xml:space="preserve">
<path d="M247.718,431.047c-2.411,0-4.509-1.738-4.923-4.156l-22.418-130.86c-0.883-3.476-3.932-3.749-4.854-3.749
	c-0.923,0-3.971,0.272-4.854,3.748l-22.418,130.861c-0.438,2.561-2.79,4.353-5.352,4.138c-2.588-0.22-4.576-2.385-4.576-4.982
	V288.416c0-15.215,9.263-28.308,22.444-33.936v-99.555c-5.848-3.602-9.755-10.064-9.755-17.422V20.445
	C191.014,9.172,200.186,0,211.459,0h8.129c11.273,0,20.445,9.172,20.445,20.445v117.058c0,7.358-3.907,13.82-9.755,17.422v99.555
	c13.182,5.628,22.444,18.721,22.444,33.935v137.632c0,2.597-1.988,4.762-4.576,4.982
	C248.003,431.041,247.86,431.047,247.718,431.047z M215.523,282.282c7.123,0,12.999,4.661,14.622,11.597
	c0.022,0.098,0.042,0.196,0.059,0.294l12.519,73.073v-78.832c0-14.82-12.057-26.877-26.877-26.877h-0.645
	c-14.82,0-26.877,12.057-26.877,26.877v78.832l12.519-73.073c0.017-0.099,0.036-0.197,0.059-0.294
	C202.523,286.943,208.399,282.282,215.523,282.282z M210.769,250.599h9.51v-92.651h-9.51V250.599z M211.459,147.948h8.129
	c5.76,0,10.445-4.686,10.445-10.445V20.445c0-5.76-4.686-10.445-10.445-10.445h-8.129c-5.76,0-10.445,4.686-10.445,10.445v117.058
	C201.014,143.263,205.699,147.948,211.459,147.948z"/>
<g>
</g>
<g>
</g>
<g>
</g>
<g>
</g>
<g>
</g>
<g>
</g>
<g>
</g>
<g>
</g>
<g>
</g>
<g>
</g>
<g>
</g>
<g>
</g>
<g>
</g>
<g>
</g>
<g>
</g>
</svg>
