<?xml version="1.0" encoding="iso-8859-1"?>
<!-- Generator: Adobe Illustrator 17.1.0, SVG Export Plug-In . SVG Version: 6.00 Build 0)  -->
<!DOCTYPE svg PUBLIC "-//W3C//DTD SVG 1.1//EN" "http://www.w3.org/Graphics/SVG/1.1/DTD/svg11.dtd">
<svg version="1.1" id="Capa_1" xmlns="http://www.w3.org/2000/svg" xmlns:xlink="http://www.w3.org/1999/xlink" x="0px" y="0px"
	 viewBox="0 0 379 379" style="enable-background:new 0 0 379 379;" xml:space="preserve">
<path d="M237.197,379h-95.395c-1.514,0-2.946-0.687-3.896-1.866s-1.313-2.726-0.988-4.205c0.093-0.425,9.318-43.135,9.318-96.42
	c0-25.692-8.664-51.422-17.835-78.663c-9.785-29.061-19.903-59.111-19.903-91.161c0-61.304,20.638-102.253,21.517-103.966
	C130.871,1.05,132.589,0,134.464,0h110.071c1.875,0,3.593,1.05,4.449,2.718c0.878,1.713,21.517,42.663,21.517,103.966
	c0,32.049-10.118,62.1-19.903,91.161c-9.172,27.241-17.835,52.971-17.835,78.663c0,53.352,9.225,95.995,9.318,96.419
	c0.325,1.479-0.039,3.026-0.988,4.206C240.145,378.313,238.711,379,237.197,379z M147.88,369h83.239c-0.439-2.375-0.973-5.4-1.557-9
	h-80.125C148.854,363.6,148.32,366.625,147.88,369z M150.953,350h77.094c-2.544-18.007-5.284-44.197-5.284-73.492
	c0-27.331,8.917-53.815,18.358-81.854c9.528-28.298,19.38-57.559,19.38-87.97c0-4.379-0.112-8.658-0.319-12.821H118.819
	c-0.208,4.164-0.32,8.442-0.32,12.821c0,30.411,9.853,59.672,19.38,87.97c9.441,28.039,18.358,54.523,18.358,81.854
	C156.237,305.803,153.498,331.993,150.953,350z M120.08,83.864h138.19c0.532-5.245-0.454-10.537-2.851-14.962v0
	c-3.516-6.492-9.344-10.639-14.902-10.622c-0.012,0-0.024,0-0.036,0c-2.215,0-4.168-1.458-4.795-3.586
	c-2.118-7.181-8.824-12.196-16.309-12.196c-8.816,0-16.094,6.61-16.93,15.375c-0.153,1.605-1.071,3.038-2.465,3.849
	c-1.394,0.811-3.095,0.898-4.564,0.236c-1.67-0.752-3.606-1.117-5.919-1.117c-4.062,0-10.157,3.375-13.311,7.368
	c-1.013,1.283-2.595,1.983-4.222,1.893c-1.632-0.098-3.114-0.987-3.967-2.382c-5.178-8.464-12.919-13.318-21.241-13.318
	C133.247,54.402,122.009,67.222,120.08,83.864z M146.756,44.402c9.85,0,19.29,4.788,26.166,13.056
	c4.612-3.704,10.743-6.617,16.575-6.617c1.446,0,2.841,0.103,4.18,0.306c3.519-10.953,13.715-18.649,25.7-18.649
	c10.701,0,20.4,6.455,24.683,16.062c3.827,0.618,7.536,2.245,10.873,4.709c-4.643-22.014-10.912-37.342-13.57-43.268H137.643
	c-2.68,5.991-9.04,21.584-13.697,43.926C130.235,47.963,138.16,44.402,146.756,44.402z M194.217,280.198
	c-3.263,0-5.917-2.655-5.917-5.917s2.655-5.917,5.917-5.917s5.917,2.654,5.917,5.917S197.48,280.198,194.217,280.198z
	 M179.929,215.572c-3.073,0-5.572-2.5-5.572-5.572s2.5-5.572,5.572-5.572s5.573,2.5,5.573,5.572S183.001,215.572,179.929,215.572z
	 M199.983,160.955c-3.624,0-6.572-2.948-6.572-6.572s2.948-6.573,6.572-6.573s6.572,2.949,6.572,6.573
	S203.607,160.955,199.983,160.955z M166.961,135.892c-3.388,0-6.145-2.757-6.145-6.145s2.756-6.145,6.145-6.145
	s6.145,2.757,6.145,6.145S170.35,135.892,166.961,135.892z M226.223,125.376c-3.659,0-6.636-2.977-6.636-6.636
	s2.977-6.636,6.636-6.636s6.636,2.977,6.636,6.636S229.882,125.376,226.223,125.376z"/>
<g>
</g>
<g>
</g>
<g>
</g>
<g>
</g>
<g>
</g>
<g>
</g>
<g>
</g>
<g>
</g>
<g>
</g>
<g>
</g>
<g>
</g>
<g>
</g>
<g>
</g>
<g>
</g>
<g>
</g>
</svg>
