<?xml version="1.0" encoding="utf-8"?>
<!-- Generator: Adobe Illustrator 16.0.0, SVG Export Plug-In . SVG Version: 6.00 Build 0)  -->
<!DOCTYPE svg PUBLIC "-//W3C//DTD SVG 1.1//EN" "http://www.w3.org/Graphics/SVG/1.1/DTD/svg11.dtd">
<svg version="1.1" id="Capa_1" xmlns="http://www.w3.org/2000/svg" xmlns:xlink="http://www.w3.org/1999/xlink" x="0px" y="0px"
	 width="200px" height="50px" viewBox="0 0 200 50" enable-background="new 0 0 200 50" xml:space="preserve">
<path fill="#333333" d="M111.502,50H88.499c-0.372,0-0.689-0.271-0.747-0.639c-0.057-0.367,0.162-0.723,0.516-0.836l10.977-3.517
	V21.475c0-0.027,0.001-0.054,0.004-0.081h-1.255c-4.399,0-7.978-3.579-7.978-7.978v-0.417c-4.248-1.766-7.065-5.943-7.065-10.557
	V0.755C82.951,0.338,83.289,0,83.706,0h32.588c0.417,0,0.755,0.338,0.755,0.755v1.686c0,4.614-2.817,8.791-7.064,10.557v0.417
	c0,4.399-3.579,7.978-7.979,7.978h-1.255c0.003,0.026,0.005,0.053,0.005,0.081v23.534l10.977,3.517
	c0.354,0.113,0.573,0.469,0.516,0.836S111.873,50,111.502,50z M93.332,48.489h13.336L100,46.354L93.332,48.489z M86.138,7.937
	c1.155,1.728,2.849,3.096,4.891,3.835c0.299,0.108,0.498,0.392,0.498,0.71v0.934c0,3.566,2.901,6.468,6.468,6.468h4.012
	c3.566,0,6.468-2.901,6.468-6.468v-0.934c0-0.318,0.198-0.602,0.498-0.71c2.042-0.739,3.735-2.107,4.891-3.835H97.989
	c-0.116,0.214-0.265,0.414-0.442,0.591l-2.333,2.333c-0.484,0.483-1.129,0.75-1.816,0.75c-0.688,0-1.332-0.267-1.816-0.75
	L89.25,8.528c-0.179-0.18-0.326-0.379-0.441-0.591H86.138z M90.795,7.937l1.856,1.856l0,0c0.198,0.198,0.464,0.307,0.748,0.307
	s0.549-0.109,0.748-0.308l1.856-1.856L90.795,7.937L90.795,7.937z M98.282,6.426h16.412c0.546-1.233,0.845-2.586,0.845-3.985V1.511
	H84.461v0.931c0,1.399,0.298,2.751,0.844,3.985h3.208c0.063-0.56,0.307-1.102,0.735-1.53l2.333-2.333
	c0.483-0.483,1.128-0.75,1.815-0.75s1.332,0.266,1.816,0.75l2.333,2.333C97.963,5.312,98.219,5.847,98.282,6.426z M90.047,6.426
	h6.702c-0.047-0.169-0.137-0.329-0.27-0.462l-2.333-2.333c-0.198-0.198-0.464-0.308-0.748-0.308s-0.549,0.109-0.748,0.308
	l-2.333,2.333C90.185,6.097,90.095,6.257,90.047,6.426z M104.333,17.674c-0.239,0-0.483-0.034-0.726-0.105l-3.165-0.933l0,0
	c-1.358-0.4-2.137-1.831-1.737-3.189l0.933-3.165c0.4-1.358,1.831-2.138,3.189-1.737l3.165,0.933c1.358,0.4,2.138,1.831,1.737,3.189
	l-0.934,3.165C106.469,16.949,105.442,17.674,104.333,17.674z M100.87,15.188l3.165,0.933c0.27,0.079,0.555,0.048,0.804-0.088
	s0.431-0.359,0.509-0.627l0.934-3.165c0.165-0.56-0.156-1.148-0.715-1.313L102.4,9.994c-0.559-0.165-1.148,0.156-1.313,0.715
	l-0.933,3.166C99.99,14.433,100.311,15.022,100.87,15.188L100.87,15.188z"/>
</svg>
