<?xml version="1.0" encoding="iso-8859-1"?>
<!-- Generator: Adobe Illustrator 17.1.0, SVG Export Plug-In . SVG Version: 6.00 Build 0)  -->
<!DOCTYPE svg PUBLIC "-//W3C//DTD SVG 1.1//EN" "http://www.w3.org/Graphics/SVG/1.1/DTD/svg11.dtd">
<svg version="1.1" id="Capa_1" xmlns="http://www.w3.org/2000/svg" xmlns:xlink="http://www.w3.org/1999/xlink" x="0px" y="0px"
	 viewBox="0 0 261 261" style="enable-background:new 0 0 261 261;" xml:space="preserve">
<path d="M218.5,261h-176c-15.04,0-27.276-12.236-27.276-27.277V5c0-2.762,2.238-5,5-5h220.554c2.762,0,5,2.238,5,5v228.723
	C245.777,248.764,233.541,261,218.5,261z M25.223,110v123.723c0,9.526,7.75,17.277,17.276,17.277h176
	c9.526,0,17.277-7.751,17.277-17.277V110h-26.131c-0.175,3.182-1.242,6.349-3.265,9.104l-13.056,17.78
	c-2.679,3.649-6.632,6.039-11.13,6.729c-4.492,0.686-8.984-0.406-12.634-3.087l-17.78-13.055c-3.649-2.68-6.039-6.633-6.729-11.13
	c-0.329-2.146-0.251-4.29,0.211-6.341H25.223z M155.944,110c-0.91,1.424-1.268,3.121-1.006,4.826
	c0.284,1.857,1.266,3.485,2.762,4.584l17.78,13.055c1.497,1.098,3.345,1.545,5.201,1.263c1.857-0.285,3.485-1.266,4.584-2.762
	l13.056-17.78c0.713-0.972,1.138-2.068,1.29-3.186H155.944z M207.075,100h28.702V10H25.223v90h125.639l10.333-14.073
	c2.68-3.649,6.632-6.039,11.13-6.729c4.502-0.692,8.984,0.407,12.634,3.086l17.78,13.055C204.517,96.645,205.968,98.234,207.075,100
	z M163.268,100h28.923l-13.15-9.655c-3.11-2.283-7.5-1.612-9.785,1.5L163.268,100z M227,224H34c-2.762,0-5-2.238-5-5s2.238-5,5-5
	h193c2.762,0,5,2.238,5,5S229.761,224,227,224z M105.893,201.005c-1.545,0-3.097-0.213-4.621-0.644l-21.228-5.994h-0.001
	c-9.021-2.548-14.287-11.959-11.739-20.98l5.994-21.228c1.23-4.357,4.095-7.981,8.065-10.203c3.972-2.223,8.559-2.769,12.915-1.537
	l21.228,5.994c9.021,2.548,14.287,11.959,11.74,20.979l-5.994,21.229c-1.23,4.357-4.095,7.981-8.065,10.203
	C111.605,200.269,108.763,201.005,105.893,201.005z M82.761,184.744l21.229,5.994c1.789,0.506,3.675,0.275,5.313-0.641
	c1.641-0.918,2.821-2.407,3.326-4.194l5.994-21.228c1.048-3.715-1.12-7.591-4.835-8.64l-21.228-5.994
	c-1.789-0.505-3.676-0.275-5.313,0.641c-1.641,0.918-2.821,2.407-3.326,4.194l-5.994,21.228c-0.504,1.787-0.276,3.674,0.641,5.313
	C79.486,183.058,80.975,184.239,82.761,184.744L82.761,184.744z"/>
<g>
</g>
<g>
</g>
<g>
</g>
<g>
</g>
<g>
</g>
<g>
</g>
<g>
</g>
<g>
</g>
<g>
</g>
<g>
</g>
<g>
</g>
<g>
</g>
<g>
</g>
<g>
</g>
<g>
</g>
</svg>
