<?xml version="1.0" encoding="utf-8"?>
<!-- Generator: Adobe Illustrator 16.0.0, SVG Export Plug-In . SVG Version: 6.00 Build 0)  -->
<!DOCTYPE svg PUBLIC "-//W3C//DTD SVG 1.1//EN" "http://www.w3.org/Graphics/SVG/1.1/DTD/svg11.dtd">
<svg version="1.1" id="Capa_1" xmlns="http://www.w3.org/2000/svg" xmlns:xlink="http://www.w3.org/1999/xlink" x="0px" y="0px"
	 width="200px" height="50px" viewBox="0 0 200 50" enable-background="new 0 0 200 50" xml:space="preserve">
<path fill="#333333" d="M110.572,50H95.357c-0.292,0-0.542-0.206-0.599-0.492c-0.056-0.287,0.098-0.572,0.368-0.683l6.221-2.54
	V38.57c0-0.834-0.108-1.666-0.323-2.473l-5.997-22.526c-0.313,0.044-0.632,0.067-0.957,0.067c-3.76,0-6.819-3.059-6.819-6.819
	S90.31,0,94.07,0c3.464,0,6.334,2.597,6.764,5.946h11.305c0.189,0,0.369,0.088,0.484,0.238c0.115,0.15,0.154,0.345,0.105,0.528
	l-7.823,29.385c-0.215,0.807-0.323,1.639-0.323,2.473v7.715l6.221,2.54c0.27,0.11,0.424,0.396,0.368,0.683
	C111.115,49.794,110.863,50,110.572,50z M98.465,48.779h9l-3.724-1.52c-0.229-0.094-0.38-0.317-0.38-0.564V38.57
	c0-0.939,0.123-1.877,0.365-2.787l6.547-24.589H99.298c-0.804,0.96-1.868,1.696-3.083,2.099l5.988,22.49
	c0.242,0.909,0.365,1.848,0.365,2.787v8.125c0,0.247-0.15,0.471-0.38,0.564L98.465,48.779z M94.07,1.22
	c-3.087,0-5.6,2.512-5.6,5.599s2.512,5.6,5.6,5.6c0.216,0,0.43-0.013,0.64-0.037l-1.509-5.669c-0.049-0.183-0.01-0.378,0.106-0.528
	c0.115-0.15,0.294-0.238,0.483-0.238h5.811C99.181,3.272,96.861,1.22,94.07,1.22z M95.657,11.194l0.244,0.917
	c0.608-0.21,1.168-0.523,1.661-0.917H95.657z M100.115,9.974h10.482l0.748-2.808h-10.465C100.83,8.175,100.559,9.126,100.115,9.974z
	 M95.332,9.974h3.363c0.554-0.81,0.901-1.771,0.965-2.808h-5.075L95.332,9.974z M101.281,25.844c-0.27,0-0.517-0.18-0.59-0.452
	l-2.806-10.492c-0.087-0.326,0.106-0.66,0.432-0.747c0.325-0.087,0.66,0.106,0.747,0.432l2.806,10.492
	c0.087,0.326-0.106,0.66-0.432,0.747C101.386,25.838,101.333,25.844,101.281,25.844z"/>
</svg>
