<?xml version="1.0" encoding="iso-8859-1"?>
<!-- Generator: Adobe Illustrator 17.1.0, SVG Export Plug-In . SVG Version: 6.00 Build 0)  -->
<!DOCTYPE svg PUBLIC "-//W3C//DTD SVG 1.1//EN" "http://www.w3.org/Graphics/SVG/1.1/DTD/svg11.dtd">
<svg version="1.1" id="Capa_1" xmlns="http://www.w3.org/2000/svg" xmlns:xlink="http://www.w3.org/1999/xlink" x="0px" y="0px"
	 viewBox="0 0 339 339" style="enable-background:new 0 0 339 339;" xml:space="preserve">
<path d="M273,339H66c-1.403,0-2.742-0.589-3.689-1.625c-0.947-1.035-1.416-2.42-1.292-3.818L85,63.778V33.833
	C85,15.177,100.178,0,118.833,0h101.333C238.822,0,254,15.177,254,33.833v29.945l23.98,269.779c0.124,1.398-0.345,2.783-1.292,3.818
	C275.742,338.411,274.403,339,273,339z M71.464,329h196.071L244.425,69H94.575L71.464,329z M95,59h149V33.833
	C244,20.691,233.308,10,220.167,10H118.833C105.692,10,95,20.691,95,33.833V59z M242,313c-2.761,0-5-2.239-5-5v-12
	c0-2.761,2.239-5,5-5s5,2.239,5,5v12C247,310.761,244.761,313,242,313z M205,313c-2.761,0-5-2.239-5-5v-12c0-2.761,2.239-5,5-5
	s5,2.239,5,5v12C210,310.761,207.761,313,205,313z M170,313c-2.761,0-5-2.239-5-5v-12c0-2.761,2.239-5,5-5s5,2.239,5,5v12
	C175,310.761,172.761,313,170,313z M135,313c-2.761,0-5-2.239-5-5v-12c0-2.761,2.239-5,5-5s5,2.239,5,5v12
	C140,310.761,137.761,313,135,313z M100,313c-2.761,0-5-2.239-5-5v-12c0-2.761,2.239-5,5-5s5,2.239,5,5v12
	C105,310.761,102.761,313,100,313z M223,283c-2.761,0-5-2.239-5-5v-12c0-2.761,2.239-5,5-5s5,2.239,5,5v12
	C228,280.761,225.761,283,223,283z M188,283c-2.761,0-5-2.239-5-5v-12c0-2.761,2.239-5,5-5s5,2.239,5,5v12
	C193,280.761,190.761,283,188,283z M153,283c-2.761,0-5-2.239-5-5v-12c0-2.761,2.239-5,5-5s5,2.239,5,5v12
	C158,280.761,155.761,283,153,283z M118,283c-2.761,0-5-2.239-5-5v-12c0-2.761,2.239-5,5-5s5,2.239,5,5v12
	C123,280.761,120.761,283,118,283z M205,253.656c-2.761,0-5-2.239-5-5v-12c0-2.761,2.239-5,5-5s5,2.239,5,5v12
	C210,251.417,207.761,253.656,205,253.656z M170,253.656c-2.761,0-5-2.239-5-5v-12c0-2.761,2.239-5,5-5s5,2.239,5,5v12
	C175,251.417,172.761,253.656,170,253.656z M135,253.656c-2.761,0-5-2.239-5-5v-12c0-2.761,2.239-5,5-5s5,2.239,5,5v12
	C140,251.417,137.761,253.656,135,253.656z M223,223.656c-2.761,0-5-2.239-5-5v-12c0-2.761,2.239-5,5-5s5,2.239,5,5v12
	C228,221.417,225.761,223.656,223,223.656z M188,223.656c-2.761,0-5-2.239-5-5v-12c0-2.761,2.239-5,5-5s5,2.239,5,5v12
	C193,221.417,190.761,223.656,188,223.656z M153,223.656c-2.761,0-5-2.239-5-5v-12c0-2.761,2.239-5,5-5s5,2.239,5,5v12
	C158,221.417,155.761,223.656,153,223.656z M118,223.656c-2.761,0-5-2.239-5-5v-12c0-2.761,2.239-5,5-5s5,2.239,5,5v12
	C123,221.417,120.761,223.656,118,223.656z M205,194.313c-2.761,0-5-2.239-5-5v-12c0-2.761,2.239-5,5-5s5,2.239,5,5v12
	C210,192.074,207.761,194.313,205,194.313z M170,194.313c-2.761,0-5-2.239-5-5v-12c0-2.761,2.239-5,5-5s5,2.239,5,5v12
	C175,192.074,172.761,194.313,170,194.313z M135,194.313c-2.761,0-5-2.239-5-5v-12c0-2.761,2.239-5,5-5s5,2.239,5,5v12
	C140,192.074,137.761,194.313,135,194.313z M223,164.313c-2.761,0-5-2.239-5-5v-12c0-2.761,2.239-5,5-5s5,2.239,5,5v12
	C228,162.074,225.761,164.313,223,164.313z M188,164.313c-2.761,0-5-2.239-5-5v-12c0-2.761,2.239-5,5-5s5,2.239,5,5v12
	C193,162.074,190.761,164.313,188,164.313z M153,164.313c-2.761,0-5-2.239-5-5v-12c0-2.761,2.239-5,5-5s5,2.239,5,5v12
	C158,162.074,155.761,164.313,153,164.313z M118,164.313c-2.761,0-5-2.239-5-5v-12c0-2.761,2.239-5,5-5s5,2.239,5,5v12
	C123,162.074,120.761,164.313,118,164.313z M205,134.969c-2.761,0-5-2.239-5-5v-12c0-2.761,2.239-5,5-5s5,2.239,5,5v12
	C210,132.73,207.761,134.969,205,134.969z M170,134.969c-2.761,0-5-2.239-5-5v-12c0-2.761,2.239-5,5-5s5,2.239,5,5v12
	C175,132.73,172.761,134.969,170,134.969z M135,134.969c-2.761,0-5-2.239-5-5v-12c0-2.761,2.239-5,5-5s5,2.239,5,5v12
	C140,132.73,137.761,134.969,135,134.969z M223,104.969c-2.761,0-5-2.239-5-5v-12c0-2.761,2.239-5,5-5s5,2.239,5,5v12
	C228,102.73,225.761,104.969,223,104.969z M188,104.969c-2.761,0-5-2.239-5-5v-12c0-2.761,2.239-5,5-5s5,2.239,5,5v12
	C193,102.73,190.761,104.969,188,104.969z M153,104.969c-2.761,0-5-2.239-5-5v-12c0-2.761,2.239-5,5-5s5,2.239,5,5v12
	C158,102.73,155.761,104.969,153,104.969z M118,104.969c-2.761,0-5-2.239-5-5v-12c0-2.761,2.239-5,5-5s5,2.239,5,5v12
	C123,102.73,120.761,104.969,118,104.969z"/>
<g>
</g>
<g>
</g>
<g>
</g>
<g>
</g>
<g>
</g>
<g>
</g>
<g>
</g>
<g>
</g>
<g>
</g>
<g>
</g>
<g>
</g>
<g>
</g>
<g>
</g>
<g>
</g>
<g>
</g>
</svg>
