<?xml version="1.0" encoding="iso-8859-1"?>
<!-- Generator: Adobe Illustrator 17.1.0, SVG Export Plug-In . SVG Version: 6.00 Build 0)  -->
<!DOCTYPE svg PUBLIC "-//W3C//DTD SVG 1.1//EN" "http://www.w3.org/Graphics/SVG/1.1/DTD/svg11.dtd">
<svg version="1.1" id="Capa_1" xmlns="http://www.w3.org/2000/svg" xmlns:xlink="http://www.w3.org/1999/xlink" x="0px" y="0px"
	 viewBox="0 0 400.149 400.149" style="enable-background:new 0 0 400.149 400.149;" xml:space="preserve">
<path d="M200.428,400.149c-12.647,0-22.938-10.29-22.938-22.938V266.709c0-19.009-6.873-37.373-19.354-51.711l-8.329-9.569H65.335
	c-12.274,0-22.261-9.986-22.261-22.261V22.262C43.075,9.986,53.061,0,65.335,0h269.478c12.275,0,22.262,9.986,22.262,22.262v160.906
	c0,12.274-9.986,22.261-22.262,22.261h-84.468l-7.704,8.878c-12.43,14.324-19.274,32.656-19.274,51.621v111.284
	C223.367,389.859,213.077,400.149,200.428,400.149z M187.491,295.354v81.856c0,7.135,5.804,12.938,12.938,12.938
	c7.135,0,12.938-5.804,12.938-12.938v-81.857H187.491z M187.491,285.354h25.876v-19.427c0-21.372,7.714-42.032,21.722-58.175
	l1.744-2.01h-73.493l2.341,2.688c14.064,16.159,21.811,36.855,21.811,58.277V285.354z M318.367,195.429h16.446
	c6.761,0,12.262-5.5,12.262-12.261v-13.143h-28.708V195.429z M273.049,195.429h35.317v-25.403h-35.317V195.429z M227.733,195.429
	h35.316v-25.403h-35.316V195.429z M182.417,195.429h35.316v-25.403h-35.316V195.429z M137.099,195.429h35.317v-25.403h-35.317
	V195.429z M91.783,195.429h35.316v-25.403H91.783V195.429z M53.075,170.025v13.143c0,6.761,5.5,12.261,12.261,12.261h16.447v-25.403
	H53.075z M318.367,160.025h28.708v-31.541h-28.708V160.025z M273.049,160.025h35.317v-31.541h-35.317V160.025z M227.733,160.025
	h35.316v-31.541h-35.316V160.025z M182.417,160.025h35.316v-31.541h-35.316V160.025z M137.099,160.025h35.317v-31.541h-35.317
	V160.025z M91.783,160.025h35.316v-31.541H91.783V160.025z M53.075,160.025h28.708v-31.541H53.075V160.025z M318.367,118.484h28.708
	v-31.54h-28.708V118.484z M273.049,118.484h35.317v-31.54h-35.317V118.484z M227.733,118.484h35.316v-31.54h-35.316V118.484z
	 M182.417,118.484h35.316v-31.54h-35.316V118.484z M137.099,118.484h35.317v-31.54h-35.317V118.484z M91.783,118.484h35.316v-31.54
	H91.783V118.484z M53.075,118.484h28.708v-31.54H53.075V118.484z M318.367,76.944h28.708v-31.54h-28.708V76.944z M273.049,76.944
	h35.317v-31.54h-35.317V76.944z M227.733,76.944h35.316v-31.54h-35.316V76.944z M182.417,76.944h35.316v-31.54h-35.316V76.944z
	 M137.099,76.944h35.317v-31.54h-35.317V76.944z M91.783,76.944h35.316v-31.54H91.783V76.944z M53.075,76.944h28.708v-31.54H53.075
	V76.944z M318.367,35.404h28.708V22.262c0-6.761-5.501-12.262-12.262-12.262h-16.446V35.404z M273.049,35.404h35.317V10h-35.317
	V35.404z M227.733,35.404h35.316V10h-35.316V35.404z M182.417,35.404h35.316V10h-35.316V35.404z M137.099,35.404h35.317V10h-35.317
	V35.404z M91.783,35.404h35.316V10H91.783V35.404z M53.075,35.404h28.708V10H65.335c-6.761,0-12.261,5.501-12.261,12.262V35.404z
	 M200.713,384.1c-4.318,0-7.832-3.514-7.832-7.832c0-4.319,3.514-7.833,7.832-7.833c4.319,0,7.833,3.514,7.833,7.833
	C208.546,380.586,205.033,384.1,200.713,384.1z"/>
<g>
</g>
<g>
</g>
<g>
</g>
<g>
</g>
<g>
</g>
<g>
</g>
<g>
</g>
<g>
</g>
<g>
</g>
<g>
</g>
<g>
</g>
<g>
</g>
<g>
</g>
<g>
</g>
<g>
</g>
</svg>
