<?xml version="1.0" encoding="iso-8859-1"?>
<!-- Generator: Adobe Illustrator 17.1.0, SVG Export Plug-In . SVG Version: 6.00 Build 0)  -->
<!DOCTYPE svg PUBLIC "-//W3C//DTD SVG 1.1//EN" "http://www.w3.org/Graphics/SVG/1.1/DTD/svg11.dtd">
<svg version="1.1" id="Capa_1" xmlns="http://www.w3.org/2000/svg" xmlns:xlink="http://www.w3.org/1999/xlink" x="0px" y="0px"
	 viewBox="0 0 366.075 366.075" style="enable-background:new 0 0 366.075 366.075;" xml:space="preserve">
<path d="M66.968,313.975c-3.247,0-5.96-0.075-8.013-0.163c-1.423,0.023-2.848-0.06-4.251-0.251c-0.02-0.001-0.037-0.003-0.052-0.004
	c-0.232-0.02-0.46-0.055-0.682-0.105C23.364,308.469,0,252.996,0,183.075C0,109.915,25.58,52.572,58.27,52.335
	c4.301-0.316,57.662-3.542,97.909,28.32c24.557,19.44,34.872,35.148,42.404,46.618c4.989,7.598,8.595,13.088,14.399,17.233
	c7.28,5.201,14.41,8.399,20.7,11.222c7.646,3.431,14.25,6.395,18.375,11.821c2.568,3.38,4.044,6.332,4.888,8.987h32.853
	c-0.506-2.501-0.76-5.053-0.76-7.638c0-21.239,17.28-38.519,38.519-38.519s38.519,17.28,38.519,38.519
	c0,13.121-6.634,25.142-17.346,32.184c4.091,5.61,6.356,12.426,6.356,19.468c0,18.209-14.814,33.024-33.024,33.024
	s-33.024-14.815-33.024-33.024c0-0.806,0.029-1.611,0.088-2.414l-34.804-1.65c-0.718,1.053-1.565,2.125-2.565,3.211
	c-4.167,4.529-10.755,6.971-18.383,9.798c-6.307,2.338-13.455,4.987-20.756,9.295c-5.768,3.403-9.346,7.905-14.299,14.135
	c-7.557,9.505-17.906,22.523-42.505,38.61C125.733,311.206,86.608,313.975,66.968,313.975z M55.825,303.617
	c0.542,0.038,1.736,0.113,3.479,0.18c11.701-0.555,23.457-12.792,32.376-33.766c9.842-23.145,15.263-54.026,15.263-86.956
	s-5.42-63.811-15.263-86.956c-9.13-21.471-21.234-33.785-33.208-33.785S34.393,74.649,25.263,96.119
	C15.42,119.264,10,150.146,10,183.075s5.42,63.811,15.263,86.956C33.721,289.921,44.73,301.953,55.825,303.617z M82.071,63.05
	c20.713,19.915,34.872,65.591,34.872,120.025c0,54.667-14.281,100.502-35.139,120.281c19.783-1.432,47.056-6.144,68.536-20.19
	c23.249-15.203,32.62-26.992,40.15-36.464c5.196-6.536,9.684-12.181,17.045-16.524c8.07-4.762,15.995-7.699,22.362-10.059
	c6.417-2.379,11.96-4.433,14.5-7.193c2.59-2.815,3.46-5.115,3.709-7.555c0.019-0.756,0.044-1.874,0.067-3.193
	c-0.01-0.346-0.023-0.698-0.036-1.058c-0.031-0.855-0.061-1.702-0.061-2.545v-8.866c-0.067-1.314-0.053-2.516-0.04-3.679
	c0.048-4.141,0.083-7.133-3.941-12.429c-2.582-3.397-7.845-5.759-14.507-8.749c-6.383-2.864-14.328-6.429-22.418-12.208
	c-7.325-5.232-11.783-12.021-16.945-19.882c-7.557-11.507-16.961-25.828-40.252-44.266C127.939,71.053,100.936,65.028,82.071,63.05z
	 M258.672,206.682l36.523,1.731c1.507,0.072,2.901,0.82,3.794,2.036s1.188,2.771,0.805,4.23c-0.502,1.912-0.757,3.887-0.757,5.872
	c0,12.696,10.329,23.024,23.024,23.024c12.695,0,23.024-10.329,23.024-23.024c0-6.521-2.786-12.764-7.644-17.129
	c-1.269-1.14-1.869-2.848-1.592-4.53c0.276-1.683,1.392-3.109,2.958-3.782c10.489-4.51,17.267-14.799,17.267-26.21
	c0-15.726-12.793-28.519-28.519-28.519s-28.519,12.793-28.519,28.519c0,3.71,0.708,7.328,2.103,10.75
	c0.629,1.542,0.449,3.295-0.48,4.677c-0.929,1.382-2.484,2.21-4.149,2.21h-38.314L258.672,206.682z M53.059,235.305
	c-10.543,0-18.494-12.961-18.494-30.148c0-17.188,7.951-30.148,18.494-30.148s18.494,12.961,18.494,30.148
	C71.553,222.344,63.602,235.305,53.059,235.305z M53.059,185.008c-3.382,0-8.494,8.036-8.494,20.148s5.112,20.148,8.494,20.148
	s8.494-8.036,8.494-20.148S56.44,185.008,53.059,185.008z M38.501,113.643c-0.45,0-0.907-0.062-1.361-0.189
	c-2.658-0.75-4.204-3.513-3.454-6.17c5.701-20.192,22.758-26.752,23.481-27.022c2.586-0.963,5.467,0.352,6.431,2.94
	c0.961,2.58-0.345,5.45-2.917,6.422c-0.58,0.225-13.095,5.233-17.37,20.376C42.689,112.204,40.684,113.643,38.501,113.643z"/>
<g>
</g>
<g>
</g>
<g>
</g>
<g>
</g>
<g>
</g>
<g>
</g>
<g>
</g>
<g>
</g>
<g>
</g>
<g>
</g>
<g>
</g>
<g>
</g>
<g>
</g>
<g>
</g>
<g>
</g>
</svg>
