<?xml version="1.0" encoding="iso-8859-1"?>
<!-- Generator: Adobe Illustrator 17.1.0, SVG Export Plug-In . SVG Version: 6.00 Build 0)  -->
<!DOCTYPE svg PUBLIC "-//W3C//DTD SVG 1.1//EN" "http://www.w3.org/Graphics/SVG/1.1/DTD/svg11.dtd">
<svg version="1.1" id="Capa_1" xmlns="http://www.w3.org/2000/svg" xmlns:xlink="http://www.w3.org/1999/xlink" x="0px" y="0px"
	 viewBox="0 0 385.109 385.109" style="enable-background:new 0 0 385.109 385.109;" xml:space="preserve">
<path d="M107.06,357.848c-3.984,0-7.56-0.144-10.671-0.419c-15.205-1.348-26.688-6.952-34.128-16.656
	c-2.857-3.726-4.938-7.826-6.413-12.108c-4.968,0.878-13.698,2.121-23.345,2.121c-8.939,0-16.685-3.126-22.398-9.041
	c-7.173-7.425-10.557-18.547-10.057-33.059c0.469-13.607,5.2-23.199,12.456-30.266c-0.132-5.881,0.385-12.184,1.544-18.769
	c4.715-26.799,25.415-31.389,56.747-38.336c3.478-0.771,7.127-1.58,10.949-2.459c3.258-0.749,6.502-1.476,9.735-2.2
	c34.253-7.674,66.607-14.923,97.95-44.969c18.447-17.684,28.762-39.894,38.738-61.372c8.47-18.235,16.469-35.458,28.671-46.925
	c17.246-16.206,35.645-13.852,46.332-10.266c9.167-5.899,17.127-5.883,24.516-5.861l1.178,0.002
	c14.863,0,30.715,12.385,36.874,28.809c4.898,13.062-1.324,30.073-4.761,37.798c13.355,8.845,25.627,24.191,23.983,43.753l0,0
	c-1.403,16.699-11.21,76.525-78.468,145.262c-32.798,33.519-79.479,51.887-112.863,61.393
	C159.822,353.907,127.903,357.848,107.06,357.848z M328.136,92.137c-7.443,0-15.923,2.464-24.183,10.225
	c-10.794,10.144-18.398,26.516-26.449,43.849c-9.882,21.277-21.084,45.394-40.889,64.379
	c-33.356,31.977-67.033,39.521-102.687,47.509c-3.213,0.72-6.439,1.443-9.678,2.188c-3.848,0.885-7.523,1.7-11.025,2.476
	c-31.245,6.929-45.505,10.091-49.063,30.307c-2.204,12.523-2.946,29.909,6.032,41.619c5.666,7.39,14.775,11.689,27.075,12.78
	c35.761,3.17,144.687-12.926,202.074-71.575c64.923-66.35,74.317-123.248,75.65-139.105c1.789-21.281-17.302-33.542-23.196-36.793
	c-0.938-0.517-1.761-1-2.514-1.475C345.991,96.44,337.969,92.137,328.136,92.137z M54.656,249.434
	c-28.322,7.646-43.812,16.342-44.614,39.598c-0.397,11.532,2.111,20.442,7.254,25.766c4.782,4.949,10.909,5.988,15.207,5.988
	c8.51,0,16.348-1.071,21-1.867c-1.447-9.673-0.604-19.53,0.813-27.583c4.715-26.798,25.414-31.388,56.746-38.336
	c3.478-0.771,7.127-1.581,10.95-2.459c3.257-0.749,6.5-1.476,9.732-2.199c34.254-7.675,66.609-14.923,97.953-44.97
	c18.447-17.684,28.763-39.894,38.739-61.373c4.101-8.83,8.092-17.423,12.504-25.24c-1.23,1.112-2.678,2.016-4.301,2.641
	l-8.313,3.201c-1.533,0.59-2.503,2.089-2.414,3.73l0.759,13.901c0.318,5.833-3.096,11.252-8.495,13.483l-9.857,4.072
	c-1.545,0.639-2.477,2.187-2.317,3.851l0.927,9.664c0.713,7.433-4.529,14.012-11.934,14.977l-10.512,1.369
	c-1.667,0.217-3.003,1.531-3.249,3.195l-1.141,7.741c-1.082,7.343-7.953,12.573-15.32,11.664l-10.883-1.346
	c-1.788-0.225-3.497,0.863-4.055,2.579l-3.238,9.956c-2.271,6.984-9.602,10.953-16.693,9.04l-16.12-4.353
	c-1.393-0.377-2.904,0.087-3.847,1.181l-9.396,10.907c-2.748,3.19-6.727,4.933-10.943,4.776l-25.378-0.931
	c-1.227-0.042-2.389,0.505-3.132,1.471l-5.425,7.05c-2.86,3.716-7.355,5.705-12.03,5.33l-18.051-1.463
	c-1.468-0.117-2.894,0.64-3.609,1.937c-6.928,12.55-7.957,14.553-8.107,14.868c-1.188,2.492-4.171,3.55-6.665,2.361
	c-2.493-1.188-3.55-4.172-2.361-6.665c0.19-0.398,0.768-1.611,8.378-15.397C53.634,250.792,54.117,250.085,54.656,249.434z
	 M287.773,40.5c-7.531,0-15.936,2.518-24.087,10.178c-10.794,10.144-18.398,26.517-26.449,43.85
	c-9.883,21.277-21.084,45.394-40.888,64.378c-33.355,31.976-67.031,39.521-102.684,47.509c-3.214,0.72-6.44,1.443-9.681,2.188
	c-3.848,0.884-7.522,1.699-11.024,2.476c-31.246,6.929-45.506,10.091-49.063,30.306c-0.563,3.2-0.958,6.314-1.185,9.323
	c9.112-5.184,19.978-8.535,29.901-11.181c2.801-0.747,6.164-1.608,9.99-2.587c34.947-8.943,107.666-27.553,142.614-59.173
	c26.776-24.226,44.371-59.74,58.508-88.276c6.571-13.264,12.246-24.719,17.969-33.454c3.976-6.068,7.859-11.063,11.732-15.076
	C291.613,40.669,289.722,40.5,287.773,40.5z M72.034,244.935l12.406,1.005c1.283,0.11,2.514-0.442,3.298-1.461l3.614-4.696
	C84.351,241.722,77.835,243.435,72.034,244.935z M116.067,232.486l13.898,0.51c1.178,0.045,2.247-0.435,3-1.309l6.021-6.99
	C131.274,227.525,123.564,230.118,116.067,232.486z M158.411,217.016l14.099,3.807c1.945,0.523,3.953-0.564,4.576-2.478l3.238-9.956
	c0.266-0.817,0.603-1.595,1.002-2.328C174.03,209.99,166.313,213.638,158.411,217.016z M193.648,198.875
	c0.487,0.008,0.977,0.042,1.469,0.103l10.883,1.346c2.014,0.246,3.903-1.185,4.2-3.197l1.141-7.742
	c0.31-2.097,1.093-4.041,2.238-5.72c-0.547,0.511-1.097,1.015-1.652,1.518C206.549,190.046,200.377,194.607,193.648,198.875z
	 M236.53,157.391c-5.747,7.888-12.014,15.444-18.909,22.36c1.655-1.049,3.545-1.756,5.57-2.02l10.512-1.369
	c2.03-0.265,3.467-2.068,3.271-4.106l-0.927-9.665C235.875,160.797,236.051,159.038,236.53,157.391z M255.919,126.727
	c-4.397,7.861-9.145,15.767-14.335,23.454c0.886-0.648,1.862-1.2,2.916-1.635l9.856-4.072c1.48-0.612,2.416-2.097,2.329-3.696
	l-0.759-13.901C255.924,126.826,255.922,126.777,255.919,126.727z M273.94,92.007c-0.28,0.562-0.562,1.125-0.846,1.694
	c-3.279,6.567-6.738,13.495-10.448,20.578c0.657-0.389,1.354-0.728,2.086-1.01l8.313-3.201c1.625-0.626,2.608-2.27,2.39-3.998
	l-1.423-11.27C273.892,93.855,273.871,92.921,273.94,92.007z M303.411,76.541c2.399,0,4.516,1.731,4.925,4.175
	c0.456,2.724-1.382,5.301-4.105,5.757l-17.175,2.876c-2.006,0.336-3.378,2.18-3.124,4.198l1.423,11.271
	c0.222,1.754,0.104,3.484-0.31,5.117c3.602-5.582,7.543-10.615,12.06-14.859c22.448-21.094,46.698-11.031,55.224-6.357
	c3.278-7.693,7.259-20.562,4.045-29.132c-5.239-13.972-18.102-22.32-27.511-22.32l-1.203-0.002
	c-11.434-0.037-21.299-0.052-37.223,24.253c-3.76,5.74-7.614,12.923-11.799,21.144c1.854-1.607,4.164-2.738,6.765-3.174
	l17.175-2.876C302.859,76.564,303.137,76.541,303.411,76.541z"/>
<g>
</g>
<g>
</g>
<g>
</g>
<g>
</g>
<g>
</g>
<g>
</g>
<g>
</g>
<g>
</g>
<g>
</g>
<g>
</g>
<g>
</g>
<g>
</g>
<g>
</g>
<g>
</g>
<g>
</g>
</svg>
