<?xml version="1.0" encoding="iso-8859-1"?>
<!-- Generator: Adobe Illustrator 17.1.0, SVG Export Plug-In . SVG Version: 6.00 Build 0)  -->
<!DOCTYPE svg PUBLIC "-//W3C//DTD SVG 1.1//EN" "http://www.w3.org/Graphics/SVG/1.1/DTD/svg11.dtd">
<svg version="1.1" id="Capa_1" xmlns="http://www.w3.org/2000/svg" xmlns:xlink="http://www.w3.org/1999/xlink" x="0px" y="0px"
	 viewBox="0 0 358.444 358.444" style="enable-background:new 0 0 358.444 358.444;" xml:space="preserve">
<path d="M227.241,358.444h-96.037c-2.484,0-4.591-1.823-4.948-4.281l-20.992-144.534H92.38c-2.44,0-4.524-1.762-4.93-4.168
	l-9.343-55.352c-0.245-1.451,0.162-2.936,1.112-4.06c0.724-0.856,1.708-1.437,2.786-1.664c-3.803-7.419-5.783-15.617-5.783-24.131
	c0-26.059,18.865-47.794,43.656-52.265c-0.369-2.692-0.554-5.398-0.554-8.092C119.324,26.87,146.194,0,179.222,0
	c33.028,0,59.898,26.87,59.898,59.898c0,2.694-0.186,5.4-0.555,8.092c24.791,4.47,43.656,26.206,43.656,52.265
	c0,8.514-1.979,16.712-5.782,24.131c1.084,0.229,2.072,0.813,2.797,1.677c0.95,1.131,1.351,2.625,1.096,4.08l-9.713,55.352
	c-0.42,2.392-2.497,4.136-4.925,4.136h-12.514l-20.992,144.534C231.832,356.621,229.725,358.444,227.241,358.444z M174.071,348.444
	h48.843l20.03-137.907H115.5l4.228,29.108l22.958-22.958c1.953-1.952,5.118-1.952,7.071,0c1.953,1.953,1.953,5.119,0,7.071l-28,28
	c-0.078,0.077-0.157,0.152-0.238,0.223l2.901,19.972l22.766-22.767c1.953-1.952,5.118-1.952,7.071,0
	c1.953,1.953,1.953,5.119,0,7.071l-28.044,28.044l2.645,18.212l22.328-22.328c1.953-1.952,5.118-1.952,7.071,0
	c1.953,1.953,1.953,5.119,0,7.071l-27.5,27.5c-0.035,0.035-0.07,0.069-0.105,0.103l2.772,19.088l22.262-22.262
	c1.953-1.952,5.118-1.952,7.071,0c1.953,1.953,1.953,5.119,0,7.071l-27,27c-0.174,0.174-0.357,0.333-0.549,0.475l0.321,2.211h24.399
	l19.258-19.258c1.953-1.952,5.118-1.952,7.071,0c1.953,1.953,1.953,5.119,0,7.071L174.071,348.444z M96.606,199.629h164.889
	l7.958-45.352H88.952L96.606,199.629z M193.324,144.278h71.584c4.793-7.11,7.314-15.365,7.314-24.023
	c0-22.565-17.426-41.136-39.528-42.96c-0.121,0-0.242-0.004-0.365-0.014c-1.233-0.091-2.239-0.114-3.213-0.133
	c-0.016,0-0.031,0-0.046,0c-0.01,0-0.024,0-0.034,0c-0.012,0-0.021-0.001-0.033,0c-0.01,0-0.021,0-0.034,0
	c-0.012,0.001-0.021,0.001-0.032,0c-0.011,0-0.022,0.001-0.034,0c-0.01,0-0.023,0-0.033,0c-0.012,0-0.021,0-0.033,0l0,0
	c-19.856,0.126-36.57,13.747-41.413,32.133c-0.511,1.956-0.888,3.967-1.124,6.028c-0.011,0.099-0.025,0.197-0.042,0.293
	c-0.165,1.528-0.249,3.081-0.249,4.652C186.009,128.913,188.531,137.167,193.324,144.278z M176.708,144.278h5.028
	c-0.955-1.874-1.794-3.796-2.514-5.762C178.502,140.481,177.663,142.404,176.708,144.278z M93.537,144.278h71.584
	c4.793-7.111,7.314-15.366,7.314-24.023c0-1.571-0.084-3.124-0.249-4.651c-0.017-0.097-0.031-0.195-0.042-0.294
	c-0.235-2.062-0.614-4.075-1.125-6.032c-4.844-18.384-21.557-32.003-41.412-32.129l0,0c-0.013,0-0.026-0.001-0.037,0
	c-0.011,0-0.025,0.001-0.036,0c-0.013,0-0.021,0-0.035,0c-0.011,0-0.027,0-0.035,0c-0.012,0-0.024-0.001-0.034,0
	c-0.012,0-0.023,0-0.034,0c-0.01,0-0.023,0-0.034,0c-0.019,0-0.037,0-0.059,0c-0.952,0.001-1.966,0.043-3.188,0.133
	c-0.122,0.009-0.244,0.014-0.364,0.014c-22.103,1.824-39.529,20.395-39.529,42.96C86.222,128.912,88.744,137.167,93.537,144.278z
	 M129.859,67.15c22.523,0.22,41.948,14.492,49.363,34.871c7.415-20.378,26.839-34.65,49.362-34.871
	c0.356-2.413,0.536-4.84,0.536-7.252c0-27.514-22.384-49.898-49.898-49.898c-27.514,0-49.898,22.384-49.898,49.898
	C129.324,62.311,129.504,64.738,129.859,67.15z"/>
<g>
</g>
<g>
</g>
<g>
</g>
<g>
</g>
<g>
</g>
<g>
</g>
<g>
</g>
<g>
</g>
<g>
</g>
<g>
</g>
<g>
</g>
<g>
</g>
<g>
</g>
<g>
</g>
<g>
</g>
</svg>
