<?xml version="1.0" encoding="iso-8859-1"?>
<!-- Generator: Adobe Illustrator 17.1.0, SVG Export Plug-In . SVG Version: 6.00 Build 0)  -->
<!DOCTYPE svg PUBLIC "-//W3C//DTD SVG 1.1//EN" "http://www.w3.org/Graphics/SVG/1.1/DTD/svg11.dtd">
<svg version="1.1" id="Capa_1" xmlns="http://www.w3.org/2000/svg" xmlns:xlink="http://www.w3.org/1999/xlink" x="0px" y="0px"
	 viewBox="0 0 403.24 403.24" style="enable-background:new 0 0 403.24 403.24;" xml:space="preserve">
<path d="M204.66,403.24h-6.08c-11.558,0-20.96-9.402-20.96-20.96V327h-37.612c-19.789,0-35.888-16.1-35.888-35.889V97.889
	c0-0.04,0.001-0.108,0.002-0.169l-0.002-0.22l0.007-0.618c0.013-2.668,2.117-4.855,4.783-4.972
	c42.875-1.867,76.46-36.968,76.46-79.91c0-1.779-0.077-3.661-0.243-5.923c-0.195-2.656,1.728-4.999,4.371-5.327
	C193.509,0.252,197.587,0,201.62,0c53.762,0,97.5,43.738,97.5,97.5l-0.002,0.215l0.002,0.174v193.223
	c0,19.789-16.1,35.889-35.889,35.889H225.62v55.28C225.62,393.838,216.218,403.24,204.66,403.24z M187.62,328v54.28
	c0,6.043,4.917,10.96,10.96,10.96h6.08c6.043,0,10.96-4.917,10.96-10.96V328H187.62z M114.12,101.568v189.543
	c0,14.275,11.613,25.889,25.888,25.889h123.223c14.275,0,25.889-11.613,25.889-25.889l-0.001-193.567
	C289.12,49.252,249.868,10,201.62,10c-2.083,0-4.18,0.075-6.271,0.224c0.015,0.604,0.021,1.193,0.021,1.776
	C195.37,58.704,160.053,97.164,114.12,101.568z"/>
<g>
</g>
<g>
</g>
<g>
</g>
<g>
</g>
<g>
</g>
<g>
</g>
<g>
</g>
<g>
</g>
<g>
</g>
<g>
</g>
<g>
</g>
<g>
</g>
<g>
</g>
<g>
</g>
<g>
</g>
</svg>
