<?xml version="1.0" encoding="iso-8859-1"?>
<!-- Generator: Adobe Illustrator 17.1.0, SVG Export Plug-In . SVG Version: 6.00 Build 0)  -->
<!DOCTYPE svg PUBLIC "-//W3C//DTD SVG 1.1//EN" "http://www.w3.org/Graphics/SVG/1.1/DTD/svg11.dtd">
<svg version="1.1" id="Capa_1" xmlns="http://www.w3.org/2000/svg" xmlns:xlink="http://www.w3.org/1999/xlink" x="0px" y="0px"
	 viewBox="0 0 380.25 380.25" style="enable-background:new 0 0 380.25 380.25;" xml:space="preserve">
<path d="M375.25,310.064H5c-1.525,0-2.968-0.697-3.916-1.892c-0.949-1.195-1.3-2.758-0.953-4.244l44.155-189.352
	c0.029-0.231,0.074-0.46,0.135-0.686C53.695,77.777,73.92,70.186,89.25,70.186c6.115,0,12.017,1.199,17.577,3.569
	c5.289-2.33,11.146-3.569,17.423-3.569c12.624,0,24.553,5.296,33.011,14.425c8.225-8.868,19.97-14.425,32.989-14.425
	c12.953,0,24.646,5.501,32.864,14.291c8.449-9.046,20.323-14.291,32.886-14.291c6.276,0,12.134,1.239,17.422,3.569
	c5.562-2.37,11.463-3.569,17.578-3.569c15.33,0,35.555,7.591,44.843,43.756c0.05,0.192,0.087,0.396,0.113,0.604l44.163,189.383
	c0.347,1.486-0.004,3.048-0.953,4.244C378.218,309.367,376.775,310.064,375.25,310.064z M327.583,300.064h41.367l-42.774-183.428
	c-0.059-0.211-0.104-0.429-0.133-0.651C319.853,92.249,308.06,80.186,291,80.186c-2.261,0-4.483,0.21-6.658,0.629
	c8.607,7.703,14.527,19.245,16.578,33.457l0.001,0.002c0.002,0.013,0.004,0.028,0.006,0.041c0.008,0.057,0.016,0.114,0.024,0.171
	c0.017,0.122,0.029,0.252,0.037,0.386L327.583,300.064z M245.725,300.064h71.756l-26.402-183.853
	c-0.038-0.209-0.063-0.422-0.074-0.64c-2.178-14.825-9.431-26.417-19.935-31.85c-0.124-0.064-0.245-0.133-0.362-0.207
	c-4.389-2.176-9.333-3.329-14.707-3.329c-10.388,0-20.173,4.613-26.795,12.49c3.84,6.62,6.042,14.303,6.045,22.491L245.725,300.064z
	 M145.277,300.064h89.695l-9.956-184.306c-0.013-0.148-0.02-0.298-0.02-0.45c0-0.043,0.001-0.118,0.003-0.179
	c-0.012-7.078-2.128-13.895-6.123-19.715c-0.249-0.364-0.445-0.752-0.589-1.155c-6.389-8.537-16.579-14.073-28.038-14.073
	c-19.194,0-34.829,15.531-34.999,34.687c0,0.001,0,0.004,0,0.006c0,0.008,0,0.017,0,0.025c0,0.002,0,0.004,0,0.006
	c0,0.013,0,0.027,0,0.04c0,0.006,0,0.013,0,0.019s0,0.011,0,0.017c0,0.011-0.001,0.021-0.001,0.032c0,0.005,0,0.008,0,0.012
	c0,0.009,0,0.017,0,0.025c0,0.003,0,0.009,0,0.012c0,0.012,0,0.023,0,0.035c0,0.002,0,0.003,0,0.006c0,0.011,0,0.021,0,0.032
	c0,0.004,0,0.006,0,0.01c0,0.004,0,0.009,0,0.013l0.003,0.146c0,0.152-0.007,0.302-0.02,0.45L145.277,300.064z M62.77,300.064
	h72.493l9.987-184.891c0-0.006,0-0.013,0-0.02c0-0.003,0-0.007,0-0.01c0-0.008,0-0.016,0-0.024c0-0.003,0-0.006,0-0.009
	c0-0.022,0-0.044,0-0.066c0-0.003,0-0.005,0-0.008c0-0.011,0-0.02,0-0.03v-0.002c0-0.024,0.001-0.047,0.001-0.072v-0.001
	c0.043-7.812,2.083-15.374,5.935-22.086c-6.625-7.98-16.475-12.659-26.936-12.659c-5.372,0-10.315,1.152-14.704,3.327
	c-0.118,0.074-0.24,0.144-0.365,0.209c-10.508,5.434-17.763,17.031-19.935,31.849c-0.011,0.217-0.036,0.431-0.074,0.64
	L62.77,300.064z M11.3,300.064h41.367l26.591-185.167c0.009-0.143,0.023-0.285,0.044-0.427c0.002-0.017,0.004-0.033,0.007-0.049
	c0-0.003,0.001-0.006,0.001-0.009c0.959-6.745,2.788-12.891,5.363-18.313c-4.329,1.308-9.984,4.49-11.806,12.232
	c-0.633,2.687-3.321,4.353-6.013,3.722c-2.688-0.633-4.354-3.324-3.722-6.012C67.015,89.545,82.404,85.186,90,85.186
	c0.512,0,1.007,0.077,1.472,0.22c1.384-1.653,2.865-3.187,4.436-4.591c-2.174-0.418-4.396-0.629-6.657-0.629
	c-17.047,0-28.836,12.044-35.043,35.803c-0.03,0.222-0.075,0.44-0.134,0.652L11.3,300.064z M169.004,112.187
	c-0.379,0-0.764-0.043-1.149-0.134c-2.688-0.633-4.354-3.324-3.722-6.012c3.882-16.496,19.271-20.855,26.867-20.855
	c2.762,0,5,2.239,5,5c0,2.754-2.227,4.988-4.979,5c-0.649,0.008-14.143,0.343-17.154,13.145
	C173.325,110.634,171.271,112.187,169.004,112.187z M104.004,112.187c-0.379,0-0.764-0.043-1.149-0.134
	c-2.688-0.633-4.354-3.324-3.722-6.012c3.882-16.496,19.271-20.855,26.867-20.855c2.762,0,5,2.239,5,5c0,2.754-2.227,4.988-4.979,5
	c-0.649,0.008-14.143,0.343-17.154,13.145C108.325,110.634,106.271,112.187,104.004,112.187z"/>
<g>
</g>
<g>
</g>
<g>
</g>
<g>
</g>
<g>
</g>
<g>
</g>
<g>
</g>
<g>
</g>
<g>
</g>
<g>
</g>
<g>
</g>
<g>
</g>
<g>
</g>
<g>
</g>
<g>
</g>
</svg>
