<?xml version="1.0" encoding="iso-8859-1"?>
<!-- Generator: Adobe Illustrator 17.1.0, SVG Export Plug-In . SVG Version: 6.00 Build 0)  -->
<!DOCTYPE svg PUBLIC "-//W3C//DTD SVG 1.1//EN" "http://www.w3.org/Graphics/SVG/1.1/DTD/svg11.dtd">
<svg version="1.1" id="Capa_1" xmlns="http://www.w3.org/2000/svg" xmlns:xlink="http://www.w3.org/1999/xlink" x="0px" y="0px"
	 viewBox="0 0 347.601 347.601" style="enable-background:new 0 0 347.601 347.601;" xml:space="preserve">
<path d="M222.761,347.601h-96.62c-2.762,0-5-2.238-5-5v-5.469c0-3.073,0.759-6.038,1.558-8.306
	c-7.354-5.402-25.141-19.173-36.948-34.179c-15.415-19.591-25.682-40.789-25.682-80.57c0-34.422,20.301-51.629,33.734-63.015
	c2.728-2.312,5.083-4.308,6.925-6.15c1.961-1.96,4.33-4.048,7.074-6.465c13.297-11.715,33.392-29.418,33.392-57.452
	c0-32.887-30.911-51.091-31.224-51.271c-0.094-0.054-0.186-0.11-0.275-0.171c-2.874-1.916-7.695-5.833-7.695-10.54
	c0-4.766,2.745-7.171,6.22-10.216l0.94-0.826c5.628-4.966,18.622-10.786,31.352-6.453c6.721,2.284,11.227,6.9,15.997,11.787
	c4.644,4.757,9.906,10.148,18.571,15.021c16.337,9.19,38.276,4.969,38.496,4.926c2.265-0.454,4.547,0.708,5.517,2.803
	c0.97,2.096,0.382,4.582-1.427,6.017c-2.028,1.608-7.168,5.762-10.098,8.401c12.416,0.038,43.552,1.733,59.8,16.933
	c19.198,17.961,15.15,46.002,11.579,70.742c-0.315,2.183-0.629,4.356-0.927,6.514c-3.027,21.944,0.535,36.818,1.429,40.053
	c1.609,3.763,2.8,7.194,3.857,10.242c0.234,0.674,0.461,1.328,0.685,1.961c4.523,12.816,7.998,46.719-11.228,83.292
	c-15.532,29.549-37.557,44.511-46.116,49.488c0.399,1.878,0.838,4.115,1.07,5.862c0.535,4.013,0.044,7.426-0.015,7.802
	C227.327,345.801,225.229,347.601,222.761,347.601z M131.141,337.601h86.744c-0.021-0.236-0.048-0.477-0.08-0.72
	c-0.415-3.12-1.715-8.556-1.729-8.61c-0.551-2.296,0.58-4.665,2.713-5.681c0.265-0.127,27.504-13.517,45.122-47.033
	c17.618-33.518,14.67-63.919,10.649-75.312c-0.229-0.648-0.462-1.319-0.702-2.011c-0.908-2.618-1.925-5.549-3.271-8.751
	c-0.179-0.304-0.329-0.63-0.444-0.979c-0.012-0.035-0.036-0.111-0.072-0.227c-4.523-10.334-12.608-23.331-31.222-37.695
	c-25.865-19.962-42.674-37.214-46.548-61.509c-3.649-22.895,2.675-40.234,6.872-44.43c0.122-0.122,0.253-0.25,0.39-0.382
	c-8.717-0.177-19.673-1.757-29.386-7.221c-9.916-5.577-15.965-11.773-20.825-16.752c-4.415-4.522-7.604-7.79-12.06-9.305
	c-8.96-3.051-18.366,1.705-21.517,4.483l-0.966,0.849c-0.967,0.848-2.036,1.785-2.564,2.359c0.67,0.761,1.92,1.82,2.887,2.481
	c2.984,1.764,36.062,22.176,36.062,59.837c0,32.552-23.024,52.836-36.781,64.955c-2.617,2.306-4.877,4.297-6.613,6.033
	c-2.133,2.133-4.755,4.355-7.53,6.708c-12.745,10.802-30.2,25.597-30.2,55.386c0,37.03,9.008,55.917,23.541,74.387
	c13.934,17.707,37.869,34.362,38.109,34.528c2.103,1.455,2.771,4.262,1.546,6.507c-0.585,1.09-2.124,4.619-2.124,7.633V337.601z
	 M202.876,60.553c-1.506,6.359-2.49,15.717-0.7,26.947c2.974,18.647,14.169,33.084,42.782,55.167
	c9.563,7.379,16.588,14.441,21.865,21.033c-0.086-5.919,0.236-12.769,1.29-20.405c0.301-2.178,0.617-4.372,0.936-6.576
	c3.379-23.409,6.874-47.616-8.514-62.011C243.767,59.023,204.564,60.484,202.876,60.553z M108.659,280.226
	c-1.433,0-2.855-0.612-3.844-1.799c-0.564-0.678-13.88-16.814-18.458-36.041c-4.523-18.997-1.946-38.498-1.834-39.319
	c0.373-2.735,2.887-4.647,5.63-4.278c2.736,0.373,4.651,2.894,4.278,5.63c-0.045,0.336-2.408,18.592,1.654,35.651
	c4.04,16.969,16.288,31.808,16.411,31.955c1.769,2.122,1.481,5.274-0.64,7.042C110.923,279.846,109.787,280.226,108.659,280.226z"/>
<g>
</g>
<g>
</g>
<g>
</g>
<g>
</g>
<g>
</g>
<g>
</g>
<g>
</g>
<g>
</g>
<g>
</g>
<g>
</g>
<g>
</g>
<g>
</g>
<g>
</g>
<g>
</g>
<g>
</g>
</svg>
