<?xml version="1.0" encoding="iso-8859-1"?>
<!-- Generator: Adobe Illustrator 17.1.0, SVG Export Plug-In . SVG Version: 6.00 Build 0)  -->
<!DOCTYPE svg PUBLIC "-//W3C//DTD SVG 1.1//EN" "http://www.w3.org/Graphics/SVG/1.1/DTD/svg11.dtd">
<svg version="1.1" id="Capa_1" xmlns="http://www.w3.org/2000/svg" xmlns:xlink="http://www.w3.org/1999/xlink" x="0px" y="0px"
	 viewBox="0 0 363.5 363.5" style="enable-background:new 0 0 363.5 363.5;" xml:space="preserve">
<path d="M278.583,363.5h-35.918c-0.083,0-0.167-0.002-0.249-0.006c-0.082,0.004-0.166,0.006-0.249,0.006H84.916
	c-2.761,0-5-2.238-5-5V27.616c0-2.762,2.239-5,5-5h15V5c0-2.762,2.239-5,5-5h49.141c2.761,0,5,2.238,5,5v17.616h83.11
	c0.08,0,0.158,0.002,0.237,0.006c0.126-0.007,0.252-0.009,0.377-0.006h35.684c0.276-0.008,0.554,0.01,0.833,0.051
	c0.572,0.082,1.113,0.262,1.606,0.521c0.67,0.35,1.237,0.841,1.674,1.424c0.435,0.577,0.747,1.251,0.899,1.983
	c0.077,0.368,0.113,0.748,0.104,1.132V358.5C283.583,361.262,281.344,363.5,278.583,363.5z M247.665,353.5h25.918V63.053
	l-6.862,23.831c-0.606,2.105-2.512,3.57-4.703,3.615c-2.216,0.063-4.155-1.342-4.847-3.421l-9.507-28.585V353.5z M89.916,353.5
	h147.251V32.616H89.916V353.5z M249.597,32.616l11.976,36.007l10.368-36.007H249.597z M109.916,21.524h39.141V10h-39.141V21.524z"/>
<g>
</g>
<g>
</g>
<g>
</g>
<g>
</g>
<g>
</g>
<g>
</g>
<g>
</g>
<g>
</g>
<g>
</g>
<g>
</g>
<g>
</g>
<g>
</g>
<g>
</g>
<g>
</g>
<g>
</g>
</svg>
