<?xml version="1.0" encoding="iso-8859-1"?>
<!-- Generator: Adobe Illustrator 17.1.0, SVG Export Plug-In . SVG Version: 6.00 Build 0)  -->
<!DOCTYPE svg PUBLIC "-//W3C//DTD SVG 1.1//EN" "http://www.w3.org/Graphics/SVG/1.1/DTD/svg11.dtd">
<svg version="1.1" id="Capa_1" xmlns="http://www.w3.org/2000/svg" xmlns:xlink="http://www.w3.org/1999/xlink" x="0px" y="0px"
	 viewBox="0 0 322.001 322.001" style="enable-background:new 0 0 322.001 322.001;" xml:space="preserve">
<path d="M242.666,322.001h-35.918c-0.083,0-0.167-0.002-0.249-0.006c-0.082,0.004-0.166,0.006-0.249,0.006H49c-2.761,0-5-2.238-5-5
	V121.117c0-2.762,2.239-5,5-5h138.505l7.802-54.433c2.689-18.765,11.055-32.354,23.555-38.265c0.04-0.019,0.079-0.036,0.119-0.054
	l52-22.939c2.526-1.114,5.478,0.029,6.593,2.557c1.114,2.526-0.03,5.478-2.557,6.592l-51.936,22.912
	c-9.335,4.444-15.682,15.314-17.876,30.615l-7.598,53.015h8.644c0.08,0,0.159,0.002,0.237,0.006c0.125-0.007,0.25-0.008,0.375-0.006
	h35.687c0.271-0.009,0.544,0.011,0.819,0.049c0.582,0.082,1.131,0.265,1.63,0.528c0.663,0.349,1.224,0.836,1.659,1.413
	c0.438,0.579,0.751,1.256,0.904,1.992c0.077,0.367,0.112,0.745,0.104,1.128v195.773
	C247.666,319.763,245.428,322.001,242.666,322.001z M211.748,312.001h25.918V156.554l-6.862,23.831
	c-0.606,2.105-2.512,3.57-4.703,3.615c-2.164,0.081-4.155-1.343-4.846-3.421l-9.507-28.585V312.001z M54,312.001h147.251V126.117H54
	V312.001z M213.68,126.117l11.976,36.007l10.368-36.007H213.68z"/>
<g>
</g>
<g>
</g>
<g>
</g>
<g>
</g>
<g>
</g>
<g>
</g>
<g>
</g>
<g>
</g>
<g>
</g>
<g>
</g>
<g>
</g>
<g>
</g>
<g>
</g>
<g>
</g>
<g>
</g>
</svg>
