<?xml version="1.0" encoding="iso-8859-1"?>
<!-- Generator: Adobe Illustrator 17.1.0, SVG Export Plug-In . SVG Version: 6.00 Build 0)  -->
<!DOCTYPE svg PUBLIC "-//W3C//DTD SVG 1.1//EN" "http://www.w3.org/Graphics/SVG/1.1/DTD/svg11.dtd">
<svg version="1.1" id="Capa_1" xmlns="http://www.w3.org/2000/svg" xmlns:xlink="http://www.w3.org/1999/xlink" x="0px" y="0px"
	 viewBox="0 0 377.733 377.733" style="enable-background:new 0 0 377.733 377.733;" xml:space="preserve">
<path d="M372.733,367.902H40.759c-2.761,0-5-2.239-5-5v-76.874c-0.008-0.124-0.011-0.249-0.009-0.374
	c0.171-13.678,1.94-27.1,5.216-40.05l-38-16.916c-1.211-0.54-2.159-1.538-2.634-2.776c-0.475-1.238-0.439-2.614,0.1-3.826
	l19.642-44.121c1.124-2.522,4.079-3.656,6.602-2.534l38.108,16.964c6.299-9.332,13.565-18.104,21.749-26.192
	c5.003-4.946,10.262-9.548,15.742-13.792L78.926,59.691c-3.038-12.063-0.394-24.609,7.254-34.42
	c7.647-9.812,19.167-15.439,31.607-15.439h177.907c12.44,0,23.96,5.627,31.607,15.439c7.647,9.812,10.292,22.357,7.254,34.42
	l-23.353,92.746c5.47,4.238,10.715,8.83,15.711,13.768c32.037,31.666,50.054,73.85,50.773,118.839
	c0.03,0.22,0.046,0.445,0.046,0.674v77.185C377.733,365.663,375.495,367.902,372.733,367.902z M45.759,357.902h321.975v-71.578
	c-0.021-0.179-0.034-0.361-0.036-0.545c-1.096-87.645-73.309-158.948-160.975-158.948c-87.564,0-159.711,71.134-160.97,158.639
	c0.004,0.082,0.006,0.164,0.006,0.247V357.902z M11.602,221.586L42.25,235.23l15.574-34.986l-30.648-13.644L11.602,221.586z
	 M206.723,116.831c34.616,0,67.705,10.239,95.761,29.279l22.375-88.861c2.279-9.053,0.295-18.468-5.444-25.832
	c-5.739-7.363-14.385-11.586-23.72-11.586H117.788c-9.335,0-17.981,4.223-23.72,11.586c-5.739,7.363-7.723,16.778-5.444,25.832
	l22.37,88.839C139.042,127.064,172.121,116.831,206.723,116.831z M67.42,339.832c-2.521,0-4.688-1.9-4.965-4.463
	c-0.264-2.448-6.306-60.399,8.275-100.255c15.375-42.025,59.028-72.151,60.879-73.414c2.282-1.556,5.392-0.967,6.948,1.314
	c1.555,2.281,0.967,5.391-1.313,6.947l0,0c-0.427,0.292-42.867,29.622-57.123,68.588c-13.789,37.688-7.787,95.169-7.725,95.745
	c0.296,2.746-1.689,5.212-4.434,5.508C67.78,339.822,67.599,339.832,67.42,339.832z M206.741,113.831c-12.131,0-22-9.869-22-22
	s9.869-22,22-22s22,9.869,22,22S218.872,113.831,206.741,113.831z M206.741,79.831c-6.617,0-12,5.383-12,12s5.383,12,12,12
	s12-5.383,12-12S213.358,79.831,206.741,79.831z"/>
<g>
</g>
<g>
</g>
<g>
</g>
<g>
</g>
<g>
</g>
<g>
</g>
<g>
</g>
<g>
</g>
<g>
</g>
<g>
</g>
<g>
</g>
<g>
</g>
<g>
</g>
<g>
</g>
<g>
</g>
</svg>
