<?xml version="1.0" encoding="iso-8859-1"?>
<!-- Generator: Adobe Illustrator 17.1.0, SVG Export Plug-In . SVG Version: 6.00 Build 0)  -->
<!DOCTYPE svg PUBLIC "-//W3C//DTD SVG 1.1//EN" "http://www.w3.org/Graphics/SVG/1.1/DTD/svg11.dtd">
<svg version="1.1" id="Capa_1" xmlns="http://www.w3.org/2000/svg" xmlns:xlink="http://www.w3.org/1999/xlink" x="0px" y="0px"
	 viewBox="0 0 406.705 406.705" style="enable-background:new 0 0 406.705 406.705;" xml:space="preserve">
<path d="M27.695,383.633c-6.767,0-13.129-2.635-17.913-7.419l-2.374-2.374c-9.877-9.877-9.877-25.95,0-35.827L317.581,27.841
	c3.075-3.076,7.165-4.77,11.515-4.77c1.782,0,3.543,0.291,5.233,0.864l68.983,23.414c2.038,0.692,3.405,2.611,3.393,4.764
	s-1.402,4.056-3.449,4.724c-1.365,0.445-2.564,1.179-3.565,2.179c-1.733,1.733-2.677,4.113-2.619,6.575
	c0.03,0.223,0.046,0.449,0.046,0.68c0,2.761-2.238,5-5,5c0,0.001-0.013,0-0.02,0c-0.105,0-0.211-0.003-0.316-0.01
	c-2.605-0.171-5.112,0.776-6.939,2.604c-1.733,1.734-2.677,4.113-2.619,6.576c0.03,0.223,0.046,0.449,0.046,0.68
	c0,2.761-2.238,5-5,5c-0.005-0.001-0.012,0-0.02,0c-0.105,0-0.211-0.003-0.317-0.01c-2.6-0.164-5.111,0.777-6.939,2.604
	c-1.733,1.734-2.677,4.113-2.619,6.576c0.03,0.223,0.046,0.449,0.046,0.68c0,2.761-2.238,5-5,5c-0.005,0-0.012,0-0.02,0
	c-0.105,0-0.211-0.003-0.317-0.01c-2.608-0.161-5.11,0.776-6.938,2.604c-1.734,1.734-2.678,4.113-2.62,6.577
	c0.03,0.222,0.046,0.449,0.046,0.679c0,2.761-2.239,5-5,5c-0.001,0-0.002,0-0.002,0c-0.109-0.006-0.224-0.003-0.335-0.01
	c-2.62-0.173-5.112,0.776-6.939,2.604c-1.733,1.733-2.677,4.112-2.618,6.575c0.03,0.223,0.046,0.45,0.046,0.68c0,2.761-2.239,5-5,5
	c-0.008,0-0.013,0-0.021,0c-0.105,0-0.211-0.003-0.316-0.01c-2.607-0.166-5.112,0.776-6.94,2.604
	c-1.733,1.734-2.677,4.113-2.618,6.576c0.03,0.223,0.045,0.449,0.045,0.68c0,2.761-2.238,5-5,5c-0.005,0-0.012-0.001-0.02,0
	c-0.105,0-0.211-0.003-0.317-0.01c-2.578-0.161-5.111,0.775-6.938,2.603c-1.734,1.734-2.678,4.114-2.62,6.577
	c0.03,0.222,0.045,0.449,0.045,0.679c0,2.761-2.238,5-5,5c-0.006,0-0.013,0-0.02,0c-0.105,0-0.211-0.003-0.317-0.01
	c-2.576-0.163-5.11,0.776-6.938,2.604c-1.733,1.733-2.677,4.112-2.618,6.575c0.029,0.222,0.045,0.449,0.045,0.68
	c0,2.761-2.238,5-5,5c0,0-0.013,0-0.02,0c-0.105,0-0.211-0.003-0.316-0.01c-2.605-0.171-5.113,0.776-6.94,2.604
	c-1.733,1.734-2.677,4.113-2.618,6.575c0.029,0.223,0.045,0.449,0.045,0.68c0,2.761-2.238,5-5,5c-0.001-0.001-0.013,0-0.02,0
	c-0.105,0-0.211-0.003-0.316-0.01c-2.6-0.17-5.111,0.776-6.939,2.604c-1.733,1.733-2.677,4.113-2.618,6.576
	c0.029,0.223,0.045,0.449,0.045,0.68c0,2.761-2.238,5-5,5c-0.006,0-0.012,0-0.02,0c-0.105,0-0.211-0.003-0.317-0.01
	c-2.606-0.163-5.111,0.777-6.939,2.604c-1.733,1.734-2.677,4.113-2.619,6.576c0.03,0.223,0.046,0.449,0.046,0.68
	c0,2.761-2.238,5-5,5c-0.005,0-0.012,0-0.02,0c-0.105,0-0.211-0.003-0.317-0.01c-2.601-0.162-5.11,0.776-6.938,2.603
	c-1.734,1.734-2.678,4.114-2.62,6.577c0.03,0.222,0.046,0.449,0.046,0.679c0,2.761-2.239,5-5,5c-0.001,0-0.002,0-0.002,0
	c-0.121-0.003-0.224-0.003-0.335-0.01c-2.623-0.17-5.113,0.777-6.939,2.604c-1.733,1.733-2.677,4.113-2.619,6.575
	c0.03,0.223,0.046,0.449,0.046,0.68c0,2.761-2.238,5-5,5c-0.004,0-0.013,0-0.02,0c-0.105,0-0.211-0.003-0.316-0.01
	c-2.607-0.167-5.112,0.776-6.94,2.604c-1.733,1.734-2.677,4.113-2.618,6.576c0.03,0.223,0.046,0.449,0.046,0.68c0,2.761-2.239,5-5,5
	c-0.008,0-0.013,0-0.021,0c-0.105,0-0.211-0.003-0.317-0.01c-2.577-0.162-5.11,0.776-6.938,2.604
	c-1.733,1.733-2.677,4.113-2.619,6.577c0.03,0.222,0.045,0.449,0.045,0.679c0,2.761-2.238,5-5,5c-0.007,0-0.013,0-0.02,0
	c-0.105,0-0.211-0.003-0.317-0.01c-2.575-0.164-5.11,0.776-6.938,2.604c-1.733,1.733-2.677,4.112-2.618,6.575
	c0.029,0.222,0.045,0.449,0.045,0.68c0,2.761-2.238,5-5,5c-0.003,0-0.012,0-0.02,0c-0.105,0-0.211-0.003-0.316-0.01
	c-2.607-0.16-5.112,0.777-6.94,2.604c-1.733,1.734-2.677,4.113-2.618,6.575c0.029,0.223,0.045,0.449,0.045,0.68c0,2.761-2.238,5-5,5
	c-0.004,0-0.012,0-0.02,0c-0.105,0-0.211-0.003-0.316-0.01c-2.607-0.163-5.111,0.777-6.939,2.604
	c-0.238,0.239-0.487,0.529-0.781,0.915c-0.883,1.154-2.223,1.867-3.673,1.955c-1.462,0.08-2.866-0.461-3.88-1.501l-14.77-15.15
	l-78.542,78.542C40.823,380.999,34.461,383.633,27.695,383.633z M93.066,266.498l-78.588,78.586
	c-5.978,5.979-5.978,15.706,0.001,21.685l2.373,2.374c2.896,2.896,6.747,4.491,10.843,4.491s7.946-1.595,10.843-4.491l78.586-78.587
	L93.066,266.498z M127.821,287.113l14.814,15.196c2.166-1.538,4.617-2.593,7.222-3.11c0.731-3.631,2.513-7.003,5.174-9.665
	c2.682-2.681,6.029-4.46,9.675-5.184c0.732-3.632,2.514-7.004,5.176-9.666c2.681-2.681,6.028-4.46,9.674-5.184
	c0.732-3.632,2.515-7.004,5.176-9.666c2.681-2.681,6.028-4.459,9.674-5.184c0.731-3.631,2.513-7.003,5.174-9.665
	c2.682-2.681,6.029-4.46,9.675-5.184c0.732-3.632,2.514-7.004,5.176-9.666c2.681-2.681,6.028-4.459,9.674-5.184
	c0.732-3.631,2.515-7.004,5.176-9.665c2.68-2.681,6.027-4.46,9.674-5.184c0.731-3.631,2.513-7.003,5.174-9.665
	c2.682-2.681,6.029-4.46,9.675-5.184c0.732-3.632,2.514-7.004,5.176-9.666c2.681-2.681,6.028-4.459,9.674-5.184
	c0.731-3.631,2.513-7.003,5.174-9.665c2.682-2.681,6.029-4.46,9.675-5.184c0.732-3.632,2.514-7.004,5.176-9.666
	c2.681-2.681,6.028-4.46,9.674-5.184c0.732-3.632,2.515-7.004,5.176-9.666c2.68-2.681,6.027-4.459,9.674-5.184
	c0.731-3.631,2.513-7.003,5.174-9.665c2.682-2.681,6.029-4.46,9.675-5.184c0.732-3.632,2.514-7.004,5.176-9.666
	c2.681-2.681,6.028-4.459,9.674-5.184c0.732-3.631,2.515-7.004,5.176-9.665c2.68-2.681,6.027-4.46,9.674-5.184
	c0.731-3.631,2.513-7.004,5.175-9.666c2.681-2.681,6.028-4.459,9.675-5.184c0.731-3.631,2.513-7.004,5.175-9.666
	c2.681-2.681,6.028-4.459,9.674-5.184c0.575-2.855,1.8-5.551,3.592-7.867l-59.923-20.338c-2.244-0.763-4.789-0.167-6.463,1.507
	L100.137,259.427l27.593,27.593C127.761,287.051,127.792,287.082,127.821,287.113z"/>
<g>
</g>
<g>
</g>
<g>
</g>
<g>
</g>
<g>
</g>
<g>
</g>
<g>
</g>
<g>
</g>
<g>
</g>
<g>
</g>
<g>
</g>
<g>
</g>
<g>
</g>
<g>
</g>
<g>
</g>
</svg>
