<?xml version="1.0" encoding="iso-8859-1"?>
<!-- Generator: Adobe Illustrator 17.1.0, SVG Export Plug-In . SVG Version: 6.00 Build 0)  -->
<!DOCTYPE svg PUBLIC "-//W3C//DTD SVG 1.1//EN" "http://www.w3.org/Graphics/SVG/1.1/DTD/svg11.dtd">
<svg version="1.1" id="Capa_1" xmlns="http://www.w3.org/2000/svg" xmlns:xlink="http://www.w3.org/1999/xlink" x="0px" y="0px"
	 viewBox="0 0 409.909 409.909" style="enable-background:new 0 0 409.909 409.909;" xml:space="preserve">
<path d="M27.707,363.568c-6.487,0-12.974-2.469-17.913-7.408l-2.374-2.374C2.635,349.003,0,342.641,0,335.874
	c0-6.767,2.635-13.128,7.42-17.914l92.706-92.706c0.019-0.019,0.038-0.037,0.057-0.056c0.168-0.242,0.359-0.472,0.575-0.687
	L267.921,57.348c14.054-14.053,36.23-14.742,49.438-1.535l91.086,91.086c0.938,0.938,1.464,2.209,1.464,3.536
	s-0.527,2.598-1.464,3.536L219.33,343.084c-1.953,1.952-5.118,1.952-7.071,0l-76.781-76.781L45.62,356.161
	C40.681,361.099,34.194,363.568,27.707,363.568z M103.662,235.861l-89.17,89.17C11.595,327.927,10,331.778,10,335.874
	s1.595,7.946,4.491,10.842l2.374,2.374c5.979,5.979,15.706,5.979,21.684,0l89.171-89.171L103.662,235.861z M201.292,317.976
	l14.502,14.501l182.043-182.043l-14.501-14.502L201.312,317.957C201.306,317.963,201.299,317.969,201.292,317.976z M134.291,250.974
	l59.931,59.931c0.006-0.007,0.013-0.013,0.019-0.02l182.024-182.024l-65.978-65.977c-9.307-9.308-25.142-8.619-35.295,1.535
	L111.364,228.047l22.915,22.914C134.283,250.965,134.287,250.969,134.291,250.974z M292.746,105.481
	c-4.513,0-9.026-1.718-12.462-5.154c-6.872-6.872-6.872-18.053,0-24.925c6.872-6.871,18.053-6.871,24.925,0
	c6.872,6.872,6.872,18.053,0,24.925C301.772,103.762,297.259,105.481,292.746,105.481z M292.746,80.24
	c-2.037,0-3.951,0.793-5.391,2.233c-2.973,2.973-2.973,7.81,0,10.782s7.81,2.973,10.782,0c1.44-1.44,2.233-3.354,2.233-5.391
	s-0.793-3.951-2.233-5.391C296.697,81.033,294.783,80.24,292.746,80.24z"/>
<g>
</g>
<g>
</g>
<g>
</g>
<g>
</g>
<g>
</g>
<g>
</g>
<g>
</g>
<g>
</g>
<g>
</g>
<g>
</g>
<g>
</g>
<g>
</g>
<g>
</g>
<g>
</g>
<g>
</g>
</svg>
