<?xml version="1.0" encoding="iso-8859-1"?>
<!-- Generator: Adobe Illustrator 17.1.0, SVG Export Plug-In . SVG Version: 6.00 Build 0)  -->
<!DOCTYPE svg PUBLIC "-//W3C//DTD SVG 1.1//EN" "http://www.w3.org/Graphics/SVG/1.1/DTD/svg11.dtd">
<svg version="1.1" id="Capa_1" xmlns="http://www.w3.org/2000/svg" xmlns:xlink="http://www.w3.org/1999/xlink" x="0px" y="0px"
	 viewBox="0 0 296.821 296.821" style="enable-background:new 0 0 296.821 296.821;" xml:space="preserve">
<path d="M27.707,290.227c-6.767,0-13.129-2.635-17.914-7.42l0,0l0,0l-2.374-2.374C2.635,275.649,0,269.287,0,262.52
	c0-6.767,2.635-13.129,7.42-17.914L163.432,88.594C191.57,60.457,229.82,34.521,255.245,21.3
	c26.165-13.605,34.587-14.633,36.01-14.7c2.573-0.118,4.794,1.709,5.181,4.24c0.275,1.806,6.21,44.755-40.298,91.264l-96.167,96.167
	c-1.39,1.388-3.464,1.835-5.301,1.142l-18.625-7.03L45.62,282.807C40.835,287.591,34.474,290.227,27.707,290.227z M103.662,162.507
	l-89.17,89.171C11.595,254.574,10,258.424,10,262.52c0,4.095,1.595,7.946,4.491,10.842l2.374,2.374l0,0
	c2.896,2.896,6.747,4.491,10.842,4.491c4.095,0,7.946-1.595,10.842-4.491l89.171-89.17L103.662,162.507z M146.972,185.818
	l8.21,3.099l93.884-93.885c33.438-33.438,37.57-64.67,37.729-77.064c-1.999,0.679-4.666,1.685-8.141,3.174
	c0.148,0.398,0.247,0.822,0.29,1.265c0.113,1.171,2.298,29.14-38.536,69.974L146.972,185.818z M110.733,155.436l26.239,26.24
	l96.365-96.365c30.568-30.568,34.975-52.802,35.573-59.695c-2.718,1.318-5.728,2.828-9.052,4.557
	c-24.745,12.868-61.97,38.109-89.355,65.494L110.733,155.436z"/>
<g>
</g>
<g>
</g>
<g>
</g>
<g>
</g>
<g>
</g>
<g>
</g>
<g>
</g>
<g>
</g>
<g>
</g>
<g>
</g>
<g>
</g>
<g>
</g>
<g>
</g>
<g>
</g>
<g>
</g>
</svg>
