<?xml version="1.0" encoding="iso-8859-1"?>
<!-- Generator: Adobe Illustrator 17.1.0, SVG Export Plug-In . SVG Version: 6.00 Build 0)  -->
<!DOCTYPE svg PUBLIC "-//W3C//DTD SVG 1.1//EN" "http://www.w3.org/Graphics/SVG/1.1/DTD/svg11.dtd">
<svg version="1.1" id="Capa_1" xmlns="http://www.w3.org/2000/svg" xmlns:xlink="http://www.w3.org/1999/xlink" x="0px" y="0px"
	 viewBox="0 0 385.251 385.251" style="enable-background:new 0 0 385.251 385.251;" xml:space="preserve">
<path d="M27.695,365.441c-6.487,0-12.975-2.47-17.914-7.408l-2.374-2.374c-9.877-9.877-9.877-25.949,0-35.827L281.844,45.397
	c38.979-38.98,97.182-22.032,99.643-21.291c1.894,0.571,3.273,2.205,3.519,4.167c0.258,2.055,5.64,50.988-51.177,107.804
	c-41.458,41.458-162.113,162.18-162.113,162.18c-1.942,1.942-5.087,1.955-7.043,0.029l-29.893-29.425l-89.171,89.171
	C40.67,362.971,34.182,365.441,27.695,365.441z M103.65,237.733l-89.171,89.171c-5.979,5.979-5.979,15.706,0,21.684l2.374,2.374
	c5.979,5.979,15.706,5.979,21.685,0l89.171-89.17L103.65,237.733z M160.587,280.237l7.563,7.442
	c20.128-20.14,121.35-121.414,158.608-158.673c45.125-45.125,48.533-84.715,48.473-96.168c-2.677-0.604-6.821-1.414-11.969-2.018
	c-1.498,12.786-8.837,55.64-41.871,88.673L161.083,279.803C160.925,279.96,160.76,280.105,160.587,280.237z M110.722,230.661
	l31.705,31.705l11.102,10.925c0.145-0.196,0.306-0.383,0.483-0.56l160.309-160.309c30.239-30.239,37.422-70.351,38.941-82.369
	c-18.92-0.678-44.773,2.841-64.348,22.415L115.477,225.906l-3.536-3.536l3.536,3.536L110.722,230.661z"/>
<g>
</g>
<g>
</g>
<g>
</g>
<g>
</g>
<g>
</g>
<g>
</g>
<g>
</g>
<g>
</g>
<g>
</g>
<g>
</g>
<g>
</g>
<g>
</g>
<g>
</g>
<g>
</g>
<g>
</g>
</svg>
