<?xml version="1.0" encoding="iso-8859-1"?>
<!-- Generator: Adobe Illustrator 17.1.0, SVG Export Plug-In . SVG Version: 6.00 Build 0)  -->
<!DOCTYPE svg PUBLIC "-//W3C//DTD SVG 1.1//EN" "http://www.w3.org/Graphics/SVG/1.1/DTD/svg11.dtd">
<svg version="1.1" id="Capa_1" xmlns="http://www.w3.org/2000/svg" xmlns:xlink="http://www.w3.org/1999/xlink" x="0px" y="0px"
	 viewBox="0 0 396 396" style="enable-background:new 0 0 396 396;" xml:space="preserve">
<path d="M198,396c-10.797,0-23.135-1.308-32.781-11.006c-12.175-12.241-17.752-35.126-17.553-72.021
	c0.027-5.048,1.077-16.298,2.187-28.209c1.076-11.536,2.188-23.464,2.142-27.709c-0.011-2.539,0.191-5.826,0.448-9.988
	c0.796-12.951,2.279-37.058-0.432-77.733c-2.4-36-23.539-71.7-36.169-93.031l-0.409-0.691C99.029,56.171,90,31.469,90,6
	c0-0.233,0.004-0.465,0.008-0.697l0.005-0.354C90.041,2.208,92.271,0,95.013,0h22.012c2.738,0,4.966,2.202,5,4.939
	c0.013,1.025,0.045,2.045,0.099,3.061h151.752c0.054-1.016,0.086-2.035,0.099-3.061c0.033-2.737,2.262-4.939,5-4.939h22.013
	c2.744,0,4.976,2.212,5,4.956l0.005,0.37C305.997,5.551,306,5.774,306,6c0,25.468-9.028,50.17-25.433,69.61l-0.408,0.689
	c-12.63,21.33-33.771,57.032-36.17,93.033c-2.712,40.68-1.229,64.786-0.432,77.736c0.25,4.067,0.449,7.299,0.449,9.782
	c0.257,4.141,1.023,12.115,1.833,20.553c1.325,13.802,2.828,29.445,2.828,35.596c0,33.797-4.988,56.39-15.248,69.069
	C223.485,394.345,209.94,396,198,396z M100.082,10c0.893,21.814,9.068,42.794,23.247,59.46c0.185,0.217,0.35,0.449,0.495,0.693
	l0.624,1.054c13.084,22.098,34.983,59.082,37.542,97.46c2.754,41.316,1.246,65.839,0.436,79.014
	c-0.245,3.979-0.438,7.121-0.429,9.299c0.052,4.73-1.035,16.38-2.185,28.713c-1.042,11.172-2.119,22.725-2.144,27.335
	c-0.182,33.592,4.608,54.825,14.643,64.915C178.961,384.63,187.39,386,198,386c17.162,0,40.667,0,40.667-73
	c0-5.672-1.542-21.733-2.782-34.64c-0.865-9.008-1.612-16.787-1.871-21.059c-0.007-0.106-0.01-0.214-0.009-0.322
	c0.009-2.177-0.185-5.318-0.429-9.296c-0.811-13.174-2.319-37.696,0.436-79.017c2.558-38.379,24.458-75.364,37.543-97.463
	l0.622-1.051c0.145-0.244,0.31-0.477,0.495-0.693C286.85,52.794,295.025,31.814,295.918,10h-12.143
	c-1.433,20.887-10.318,40.316-25.324,55.157C242.253,81.178,220.785,90,198,90s-44.253-8.822-60.452-24.843
	C122.542,50.316,113.658,30.887,112.225,10H100.082z M123.321,18c6.627,35.185,37.743,62,74.679,62s68.052-26.815,74.679-62H123.321
	z M198,369c-12.682,0-23-10.317-23-23s10.318-23,23-23s23,10.317,23,23S210.682,369,198,369z M198,333c-7.168,0-13,5.832-13,13
	s5.832,13,13,13s13-5.832,13-13S205.168,333,198,333z"/>
<g>
</g>
<g>
</g>
<g>
</g>
<g>
</g>
<g>
</g>
<g>
</g>
<g>
</g>
<g>
</g>
<g>
</g>
<g>
</g>
<g>
</g>
<g>
</g>
<g>
</g>
<g>
</g>
<g>
</g>
</svg>
