<?xml version="1.0" encoding="iso-8859-1"?>
<!-- Generator: Adobe Illustrator 17.1.0, SVG Export Plug-In . SVG Version: 6.00 Build 0)  -->
<!DOCTYPE svg PUBLIC "-//W3C//DTD SVG 1.1//EN" "http://www.w3.org/Graphics/SVG/1.1/DTD/svg11.dtd">
<svg version="1.1" id="Capa_1" xmlns="http://www.w3.org/2000/svg" xmlns:xlink="http://www.w3.org/1999/xlink" x="0px" y="0px"
	 viewBox="0 0 388.624 388.624" style="enable-background:new 0 0 388.624 388.624;" xml:space="preserve">
<path d="M30.373,379.696c-6.767,0-13.129-2.635-17.913-7.42l-5.052-5.051c-9.877-9.877-9.877-25.949,0-35.827l80.084-80.084
	l9.139-9.793c1.146-1.201,111.474-116.655,172.89-166.976C331.743,23.565,380.165,9.676,382.196,9.11
	c1.451-0.403,3.012-0.132,4.241,0.742s1.998,2.257,2.092,3.763c0.047,0.757,1.085,18.833-5.014,44.791
	c-5.611,23.881-18.62,59.23-48.732,92.008c-61.088,66.499-163.796,168.545-164.826,169.569c-1.682,1.67-4.305,1.931-6.284,0.62
	l-38.322-25.39l-77.064,77.064C43.501,377.061,37.139,379.696,30.373,379.696z M91.11,261.838l-76.632,76.631
	c-5.978,5.979-5.978,15.706,0.001,21.685l5.051,5.051c2.896,2.896,6.747,4.491,10.843,4.491s7.946-1.595,10.842-4.491l76.793-76.792
	L91.11,261.838z M130.289,286.489l35.509,23.526c17.137-17.073,106.442-106.299,161.622-166.366
	c44.772-48.738,50.53-103.999,51.125-122.778c-14.997,5.453-54.998,22.337-102.687,61.41
	c-60.943,49.933-170.852,164.947-171.955,166.103l-5.538,5.935l30.404,30.404c0.321,0.321,0.595,0.682,0.815,1.071L130.289,286.489z
	 M162.829,290.088C162.828,290.088,162.828,290.088,162.829,290.088c-4.059,0-8.301-1.916-11.64-5.255
	c-2.64-2.64-4.426-5.908-5.029-9.202c-0.716-3.913,0.302-7.586,2.794-10.077c1.946-1.947,4.659-3.02,7.639-3.02
	c4.058,0,8.3,1.916,11.64,5.256c6.031,6.031,7.014,14.499,2.236,19.278C168.52,289.015,165.807,290.088,162.829,290.088z
	 M156.592,272.534c-0.355,0-0.537,0.07-0.573,0.095c-0.267,0.392-0.111,2.78,2.24,5.132c1.717,1.717,3.534,2.326,4.568,2.326
	c0.001,0,0.001,0,0.001,0c0.355,0,0.538-0.07,0.573-0.095c0.266-0.391,0.111-2.779-2.241-5.131
	C159.444,273.144,157.626,272.534,156.592,272.534z M189.559,263.357C189.558,263.357,189.558,263.357,189.559,263.357
	c-4.059,0-8.301-1.916-11.64-5.255c-6.032-6.033-7.014-14.501-2.235-19.279c1.946-1.947,4.659-3.019,7.639-3.019
	c4.058,0,8.3,1.916,11.639,5.255c2.641,2.64,4.427,5.908,5.03,9.202c0.716,3.913-0.302,7.586-2.794,10.078
	C195.25,262.285,192.538,263.357,189.559,263.357z M183.323,245.804c-0.355,0-0.538,0.07-0.573,0.095
	c-0.267,0.392-0.112,2.779,2.241,5.133c1.716,1.716,3.533,2.326,4.567,2.326c0.001,0,0.001,0,0.001,0
	c0.355,0,0.538-0.07,0.573-0.095c0.267-0.391,0.112-2.778-2.241-5.132C186.174,246.413,184.357,245.804,183.323,245.804z
	 M217.604,235.311c-4.058,0-8.3-1.916-11.639-5.255c-6.032-6.033-7.014-14.501-2.235-19.279c1.947-1.947,4.66-3.019,7.639-3.019
	c4.058,0,8.3,1.916,11.639,5.255c2.64,2.639,4.427,5.907,5.03,9.202c0.716,3.913-0.302,7.586-2.794,10.077
	C223.297,234.239,220.583,235.311,217.604,235.311z M211.369,217.758c-0.355,0-0.538,0.07-0.573,0.095
	c-0.267,0.391-0.112,2.778,2.241,5.132c1.716,1.716,3.533,2.326,4.567,2.326c0.356,0,0.539-0.071,0.574-0.095
	c0.267-0.392,0.111-2.78-2.241-5.131C214.22,218.367,212.403,217.758,211.369,217.758z M245.65,207.265
	c-4.057,0-8.299-1.916-11.639-5.255c-2.64-2.64-4.426-5.908-5.029-9.202c-0.716-3.913,0.302-7.586,2.794-10.078
	c1.946-1.946,4.66-3.019,7.64-3.019c4.057,0,8.299,1.916,11.639,5.255c2.64,2.64,4.426,5.908,5.029,9.202
	c0.716,3.913-0.302,7.586-2.794,10.077C251.342,206.193,248.629,207.265,245.65,207.265z M239.416,189.712
	c-0.356,0-0.539,0.071-0.574,0.095c-0.267,0.392-0.111,2.78,2.24,5.132c1.718,1.717,3.534,2.326,4.568,2.327
	c0.356,0,0.538-0.071,0.574-0.095c0.267-0.392,0.111-2.78-2.24-5.132C242.266,190.321,240.45,189.712,239.416,189.712z
	 M273.697,179.219C273.697,179.219,273.697,179.219,273.697,179.219c-4.058,0-8.3-1.916-11.64-5.254
	c-2.64-2.64-4.426-5.908-5.029-9.202c-0.716-3.913,0.302-7.586,2.794-10.077c1.946-1.947,4.66-3.02,7.64-3.02
	c4.058,0,8.3,1.916,11.64,5.256c6.031,6.032,7.014,14.5,2.234,19.278C279.388,178.147,276.675,179.219,273.697,179.219z
	 M267.461,161.666c-0.356,0-0.539,0.071-0.574,0.095c-0.267,0.392-0.111,2.78,2.24,5.132c1.718,1.717,3.535,2.326,4.569,2.326
	c0.355,0,0.538-0.07,0.573-0.095c0.267-0.391,0.112-2.778-2.24-5.131C270.312,162.275,268.496,161.666,267.461,161.666z
	 M301.743,151.173L301.743,151.173c-4.058,0-8.3-1.916-11.639-5.255c-2.641-2.64-4.427-5.908-5.03-9.202
	c-0.716-3.913,0.302-7.586,2.794-10.078c1.947-1.947,4.66-3.019,7.64-3.019c4.057,0,8.3,1.916,11.639,5.255
	c6.032,6.033,7.014,14.501,2.235,19.279C307.435,150.101,304.722,151.173,301.743,151.173z M295.507,133.62
	c-0.356,0-0.539,0.07-0.575,0.095c-0.266,0.391-0.111,2.778,2.242,5.132c1.717,1.717,3.534,2.326,4.568,2.326
	c0.355,0,0.538-0.07,0.573-0.095c0.267-0.391,0.112-2.779-2.241-5.133C298.359,134.229,296.542,133.62,295.507,133.62z
	 M328.035,119.399C328.034,119.399,328.034,119.399,328.035,119.399c-4.059,0-8.301-1.916-11.64-5.255
	c-6.031-6.032-7.014-14.5-2.237-19.278c1.948-1.948,4.661-3.02,7.641-3.02c4.057,0,8.3,1.916,11.639,5.255
	c6.031,6.032,7.014,14.5,2.237,19.278C333.726,118.326,331.013,119.399,328.035,119.399z M321.798,101.845
	c-0.356,0-0.539,0.07-0.575,0.095c-0.265,0.39-0.11,2.779,2.243,5.132c1.716,1.716,3.533,2.326,4.568,2.326
	c0.355,0,0.538-0.07,0.573-0.095c0.266-0.39,0.111-2.779-2.242-5.132C324.65,102.455,322.833,101.845,321.798,101.845z
	 M346.69,81.652c-4.058,0-8.3-1.916-11.64-5.256c-2.639-2.639-4.425-5.907-5.028-9.201c-0.716-3.913,0.302-7.586,2.794-10.077
	c1.946-1.947,4.659-3.02,7.639-3.02c4.058,0,8.3,1.916,11.64,5.256c6.031,6.031,7.014,14.5,2.236,19.278
	C352.383,80.579,349.669,81.652,346.69,81.652z M340.455,64.098c-0.355,0-0.537,0.07-0.573,0.095
	c-0.267,0.392-0.111,2.78,2.24,5.132c1.717,1.717,3.534,2.326,4.568,2.327c0.356,0,0.539-0.071,0.574-0.095
	c0.266-0.392,0.11-2.78-2.241-5.132C343.306,64.707,341.489,64.098,340.455,64.098z"/>
<g>
</g>
<g>
</g>
<g>
</g>
<g>
</g>
<g>
</g>
<g>
</g>
<g>
</g>
<g>
</g>
<g>
</g>
<g>
</g>
<g>
</g>
<g>
</g>
<g>
</g>
<g>
</g>
<g>
</g>
</svg>
