<?xml version="1.0" encoding="iso-8859-1"?>
<!-- Generator: Adobe Illustrator 17.1.0, SVG Export Plug-In . SVG Version: 6.00 Build 0)  -->
<!DOCTYPE svg PUBLIC "-//W3C//DTD SVG 1.1//EN" "http://www.w3.org/Graphics/SVG/1.1/DTD/svg11.dtd">
<svg version="1.1" id="Capa_1" xmlns="http://www.w3.org/2000/svg" xmlns:xlink="http://www.w3.org/1999/xlink" x="0px" y="0px"
	 viewBox="0 0 363 363" style="enable-background:new 0 0 363 363;" xml:space="preserve">
<path d="M225.361,363h-130c-2.536,0-4.671-1.899-4.966-4.418l-30-255.963c-0.166-1.418,0.281-2.839,1.23-3.905
	c0.948-1.067,2.308-1.677,3.735-1.677h136.297l9.005-51.987c1.912-11.035,9.711-20.051,20.355-23.531l65.066-21.271
	c2.626-0.856,5.449,0.574,6.307,3.199c0.857,2.625-0.574,5.448-3.199,6.306l-65.066,21.271c-7.116,2.327-12.331,8.355-13.609,15.733
	l-8.71,50.28h43.887c1.429,0,2.789,0.611,3.737,1.679c0.949,1.068,1.396,2.491,1.228,3.909l-30.332,255.963
	C230.028,361.105,227.895,363,225.361,363z M99.809,353h121.109l26.068-219.985h-41.246L194.888,214h4.454c9.374,0,17,7.626,17,17
	v16.981c0,9.374-7.626,17-17,17h-11.286l-9.739,72.683c-0.367,2.736-2.874,4.658-5.62,4.292c-2.737-0.367-4.658-2.883-4.292-5.62
	l9.637-71.91c-7.289-1.917-12.681-8.563-12.681-16.444V231c0-9.374,7.626-17,17-17h2.438l10.853-80.985H74.026L99.809,353z
	 M189.396,254.982h9.946c3.859,0,7-3.14,7-7V231c0-3.86-3.141-7-7-7h-5.794L189.396,254.982z M182.361,224c-3.859,0-7,3.14-7,7
	v16.981c0,2.8,1.653,5.222,4.034,6.34L183.458,224H182.361z M207.306,123.016h40.866l1.893-15.979h-39.991L207.306,123.016z
	 M72.854,123.016h124.304l2.768-15.979H70.981L72.854,123.016z M135.421,334.598c-6.89,0-13.387-4.219-15.94-11.042l-5.952-15.904
	c-3.285-8.78,1.185-18.595,9.963-21.88l15.904-5.952c4.24-1.587,8.855-1.422,12.997,0.463c4.142,1.886,7.296,5.259,8.883,9.5
	l5.952,15.904c1.587,4.24,1.423,8.856-0.463,12.997c-1.885,4.141-5.259,7.296-9.499,8.883l-15.904,5.952c-0.001,0-0.001,0-0.001,0
	C139.405,334.251,137.397,334.598,135.421,334.598z M145.33,288.743c-0.821,0-1.642,0.147-2.429,0.441l-15.904,5.952
	c-3.615,1.353-5.456,5.395-4.104,9.01l5.952,15.904c1.354,3.614,5.396,5.457,9.011,4.102l15.903-5.952
	c1.739-0.651,3.126-1.951,3.904-3.661c0.778-1.71,0.849-3.61,0.198-5.349l-5.952-15.904c-0.651-1.739-1.951-3.125-3.661-3.904
	C147.314,288.957,146.322,288.743,145.33,288.743z M127.25,208.59c-4.354,0-8.707-1.657-12.021-4.971l-15.446-15.446
	c-6.629-6.628-6.629-17.414,0-24.042l15.446-15.446c6.627-6.627,17.412-6.628,24.041,0l15.446,15.446
	c6.629,6.628,6.629,17.414,0,24.042l-15.446,15.446C135.957,206.933,131.604,208.59,127.25,208.59z M127.25,153.72
	c-1.879,0-3.637,0.723-4.95,2.036l-15.446,15.446c-2.729,2.729-2.729,7.17,0,9.899l15.446,15.446c2.73,2.729,7.17,2.729,9.9,0
	l15.446-15.446c2.729-2.729,2.729-7.17,0-9.899l-15.446-15.446C130.887,154.443,129.129,153.72,127.25,153.72z"/>
<g>
</g>
<g>
</g>
<g>
</g>
<g>
</g>
<g>
</g>
<g>
</g>
<g>
</g>
<g>
</g>
<g>
</g>
<g>
</g>
<g>
</g>
<g>
</g>
<g>
</g>
<g>
</g>
<g>
</g>
</svg>
