<?xml version="1.0" encoding="iso-8859-1"?>
<!-- Generator: Adobe Illustrator 17.1.0, SVG Export Plug-In . SVG Version: 6.00 Build 0)  -->
<!DOCTYPE svg PUBLIC "-//W3C//DTD SVG 1.1//EN" "http://www.w3.org/Graphics/SVG/1.1/DTD/svg11.dtd">
<svg version="1.1" id="Capa_1" xmlns="http://www.w3.org/2000/svg" xmlns:xlink="http://www.w3.org/1999/xlink" x="0px" y="0px"
	 viewBox="0 0 278.547 278.547" style="enable-background:new 0 0 278.547 278.547;" xml:space="preserve">
<path d="M111.852,278.547c-20.832,0.001-40.585-4.834-57.471-14.257c-5.263,4.897-12.077,7.582-19.304,7.582
	c-7.576,0-14.698-2.95-20.055-8.308c-5.357-5.356-8.307-12.479-8.307-20.054c0-7.228,2.685-14.042,7.583-19.304
	C0.657,199.763-3.369,169.303,2.968,138.281c6.465-31.651,23.551-62.607,48.11-87.167c49.315-49.316,119.522-64.963,170.728-38.063
	c1.375,0.723,3.004,0.565,4.058-0.387c0.702-0.635,1.449-1.247,2.222-1.819c10.38-7.678,24.624-7.337,34.642,0.826
	c6.248,5.092,10.064,12.599,10.472,20.596c0.405,7.989-2.599,15.814-8.244,21.475c-0.022,0.022-0.043,0.044-0.061,0.061
	c-0.385,0.384-0.479,0.903-0.244,1.331c13.479,24.588,17.283,55.223,10.715,86.263c-6.713,31.718-23.273,61.495-47.892,86.112
	c-24.56,24.56-55.516,41.646-87.167,48.111C130.716,277.579,121.174,278.547,111.852,278.547z M54.18,253.935
	c1.426,0,2.855,0.359,4.145,1.099c46.957,26.909,115.121,12.36,162.078-34.596c46.952-46.953,61.541-112.952,35.478-160.499
	c-2.383-4.349-1.611-9.64,1.918-13.183c0.02-0.02,0.039-0.039,0.059-0.06c3.666-3.665,5.617-8.74,5.354-13.923
	c-0.268-5.252-2.683-9.993-6.802-13.351h-0.001c-6.367-5.19-15.778-5.417-22.375-0.539c-0.509,0.377-1.002,0.78-1.463,1.197
	c-4.149,3.753-10.344,4.488-15.415,1.822C169.782-2.984,104.399,11.936,58.15,58.184c-46.956,46.957-61.506,115.12-34.596,162.077
	c1.892,3.301,1.296,7.516-1.447,10.251c-3.483,3.483-5.393,8.094-5.393,12.999c0,4.904,1.91,9.515,5.378,12.983
	c3.468,3.468,8.079,5.378,12.984,5.378s9.516-1.91,12.984-5.378c0.003-0.004,0.006-0.007,0.01-0.01
	c0.001-0.002,0.003-0.003,0.004-0.005C49.741,254.809,51.957,253.935,54.18,253.935z M37.312,192.146c-2.761,0-5-2.238-5-5v-7
	c0-2.762,2.239-5,5-5s5,2.238,5,5v7C42.312,189.908,40.073,192.146,37.312,192.146z M23.858,164.244
	c-0.187,0-0.375-0.01-0.564-0.031c-2.744-0.308-4.719-2.782-4.411-5.526l0.92-8.195c0.308-2.744,2.786-4.722,5.526-4.411
	c2.744,0.308,4.719,2.782,4.411,5.526l-0.92,8.195C28.534,162.356,26.369,164.244,23.858,164.244z M44.317,151.147
	c-0.325,0-0.655-0.032-0.986-0.098c-2.708-0.542-4.464-3.176-3.922-5.884l2-10c0.541-2.709,3.176-4.461,5.883-3.923
	c2.708,0.542,4.464,3.176,3.922,5.884l-2,10C48.739,149.503,46.651,151.147,44.317,151.147z M69.312,136.147
	c-0.524,0-1.057-0.083-1.582-0.258c-2.62-0.873-4.036-3.704-3.162-6.324l2-6c0.873-2.619,3.706-4.034,6.324-3.162
	c2.62,0.873,4.036,3.705,3.162,6.324l-2,6C73.356,134.822,71.406,136.147,69.312,136.147z M35.308,119.804
	c-0.751,0-1.514-0.17-2.232-0.529c-2.47-1.234-3.471-4.238-2.236-6.708l2.829-5.657c1.235-2.471,4.238-3.472,6.708-2.235
	c2.47,1.234,3.471,4.238,2.236,6.708l-2.829,5.657C38.908,118.791,37.142,119.804,35.308,119.804z M60.199,113.489
	c-0.985,0-1.98-0.29-2.851-0.896c-2.267-1.577-2.826-4.692-1.249-6.96l5.108-7.343c1.578-2.267,4.692-2.826,6.96-1.249
	c2.267,1.577,2.826,4.693,1.249,6.96l-5.108,7.343C63.336,112.741,61.781,113.489,60.199,113.489z M57.717,85.497
	c-1.026,0-2.062-0.314-2.953-0.968c-2.227-1.634-2.708-4.763-1.075-6.989l4.182-5.701c1.634-2.228,4.762-2.707,6.989-1.075
	c2.227,1.634,2.708,4.763,1.075,6.989l-4.182,5.701C60.773,84.789,59.255,85.497,57.717,85.497z M86.312,79.146
	c-1.28,0-2.559-0.488-3.536-1.465c-1.953-1.952-1.953-5.118,0-7.07l4-4c1.953-1.953,5.118-1.953,7.071,0
	c1.953,1.952,1.953,5.118,0,7.07l-4,4C88.871,78.658,87.591,79.146,86.312,79.146z M97.315,51.484c-1.542,0-3.062-0.71-4.041-2.05
	c-1.629-2.229-1.143-5.357,1.086-6.987l4.567-3.338c2.231-1.629,5.358-1.142,6.987,1.087c1.629,2.229,1.143,5.357-1.086,6.987
	l-4.567,3.338C99.372,51.171,98.339,51.484,97.315,51.484z"/>
<g>
</g>
<g>
</g>
<g>
</g>
<g>
</g>
<g>
</g>
<g>
</g>
<g>
</g>
<g>
</g>
<g>
</g>
<g>
</g>
<g>
</g>
<g>
</g>
<g>
</g>
<g>
</g>
<g>
</g>
</svg>
