<?xml version="1.0" encoding="iso-8859-1"?>
<!-- Generator: Adobe Illustrator 17.1.0, SVG Export Plug-In . SVG Version: 6.00 Build 0)  -->
<!DOCTYPE svg PUBLIC "-//W3C//DTD SVG 1.1//EN" "http://www.w3.org/Graphics/SVG/1.1/DTD/svg11.dtd">
<svg version="1.1" id="Capa_1" xmlns="http://www.w3.org/2000/svg" xmlns:xlink="http://www.w3.org/1999/xlink" x="0px" y="0px"
	 viewBox="0 0 400.363 400.363" style="enable-background:new 0 0 400.363 400.363;" xml:space="preserve">
<path d="M236.035,400.363H123.96c-2.623,0-4.8-2.026-4.987-4.643l-11.945-166.657L88.13,203.639
	c-0.59-0.794-0.932-1.745-0.981-2.732L81.687,91.681c-0.068-1.368,0.427-2.704,1.371-3.696s2.253-1.554,3.623-1.554h136.62
	l7.524-43.436c1.831-10.571,9.305-19.21,19.503-22.544l61.799-20.204c2.624-0.854,5.449,0.575,6.307,3.199
	c0.857,2.625-0.574,5.448-3.199,6.307l-61.799,20.203c-6.671,2.181-11.56,7.831-12.757,14.746l-7.229,41.729h40.34
	c1.373,0,2.686,0.564,3.63,1.562s1.438,2.339,1.362,3.71l-5.936,109.226c-0.053,0.98-0.394,1.924-0.979,2.711l-18.898,25.425
	l-11.945,166.657C240.835,398.337,238.658,400.363,236.035,400.363z M128.614,390.363h102.767l11.717-163.47
	c0.068-0.95,0.406-1.861,0.975-2.625l18.87-25.387l1.696-31.217h-43.104l-4.462,35.59h2.646c9.374,0,17,7.626,17,17v14.924
	c0,9.374-7.626,17-17,17h-8.78l-15.769,125.761c-0.343,2.739-2.844,4.682-5.583,4.339c-2.74-0.344-4.683-2.843-4.339-5.583
	l15.668-124.963c-7.511-1.76-13.121-8.514-13.121-16.554v-14.924c0-9.374,7.626-17,17-17h2.2l4.462-35.59h-28.798
	c-0.027,4.317-1.684,8.626-4.971,11.913l-13.818,13.818c-6.629,6.629-17.413,6.629-24.042,0l-13.818-13.818
	c-3.287-3.287-4.944-7.596-4.971-11.913h-25.54l1.562,31.226l18.863,25.378c0.568,0.764,0.906,1.675,0.975,2.625L128.614,390.363z
	 M212.192,242.179h7.526c3.859,0,7-3.141,7-7v-14.924c0-3.859-3.141-7-7-7h-3.899L212.192,242.179z M204.794,213.255
	c-3.86,0-7,3.141-7,7v14.924c0,2.935,1.816,5.454,4.383,6.492l3.563-28.416H204.794z M131.034,167.665
	c0.027,1.757,0.709,3.505,2.046,4.843l13.818,13.818c1.313,1.313,3.07,2.035,4.95,2.035c1.879,0,3.637-0.723,4.95-2.035
	l13.818-13.818c1.288-1.288,2.008-3.004,2.035-4.843H131.034z M222.788,157.665h42.395l3.327-61.234h-36.793l-4.529,26.146
	L222.788,157.665z M179.494,157.665h33.216l4.57-36.449c0.01-0.077,0.021-0.154,0.034-0.231l4.254-24.554H91.937l3.062,61.234
	h29.204c0.534-0.746,1.136-1.458,1.806-2.128l13.818-13.818c6.629-6.629,17.413-6.629,24.042,0l13.818,13.818
	C178.358,156.207,178.96,156.919,179.494,157.665z M138.023,157.665h27.65l-8.875-8.876c-2.729-2.729-7.17-2.729-9.899,0
	L138.023,157.665z M159.964,318.128c-2.402,0-4.801-0.516-7.059-1.544c-4.141-1.886-7.296-5.26-8.882-9.499l-5.231-13.978
	c-3.286-8.779,1.183-18.596,9.962-21.881l13.978-5.23c8.778-3.287,18.594,1.184,21.88,9.962l5.231,13.978
	c1.587,4.241,1.423,8.857-0.463,12.998c-1.886,4.142-5.26,7.296-9.5,8.882l-13.976,5.231c0,0,0,0,0,0
	C163.974,317.769,161.968,318.128,159.964,318.128z M168.683,274.917c-0.813,0-1.64,0.143-2.446,0.444l-13.978,5.23
	c-3.615,1.354-5.455,5.395-4.102,9.01l5.231,13.978c0.651,1.739,1.951,3.125,3.661,3.904c1.709,0.777,3.608,0.85,5.349,0.198
	l13.977-5.231c1.739-0.65,3.125-1.951,3.904-3.661s0.849-3.609,0.199-5.348l-5.231-13.978
	C174.195,276.654,171.52,274.917,168.683,274.917z"/>
<g>
</g>
<g>
</g>
<g>
</g>
<g>
</g>
<g>
</g>
<g>
</g>
<g>
</g>
<g>
</g>
<g>
</g>
<g>
</g>
<g>
</g>
<g>
</g>
<g>
</g>
<g>
</g>
<g>
</g>
</svg>
