<?xml version="1.0" encoding="iso-8859-1"?>
<!-- Generator: Adobe Illustrator 17.1.0, SVG Export Plug-In . SVG Version: 6.00 Build 0)  -->
<!DOCTYPE svg PUBLIC "-//W3C//DTD SVG 1.1//EN" "http://www.w3.org/Graphics/SVG/1.1/DTD/svg11.dtd">
<svg version="1.1" id="Capa_1" xmlns="http://www.w3.org/2000/svg" xmlns:xlink="http://www.w3.org/1999/xlink" x="0px" y="0px"
	 viewBox="0 0 338.042 338.042" style="enable-background:new 0 0 338.042 338.042;" xml:space="preserve">
<path d="M58.572,338.042c-12.563,0-24.217-5.288-34.652-15.723c-23.7-23.7-30.049-61.611-17.878-106.751
	c11.91-44.17,40.233-90.259,79.75-129.775c7.13-7.13,14.477-13.898,21.984-20.269c0.239-0.416,0.542-0.806,0.91-1.151
	c0.514-0.485,1.104-0.84,1.729-1.065C143.807,35.526,180.3,15.552,215.568,6.042c45.14-12.172,83.052-5.823,106.75,17.879
	c10.541,10.541,15.83,22.33,15.721,35.039c-0.3,34.67-39.628,72.661-89.419,120.759c-11.299,10.914-22.981,22.2-34.842,34.06
	c-11.859,11.859-23.144,23.542-34.058,34.84C131.622,298.411,93.63,337.74,58.96,338.04C58.831,338.041,58.7,338.042,58.572,338.042
	z M19.003,207.172c-1.217,3.677-2.321,7.348-3.306,11c-11.201,41.538-5.769,76.014,15.294,97.077
	c8.695,8.693,17.845,12.866,27.882,12.791c30.478-0.264,69.023-40.166,113.655-86.369c10.943-11.329,22.259-23.043,34.18-34.963
	c11.921-11.922,23.635-23.237,34.964-34.182c46.202-44.631,86.104-83.175,86.367-113.652c0.087-10.067-4.097-19.188-12.791-27.883
	l0,0C294.185,9.929,259.71,4.496,218.172,15.697c-3.653,0.985-7.323,2.089-11,3.306c10.856,9.175,35.908,31.262,41.962,44.579
	c4.608,10.139,2.849,21.707-4.28,28.133c-3.299,2.974-12.588,8.94-27.548,0.171c-18.75-10.992-53.828-41.889-61.561-48.772
	c-12.288,7.447-24.41,16.021-36.168,25.601c11.509,12.602,45.073,50.578,52.437,72.67c3.119,9.356,0.146,21.293-7.07,28.383
	c-4.202,4.13-13.564,10.243-29.037,4.782c-21.662-7.645-57.063-44.193-67.189-54.979c-9.582,11.76-18.156,23.884-25.604,36.174
	c6.883,7.734,37.78,42.812,48.771,61.562c8.771,14.963,2.802,24.251-0.171,27.549c-6.426,7.129-17.996,8.888-28.132,4.28
	C50.264,243.081,28.178,218.028,19.003,207.172z M22.937,196.265c8.524,10.447,32.942,38.383,44.784,43.766
	c6.114,2.778,13.083,1.992,16.566-1.872c3.217-3.568,2.852-9.179-1.028-15.797c-9.51-16.223-35.932-46.717-45.441-57.509
	C32.009,175.28,27.025,185.791,22.937,196.265z M75.198,111.85c8.423,8.996,44.114,46.237,64.038,53.269
	c7.782,2.745,14.249,1.887,18.7-2.485c5.008-4.921,6.267-13.061,4.592-18.088c-6.737-20.21-39.811-57.538-50.624-69.393
	c-6.485,5.603-12.845,11.516-19.04,17.71C86.685,99.042,80.788,105.384,75.198,111.85z M164.854,37.817
	c10.792,9.509,41.286,35.931,57.509,45.441c6.619,3.88,12.229,4.243,15.796,1.028c3.865-3.483,4.652-10.451,1.872-16.566
	c-5.386-11.85-33.319-36.263-43.764-44.783C185.791,27.024,175.28,32.008,164.854,37.817z"/>
<g>
</g>
<g>
</g>
<g>
</g>
<g>
</g>
<g>
</g>
<g>
</g>
<g>
</g>
<g>
</g>
<g>
</g>
<g>
</g>
<g>
</g>
<g>
</g>
<g>
</g>
<g>
</g>
<g>
</g>
</svg>
