<?xml version="1.0" encoding="iso-8859-1"?>
<!-- Generator: Adobe Illustrator 17.1.0, SVG Export Plug-In . SVG Version: 6.00 Build 0)  -->
<!DOCTYPE svg PUBLIC "-//W3C//DTD SVG 1.1//EN" "http://www.w3.org/Graphics/SVG/1.1/DTD/svg11.dtd">
<svg version="1.1" id="Capa_1" xmlns="http://www.w3.org/2000/svg" xmlns:xlink="http://www.w3.org/1999/xlink" x="0px" y="0px"
	 viewBox="0 0 416 416" style="enable-background:new 0 0 416 416;" xml:space="preserve">
<path d="M259.388,416H156.612c-7.918,0-14.361-6.373-14.361-14.206v-7.536c0-4.771,1.057-13.698,2.519-26.054
	c2.771-23.401,6.957-58.766,6.957-93.235c0-32.558-4.766-62.031-8.246-83.552c-2.116-13.087-3.788-23.424-3.788-30.505
	c0-12.364,9.938-24.433,20.461-37.209c6.88-8.354,13.995-16.993,18.241-25.678c8.782-17.964,9.783-49.48,9.888-58.226l-4.551-3.724
	c-1.161-0.95-1.833-2.37-1.833-3.87V5c0-2.762,2.239-5,5-5h42.205c2.762,0,5,2.238,5,5v27.206c0,1.5-0.673,2.92-1.834,3.87
	l-4.551,3.724c0.104,8.745,1.105,40.262,9.888,58.226c4.246,8.685,11.36,17.323,18.24,25.678
	c10.522,12.776,20.461,24.845,20.461,37.209c0,7.081-1.672,17.418-3.788,30.505c-3.479,21.521-8.245,50.994-8.245,83.552
	c0,34.47,4.187,69.834,6.956,93.235c1.463,12.355,2.52,21.282,2.52,26.054v7.536C273.749,409.627,267.307,416,259.388,416z
	 M194.399,80.108c-1.599,7.974-3.85,15.824-7.02,22.31c-4.763,9.741-12.258,18.842-19.505,27.643
	c-9.349,11.352-18.18,22.074-18.18,30.852c0,6.277,1.615,16.265,3.659,28.909c3.534,21.854,8.374,51.786,8.374,85.147
	c0,35.06-4.228,70.776-7.026,94.411c-1.369,11.563-2.45,20.696-2.45,24.878v7.536c0,2.319,1.956,4.206,4.361,4.206h102.776
	c2.405,0,4.361-1.887,4.361-4.206v-7.536c0-4.182-1.081-13.314-2.45-24.878c-2.798-23.635-7.025-59.352-7.025-94.411
	c0-33.361,4.84-63.293,8.374-85.147c2.044-12.645,3.659-22.632,3.659-28.909c0-8.777-8.831-19.5-18.18-30.852
	c-7.248-8.801-14.743-17.901-19.506-27.643c-3.17-6.485-5.422-14.335-7.021-22.31H194.399z M196.085,70.108h23.83
	c-1.781-12.747-2.137-24.441-2.199-29.763h-19.432C198.222,45.667,197.866,57.361,196.085,70.108z M192.52,30.346h30.96l0.622-0.509
	V10h-32.205v19.837L192.52,30.346z M162.252,402.396c-1.438,0-2.865-0.617-3.854-1.811c-1.761-2.127-1.465-5.279,0.662-7.04
	c0.882-0.73,21.926-17.892,50.004-17.892c28.142,0,47.167,16.229,47.964,16.92c2.085,1.81,2.309,4.968,0.499,7.054
	c-1.807,2.082-4.958,2.31-7.045,0.507l0,0c-0.168-0.145-17.128-14.48-41.418-14.48c-24.514,0-43.438,15.438-43.625,15.593
	C164.505,402.02,163.375,402.396,162.252,402.396z M208,357.134c-6.473,0-12.943-0.551-19.371-1.653l-16.005-2.743
	c-2.4-0.411-4.155-2.492-4.155-4.928v-86.821c0-1.449,0.629-2.828,1.724-3.777c1.095-0.95,2.543-1.376,3.983-1.173l19.025,2.719
	c9.818,1.402,19.777,1.402,29.596,0l19.026-2.719c1.431-0.202,2.889,0.223,3.983,1.173c1.095,0.949,1.724,2.328,1.724,3.777v86.821
	c0,2.436-1.755,4.517-4.155,4.928l-16.006,2.743C220.944,356.583,214.471,357.134,208,357.134z M178.469,343.594l11.85,2.031
	c11.732,2.012,23.629,2.011,35.361,0l11.851-2.031v-76.84l-13.319,1.903c-10.757,1.536-21.667,1.536-32.424,0c0,0,0,0,0,0
	l-13.318-1.903V343.594z M208,233.928c-8.707,0-16.591-4.339-21.25-11.51h-19.559c-2.761,0-5-2.238-5-5v-17.789c0-2.762,2.239-5,5-5
	h19.558c4.66-7.172,12.543-11.511,21.251-11.511s16.591,4.339,21.251,11.511h19.559c2.762,0,5,2.238,5,5v17.789c0,2.762-2.238,5-5,5
	h-19.559C224.591,229.589,216.707,233.928,208,233.928z M172.191,212.418h17.466c1.914,0,3.66,1.093,4.497,2.814
	c2.606,5.363,7.912,8.695,13.846,8.695s11.239-3.332,13.846-8.695c0.837-1.722,2.583-2.814,4.497-2.814h17.467v-7.789h-17.467
	c-1.914,0-3.66-1.093-4.497-2.814c-2.606-5.364-7.912-8.696-13.846-8.696s-11.239,3.332-13.846,8.696
	c-0.836,1.722-2.583,2.814-4.497,2.814h-17.466V212.418z M162.252,163.819c-1.438,0-2.865-0.617-3.854-1.811
	c-1.761-2.127-1.465-5.279,0.662-7.04c0.882-0.73,21.926-17.892,50.004-17.892c28.142,0,47.167,16.229,47.964,16.92
	c2.085,1.81,2.309,4.968,0.499,7.054c-1.807,2.083-4.958,2.31-7.045,0.507l0,0c-0.168-0.145-17.128-14.48-41.418-14.48
	c-24.514,0-43.438,15.438-43.625,15.593C164.505,163.442,163.375,163.819,162.252,163.819z"/>
<g>
</g>
<g>
</g>
<g>
</g>
<g>
</g>
<g>
</g>
<g>
</g>
<g>
</g>
<g>
</g>
<g>
</g>
<g>
</g>
<g>
</g>
<g>
</g>
<g>
</g>
<g>
</g>
<g>
</g>
</svg>
