<?xml version="1.0" encoding="iso-8859-1"?>
<!-- Generator: Adobe Illustrator 17.1.0, SVG Export Plug-In . SVG Version: 6.00 Build 0)  -->
<!DOCTYPE svg PUBLIC "-//W3C//DTD SVG 1.1//EN" "http://www.w3.org/Graphics/SVG/1.1/DTD/svg11.dtd">
<svg version="1.1" id="Capa_1" xmlns="http://www.w3.org/2000/svg" xmlns:xlink="http://www.w3.org/1999/xlink" x="0px" y="0px"
	 viewBox="0 0 357.135 357.135" style="enable-background:new 0 0 357.135 357.135;" xml:space="preserve">
<path d="M268.914,357.135H88.222c-2.492,0-4.604-1.835-4.951-4.304c-0.348-2.468,1.177-4.815,3.572-5.502l86.725-24.88V158.377
	L31.153,56.198c-1.765-1.266-2.51-3.526-1.845-5.593s2.588-3.469,4.76-3.469h91.202L97.249,7.906
	c-1.605-2.247-1.085-5.37,1.162-6.975c2.246-1.604,5.37-1.084,6.975,1.163l32.172,45.042h185.51c2.172,0,4.095,1.402,4.76,3.469
	s-0.08,4.327-1.845,5.593L183.568,158.377v164.072l86.726,24.88c2.396,0.688,3.919,3.034,3.572,5.502
	S271.407,357.135,268.914,357.135z M123.783,347.135h109.572l-54.786-15.717L123.783,347.135z M178.568,149.135
	c0.226,0,0.447,0.015,0.665,0.044l90.657-65.044h-79.043c0.341,1.792,0.52,3.641,0.52,5.531c0,9.087-4.131,17.229-10.612,22.644
	l11.632,16.285c1.605,2.247,1.085,5.37-1.162,6.975c-2.247,1.604-5.37,1.085-6.975-1.163l-12.185-17.059
	c-3.18,1.175-6.615,1.817-10.198,1.817c-16.267,0-29.5-13.233-29.5-29.5c0-1.89,0.179-3.739,0.52-5.531H87.245l90.657,65.044
	C178.12,149.15,178.342,149.135,178.568,149.135z M143.165,84.135c-0.52,1.754-0.799,3.611-0.799,5.531
	c0,10.752,8.748,19.5,19.5,19.5s19.5-8.748,19.5-19.5c0-1.92-0.279-3.777-0.799-5.531H143.165z M49.614,57.135l23.775,17.059
	c0.251-0.039,0.507-0.059,0.768-0.059h62.638c1.164-1.871,2.531-3.604,4.07-5.166l-8.452-11.834H49.614z M186.939,74.135h96.493
	c0.127,0,0.252,0.005,0.376,0.014l23.714-17.014h-162.82l4.282,5.996c3.895-1.899,8.267-2.964,12.883-2.964
	C172.438,60.167,181.729,65.756,186.939,74.135z M150.088,74.135h23.557c-3.274-2.489-7.357-3.969-11.778-3.969
	S153.363,71.646,150.088,74.135z"/>
<g>
</g>
<g>
</g>
<g>
</g>
<g>
</g>
<g>
</g>
<g>
</g>
<g>
</g>
<g>
</g>
<g>
</g>
<g>
</g>
<g>
</g>
<g>
</g>
<g>
</g>
<g>
</g>
<g>
</g>
</svg>
