<?xml version="1.0" encoding="iso-8859-1"?>
<!-- Generator: Adobe Illustrator 17.1.0, SVG Export Plug-In . SVG Version: 6.00 Build 0)  -->
<!DOCTYPE svg PUBLIC "-//W3C//DTD SVG 1.1//EN" "http://www.w3.org/Graphics/SVG/1.1/DTD/svg11.dtd">
<svg version="1.1" id="Capa_1" xmlns="http://www.w3.org/2000/svg" xmlns:xlink="http://www.w3.org/1999/xlink" x="0px" y="0px"
	 viewBox="0 0 379 379" style="enable-background:new 0 0 379 379;" xml:space="preserve">
<path d="M330.5,312.5c-2.762,0-5-2.238-5-5v-12h-272v12c0,2.762-2.238,5-5,5s-5-2.238-5-5v-12H29.576
	C13.268,295.5,0,282.232,0,265.924V96.076C0,79.768,13.268,66.5,29.576,66.5h319.848C365.732,66.5,379,79.768,379,96.076v169.848
	c0,16.309-13.268,29.576-29.576,29.576H335.5v12C335.5,310.262,333.262,312.5,330.5,312.5z M263.75,285.5h85.674
	c10.794,0,19.576-8.782,19.576-19.576V96.076c0-10.794-8.782-19.576-19.576-19.576H263.75V285.5z M29.576,76.5
	C18.782,76.5,10,85.282,10,96.076v169.848c0,10.794,8.782,19.576,19.576,19.576H253.75v-209H29.576z M201.083,260H58.75
	c-17.094,0-31-13.906-31-31v-96c0-17.094,13.906-31,31-31h142.333c17.094,0,31,13.906,31,31v96
	C232.083,246.094,218.177,260,201.083,260z M58.75,112c-11.579,0-21,9.421-21,21v96c0,11.579,9.421,21,21,21h142.333
	c11.579,0,21-9.421,21-21v-96c0-11.579-9.421-21-21-21H58.75z M317.417,253.75c-13.233,0-24-10.767-24-24s10.767-24,24-24
	s24,10.767,24,24S330.65,253.75,317.417,253.75z M317.417,215.75c-7.72,0-14,6.28-14,14s6.28,14,14,14s14-6.28,14-14
	S325.137,215.75,317.417,215.75z M348.917,185.75h-63c-2.762,0-5-2.238-5-5s2.238-5,5-5h63c2.762,0,5,2.238,5,5
	S351.679,185.75,348.917,185.75z M348.917,166.75h-63c-2.762,0-5-2.238-5-5s2.238-5,5-5h63c2.762,0,5,2.238,5,5
	S351.679,166.75,348.917,166.75z M349.75,142h-64.667c-2.762,0-5-2.238-5-5v-30c0-2.762,2.238-5,5-5h64.667c2.762,0,5,2.238,5,5v30
	C354.75,139.762,352.512,142,349.75,142z M290.083,132h54.667v-20h-54.667V132z"/>
<g>
</g>
<g>
</g>
<g>
</g>
<g>
</g>
<g>
</g>
<g>
</g>
<g>
</g>
<g>
</g>
<g>
</g>
<g>
</g>
<g>
</g>
<g>
</g>
<g>
</g>
<g>
</g>
<g>
</g>
</svg>
