<?xml version="1.0" encoding="iso-8859-1"?>
<!-- Generator: Adobe Illustrator 17.1.0, SVG Export Plug-In . SVG Version: 6.00 Build 0)  -->
<!DOCTYPE svg PUBLIC "-//W3C//DTD SVG 1.1//EN" "http://www.w3.org/Graphics/SVG/1.1/DTD/svg11.dtd">
<svg version="1.1" id="Capa_1" xmlns="http://www.w3.org/2000/svg" xmlns:xlink="http://www.w3.org/1999/xlink" x="0px" y="0px"
	 viewBox="0 0 382 382" style="enable-background:new 0 0 382 382;" xml:space="preserve">
<g id="milkshake">
	<path d="M226.77,382H112.229c-2.545,0-4.685-1.912-4.969-4.442L82.038,153H75.5c-2.761,0-5-2.239-5-5v-29c0-2.761,2.239-5,5-5
		h6.168c1.387-21.492,10.481-41.498,25.907-56.77c16.585-16.419,38.572-25.462,61.912-25.462c10.69,0,21.097,1.897,30.83,5.531
		l6.385-21.71c0.561-1.907,2.198-3.301,4.17-3.55l95-12c2.732-0.345,5.241,1.594,5.587,4.334c0.346,2.74-1.594,5.241-4.334,5.587
		l-91.753,11.59l-5.829,19.818c7.958,4.076,15.326,9.397,21.856,15.862c15.425,15.272,24.52,35.278,25.907,56.77H264
		c2.761,0,5,2.239,5,5v29c0,2.761-2.239,5-5,5h-7.039l-25.222,224.558C231.454,380.088,229.315,382,226.77,382z M116.699,372H222.3
		l24.598-219H92.101L116.699,372z M253.399,143H259v-19h-77.384c-0.075,0.002-0.15,0.002-0.227,0H80.5v19h5.1
		c0.294-0.054,0.595-0.082,0.899-0.082H252.5C252.804,142.919,253.105,142.947,253.399,143z M188.221,113.868h59.049
		c-2.046-26.995-18.001-50.25-40.634-62.613L188.221,113.868z M91.705,113.868h86.092l19.669-66.875
		c-8.7-3.374-18.136-5.225-27.979-5.225C128.636,41.769,94.751,73.673,91.705,113.868z M109.5,104c-2.761,0-5-2.239-5-5
		c0-8.609,5.464-19.607,14.615-29.42c9.545-10.234,21.086-16.987,31.665-18.527c2.731-0.402,5.27,1.495,5.668,4.228
		c0.398,2.732-1.495,5.271-4.228,5.668C133.513,63.672,114.5,87.329,114.5,99C114.5,101.761,112.261,104,109.5,104z"/>
</g>
<g>
</g>
<g>
</g>
<g>
</g>
<g>
</g>
<g>
</g>
<g>
</g>
<g>
</g>
<g>
</g>
<g>
</g>
<g>
</g>
<g>
</g>
<g>
</g>
<g>
</g>
<g>
</g>
<g>
</g>
</svg>
