<?xml version="1.0" encoding="iso-8859-1"?>
<!-- Generator: Adobe Illustrator 17.1.0, SVG Export Plug-In . SVG Version: 6.00 Build 0)  -->
<!DOCTYPE svg PUBLIC "-//W3C//DTD SVG 1.1//EN" "http://www.w3.org/Graphics/SVG/1.1/DTD/svg11.dtd">
<svg version="1.1" id="Capa_1" xmlns="http://www.w3.org/2000/svg" xmlns:xlink="http://www.w3.org/1999/xlink" x="0px" y="0px"
	 viewBox="0 0 391 391" style="enable-background:new 0 0 391 391;" xml:space="preserve">
<path d="M250,391H141c-11.58,0-21-9.421-21-21V198c0-33.646,2.336-48.02,18.771-85.029c13.596-30.614,17.039-63.806,17.753-72.835
	l-3.837-3.347c-0.084-0.073-0.167-0.149-0.246-0.228l0,0c-0.004-0.004-0.008-0.008-0.012-0.012c0,0,0,0-0.001-0.001
	c-0.003-0.003-0.007-0.007-0.01-0.01c0-0.001-0.001-0.001-0.001-0.002c-0.003-0.003-0.008-0.008-0.011-0.011l0-0.001
	c-0.007-0.008-0.015-0.015-0.023-0.022c-0.001-0.001-0.002-0.003-0.003-0.004c-0.003-0.003-0.005-0.005-0.008-0.008
	c-0.001-0.001-0.002-0.003-0.004-0.004c-0.002-0.003-0.004-0.005-0.007-0.008c-0.001-0.001-0.002-0.003-0.003-0.004
	c-0.003-0.003-0.005-0.005-0.008-0.008c-0.001-0.001-0.002-0.003-0.003-0.004c-0.003-0.003-0.006-0.006-0.009-0.009
	c0-0.001-0.001-0.001-0.002-0.002c-0.85-0.891-1.375-2.094-1.384-3.419l0,0c0-0.005,0-0.01,0-0.015c0-0.001,0-0.002,0-0.003
	c0-0.006,0-0.011,0-0.017V5c0-2.762,2.239-5,5-5h79.098c2.761,0,5,2.238,5,5v28c0,0.006,0,0.011,0,0.017c0,0.001,0,0.002,0,0.003
	c0,0.005,0,0.01,0,0.015l0,0c-0.009,1.325-0.534,2.528-1.384,3.419c0,0.001-0.001,0.001-0.002,0.002
	c-0.003,0.003-0.006,0.006-0.009,0.009c-0.001,0.001-0.002,0.003-0.003,0.004c-0.002,0.003-0.005,0.005-0.008,0.008
	c-0.001,0.001-0.002,0.003-0.003,0.004c-0.003,0.003-0.005,0.005-0.007,0.008c-0.001,0.001-0.003,0.003-0.004,0.004
	c-0.003,0.003-0.005,0.005-0.008,0.008c-0.001,0.001-0.002,0.003-0.003,0.004c-0.008,0.008-0.016,0.015-0.023,0.022l0,0.001
	c-0.003,0.003-0.008,0.008-0.011,0.011c0,0.001-0.001,0.001-0.001,0.002c-0.003,0.003-0.007,0.007-0.01,0.01
	c0,0.001-0.001,0.001-0.001,0.001c-0.004,0.004-0.008,0.008-0.012,0.012l0,0c-0.08,0.078-0.162,0.154-0.246,0.228l-3.837,3.347
	c0.714,9.029,4.158,42.221,17.753,72.835C268.664,149.98,271,164.354,271,198v172C271,381.579,261.58,391,250,391z M157.922,88.884
	c-2.543,9.095-5.813,18.691-10.011,28.146C132.108,152.615,130,165.532,130,198v172c0,6.065,4.935,11,11,11h109
	c6.065,0,11-4.935,11-11V198c0-32.468-2.108-45.385-17.911-80.971c-4.18-9.413-7.44-18.97-9.979-28.029H159
	C158.63,89,158.27,88.96,157.922,88.884z M160.465,79h70.07c-5.259-22.33-6.16-39.669-6.212-40.762
	c-0.004-0.079-0.006-0.159-0.006-0.238h-57.634c0,0.079-0.002,0.159-0.006,0.238C166.625,39.331,165.724,56.67,160.465,79z
	 M160.951,28h69.098V10h-69.098V28z M148,360c-2.761,0-5-2.238-5-5V223c0-2.762,2.239-5,5-5s5,2.238,5,5v132
	C153,357.762,150.761,360,148,360z"/>
<g>
</g>
<g>
</g>
<g>
</g>
<g>
</g>
<g>
</g>
<g>
</g>
<g>
</g>
<g>
</g>
<g>
</g>
<g>
</g>
<g>
</g>
<g>
</g>
<g>
</g>
<g>
</g>
<g>
</g>
</svg>
