<?xml version="1.0" encoding="iso-8859-1"?>
<!-- Generator: Adobe Illustrator 17.1.0, SVG Export Plug-In . SVG Version: 6.00 Build 0)  -->
<!DOCTYPE svg PUBLIC "-//W3C//DTD SVG 1.1//EN" "http://www.w3.org/Graphics/SVG/1.1/DTD/svg11.dtd">
<svg version="1.1" id="Capa_1" xmlns="http://www.w3.org/2000/svg" xmlns:xlink="http://www.w3.org/1999/xlink" x="0px" y="0px"
	 viewBox="0 0 335.5 335.5" style="enable-background:new 0 0 335.5 335.5;" xml:space="preserve">
<path d="M284.346,335.5H51.153c-2.761,0-5-2.238-5-5V112.432c0-0.035,0-0.07,0.001-0.105c0-0.002,0-0.004,0-0.004v-0.005
	c0.018-0.907,0.278-1.755,0.717-2.481l38.147-65.697V14.824C85.018,6.65,91.669,0,99.843,0h142.291
	c8.174,0,14.825,6.65,14.825,14.824v29.515l31.844,65.811c0.266,0.521,0.443,1.096,0.512,1.703c0.025,0.222,0.036,0.445,0.032,0.67
	V330.5C289.346,333.262,287.108,335.5,284.346,335.5z M221.332,325.5h58.015V117.42h-58.015V325.5z M56.153,325.5h155.179V117.42
	H56.153V325.5z M224.657,107.42h39.642l-30.895-16.433L224.657,107.42z M59.838,107.42h153.491l30.304-56.935H92.897L59.838,107.42z
	 M238.102,82.159l35.075,18.656l-21.431-44.289L238.102,82.159z M95.018,40.485h151.94V14.824c0-2.66-2.165-4.824-4.825-4.824
	H99.843c-2.66,0-4.825,2.164-4.825,4.824V40.485z"/>
<g>
</g>
<g>
</g>
<g>
</g>
<g>
</g>
<g>
</g>
<g>
</g>
<g>
</g>
<g>
</g>
<g>
</g>
<g>
</g>
<g>
</g>
<g>
</g>
<g>
</g>
<g>
</g>
<g>
</g>
</svg>
