<?xml version="1.0" encoding="iso-8859-1"?>
<!-- Generator: Adobe Illustrator 17.1.0, SVG Export Plug-In . SVG Version: 6.00 Build 0)  -->
<!DOCTYPE svg PUBLIC "-//W3C//DTD SVG 1.1//EN" "http://www.w3.org/Graphics/SVG/1.1/DTD/svg11.dtd">
<svg version="1.1" id="Capa_1" xmlns="http://www.w3.org/2000/svg" xmlns:xlink="http://www.w3.org/1999/xlink" x="0px" y="0px"
	 viewBox="0 0 370.313 370.313" style="enable-background:new 0 0 370.313 370.313;" xml:space="preserve">
<path d="M114.086,370.313H71.214c-9.374,0-17-7.626-17-17v-81.881c0-9.374,7.626-17,17-17h16.728
	c-0.189-0.527-0.292-1.096-0.292-1.688V199.79H59.559c-16.467,0-29.864-13.397-29.864-29.865V94.057
	c0-23.587,3.406-49.809,28.666-65.456c3.27-2.024,6.852-3.869,10.796-5.541V5c0-2.762,2.239-5,5-5h24c2.761,0,5,2.238,5,5v9.1
	c18.192-2.805,40.836-4.1,69.249-4.1c47.76,0,85.75,20.158,109.209,37.069c27.188,19.598,46.216,42.802,53.014,57.104
	c3.919,8.244,5.99,17.533,5.99,26.861v51.004c0,9.788-7.963,17.752-17.751,17.752H97.65v52.955c0,0.592-0.103,1.16-0.292,1.688
	h16.728c9.374,0,17,7.626,17,17v81.881C131.086,362.688,123.46,370.313,114.086,370.313z M111.745,360.313h2.341c3.86,0,7-3.141,7-7
	v-81.881c0-3.859-3.14-7-7-7h-2.341c0.969,2.136,1.509,4.506,1.509,7v81.881C113.254,355.808,112.714,358.178,111.745,360.313z
	 M89.047,264.433c-3.86,0-7,3.141-7,7v81.881c0,3.859,3.14,7,7,7h7.207c3.86,0,7-3.141,7-7v-81.881c0-3.859-3.14-7-7-7H89.047z
	 M71.214,264.433c-3.86,0-7,3.141-7,7v81.881c0,3.859,3.14,7,7,7h2.341c-0.969-2.136-1.509-4.506-1.509-7v-81.881
	c0-2.494,0.54-4.864,1.509-7H71.214z M172.406,20C58.135,20,39.695,41.832,39.695,94.057v75.868
	c0,10.954,8.911,19.865,19.864,19.865h263.309c4.274,0,7.751-3.478,7.751-7.752v-51.004c0-7.853-1.736-15.657-5.021-22.568
	C314.82,85.792,256.187,20,172.406,20z M79.156,10v9.431c4.301-1.33,8.954-2.511,14-3.546V10H79.156z M124.619,171h-60
	c-2.761,0-5-2.238-5-5s2.239-5,5-5h60c2.761,0,5,2.238,5,5S127.38,171,124.619,171z M124.619,154h-60c-2.761,0-5-2.238-5-5
	s2.239-5,5-5h60c2.761,0,5,2.238,5,5S127.38,154,124.619,154z M124.619,137h-60c-2.761,0-5-2.238-5-5s2.239-5,5-5h60
	c2.761,0,5,2.238,5,5S127.38,137,124.619,137z M276.863,130.652c-1.163,0-2.338-0.102-3.517-0.312l-131.616-23.398
	c-11.721-2.084-20.228-12.236-20.228-24.141V68.948c0-17.199,13.374-31.283,30.447-32.065c19.325-0.878,38.732,1.734,57.68,7.781
	c29.979,9.568,59.356,26.626,74.84,43.456c3.521,3.826,6.701,8.291,9.453,13.27l0,0c3.73,6.746,3.271,14.819-1.199,21.068
	C288.984,127.686,283.118,130.652,276.863,130.652z M159.277,46.716c-2.291,0-4.581,0.052-6.871,0.157
	c-11.722,0.536-20.904,10.233-20.904,22.075v13.854c0,7.049,5.038,13.062,11.978,14.295l131.617,23.398
	c3.739,0.666,7.291-0.775,9.493-3.854c2.238-3.129,2.456-7.022,0.581-10.413l0,0c-2.367-4.282-5.079-8.096-8.06-11.336
	c-14.394-15.646-42.075-31.622-70.521-40.7C191.022,49.223,175.138,46.716,159.277,46.716z"/>
<g>
</g>
<g>
</g>
<g>
</g>
<g>
</g>
<g>
</g>
<g>
</g>
<g>
</g>
<g>
</g>
<g>
</g>
<g>
</g>
<g>
</g>
<g>
</g>
<g>
</g>
<g>
</g>
<g>
</g>
</svg>
