<?xml version="1.0" encoding="iso-8859-1"?>
<!-- Generator: Adobe Illustrator 17.1.0, SVG Export Plug-In . SVG Version: 6.00 Build 0)  -->
<!DOCTYPE svg PUBLIC "-//W3C//DTD SVG 1.1//EN" "http://www.w3.org/Graphics/SVG/1.1/DTD/svg11.dtd">
<svg version="1.1" id="Capa_1" xmlns="http://www.w3.org/2000/svg" xmlns:xlink="http://www.w3.org/1999/xlink" x="0px" y="0px"
	 viewBox="0 0 286 286" style="enable-background:new 0 0 286 286;" xml:space="preserve">
<path d="M147.189,304.136h-0.894c-32.137,0-58.282-26.146-58.282-58.282V134.557H5.028c-2.726,0-4.948-2.183-4.999-4.907
	l-0.009-0.42C0.011,128.71,0,128.191,0,127.67C0,57.272,65.829,0,146.743,0s146.742,57.272,146.742,127.67
	c0,0.499-0.01,0.995-0.02,1.492l-0.009,0.479c-0.046,2.729-2.271,4.915-4.999,4.915h-82.986v111.297
	C205.472,277.99,179.326,304.136,147.189,304.136z M98.014,136.295v109.559c0,26.623,21.659,48.282,48.282,48.282h0.894
	c26.623,0,48.282-21.659,48.282-48.282V136.295H98.014z M10.047,124.557h273.392C281.513,61.107,220.933,10,146.743,10
	C72.553,10,11.973,61.107,10.047,124.557z M56.086,68.089c-1.045,0-2.099-0.326-2.999-1.002c-2.208-1.658-2.653-4.793-0.995-7.001
	c14.688-19.558,49.182-32.779,50.643-33.332c2.579-0.978,5.466,0.321,6.445,2.904c0.979,2.581-0.321,5.468-2.902,6.447
	c-0.331,0.125-33.25,12.757-46.189,29.986C59.105,67.399,57.604,68.089,56.086,68.089z"/>
<g>
</g>
<g>
</g>
<g>
</g>
<g>
</g>
<g>
</g>
<g>
</g>
<g>
</g>
<g>
</g>
<g>
</g>
<g>
</g>
<g>
</g>
<g>
</g>
<g>
</g>
<g>
</g>
<g>
</g>
</svg>
