<?xml version="1.0" encoding="iso-8859-1"?>
<!-- Generator: Adobe Illustrator 17.1.0, SVG Export Plug-In . SVG Version: 6.00 Build 0)  -->
<!DOCTYPE svg PUBLIC "-//W3C//DTD SVG 1.1//EN" "http://www.w3.org/Graphics/SVG/1.1/DTD/svg11.dtd">
<svg version="1.1" id="Capa_1" xmlns="http://www.w3.org/2000/svg" xmlns:xlink="http://www.w3.org/1999/xlink" x="0px" y="0px"
	 viewBox="0 0 390.882 390.882" style="enable-background:new 0 0 390.882 390.882;" xml:space="preserve">
<path d="M250.883,390.882H139.999c-4.831,0-9.478-2.039-12.749-5.595c-3.271-3.556-4.916-8.356-4.513-13.171L149.37,53.551
	c0.187-2.241,1.848-4.081,4.058-4.497l22.606-4.255v-5.167h-1.582c-2.761,0-5-2.239-5-5V5c0-2.761,2.239-5,5-5h41.979
	c2.762,0,5,2.239,5,5v29.632c0,2.761-2.238,5-5,5h-1.582v5.167l22.606,4.255c2.21,0.416,3.87,2.256,4.058,4.497l26.632,318.565v0
	c0.403,4.814-1.241,9.615-4.512,13.17C260.363,388.843,255.715,390.882,250.883,390.882z M153.441,124.882L132.702,372.95
	c-0.172,2.065,0.505,4.042,1.908,5.567c1.403,1.525,3.317,2.365,5.389,2.365h110.884c2.072,0,3.986-0.84,5.39-2.365
	c1.402-1.525,2.08-3.502,1.907-5.567v0l-20.738-248.067h-8.588l12.871,188.238c0.436,6.379-1.271,12.848-4.805,18.215
	c-3.824,5.808-7.904,10.45-12.128,13.799c-2.775,2.202-6.325,4.322-10.552,6.302c-11.947,5.597-25.651,5.596-37.599,0
	c-4.228-1.981-7.777-4.101-10.552-6.302c-4.222-3.348-8.302-7.991-12.127-13.799c-3.535-5.367-5.241-11.836-4.805-18.215
	l12.871-188.238H153.441z M195.441,85.325c-3.91,0-7.819,1.174-11.156,3.522l-2.708,1.906c-4.801,3.378-7.784,8.674-8.185,14.531
	l-14.258,208.519c-0.288,4.209,0.841,8.482,3.18,12.033c3.194,4.851,6.648,8.815,9.989,11.464c2.168,1.72,5.055,3.429,8.581,5.082
	c9.251,4.333,19.863,4.334,29.114,0c3.524-1.651,6.411-3.361,8.58-5.081c3.342-2.65,6.797-6.614,9.99-11.464
	c2.338-3.55,3.467-7.824,3.18-12.033l-14.258-208.519c-0.401-5.856-3.384-11.153-8.185-14.531h0.001l-2.709-1.906
	C203.262,86.5,199.351,85.325,195.441,85.325z M228.17,114.882h8.436l-4.741-56.705l-22.482-4.231H181.5l-22.482,4.231
	l-4.741,56.705h8.436l0.703-10.281c0.607-8.877,5.129-16.906,12.406-22.026l2.708-1.906c10.116-7.118,23.709-7.118,33.823,0
	l2.708,1.906c0.001,0,0.001,0,0.001,0c7.276,5.121,11.798,13.149,12.405,22.026L228.17,114.882z M186.034,43.946h18.815v-4.314
	h-18.815V43.946z M210.835,29.632h0.596V10h-31.979v19.632H210.835z"/>
<g>
</g>
<g>
</g>
<g>
</g>
<g>
</g>
<g>
</g>
<g>
</g>
<g>
</g>
<g>
</g>
<g>
</g>
<g>
</g>
<g>
</g>
<g>
</g>
<g>
</g>
<g>
</g>
<g>
</g>
</svg>
