<?xml version="1.0" encoding="iso-8859-1"?>
<!-- Generator: Adobe Illustrator 17.1.0, SVG Export Plug-In . SVG Version: 6.00 Build 0)  -->
<!DOCTYPE svg PUBLIC "-//W3C//DTD SVG 1.1//EN" "http://www.w3.org/Graphics/SVG/1.1/DTD/svg11.dtd">
<svg version="1.1" id="Capa_1" xmlns="http://www.w3.org/2000/svg" xmlns:xlink="http://www.w3.org/1999/xlink" x="0px" y="0px"
	 viewBox="0 0 347.037 347.037" style="enable-background:new 0 0 347.037 347.037;" xml:space="preserve">
<path d="M63.855,340.479c-3.284,0-6.554-1.258-9.019-3.724L3.723,285.641c-4.521-4.52-4.981-11.745-1.069-16.807
	c4.037-5.223,8.482-15.115,6.737-32.581c-0.481-4.82-1.192-7.857-2.017-11.375c-0.376-1.604-0.765-3.264-1.16-5.203l-0.071-0.301
	c-12.232-45.052-5.229-86.205,18.744-110.098c30.371-30.27,81.727-36.512,127.792-15.533c9.55,4.35,19.972,6.095,30.14,5.056
	c5.978-0.612,11.12-1.644,14.472-2.428l2.918-1.098l0.766-0.401c1.741-0.912,3.317-1.738,4.759-2.423
	c1.159-0.679,2.228-1.293,3.236-1.873c9.087-5.229,12.849-7.394,35.853-29.732c26.049-25.296,41.499-41.49,41.652-41.651
	c1.649-1.731,4.293-2.052,6.309-0.767c2.016,1.286,2.84,3.818,1.965,6.044c-0.372,0.948-5.773,14.602-13.48,29.236
	c7.795-6.801,14.629-12.802,18.499-16.284c13.79-12.411,38.407-29.279,39.448-29.991c2.067-1.414,4.861-1.08,6.536,0.779
	c1.676,1.859,1.719,4.672,0.1,6.582L306.239,61.5c-0.206,0.244-21.907,26.077-37.313,49.521
	c-13.825,21.037-16.576,25.331-18.013,28.022c-0.037,0.455-0.136,0.907-0.298,1.344c-0.01,0.026-0.992,2.672-2.305,6.515
	l-0.159,0.557c-1.704,7.326-4.211,21.631-2.164,36.104l1.188,6.396c0.063,0.338,0.159,0.688,0.285,1.033l0,0
	c8.536,23.446,11.889,46.864,9.694,67.722c-2.413,22.932-11.147,42.07-25.96,56.882c-24.008,24.011-65.264,30.984-110.357,18.666
	l-0.893-0.225c-4.459-1.124-9.07-2.286-15.72-2.95c-17.469-1.748-27.36,2.701-32.584,6.739
	C69.341,339.604,66.592,340.479,63.855,340.479z M97.254,91.405c-25.313,0-48.816,8.52-65.308,24.954
	c-21.409,21.34-27.439,58.899-16.131,100.474c0.017,0.061,0.032,0.12,0.046,0.182l0.11,0.468c0.01,0.043,0.02,0.086,0.027,0.129
	c0.371,1.825,0.748,3.433,1.112,4.986c0.866,3.698,1.685,7.191,2.231,12.662c2.071,20.739-3.629,33.031-8.776,39.69
	c-0.843,1.091-0.745,2.647,0.228,3.62l51.113,51.115c0.974,0.973,2.529,1.071,3.619,0.229c6.66-5.148,18.95-10.847,39.693-8.778
	c7.384,0.738,12.583,2.049,17.169,3.204l0.935,0.235c0.034,0.009,0.068,0.018,0.103,0.026c41.608,11.381,79.253,5.37,100.699-16.076
	c25.47-25.471,30.682-68.129,13.939-114.111v-0.001c-0.313-0.861-0.556-1.744-0.72-2.624l-1.209-6.505
	c-0.013-0.068-0.023-0.137-0.034-0.206c-2.314-16.206,0.473-32.028,2.34-40.017c0.02-0.081,0.04-0.161,0.063-0.24l0.228-0.791
	c0.023-0.08,0.048-0.16,0.075-0.239c0.18-0.529,0.354-1.035,0.521-1.517l-11.536-2.616c-2.587-0.578-4.364-3.019-4.122-5.674
	l0.983-10.166l-12.817,0.827c-2.113,0.146-4.171-0.742-5.533-2.35c-1.363-1.608-1.891-3.795-1.411-5.848l1.929-8.232
	c0.012-0.052,0.025-0.104,0.039-0.156c0.648-2.413,1.11-4.279,1.436-5.723c-0.875,0.448-1.794,0.93-2.676,1.393l-1.045,0.547
	c-0.181,0.095-0.367,0.178-0.559,0.25l-3.502,1.316c-0.199,0.075-0.402,0.138-0.609,0.187c-5.28,1.252-10.686,2.166-16.064,2.717
	c-11.93,1.225-24.139-0.817-35.304-5.901C131.659,95.159,114.057,91.405,97.254,91.405z M234.021,130.818l8.9,2.019
	c1.852-3.197,5.63-9.021,17.646-27.307c15.738-23.948,37.812-50.222,38.033-50.484L309.495,42.2
	c-1.063,0.905-2.082,1.794-3.039,2.656c-9.192,8.271-34.926,30.593-50.759,44.295c-6.994,7.091-12.108,11.354-14.717,12.223
	c-2.266,0.757-4.748-0.197-5.928-2.272s-0.728-4.696,1.08-6.256c0.159-0.138,5.323-4.595,12.72-10.995
	c1.939-1.974,4.174-4.318,6.734-7.103c6.504-7.069,12.978-18.139,18.225-28.415c-6.107,6.104-13.505,13.414-22.022,21.686
	c-19.487,18.924-25.987,24.088-32.909,28.334c0.477,3.337-0.655,7.937-2.343,14.225l-0.891,3.803l12.825-0.828
	c1.802-0.128,3.584,0.566,4.849,1.872s1.891,3.092,1.717,4.901L234.021,130.818z M28.349,192.341c-2.268,0-4.321-1.553-4.863-3.855
	c-4.346-18.468-1.296-54.65,25.385-73.122c30.344-21.007,67.655-12.562,96.768-2.856c25.083,8.36,33.988,8.642,34.075,8.644
	c2.762,0,4.973,2.239,4.973,5c0,2.762-2.266,5-5.027,5c-0.994,0-10.482-0.257-37.183-9.157
	c-26.906-8.969-61.212-16.893-87.914,1.593c-21.396,14.813-25.36,45.529-21.342,62.608c0.633,2.688-1.034,5.38-3.722,6.013
	C29.113,192.298,28.728,192.341,28.349,192.341z"/>
<g>
</g>
<g>
</g>
<g>
</g>
<g>
</g>
<g>
</g>
<g>
</g>
<g>
</g>
<g>
</g>
<g>
</g>
<g>
</g>
<g>
</g>
<g>
</g>
<g>
</g>
<g>
</g>
<g>
</g>
</svg>
