<?xml version="1.0" encoding="iso-8859-1"?>
<!-- Generator: Adobe Illustrator 17.1.0, SVG Export Plug-In . SVG Version: 6.00 Build 0)  -->
<!DOCTYPE svg PUBLIC "-//W3C//DTD SVG 1.1//EN" "http://www.w3.org/Graphics/SVG/1.1/DTD/svg11.dtd">
<svg version="1.1" id="Capa_1" xmlns="http://www.w3.org/2000/svg" xmlns:xlink="http://www.w3.org/1999/xlink" x="0px" y="0px"
	 viewBox="0 0 302 302" style="enable-background:new 0 0 302 302;" xml:space="preserve">
<path d="M151.001,302c-0.037,0-0.072,0-0.109,0c-39.719-0.028-77.442-15.893-106.221-44.671C15.893,228.551,0.028,190.827,0,151.109
	c-0.028-40.376,15.679-78.334,44.227-106.883C72.75,15.704,110.666,0,151,0c0.037,0,0.072,0,0.109,0
	c39.719,0.028,77.442,15.893,106.221,44.671c28.778,28.778,44.643,66.502,44.671,106.22c0.028,40.376-15.679,78.334-44.227,106.883
	C229.251,286.296,191.334,302,151.001,302z M151,10c-37.665,0-73.066,14.663-99.701,41.298C24.64,77.956,9.974,113.4,10,151.102
	C10.054,227.423,74.578,291.946,150.898,292c0.032,0,0.07,0,0.102,0c37.665,0,73.066-14.663,99.701-41.298
	C277.36,224.044,292.026,188.6,292,150.898C291.946,74.577,227.422,10.054,151.102,10C151.069,10,151.032,10,151,10z M76,237
	c-1.28,0-2.559-0.488-3.536-1.465l-6-6c-1.953-1.952-1.953-5.118,0-7.07c1.953-1.953,5.118-1.953,7.071,0l6,6
	c1.953,1.952,1.953,5.118,0,7.07C78.559,236.512,77.28,237,76,237z M44.004,224.001c-1.616,0-3.201-0.782-4.165-2.228l-4-6
	c-1.532-2.298-0.911-5.402,1.387-6.934c2.297-1.532,5.402-0.911,6.934,1.387l4,6c1.532,2.298,0.911,5.402-1.387,6.934
	C45.921,223.729,44.958,224.001,44.004,224.001z M62,201.001c-2.094,0-4.044-1.324-4.743-3.42l-4-12
	c-0.874-2.62,0.542-5.451,3.162-6.324c2.619-0.874,5.451,0.542,6.324,3.162l4,12c0.874,2.62-0.542,5.451-3.162,6.324
	C63.057,200.918,62.523,201.001,62,201.001z M34.002,193.001c-1.984,0-3.862-1.189-4.644-3.144l-2-5
	c-1.025-2.564,0.222-5.475,2.786-6.5c2.562-1.023,5.474,0.222,6.5,2.785l2,5c1.025,2.564-0.222,5.475-2.786,6.5
	C35.248,192.886,34.62,193.001,34.002,193.001z M52.994,168c-2.514,0-4.679-1.891-4.963-4.448l-1-9
	c-0.305-2.744,1.672-5.216,4.417-5.521c2.742-0.289,5.217,1.673,5.521,4.418l1,9c0.305,2.744-1.672,5.216-4.417,5.521
	C53.365,167.99,53.178,168,52.994,168z M25.995,166c-2.627,0-4.83-2.05-4.986-4.706l-1-17c-0.162-2.757,1.941-5.123,4.698-5.285
	c2.741-0.162,5.123,1.94,5.285,4.697l1,17c0.162,2.757-1.941,5.123-4.698,5.285C26.194,165.997,26.094,166,25.995,166z M81,161
	c-2.761,0-5-2.238-5-5v-7c0-2.762,2.239-5,5-5s5,2.238,5,5v7C86,158.762,83.761,161,81,161z M60.001,136.001
	c-0.524,0-1.057-0.083-1.582-0.258c-2.62-0.873-4.036-3.704-3.162-6.324l4-12c0.874-2.618,3.705-4.035,6.324-3.162
	s4.036,3.704,3.162,6.324l-4,12C64.045,134.676,62.094,136.001,60.001,136.001z M31.004,122.001c-0.402,0-0.81-0.049-1.217-0.15
	c-2.679-0.67-4.308-3.385-3.638-6.063l2-8c0.67-2.68,3.387-4.306,6.063-3.638c2.679,0.67,4.308,3.385,3.638,6.063l-2,8
	C35.283,120.484,33.244,122.001,31.004,122.001z M245.665,104.001c-2.203,0-4.22-1.466-4.823-3.694
	c-0.003-0.009-1.521-5.083-6.295-8.159c-4.678-3.014-12.438-4.813-15.032-5.253c-1.525-0.258-2.844-1.207-3.574-2.57
	c-0.644-1.203-0.764-2.609-0.35-3.894c0.086-0.538,0.467-4.074-2.111-14.1c-2.926-11.377-11.452-13.613-11.537-13.633
	c-2.693-0.612-4.38-3.291-3.768-5.984c0.611-2.692,3.288-4.38,5.983-3.768c0.45,0.103,8.617,2.066,14.473,10.655
	c6.671-2.072,18.35-2.729,25.579,6.768c8.204,10.78,3.508,22.729,0.856,27.739c3.919,4.39,5.251,8.926,5.43,9.585
	c0.722,2.666-0.854,5.411-3.52,6.133C246.537,103.944,246.097,104.001,245.665,104.001z M225.621,78.001
	c3.126,0.79,7.426,2.096,11.311,4.029c1.65-3.625,3.509-10.099-0.681-15.604c-3.791-4.98-9.955-4.417-13.366-3.607
	c0.097,0.335,0.189,0.676,0.278,1.022C224.632,69.551,225.459,74.356,225.621,78.001z M59.996,100.001
	c-0.751,0-1.514-0.17-2.232-0.529c-2.47-1.234-3.471-4.238-2.236-6.708l3-6c1.234-2.471,4.238-3.473,6.708-2.235
	c2.47,1.234,3.471,4.238,2.236,6.708l-3,6C63.596,98.988,61.83,100.001,59.996,100.001z M85.996,98.001
	c-0.953,0-1.917-0.272-2.769-0.841c-2.298-1.531-2.918-4.636-1.387-6.934l8-12c1.532-2.299,4.636-2.919,6.934-1.387
	c2.298,1.531,2.918,4.636,1.387,6.934l-8,12C89.197,97.219,87.611,98.001,85.996,98.001z M43.996,89c-0.99,0-1.99-0.293-2.863-0.904
	c-2.262-1.583-2.813-4.701-1.229-6.963l7-10c1.584-2.263,4.701-2.813,6.963-1.229c2.262,1.583,2.813,4.701,1.229,6.963l-7,10
	C47.124,88.257,45.572,89,43.996,89z M75.003,65c-1.467,0-2.919-0.642-3.907-1.877c-1.725-2.156-1.375-5.303,0.781-7.027l5-4
	c2.156-1.725,5.301-1.378,7.028,0.781c1.725,2.156,1.375,5.303-0.781,7.027l-5,4C77.202,64.642,76.099,65,75.003,65z"/>
<g>
</g>
<g>
</g>
<g>
</g>
<g>
</g>
<g>
</g>
<g>
</g>
<g>
</g>
<g>
</g>
<g>
</g>
<g>
</g>
<g>
</g>
<g>
</g>
<g>
</g>
<g>
</g>
<g>
</g>
</svg>
