<?xml version="1.0" encoding="iso-8859-1"?>
<!-- Generator: Adobe Illustrator 17.1.0, SVG Export Plug-In . SVG Version: 6.00 Build 0)  -->
<!DOCTYPE svg PUBLIC "-//W3C//DTD SVG 1.1//EN" "http://www.w3.org/Graphics/SVG/1.1/DTD/svg11.dtd">
<svg version="1.1" id="Capa_1" xmlns="http://www.w3.org/2000/svg" xmlns:xlink="http://www.w3.org/1999/xlink" x="0px" y="0px"
	 viewBox="0 0 352 352" style="enable-background:new 0 0 352 352;" xml:space="preserve">
<path d="M313.393,352H41.572c-2.762,0-5-2.238-5-5v-34.537h-13.78c-2.762,0-5-2.238-5-5V35.642c0-2.762,2.238-5,5-5h16.745
	C39.569,13.741,53.329,0,70.237,0h214.491c16.908,0,30.667,13.741,30.699,30.642h13.78c2.762,0,5,2.238,5,5v271.821
	c0,2.762-2.238,5-5,5h-10.815V347C318.393,349.762,316.154,352,313.393,352z M46.572,342h261.82v-28.549H46.572V342z
	 M27.792,302.463h296.416V114.774H27.792V302.463z M27.792,104.774h296.416V40.642H27.792V104.774z M181.988,30.642h123.439
	C305.396,19.255,296.123,10,284.729,10h-102.74V30.642z M49.537,30.642h122.451V10H70.237C58.843,10,49.569,19.255,49.537,30.642z
	 M264.353,274.901H87.646c-18.352,0-33.282-14.931-33.282-33.282v-76.544c0-18.353,14.931-33.283,33.282-33.283h176.706
	c18.353,0,33.283,14.931,33.283,33.283v76.544C297.636,259.971,282.705,274.901,264.353,274.901z M64.364,239.318v2.301
	c0,12.838,10.444,23.282,23.282,23.282h176.706c12.839,0,23.283-10.444,23.283-23.282v-2.301H64.364z M64.364,229.318h223.271
	v-44.364H64.364V229.318z M64.364,174.954h223.271v-9.879c0-12.839-10.444-23.283-23.283-23.283H87.646
	c-12.838,0-23.282,10.444-23.282,23.283V174.954z M280.28,90.063c-9.57,0-17.355-7.785-17.355-17.355s7.785-17.355,17.355-17.355
	s17.355,7.785,17.355,17.355S289.851,90.063,280.28,90.063z M280.28,65.353c-4.056,0-7.355,3.3-7.355,7.355s3.3,7.355,7.355,7.355
	s7.355-3.3,7.355-7.355S284.336,65.353,280.28,65.353z M210.76,90.063c-9.569,0-17.355-7.785-17.355-17.355
	s7.786-17.355,17.355-17.355c9.57,0,17.355,7.785,17.355,17.355S220.33,90.063,210.76,90.063z M210.76,65.353
	c-4.056,0-7.355,3.3-7.355,7.355s3.3,7.355,7.355,7.355s7.355-3.3,7.355-7.355S214.815,65.353,210.76,65.353z M141.24,90.063
	c-9.57,0-17.355-7.785-17.355-17.355s7.785-17.355,17.355-17.355c9.569,0,17.355,7.785,17.355,17.355S150.81,90.063,141.24,90.063z
	 M141.24,65.353c-4.056,0-7.355,3.3-7.355,7.355s3.3,7.355,7.355,7.355s7.355-3.3,7.355-7.355S145.296,65.353,141.24,65.353z
	 M71.72,90.063c-9.57,0-17.355-7.785-17.355-17.355s7.785-17.355,17.355-17.355s17.355,7.785,17.355,17.355
	S81.29,90.063,71.72,90.063z M71.72,65.353c-4.056,0-7.355,3.3-7.355,7.355s3.3,7.355,7.355,7.355s7.355-3.3,7.355-7.355
	S75.775,65.353,71.72,65.353z M266.937,25.815h-38.55c-2.762,0-5-2.238-5-5s2.238-5,5-5h38.55c2.762,0,5,2.238,5,5
	S269.698,25.815,266.937,25.815z M136.462,25.815H88.029c-2.762,0-5-2.238-5-5s2.238-5,5-5h48.433c2.762,0,5,2.238,5,5
	S139.224,25.815,136.462,25.815z"/>
<g>
</g>
<g>
</g>
<g>
</g>
<g>
</g>
<g>
</g>
<g>
</g>
<g>
</g>
<g>
</g>
<g>
</g>
<g>
</g>
<g>
</g>
<g>
</g>
<g>
</g>
<g>
</g>
<g>
</g>
</svg>
