<?xml version="1.0" encoding="iso-8859-1"?>
<!-- Generator: Adobe Illustrator 17.1.0, SVG Export Plug-In . SVG Version: 6.00 Build 0)  -->
<!DOCTYPE svg PUBLIC "-//W3C//DTD SVG 1.1//EN" "http://www.w3.org/Graphics/SVG/1.1/DTD/svg11.dtd">
<svg version="1.1" id="Capa_1" xmlns="http://www.w3.org/2000/svg" xmlns:xlink="http://www.w3.org/1999/xlink" x="0px" y="0px"
	 viewBox="0 0 404 404" style="enable-background:new 0 0 404 404;" xml:space="preserve">
<path d="M311.764,342.087H92.653c-27.54,0-49.945-22.405-49.945-49.945v-70.055H17.083C7.663,222.087,0,214.423,0,205.003v-0.833
	c0-9.419,7.663-17.083,17.083-17.083h25.625v-21c0-2.761,2.238-5,5-5h309c2.762,0,5,2.239,5,5v21h25.209
	c9.42,0,17.083,7.664,17.083,17.083v0.833c0,9.42-7.663,17.083-17.083,17.083h-25.209v70.055
	C361.708,319.682,339.303,342.087,311.764,342.087z M52.708,171.087v121.055c0,22.026,17.919,39.945,39.945,39.945h219.11
	c22.025,0,39.944-17.919,39.944-39.945V171.087H52.708z M362,212.087h24.917c3.905,0,7.083-3.178,7.083-7.083v-0.833
	c0-3.906-3.178-7.083-7.083-7.083H362V212.087z M17.083,197.087c-3.905,0-7.083,3.177-7.083,7.083v0.833
	c0,3.906,3.178,7.083,7.083,7.083H42v-15H17.083z M70,293.087c-2.762,0-5-2.239-5-5v-104c0-2.761,2.238-5,5-5s5,2.239,5,5v104
	C75,290.848,72.762,293.087,70,293.087z M363.406,154.087H41.01c-1.745,0-3.364-0.91-4.271-2.402
	c-0.907-1.491-0.971-3.348-0.168-4.897c11.598-22.394,68.42-39.191,142.138-42.22v-5.283c-6.1-3.487-10-10.022-10-17.222v-0.3
	c0-10.945,8.905-19.85,19.851-19.85h27.3c10.945,0,19.85,8.905,19.85,19.85v0.3c0,7.199-3.9,13.735-10,17.222v5.283
	c73.719,3.029,130.541,19.826,142.139,42.22c0.802,1.55,0.738,3.406-0.169,4.898C366.771,153.177,365.151,154.087,363.406,154.087z
	 M51.881,144.087h300.654c-17.509-14.085-64.07-27.49-131.99-29.702c-2.696-0.088-4.837-2.299-4.837-4.998v-8.3h-27v8.3
	c0,2.698-2.141,4.91-4.837,4.998C115.957,116.597,69.394,130.003,51.881,144.087z M184.637,91.087h35.143
	c3.575-1.552,5.929-5.088,5.929-9.023v-0.3c0-5.431-4.419-9.85-9.85-9.85h-27.3c-5.432,0-9.851,4.419-9.851,9.85v0.3
	C178.708,85.999,181.062,89.535,184.637,91.087z"/>
<g>
</g>
<g>
</g>
<g>
</g>
<g>
</g>
<g>
</g>
<g>
</g>
<g>
</g>
<g>
</g>
<g>
</g>
<g>
</g>
<g>
</g>
<g>
</g>
<g>
</g>
<g>
</g>
<g>
</g>
</svg>
