<?xml version="1.0" encoding="iso-8859-1"?>
<!-- Generator: Adobe Illustrator 17.1.0, SVG Export Plug-In . SVG Version: 6.00 Build 0)  -->
<!DOCTYPE svg PUBLIC "-//W3C//DTD SVG 1.1//EN" "http://www.w3.org/Graphics/SVG/1.1/DTD/svg11.dtd">
<svg version="1.1" id="Capa_1" xmlns="http://www.w3.org/2000/svg" xmlns:xlink="http://www.w3.org/1999/xlink" x="0px" y="0px"
	 viewBox="0 0 362.529 362.529" style="enable-background:new 0 0 362.529 362.529;" xml:space="preserve">
<path d="M34.639,362.529c-5.187,0-10.103-1.937-13.911-5.496c-0.001-0.001-0.002-0.002-0.003-0.003l-6.109-5.718
	c-8.191-7.66-8.638-20.555-1.005-28.77l69.32-77.444c0.024-0.026,0.049-0.054,0.073-0.08c3.719-3.977,8.763-6.267,14.204-6.447
	c2.21-0.077,4.383,0.204,6.447,0.812l17.28-18.476c-20.248-23.068-31.811-52.169-32.849-83.249
	c-1.188-35.561,11.544-69.456,35.852-95.443c24.304-25.985,57.273-40.951,92.835-42.139c35.575-1.187,69.456,11.545,95.439,35.851
	c53.64,50.174,56.463,134.635,6.292,188.276v0.001c-47.103,50.354-124.417,55.926-178.087,14.917l-17.293,18.487
	c2.563,6.985,1.204,15.131-4.194,20.935l-69.315,77.444c-0.023,0.026-0.048,0.053-0.072,0.079c-3.718,3.979-8.763,6.27-14.206,6.451
	C35.104,362.525,34.871,362.529,34.639,362.529z M27.556,349.726c2.028,1.897,4.693,2.885,7.447,2.797
	c2.756-0.092,5.311-1.246,7.2-3.25l69.312-77.439c0.024-0.027,0.049-0.054,0.074-0.081c2.685-2.869,3.421-6.873,2.266-10.367
	c-0.222-0.148-0.435-0.317-0.636-0.506l-12.174-11.387c-0.203-0.189-0.387-0.393-0.551-0.605c-0.953-0.246-1.947-0.357-2.953-0.322
	c-2.755,0.092-5.31,1.245-7.2,3.248L21.03,329.248c-0.024,0.026-0.048,0.053-0.073,0.079c-3.911,4.186-3.691,10.772,0.49,14.683
	L27.556,349.726z M221.323,10c-1.402,0-2.807,0.023-4.216,0.07c-32.893,1.099-63.387,14.94-85.866,38.976
	c-22.482,24.036-34.259,55.388-33.16,88.278c1.1,32.891,14.942,63.386,38.979,85.869c49.612,46.407,127.733,43.795,174.143-5.821
	c46.404-49.614,43.793-127.735-5.821-174.143C282.378,21.711,252.67,10,221.323,10z M112.433,244.637l4.872,4.556l14.484-15.484
	l-4.873-4.557L112.433,244.637z M221.187,242.46c-26.766,0-53.586-9.741-74.629-29.424c-21.322-19.944-33.602-46.998-34.576-76.178
	s9.473-56.991,29.416-78.312c19.943-21.321,46.996-33.6,76.175-34.574c29.205-0.953,56.991,9.474,78.312,29.417
	c21.321,19.939,33.601,46.99,34.576,76.17c0.975,29.179-9.472,56.992-29.415,78.314c0,0,0,0,0,0.001
	C279.56,230.846,250.405,242.46,221.187,242.46z M221.303,33.911c-1.131,0-2.261,0.019-3.396,0.057
	c-26.51,0.885-51.087,12.04-69.206,31.411c-18.119,19.369-27.609,44.636-26.724,71.146c0.885,26.51,12.041,51.089,31.412,69.209
	c39.987,37.4,102.95,35.297,140.354-4.689l0,0c18.118-19.373,27.608-44.641,26.723-71.15s-12.041-51.086-31.412-69.2
	C270.513,43.349,246.565,33.911,221.303,33.911z M243.628,197.279c-9.155,0-17.901-3.793-24.199-10.33
	c-8.668,5.227-18.483,7.968-28.655,7.968c-30.744,0-55.756-25.01-55.756-55.75c0-29.135,22.051-52.942,50.741-55.476
	c7.716-14.605,22.934-23.885,39.586-23.885c15.6,0,29.949,8.071,38.091,21.242c23.56,2.479,41.63,22.291,41.63,46.269
	c0,18.773-11.316,35.635-28.458,42.879C273.553,185.84,259.889,197.279,243.628,197.279z M220.397,175.323
	c0.268,0,0.536,0.021,0.804,0.065c1.311,0.213,2.481,0.938,3.256,2.016c4.445,6.184,11.612,9.875,19.172,9.875
	c12.169,0,22.268-9.116,23.49-21.205c0.196-1.937,1.497-3.583,3.336-4.221c14.721-5.108,24.611-18.987,24.611-34.536
	c0-19.559-15.317-35.587-34.871-36.489c-1.759-0.082-3.345-1.082-4.177-2.634c-6.078-11.342-17.831-18.388-30.673-18.388
	c-13.735,0-26.215,8.133-31.793,20.721c-0.775,1.75-2.483,2.903-4.396,2.971c-24.75,0.865-44.138,20.926-44.138,45.669
	c0,25.227,20.526,45.75,45.756,45.75c9.615,0,18.848-2.991,26.7-8.65C218.33,175.649,219.355,175.323,220.397,175.323z
	 M207.842,153.732c-16.352,0-29.654-13.303-29.654-29.654s13.303-29.654,29.654-29.654c16.353,0,29.657,13.303,29.657,29.654
	S224.194,153.732,207.842,153.732z M207.842,104.424c-10.838,0-19.654,8.816-19.654,19.654c0,10.837,8.816,19.654,19.654,19.654
	c10.839,0,19.657-8.817,19.657-19.654C227.499,113.24,218.681,104.424,207.842,104.424z M199.195,126.459
	c-0.698,0-1.408-0.146-2.084-0.457c-2.51-1.153-3.609-4.121-2.457-6.631c3.054-6.648,9.299-9.503,10.001-9.807
	c2.535-1.096,5.478,0.071,6.573,2.605c1.091,2.521-0.058,5.447-2.565,6.557c-0.129,0.06-3.464,1.646-4.921,4.818
	C202.9,125.378,201.089,126.459,199.195,126.459z"/>
<g>
</g>
<g>
</g>
<g>
</g>
<g>
</g>
<g>
</g>
<g>
</g>
<g>
</g>
<g>
</g>
<g>
</g>
<g>
</g>
<g>
</g>
<g>
</g>
<g>
</g>
<g>
</g>
<g>
</g>
</svg>
