<?xml version="1.0" encoding="iso-8859-1"?>
<!-- Generator: Adobe Illustrator 17.1.0, SVG Export Plug-In . SVG Version: 6.00 Build 0)  -->
<!DOCTYPE svg PUBLIC "-//W3C//DTD SVG 1.1//EN" "http://www.w3.org/Graphics/SVG/1.1/DTD/svg11.dtd">
<svg version="1.1" id="Capa_1" xmlns="http://www.w3.org/2000/svg" xmlns:xlink="http://www.w3.org/1999/xlink" x="0px" y="0px"
	 viewBox="0 0 365.001 365.001" style="enable-background:new 0 0 365.001 365.001;" xml:space="preserve">
<path d="M152.453,284.706H30.547C13.703,284.706,0,271.003,0,254.159V85.295c0-2.762,2.239-5,5-5h173c2.761,0,5,2.238,5,5v20.764
	l174.316-25.039c2.714-0.386,5.236,1.479,5.653,4.188l1.973,12.824c0.406,2.64-1.333,5.133-3.951,5.661L183,139.681v114.479
	C183,271.003,169.297,284.706,152.453,284.706z M10,90.295v163.864c0,11.329,9.217,20.547,20.547,20.547h121.906
	c11.33,0,20.547-9.218,20.547-20.547V90.295H10z M184.464,115.951v13.231l23.154-4.682l-1.933-11.598L184.464,115.951z
	 M215.586,111.48l1.839,11.038l136.907-27.681l-0.495-3.216L215.586,111.48z M27,240.295c-2.761,0-5-2.238-5-5v-125
	c0-2.762,2.239-5,5-5s5,2.238,5,5v125C32,238.057,29.761,240.295,27,240.295z"/>
<g>
</g>
<g>
</g>
<g>
</g>
<g>
</g>
<g>
</g>
<g>
</g>
<g>
</g>
<g>
</g>
<g>
</g>
<g>
</g>
<g>
</g>
<g>
</g>
<g>
</g>
<g>
</g>
<g>
</g>
</svg>
