<?xml version="1.0" encoding="iso-8859-1"?>
<!-- Generator: Adobe Illustrator 17.1.0, SVG Export Plug-In . SVG Version: 6.00 Build 0)  -->
<!DOCTYPE svg PUBLIC "-//W3C//DTD SVG 1.1//EN" "http://www.w3.org/Graphics/SVG/1.1/DTD/svg11.dtd">
<svg version="1.1" id="Capa_1" xmlns="http://www.w3.org/2000/svg" xmlns:xlink="http://www.w3.org/1999/xlink" x="0px" y="0px"
	 viewBox="0 0 429.667 429.667" style="enable-background:new 0 0 429.667 429.667;" xml:space="preserve">
<path d="M211.608,306.937H44.166C19.813,306.937,0,287.125,0,262.771v-71.009c0-0.251,0.019-0.498,0.054-0.739
	c-0.01-0.242-0.002-0.485,0.024-0.729c1.153-10.891,14.889-19.747,40.828-26.323c19.784-5.016,44.848-8.131,71.78-8.985v-6.37
	c-4.792-2.04-8.161-6.798-8.161-12.326v-0.17c0-7.383,6.007-13.39,13.39-13.39h19.944c7.383,0,13.39,6.007,13.39,13.39v0.17
	c0,5.768-3.665,10.694-8.789,12.575v6.102c27.171,0.825,52.469,3.95,72.407,9.005c25.938,6.576,39.675,15.433,40.827,26.323
	c0.026,0.242,0.034,0.485,0.024,0.726c0.036,0.242,0.055,0.49,0.055,0.742v3.873l166.299-23.889
	c2.709-0.383,5.236,1.479,5.653,4.189l1.883,12.242c0.406,2.639-1.333,5.132-3.951,5.66l-169.884,34.348v34.585
	C255.773,287.125,235.961,306.937,211.608,306.937z M10,196.762v66.009c0,18.839,15.327,34.166,34.166,34.166h167.442
	c18.839,0,34.166-15.327,34.166-34.166v-66.009H10z M257.343,205.512v12.154l21.613-4.369l-1.773-10.635L257.343,205.512z
	 M287.084,201.24l1.679,10.074l130.236-26.331l-0.405-2.634L287.084,201.24z M13.834,185.821h228.105
	c-12.391-10.099-54.058-21.074-114.053-21.074S26.225,175.722,13.834,185.821z M122.686,153.804h9.775v-4.125h-9.775V153.804z
	 M137.46,139.679h0.398c1.869,0,3.39-1.521,3.39-3.39v-0.17c0-1.869-1.521-3.39-3.39-3.39h-19.944c-1.869,0-3.39,1.521-3.39,3.39
	v0.17c0,1.869,1.521,3.39,3.39,3.39H137.46z M24.461,268.329c-2.761,0-5-2.238-5-5v-54.616c0-2.762,2.239-5,5-5s5,2.238,5,5v54.616
	C29.461,266.09,27.222,268.329,24.461,268.329z"/>
<g>
</g>
<g>
</g>
<g>
</g>
<g>
</g>
<g>
</g>
<g>
</g>
<g>
</g>
<g>
</g>
<g>
</g>
<g>
</g>
<g>
</g>
<g>
</g>
<g>
</g>
<g>
</g>
<g>
</g>
</svg>
