<?xml version="1.0" encoding="iso-8859-1"?>
<!-- Generator: Adobe Illustrator 17.1.0, SVG Export Plug-In . SVG Version: 6.00 Build 0)  -->
<!DOCTYPE svg PUBLIC "-//W3C//DTD SVG 1.1//EN" "http://www.w3.org/Graphics/SVG/1.1/DTD/svg11.dtd">
<svg version="1.1" id="Capa_1" xmlns="http://www.w3.org/2000/svg" xmlns:xlink="http://www.w3.org/1999/xlink" x="0px" y="0px"
	 viewBox="0 0 342.016 342.016" style="enable-background:new 0 0 342.016 342.016;" xml:space="preserve">
<path d="M135.945,342.016c-13.901,0-29.353-4.285-42.407-11.9c-17.333-10.111-33.113-37.252-40.2-69.147
	c-6.486-29.187-16.39-85.195-9.837-132.378c2.942-21.184,10.461-37.86,22.348-49.563c12.297-12.108,26.233-15.911,35.76-16.969
	c12.966-1.439,22.537,0.705,28.631,3.011c-0.195-3.573-0.752-7.064-1.851-8.896c-3.833-6.387-12.337-17.103-26.229-17.103
	c-10.736,0-20.897,8.998-27.621,14.953c-2.845,2.519-4.9,4.339-6.762,5.27c-6.878,3.439-17.577,1.621-24.889-4.229
	c-3.21-2.568-5.514-6.273-6.846-11.013c-1.504-5.348-0.248-11.069,3.361-15.303c4.703-5.517,15.711-15.942,36.588-23.771
	c32.104-12.038,59.388,0.476,72.795,9.008c11.341,7.217,27.075,30.218,33.853,40.643c5.106-4.096,13.56-10.16,20.84-11.98
	c9.416-2.354,20.733,1.604,24.938,3.306c2.287-0.407,6.736-1.014,12.894-1.014c21.518,0,39.354,10.62,53.013,31.563
	c15.979,24.5,12.848,63.756,9.819,101.72c-0.647,8.126-1.26,15.803-1.691,23.358c-2.55,44.611-7.839,67.878-20.213,88.914
	C263.87,321.72,244.493,336.9,223.001,336.9c-20.006,0-35.266-11.717-41.802-17.757c-8.175,6.682-27.552,21.53-39.525,22.619
	C139.802,341.932,137.888,342.016,135.945,342.016z M109.961,71.584c-2.242,0-4.657,0.125-7.249,0.413
	c-12.599,1.4-42.623,9.851-49.307,57.97c-6.573,47.332,4.59,105.865,9.694,128.833c7.404,33.322,23.153,55.491,35.478,62.679
	c12.953,7.556,29.111,11.513,42.191,10.325c8.604-0.782,27.546-14.656,37.465-23.218c2.079-1.796,5.222-1.577,7.03,0.492
	c0.15,0.17,15.978,17.822,37.737,17.822c17.398,0,34.429-13.955,50.618-41.477c11.469-19.497,16.4-41.586,18.848-84.414
	c0.438-7.668,1.084-15.759,1.708-23.583c2.895-36.292,5.888-73.819-8.229-95.462c-11.694-17.934-26.713-27.026-44.636-27.026
	c-7.704,0-12.188,1.065-12.231,1.076c-1.086,0.263-2.248,0.159-3.265-0.303c-3.304-1.491-13.335-5.006-19.909-3.363
	c-5.493,1.373-13.163,6.941-17.897,10.807l4.586,7.135c4.765-3.389,14.114-8.571,27.634-9.472c2.78-0.181,5.139,1.902,5.322,4.656
	c0.184,2.755-1.901,5.138-4.656,5.321c-16.247,1.083-24.787,9.448-24.872,9.532c-1.283,1.285-3.165,1.77-4.908,1.272
	c-0.023-0.004-8.035-2-25.779,1.328c-17.597,3.299-37.269,25.218-37.465,25.439c-0.054,0.061-0.111,0.122-0.168,0.18
	c-0.181,0.193-21.46,23.744-9.193,92.622c11.88,66.712,20.991,76.732,21.373,77.126c-0.268-0.276-0.429-0.346-0.429-0.346
	l-5.734,8.192c-2.743-1.92-12.656-13.596-25.056-83.22c-12.984-72.916,9.745-99.084,11.789-101.262
	c0.596-0.666,4.179-4.617,9.56-9.403l0.155-16.322C127.136,74.321,120.449,71.584,109.961,71.584z M140.202,72.145l-0.114,12.029
	c7.029-5.017,15.236-9.545,23.402-11.076c7.274-1.364,13.132-1.924,17.69-2.069l-6.327-9.842c-0.179-0.278-0.326-0.568-0.444-0.864
	c-7.536-11.566-22.092-32.238-30.991-37.901c-11.834-7.531-35.875-18.596-63.914-8.081c-18.771,7.039-28.413,16.113-32.49,20.895
	c-1.441,1.691-1.944,3.976-1.344,6.109c0.519,1.847,1.541,4.371,3.466,5.91c4.613,3.691,11.169,4.594,14.17,3.094
	c0.726-0.377,2.876-2.282,4.604-3.812c7.377-6.533,19.724-17.466,34.251-17.466c18.818,0,29.883,13.757,34.803,21.957
	C140.687,57.234,140.443,68.097,140.202,72.145z"/>
<g>
</g>
<g>
</g>
<g>
</g>
<g>
</g>
<g>
</g>
<g>
</g>
<g>
</g>
<g>
</g>
<g>
</g>
<g>
</g>
<g>
</g>
<g>
</g>
<g>
</g>
<g>
</g>
<g>
</g>
</svg>
