<?xml version="1.0" encoding="iso-8859-1"?>
<!-- Generator: Adobe Illustrator 17.1.0, SVG Export Plug-In . SVG Version: 6.00 Build 0)  -->
<!DOCTYPE svg PUBLIC "-//W3C//DTD SVG 1.1//EN" "http://www.w3.org/Graphics/SVG/1.1/DTD/svg11.dtd">
<svg version="1.1" id="Capa_1" xmlns="http://www.w3.org/2000/svg" xmlns:xlink="http://www.w3.org/1999/xlink" x="0px" y="0px"
	 viewBox="0 0 382.625 382.625" style="enable-background:new 0 0 382.625 382.625;" xml:space="preserve">
<path d="M215.502,382.625c-8.69,0-15.655-0.065-21.6-1.289c-1.719-0.354-3.461-0.354-5.18,0c-6.295,1.296-13.736,1.292-23.152,1.289
	l-1.592,0c-26.536,0-48.192-9.457-62.627-27.347c-10.846-13.442-17.623-31.991-18.592-50.893
	c-1.635-31.892,6.345-52.903,35.579-93.676c17.098-23.847,23.798-57.895,28.691-82.756c3.608-18.334,6.215-31.581,11.661-37.753
	c8.832-10.009,20.775-10.346,28.3-9.262c0.269-6.828-0.399-20.842-8.103-36.842c-10.949-22.74-26.156-33.176-26.309-33.278
	c-2.285-1.542-2.897-4.645-1.362-6.934c1.536-2.289,4.627-2.908,6.92-1.379c0.711,0.474,17.553,11.9,29.76,37.253
	c1.735,3.604,3.155,7.116,4.313,10.491l15.485-11.149c2.251-11.745,12.228-32.192,37.046-37.457
	c32.426-6.88,46.796,10.031,47.392,10.754c1.041,1.264,1.397,2.957,0.954,4.532c-0.365,1.3-9.221,31.885-32.684,36.985
	c-18.247,3.969-39.687-3.389-47.302-6.386l-18.023,12.977c1.846,8.473,2.103,15.536,1.944,20.256
	c7.547-0.831,18.606,0.024,26.913,9.438c5.446,6.172,8.054,19.419,11.662,37.754c4.893,24.86,11.594,58.908,28.69,82.754
	c29.233,40.773,37.214,61.785,35.578,93.676l-4.993-0.256l4.993,0.256c-0.958,18.68-7.931,37.24-19.13,50.92
	c-14.631,17.873-36.102,27.319-62.089,27.319l-1.592,0C216.532,382.625,216.013,382.625,215.502,382.625z M191.313,371.069
	c1.539,0,3.079,0.157,4.607,0.473c5.293,1.089,12.283,1.08,21.131,1.083l1.596,0c53.446,0,69.923-43.216,71.232-68.751
	c1.515-29.532-5.733-48.306-33.719-87.337c-18.362-25.612-25.306-60.891-30.375-86.651c-2.928-14.875-5.693-28.926-9.349-33.069
	c-7.839-8.883-20.123-6.109-23.702-5.048c-0.928,0.275-1.916,0.275-2.844,0c-3.579-1.062-15.864-3.835-23.703,5.048
	c-3.655,4.143-6.42,18.193-9.347,33.068c-5.07,25.76-12.013,61.04-30.376,86.652c-27.985,39.032-35.233,57.805-33.718,87.337
	c1.626,31.715,21.258,68.751,71.232,68.751l1.596,0c8.865-0.002,15.837,0.007,21.131-1.083
	C188.234,371.227,189.774,371.069,191.313,371.069z M218.11,38.727c7.662,2.864,25.643,8.573,40.168,5.416l0,0
	c14.101-3.065,21.739-20.313,24.246-27.144c-4.154-3.346-15.332-9.896-35.709-5.574C226.843,15.661,220.157,31.466,218.11,38.727z
	 M112.07,297.005c-2.676,0-4.893-2.119-4.993-4.815c-1.059-28.595,25.054-60.072,26.166-61.398c1.774-2.117,4.929-2.393,7.044-0.618
	c2.116,1.774,2.393,4.928,0.618,7.044c-0.339,0.406-24.749,29.918-23.834,54.602c0.102,2.759-2.052,5.08-4.812,5.182
	C112.195,297.004,112.132,297.005,112.07,297.005z"/>
<g>
</g>
<g>
</g>
<g>
</g>
<g>
</g>
<g>
</g>
<g>
</g>
<g>
</g>
<g>
</g>
<g>
</g>
<g>
</g>
<g>
</g>
<g>
</g>
<g>
</g>
<g>
</g>
<g>
</g>
</svg>
