<?xml version="1.0" encoding="iso-8859-1"?>
<!-- Generator: Adobe Illustrator 17.1.0, SVG Export Plug-In . SVG Version: 6.00 Build 0)  -->
<!DOCTYPE svg PUBLIC "-//W3C//DTD SVG 1.1//EN" "http://www.w3.org/Graphics/SVG/1.1/DTD/svg11.dtd">
<svg version="1.1" id="Capa_1" xmlns="http://www.w3.org/2000/svg" xmlns:xlink="http://www.w3.org/1999/xlink" x="0px" y="0px"
	 viewBox="0 0 349.479 349.479" style="enable-background:new 0 0 349.479 349.479;" xml:space="preserve">
<path d="M20.935,349.479c-1.947,0-3.606-0.521-5.038-1.786c-1.258-1.11-4.6-4.06-4.384-9.061c0.267-6.171,5.86-12.857,18.703-22.354
	c15.566-11.514,29.056-14.188,55.931-19.514c10.876-2.156,24.412-4.839,41.345-8.755c56.487-13.064,74.593-29.934,103.716-77.404
	c27.517-44.85,28.99-81.262,29.062-84.202c-1.759-1.097-2.722-3.243-2.251-5.378c0.167-0.755,1.896-7.652,11.195-17.353
	c8.188-8.542,10.69-11.687,13.865-27.042c0.37-1.791,0.731-3.57,1.091-5.342c3.067-15.115,5.964-29.393,13.261-45.312
	c8.338-18.191,16.882-26.896,25.338-25.899c5.063,0.602,12.091,2.456,14.67,11.577c1.901,6.73-1.662,12.287-4.23,14.68
	c-1.384,1.521-14.02,15.666-17.387,28.903c-2.547,10.014-4.878,26.187-3.062,38.813c1.985,13.801,9.893,36.68,9.972,36.91
	c0.82,2.365-0.237,4.927-2.386,6.06c0.754,3.368,1.319,8.227,0.97,14.893c-0.937,17.854-7.365,43.167-15.998,62.989
	c-8.217,18.866-38.515,82.069-83.413,103.293c-44.874,21.213-81.138,24.02-105.134,25.877c-18.288,1.416-29.043-0.341-39.446-2.04
	c-5.335-0.872-10.375-1.695-16.362-2.078c-9.124-0.584-19.135,3.09-27.184,6.041C28.457,347.945,24.273,349.479,20.935,349.479z
	 M270.112,129.806c-0.769,10.834-5.172,44.94-30.381,86.028c-30.299,49.385-50.441,68.146-109.985,81.917
	c-17.087,3.952-30.709,6.652-41.654,8.821c-26.205,5.194-38.165,7.565-51.929,17.745c-14.888,11.01-14.662,14.746-14.658,14.782
	c0.007,0.019,0.048,0.112,0.216,0.311c1.843-0.322,5.697-1.735,8.617-2.806c8.46-3.101,20.049-7.353,31.264-6.631
	c6.477,0.414,11.997,1.316,17.336,2.188c9.819,1.604,19.971,3.262,37.063,1.938c23.265-1.8,58.423-4.521,101.632-24.948
	c41.748-19.735,70.653-80.188,78.519-98.246c8.2-18.829,14.301-42.748,15.18-59.52c0.37-7.06-0.478-11.408-1.124-13.601
	c-1.685-0.324-3.878-0.584-5.516-0.28c-2.439,0.454-3.812,1.742-3.869,1.797c-1.086,1.227-2.605,1.73-4.222,1.542
	c-1.627-0.191-2.951-1.277-3.723-2.722c-0.028-0.052-3.651-6.637-9.3-9.366C280.686,127.36,274.68,128.378,270.112,129.806z
	 M279.672,118.103c2.887,0,5.761,0.445,8.256,1.65c4.804,2.321,8.464,6.173,10.799,9.198c1.185-0.522,2.565-0.985,4.133-1.276
	c2.837-0.528,5.896-0.278,8.287,0.117c-2.604-8.114-6.826-22.182-8.285-32.318c-2.022-14.061,0.362-31.278,3.269-42.702
	c4.185-16.451,19.255-32.714,19.895-33.399c0.111-0.119,0.229-0.232,0.351-0.34c0.171-0.164,2.156-2.125,1.44-4.659
	c-0.783-2.77-1.842-3.846-6.226-4.366c-1.41-0.184-7.293,3.167-15.069,20.135c-6.815,14.871-9.601,28.599-12.55,43.134
	c-0.362,1.783-0.726,3.575-1.099,5.378c-3.597,17.394-6.963,22.052-16.439,31.938c-3.544,3.696-5.689,6.789-6.959,8.994
	C272.408,118.804,276.05,118.103,279.672,118.103z"/>
<g>
</g>
<g>
</g>
<g>
</g>
<g>
</g>
<g>
</g>
<g>
</g>
<g>
</g>
<g>
</g>
<g>
</g>
<g>
</g>
<g>
</g>
<g>
</g>
<g>
</g>
<g>
</g>
<g>
</g>
</svg>
