<?xml version="1.0" encoding="iso-8859-1"?>
<!-- Generator: Adobe Illustrator 17.1.0, SVG Export Plug-In . SVG Version: 6.00 Build 0)  -->
<!DOCTYPE svg PUBLIC "-//W3C//DTD SVG 1.1//EN" "http://www.w3.org/Graphics/SVG/1.1/DTD/svg11.dtd">
<svg version="1.1" id="Capa_1" xmlns="http://www.w3.org/2000/svg" xmlns:xlink="http://www.w3.org/1999/xlink" x="0px" y="0px"
	 viewBox="0 0 332.001 332.001" style="enable-background:new 0 0 332.001 332.001;" xml:space="preserve">
<path d="M245.523,332.001H86.478c-4.8,0-9.229-2.803-11.284-7.141l-10.673-22.531c-0.326-0.651-0.514-1.383-0.525-2.158
	c0-0.002,0-0.005,0-0.008c0-0.002,0-0.004,0-0.006c0-0.004,0-0.008,0-0.013v-0.001c0-0.005,0-0.01,0-0.015v0
	c0-0.011,0-0.021,0-0.032l0,0c0-0.001,0-0.002,0-0.003V52.41c0,0.002,0,0.001,0,0.001V52.41c0-0.011,0-0.021,0-0.032c0,0,0,0,0,0
	c0-0.005,0-0.01,0-0.015c0,0,0-0.001,0-0.002c0-0.004,0-0.008,0-0.012c0-0.002,0-0.004,0-0.007s0-0.005,0-0.007
	c0.012-0.775,0.199-1.507,0.525-2.158l10.794-22.788c1.98-4.182,6.25-6.884,10.878-6.884h44.589c0.32-0.274,0.68-0.513,1.078-0.705
	l39.798-19.296c2.485-1.205,5.476-0.167,6.68,2.318c1.205,2.484,0.167,5.476-2.318,6.68l-22.693,11.003h92.48
	c4.627,0,8.897,2.702,10.878,6.884l10.794,22.788c0.326,0.651,0.514,1.383,0.525,2.158c0,0.002,0,0.005,0,0.007s0,0.004,0,0.007
	c0,0.004,0,0.008,0,0.012c0,0,0,0.001,0,0.001c0,0.005,0,0.011,0,0.016c0,0,0,0,0,0c0,0.011,0,0.021,0,0.032l0,0
	c0,0.001,0,0.002,0,0.003v247.682c0-0.002,0-0.001,0-0.001v0.001c0,0.011,0,0.021,0,0.032v0c0,0.005,0,0.01,0,0.015v0.001
	c0,0.004,0,0.008,0,0.013c0,0.002,0,0.004,0,0.006c0,0.002,0,0.005,0,0.008c-0.012,0.775-0.199,1.507-0.525,2.158l-10.673,22.531
	C254.752,329.199,250.323,332.001,245.523,332.001z M76.897,305.095l7.335,15.484c0.409,0.864,1.291,1.422,2.247,1.422h159.045
	c0.956,0,1.837-0.558,2.247-1.422l7.335-15.484H76.897z M73.996,295.095h184.01V57.41H73.996V295.095z M76.897,47.41h178.208
	l-7.457-15.741c-0.335-0.708-1.058-1.165-1.841-1.165H86.194c-0.783,0-1.505,0.457-1.841,1.165L76.897,47.41z M165.788,235.299
	c-35.375,0-64.153-28.779-64.153-64.154c0-35.374,28.779-64.153,64.153-64.153c35.374,0,64.153,28.779,64.153,64.153
	C229.942,206.519,201.162,235.299,165.788,235.299z M113.37,184.767c6.057,23.287,27.262,40.531,52.418,40.531
	c27.022,0,49.486-19.897,53.511-45.809c-5.519,5.345-13.674,9.515-25.221,9.515c-15.247,0-23.955-7.886-31.637-14.843
	c-6.445-5.836-12.01-10.876-20.829-10.876C123.912,163.285,114.385,182.593,113.37,184.767z M141.612,153.285
	c12.674,0,20.573,7.153,27.542,13.464c6.959,6.302,13.533,12.255,24.925,12.255c20.148,0,24.349-15.898,24.861-18.26
	c-4.863-24.903-26.847-43.753-53.151-43.753c-29.107,0-52.925,23.084-54.107,51.907
	C117.764,161.432,127.611,153.285,141.612,153.285z"/>
<g>
</g>
<g>
</g>
<g>
</g>
<g>
</g>
<g>
</g>
<g>
</g>
<g>
</g>
<g>
</g>
<g>
</g>
<g>
</g>
<g>
</g>
<g>
</g>
<g>
</g>
<g>
</g>
<g>
</g>
</svg>
