<?xml version="1.0" encoding="iso-8859-1"?>
<!-- Generator: Adobe Illustrator 17.1.0, SVG Export Plug-In . SVG Version: 6.00 Build 0)  -->
<!DOCTYPE svg PUBLIC "-//W3C//DTD SVG 1.1//EN" "http://www.w3.org/Graphics/SVG/1.1/DTD/svg11.dtd">
<svg version="1.1" id="Capa_1" xmlns="http://www.w3.org/2000/svg" xmlns:xlink="http://www.w3.org/1999/xlink" x="0px" y="0px"
	 viewBox="0 0 362.849 362.849" style="enable-background:new 0 0 362.849 362.849;" xml:space="preserve">
<path d="M225.773,362.849H86.061c-1.082,0-2.135-0.351-3-1c-0.364-0.273-9.058-6.911-20.643-25.867
	c-8.652-14.159-23.169-44.323-23.169-87.251c0-29.333,12.507-59.499,22.557-83.737c3.116-7.515,6.06-14.613,8.33-20.949
	c8.971-25.022,14.494-87.429,14.985-93.149c-0.125-0.932-0.846-5.012-4.769-15.604C75.604,22.469,63.97,8.329,63.854,8.187
	c-1.331-1.607-1.523-3.873-0.481-5.682c1.04-1.809,3.094-2.78,5.155-2.438l104.019,17.337c0.02,0.003,0.039,0.007,0.06,0.01
	l68.326,12.237c2.539,0.455,4.315,2.767,4.101,5.337c-0.025,0.307-1.623,19.599-2.807,40.095
	c10.075-1.987,29.455-4.024,44.315,5.214c22.14,13.762,36.56,75.224,37.032,104.104c0.468,28.445-5.113,46.005-18.095,56.936
	c-8.893,7.489-25.011,13.163-29.904,14.776c-1.969,60.288-44.417,103.423-46.266,105.271
	C228.371,362.323,227.1,362.849,225.773,362.849z M87.918,352.849h135.698c7.4-8.083,42.028-48.719,42.028-101.059
	c0-30.934-9.195-53.79-18.087-75.894c-2.282-5.674-4.53-11.262-6.6-16.897h-72.862c0.521,4.933-1.104,10.052-4.877,13.824
	l-13.819,13.819c-3.2,3.201-7.47,4.964-12.02,4.964s-8.819-1.763-12.021-4.965v0.001l-13.819-13.819
	c-3.772-3.772-5.397-8.892-4.876-13.824H75.085c-1.287,3.18-2.647,6.461-4.042,9.824c-9.71,23.419-21.794,52.565-21.794,79.907
	c0,40.48,13.597,68.773,21.702,82.036C79.009,343.953,85.395,350.518,87.918,352.849z M241.673,85.434
	c-0.418,8.629-0.702,16.94-0.702,23.585c0,23.711,7.706,42.866,15.864,63.146c8.651,21.505,17.578,43.698,18.693,73.384
	c6.136-2.196,17.319-6.647,23.509-11.859c7.047-5.934,15.067-16.88,14.538-49.123c-0.536-32.683-16.609-86.015-32.313-95.776
	C268.031,80.565,249.136,83.716,241.673,85.434z M116.799,159c-0.618,2.334-0.014,4.927,1.813,6.754l13.818,13.817
	c0,0.001,0,0.001,0,0.001c1.313,1.313,3.071,2.035,4.95,2.035s3.636-0.723,4.948-2.035l13.82-13.819
	c1.826-1.826,2.431-4.419,1.813-6.753H116.799z M163.433,149h74.095c-3.89-12.329-6.557-25.226-6.557-39.98
	c0-11.067,0.745-26.315,1.601-40.168L94.408,59.189c-1.804,18.84-6.943,66.151-14.858,88.23c-0.188,0.522-0.379,1.05-0.574,1.58
	h32.351c0.07-0.072,0.142-0.146,0.213-0.217l13.82-13.818c3.201-3.202,7.471-4.965,12.021-4.965s8.819,1.763,12.021,4.965
	l13.818,13.817C163.291,148.854,163.362,148.927,163.433,149z M125.465,149h23.829l-6.965-6.965
	c-1.313-1.313-3.07-2.035-4.949-2.035s-3.637,0.723-4.95,2.035L125.465,149z M94.975,49.205l138.245,9.667
	c0.576-8.481,1.131-15.746,1.481-20.177l-63.829-11.432L79.047,11.959c3.764,5.582,8.064,12.79,10.683,19.859
	C93.406,41.743,94.599,46.798,94.975,49.205z M87.086,323.079c-1.708,0-3.371-0.875-4.306-2.45
	c-0.736-1.242-18.036-30.851-18.036-68.838c0-37.78,19.076-77.038,19.889-78.69c1.217-2.478,4.211-3.502,6.69-2.282
	c2.479,1.217,3.501,4.212,2.285,6.69c-0.188,0.385-18.864,38.865-18.864,74.282c0,35.273,16.471,63.456,16.638,63.736
	c1.408,2.376,0.625,5.442-1.75,6.852C88.831,322.853,87.953,323.079,87.086,323.079z M145.493,311.372
	c-6.89,0-13.386-4.219-15.939-11.041l-5.23-13.979c-1.587-4.24-1.423-8.855,0.463-12.997s5.26-7.296,9.5-8.882l13.977-5.231
	c8.778-3.286,18.594,1.184,21.88,9.962l5.231,13.978c1.587,4.241,1.423,8.857-0.463,12.998c-1.886,4.142-5.26,7.296-9.5,8.883
	l-13.977,5.23C149.478,311.025,147.469,311.372,145.493,311.372z M154.214,268.163c-0.813,0-1.64,0.143-2.445,0.444l-13.978,5.231
	c-1.739,0.65-3.125,1.95-3.904,3.661c-0.778,1.71-0.849,3.609-0.198,5.348l5.23,13.979c1.354,3.615,5.397,5.453,9.01,4.102
	l13.977-5.23c1.739-0.651,3.126-1.951,3.904-3.662c0.779-1.71,0.85-3.609,0.199-5.348l-5.231-13.978
	C159.726,269.9,157.051,268.163,154.214,268.163z M205.249,245.425h-14.924c-9.374,0-17-7.626-17-17v-14.924c0-9.374,7.626-17,17-17
	h14.924c9.374,0,17,7.626,17,17v14.924C222.249,237.799,214.623,245.425,205.249,245.425z M190.325,206.501c-3.859,0-7,3.141-7,7
	v14.924c0,3.859,3.141,7,7,7h14.924c3.859,0,7-3.141,7-7v-14.924c0-3.859-3.141-7-7-7H190.325z"/>
<g>
</g>
<g>
</g>
<g>
</g>
<g>
</g>
<g>
</g>
<g>
</g>
<g>
</g>
<g>
</g>
<g>
</g>
<g>
</g>
<g>
</g>
<g>
</g>
<g>
</g>
<g>
</g>
<g>
</g>
</svg>
