<?xml version="1.0" encoding="iso-8859-1"?>
<!-- Generator: Adobe Illustrator 17.1.0, SVG Export Plug-In . SVG Version: 6.00 Build 0)  -->
<!DOCTYPE svg PUBLIC "-//W3C//DTD SVG 1.1//EN" "http://www.w3.org/Graphics/SVG/1.1/DTD/svg11.dtd">
<svg version="1.1" id="Capa_1" xmlns="http://www.w3.org/2000/svg" xmlns:xlink="http://www.w3.org/1999/xlink" x="0px" y="0px"
	 viewBox="0 0 332 332" style="enable-background:new 0 0 332 332;" xml:space="preserve">
<path d="M54.763,332c-0.65,0-1.305-0.126-1.928-0.387c-1.86-0.778-3.071-2.597-3.071-4.613V5c0-2.701,2.145-4.913,4.844-4.998
	c0.774-0.021,1.502,0.127,2.164,0.418c1.15,0.199,4.079,0.544,6.921,0.878c19.592,2.304,71.635,8.424,114.662,28.441
	c68.546,31.892,101.438,72.886,102.804,74.615c1.581,2,1.403,4.868-0.411,6.658L58.276,330.559
	C57.321,331.501,56.052,332,54.763,332z M59.764,101.724v213.317l28.525-28.149c-18.412-7.683-27.209-28.883-19.615-47.358
	c3.691-8.979,10.658-15.982,19.617-19.722c8.958-3.738,18.836-3.767,27.816-0.073c9.113,3.745,16.258,11.094,19.891,20.072
	l60.491-59.696c-0.621,0.314-1.255,0.606-1.903,0.877c-6.938,2.895-14.586,2.915-21.536,0.057
	c-6.951-2.857-12.374-8.251-15.269-15.188c-2.895-6.936-2.916-14.584-0.058-21.536c2.857-6.951,8.251-12.374,15.188-15.269
	c6.937-2.895,14.584-2.915,21.537-0.057c6.951,2.857,12.374,8.251,15.269,15.188c2.895,6.936,2.916,14.584,0.058,21.536
	c-0.333,0.811-0.702,1.602-1.103,2.37l34.299-33.848c-9.79-10.182-44.168-44.447-80.728-63.33
	C126.078,52.236,75.143,48.807,59.764,48.187v26.936c4.517-3.349,10.628-4.324,16.195-2.036c0,0.001,0,0.001,0,0.001
	c8.454,3.476,12.504,13.182,9.029,21.635s-13.183,12.503-21.635,9.03C62.048,103.216,60.848,102.53,59.764,101.724z M92.271,277.718
	c1.204,0.494,2.446,0.899,3.713,1.212l31.883-31.883c-1.998-8.17-7.679-14.819-15.563-18.06c-6.509-2.677-13.668-2.658-20.162,0.053
	c-6.494,2.711-11.544,7.787-14.219,14.296C72.4,256.77,78.837,272.194,92.271,277.718L92.271,277.718z M183.748,136.875
	c-2.368,0-4.734,0.47-6.985,1.409c-4.471,1.866-7.948,5.361-9.79,9.843c-1.842,4.48-1.829,9.411,0.037,13.883
	c1.866,4.471,5.361,7.947,9.842,9.789c4.481,1.843,9.411,1.83,13.882-0.036c4.472-1.866,7.948-5.361,9.791-9.843
	c1.842-4.48,1.829-9.411-0.037-13.883c-1.866-4.471-5.361-7.947-9.842-9.789c0-0.001,0-0.001,0-0.001
	C188.419,137.332,186.083,136.875,183.748,136.875z M59.764,38.165c15.683,0.556,68.398,3.894,107.067,23.865
	c38.222,19.741,72.971,54.417,83.268,65.181l20.301-20.034c-9.339-10.396-41.171-42.739-96.263-68.371
	c-41.57-19.34-92.455-25.323-111.611-27.576c-1-0.117-1.922-0.226-2.761-0.326V38.165z M69.665,81.843
	c-2.589,0-5.049,1.537-6.092,4.076c-1.378,3.354,0.229,7.205,3.583,8.585c3.357,1.379,7.205-0.229,8.583-3.584
	c1.379-3.354-0.228-7.204-3.583-8.584C71.341,82.001,70.496,81.843,69.665,81.843z M102.131,185.008
	c-3.077,0-6.153-0.603-9.084-1.808c-5.901-2.425-10.505-7.004-12.963-12.894c-2.458-5.888-2.475-12.382-0.049-18.284
	c5.008-12.183,18.997-18.015,31.178-13.012c12.184,5.01,18.021,18.996,13.012,31.179c-2.426,5.901-7.005,10.505-12.894,12.963
	C108.367,184.39,105.249,185.008,102.131,185.008z M102.148,147.217c-5.467,0-10.66,3.247-12.864,8.608
	c-1.411,3.432-1.4,7.207,0.028,10.631c1.429,3.423,4.105,6.085,7.537,7.495c3.432,1.412,7.207,1.4,10.63-0.027
	c3.424-1.429,6.086-4.105,7.497-7.537l0,0c2.912-7.083-0.481-15.214-7.565-18.127C105.689,147.553,103.904,147.217,102.148,147.217z
	 M131.312,118.995c-3.021,0-6.089-0.576-9.053-1.795c-5.901-2.426-10.505-7.004-12.963-12.894
	c-2.458-5.889-2.475-12.382-0.048-18.284c5.007-12.183,18.993-18.016,31.177-13.012l0,0.001
	c12.183,5.009,18.02,18.995,13.012,31.178C149.647,113.409,140.713,118.995,131.312,118.995z M131.361,81.217
	c-5.467,0-10.66,3.247-12.864,8.608c-1.411,3.432-1.401,7.207,0.028,10.631c1.429,3.423,4.105,6.085,7.536,7.495
	c3.431,1.412,7.206,1.4,10.63-0.027c3.423-1.429,6.086-4.105,7.497-7.537c2.912-7.083-0.482-15.215-7.565-18.127
	C134.901,81.553,133.117,81.217,131.361,81.217z"/>
<g>
</g>
<g>
</g>
<g>
</g>
<g>
</g>
<g>
</g>
<g>
</g>
<g>
</g>
<g>
</g>
<g>
</g>
<g>
</g>
<g>
</g>
<g>
</g>
<g>
</g>
<g>
</g>
<g>
</g>
</svg>
