<?xml version="1.0" encoding="iso-8859-1"?>
<!-- Generator: Adobe Illustrator 17.1.0, SVG Export Plug-In . SVG Version: 6.00 Build 0)  -->
<!DOCTYPE svg PUBLIC "-//W3C//DTD SVG 1.1//EN" "http://www.w3.org/Graphics/SVG/1.1/DTD/svg11.dtd">
<svg version="1.1" id="Capa_1" xmlns="http://www.w3.org/2000/svg" xmlns:xlink="http://www.w3.org/1999/xlink" x="0px" y="0px"
	 viewBox="0 0 378 378" style="enable-background:new 0 0 378 378;" xml:space="preserve">
<path d="M189,378C84.785,378,0,293.215,0,189S84.785,0,189,0c0.572,0,1.148,0.003,1.72,0.008c0.223-0.012,0.447-0.01,0.669,0.007
	C294.51,1.295,378,85.58,378,189C378,293.215,293.215,378,189,378z M186,10.024C88.675,11.629,10,91.299,10,189
	c0,98.701,80.299,179,179,179s179-80.299,179-179c0-47.712-18.768-91.128-49.304-123.247l-7.746,7.809
	C339.481,103.685,357,144.333,357,189c0,92.636-75.364,168-168,168S21,281.636,21,189C21,97.365,94.741,22.631,186,21.026V10.024z
	 M186,31.028C100.254,32.629,31,102.878,31,189c0,87.121,70.879,158,158,158s158-70.879,158-158
	c0-41.896-16.387-80.031-43.094-108.339l-32.374,32.634c0.357-0.171,0.721-0.333,1.089-0.487c5.762-2.404,12.114-2.421,17.888-0.048
	c0.001,0,0.001,0.001,0.001,0.001c11.919,4.9,17.63,18.584,12.731,30.503c-4.9,11.922-18.584,17.634-30.505,12.73
	c-5.773-2.373-10.278-6.854-12.683-12.615s-2.421-12.114-0.047-17.889c0.144-0.35,0.295-0.695,0.454-1.036l-65.726,66.253
	c-1.945,1.961-5.11,1.972-7.071,0.028c-0.036-0.036-0.071-0.072-0.106-0.109C186.599,189.715,186,188.428,186,187v-24.227
	c-9.292-3.138-16-11.937-16-22.273s6.708-19.136,16-22.273V31.028z M196,163.868v11.365L296.819,73.605
	C270.158,48.681,234.879,32.856,196,31.153v27.626c6.465-5.631,15.807-7.496,24.264-4.02c0.001,0,0.001,0.001,0.001,0.001
	c5.774,2.374,10.278,6.854,12.683,12.615s2.421,12.114,0.047,17.889c-2.373,5.773-6.853,10.278-12.614,12.683
	c-5.762,2.403-12.113,2.422-17.889,0.047c-2.436-1.001-4.611-2.368-6.491-4.013v23.15c11.786,1.253,21,11.255,21,23.368
	S207.786,162.615,196,163.868z M196,127.232v26.535c6.253-1.176,11-6.678,11-13.268S202.253,128.408,196,127.232z M186,129.28
	c-3.616,2.425-6,6.549-6,11.22s2.384,8.795,6,11.22V129.28z M281.622,120.998c-1.745,0-3.49,0.346-5.149,1.039
	c-3.296,1.375-5.859,3.952-7.217,7.255c-1.358,3.305-1.35,6.939,0.026,10.236c1.376,3.296,3.953,5.859,7.256,7.217
	c6.821,2.807,14.65-0.462,17.454-7.283c2.803-6.819-0.465-14.648-7.285-17.453l0.001,0.001
	C285.067,121.335,283.345,120.998,281.622,120.998z M211.396,63.005c-5.264,0-10.265,3.126-12.387,8.288
	c-2.803,6.82,0.465,14.649,7.284,17.452c3.306,1.358,6.939,1.349,10.235-0.026c3.296-1.376,5.859-3.953,7.217-7.256
	c1.358-3.305,1.35-6.939-0.026-10.235c-1.376-3.297-3.953-5.859-7.256-7.218l0,0C214.805,63.328,213.086,63.005,211.396,63.005z
	 M196,21.144c41.618,1.716,79.388,18.649,107.862,45.363l7.746-7.809C281.137,30.01,240.641,11.859,196,10.135V21.144z
	 M217.47,324.549c-3.34,0-6.733-0.638-10.01-1.984c-13.471-5.538-19.925-21.003-14.387-34.475
	c5.538-13.471,21.001-19.924,34.475-14.387l0,0c13.471,5.538,19.925,21.003,14.388,34.475
	C237.743,318.373,227.865,324.549,217.47,324.549z M217.525,281.719c-6.461,0-12.599,3.838-15.204,10.174
	c-3.441,8.371,0.57,17.981,8.941,21.424c8.372,3.438,17.981-0.57,21.424-8.941c3.44-8.371-0.57-17.981-8.941-21.424l0,0
	C221.71,282.115,219.601,281.719,217.525,281.719z M122.556,304.008c-2.68,0-5.359-0.525-7.913-1.575
	c-5.141-2.112-9.15-6.102-11.291-11.23c-2.141-5.13-2.156-10.785-0.043-15.926l0,0c2.113-5.142,6.103-9.152,11.231-11.293
	c5.131-2.14,10.786-2.154,15.927-0.043c10.612,4.362,15.697,16.546,11.335,27.159c-2.114,5.141-6.104,9.15-11.232,11.291
	C127.987,303.469,125.271,304.008,122.556,304.008z M122.555,272.372c-1.411,0-2.821,0.28-4.163,0.84
	c-2.664,1.112-4.735,3.195-5.833,5.865c0,0.001-0.001,0.001-0.001,0.001c-1.098,2.67-1.09,5.608,0.022,8.272
	c1.111,2.664,3.194,4.735,5.865,5.833c2.671,1.1,5.609,1.092,8.272-0.021c2.664-1.111,4.736-3.194,5.835-5.865
	c1.097-2.67,1.089-5.608-0.023-8.272c-1.111-2.665-3.194-4.737-5.865-5.834C125.339,272.645,123.946,272.372,122.555,272.372z
	 M74.379,266.44c-3.01,0-6.02-0.589-8.888-1.769C53.572,259.773,47.86,246.09,52.76,234.17c0-0.001,0-0.001,0.001-0.001
	c4.899-11.919,18.586-17.629,30.503-12.731c5.775,2.374,10.279,6.854,12.684,12.616s2.421,12.114,0.047,17.889
	c-2.373,5.773-6.853,10.278-12.614,12.683C80.479,265.835,77.43,266.44,74.379,266.44z M62.01,237.971
	c-1.358,3.304-1.349,6.938,0.027,10.235c1.376,3.296,3.953,5.859,7.256,7.217c3.305,1.357,6.938,1.349,10.235-0.026
	c3.296-1.376,5.859-3.953,7.217-7.256c2.805-6.82-0.463-14.649-7.283-17.454C72.64,227.888,64.812,231.152,62.01,237.971
	L62.01,237.971z M290.128,259.321c-2.68,0-5.359-0.525-7.913-1.575c-10.612-4.361-15.696-16.545-11.335-27.157
	c4.364-10.612,16.547-15.695,27.159-11.335c0,0.001,0,0.001,0,0.001c10.612,4.363,15.696,16.546,11.335,27.158
	c-2.114,5.141-6.104,9.15-11.232,11.291C295.56,258.782,292.844,259.321,290.128,259.321z M290.142,227.691
	c-4.255,0-8.297,2.527-10.013,6.7c-2.266,5.512,0.376,11.84,5.889,14.105c2.671,1.1,5.609,1.09,8.272-0.021
	c2.664-1.111,4.736-3.194,5.835-5.865c2.266-5.512-0.376-11.841-5.889-14.107v0.001
	C292.896,227.952,291.508,227.691,290.142,227.691z M219.068,256.996c-2.265,0-4.564-0.432-6.785-1.344
	c-9.132-3.755-13.507-14.237-9.752-23.369c3.754-9.131,14.234-13.504,23.369-9.753c0,0.001,0,0.001,0,0.001
	c4.423,1.818,7.874,5.25,9.716,9.664s1.855,9.28,0.036,13.704C232.812,252.81,226.115,256.996,219.068,256.996z M219.103,231.186
	c-3.112,0-6.068,1.849-7.323,4.9c-1.657,4.031,0.274,8.659,4.307,10.317c4.03,1.655,8.66-0.274,10.318-4.307
	c1.657-4.031-0.274-8.659-4.307-10.317v0.001C221.118,231.377,220.102,231.186,219.103,231.186z M149.864,233.005
	c-2.631,0-5.304-0.502-7.885-1.563c-10.612-4.363-15.696-16.547-11.335-27.159c0.001,0,0.001,0,0.001,0
	c4.363-10.612,16.547-15.697,27.158-11.333c5.141,2.112,9.15,6.102,11.291,11.23c2.142,5.13,2.156,10.786,0.042,15.927
	C165.836,228.139,158.054,233.005,149.864,233.005z M139.895,208.086c-2.267,5.512,0.375,11.841,5.888,14.107
	c2.669,1.098,5.607,1.089,8.272-0.022c2.664-1.112,4.736-3.195,5.833-5.866c1.099-2.67,1.091-5.608-0.021-8.272
	c-1.111-2.664-3.194-4.735-5.865-5.833c-2.672-1.1-5.609-1.09-8.272,0.021C143.064,203.332,140.992,205.415,139.895,208.086
	L139.895,208.086z M246.068,214.814c-2.265,0-4.564-0.433-6.785-1.346c-9.131-3.754-13.506-14.236-9.753-23.368
	c3.755-9.13,14.235-13.504,23.37-9.753v0.001c9.131,3.754,13.506,14.237,9.753,23.369
	C259.811,210.628,253.115,214.814,246.068,214.814z M246.103,189.003c-3.112,0-6.068,1.849-7.323,4.9
	c-1.656,4.031,0.275,8.659,4.307,10.317c4.031,1.654,8.66-0.274,10.318-4.306c1.657-4.031-0.274-8.66-4.307-10.318v0.001
	C248.117,189.194,247.102,189.003,246.103,189.003z M54.068,197.996c-2.265,0-4.564-0.432-6.785-1.344
	c-9.132-3.755-13.507-14.237-9.752-23.369c3.754-9.131,14.235-13.505,23.369-9.753c0,0.001,0,0.001,0,0.001
	c9.132,3.754,13.507,14.236,9.752,23.368C67.812,193.81,61.115,197.996,54.068,197.996z M54.103,172.186
	c-3.112,0-6.068,1.849-7.323,4.9c-0.803,1.952-0.797,4.102,0.017,6.05c0.813,1.949,2.337,3.464,4.29,4.268
	c4.03,1.656,8.661-0.274,10.318-4.307c1.657-4.031-0.274-8.659-4.307-10.317v0.001C56.118,172.377,55.102,172.186,54.103,172.186z
	 M317.911,197.824c-2.307,0-4.613-0.451-6.811-1.355c-9.131-3.754-13.506-14.236-9.753-23.368c3.756-9.13,14.235-13.505,23.37-9.753
	v0.001c9.131,3.754,13.506,14.237,9.753,23.369c-1.819,4.423-5.251,7.874-9.665,9.716
	C322.584,197.36,320.247,197.824,317.911,197.824z M317.92,172.004c-3.111,0-6.068,1.848-7.323,4.899
	c-1.656,4.031,0.275,8.659,4.307,10.317c1.954,0.803,4.104,0.797,6.051-0.016c1.949-0.813,3.464-2.337,4.268-4.29
	c1.657-4.031-0.274-8.66-4.307-10.318v0.001C319.936,172.194,318.92,172.004,317.92,172.004z M109.5,176
	C96.542,176,86,165.458,86,152.5S96.542,129,109.5,129s23.5,10.542,23.5,23.5S122.458,176,109.5,176z M109.5,139
	c-7.444,0-13.5,6.056-13.5,13.5s6.056,13.5,13.5,13.5s13.5-6.056,13.5-13.5S116.944,139,109.5,139z M126.5,113
	c-14.612,0-26.5-11.888-26.5-26.5S111.888,60,126.5,60S153,71.888,153,86.5S141.112,113,126.5,113z M126.5,70
	c-9.098,0-16.5,7.402-16.5,16.5s7.402,16.5,16.5,16.5S143,95.598,143,86.5S135.598,70,126.5,70z"/>
<g>
</g>
<g>
</g>
<g>
</g>
<g>
</g>
<g>
</g>
<g>
</g>
<g>
</g>
<g>
</g>
<g>
</g>
<g>
</g>
<g>
</g>
<g>
</g>
<g>
</g>
<g>
</g>
<g>
</g>
</svg>
