<?xml version="1.0" encoding="iso-8859-1"?>
<!-- Generator: Adobe Illustrator 17.1.0, SVG Export Plug-In . SVG Version: 6.00 Build 0)  -->
<!DOCTYPE svg PUBLIC "-//W3C//DTD SVG 1.1//EN" "http://www.w3.org/Graphics/SVG/1.1/DTD/svg11.dtd">
<svg version="1.1" id="Capa_1" xmlns="http://www.w3.org/2000/svg" xmlns:xlink="http://www.w3.org/1999/xlink" x="0px" y="0px"
	 viewBox="0 0 375.735 375.735" style="enable-background:new 0 0 375.735 375.735;" xml:space="preserve">
<path d="M17.347,375.735c-0.579,0-1.167-0.025-1.749-0.076c-3.702-0.32-6.955-2.125-8.943-3.498
	c-0.615-0.284-1.173-0.692-1.634-1.204c0,0-0.041-0.044-0.114-0.13c-0.086-0.073-0.13-0.114-0.13-0.114
	c-0.511-0.46-0.919-1.018-1.204-1.633c-1.372-1.988-3.177-5.241-3.499-8.944c-0.755-8.718,4.293-17.699,15.434-27.457
	c6.146-5.382,11.363-8.876,16.41-12.255c5.673-3.798,11.031-7.386,17.402-13.486c9.611-9.202,19.246-29.928,22.238-36.696
	L62,260.683c-1.953-1.953-1.953-5.119,0-7.071L254.236,61.376c1.951-1.952,5.119-1.952,7.07,0l9.799,9.799
	c7.521-3.367,26.993-12.622,35.833-21.854c6.101-6.371,9.688-11.729,13.486-17.402c3.379-5.046,6.873-10.265,12.255-16.41
	C341.821,5.073,350.23,0,358.387,0c0.579,0,1.167,0.025,1.749,0.076c3.703,0.321,6.953,2.124,8.94,3.497
	c0.619,0.286,1.182,0.697,1.644,1.213c0,0,0.038,0.042,0.106,0.123c0.086,0.074,0.131,0.114,0.131,0.114
	c0.511,0.46,0.919,1.018,1.203,1.632c1.372,1.988,3.178,5.241,3.499,8.944c0.755,8.718-4.293,17.699-15.435,27.457
	c-6.124,5.365-11.311,8.868-16.326,12.256c-5.666,3.827-11.018,7.442-17.409,13.562c-9.232,8.84-18.486,28.313-21.854,35.833
	l9.722,9.722c1.953,1.953,1.953,5.119,0,7.071L122.123,313.735c-1.953,1.952-5.118,1.952-7.071,0l-9.482-9.482
	c-6.768,2.992-27.494,12.627-36.696,22.238c-6.119,6.391-9.734,11.743-13.562,17.409c-3.388,5.015-6.892,10.202-12.256,16.326
	C33.915,370.662,25.506,375.735,17.347,375.735z M12.025,363.71c1.552,1.14,3.198,1.879,4.437,1.986
	c0.285,0.025,0.581,0.039,0.886,0.039c5.036,0,11.154-4.07,18.186-12.098c4.952-5.653,8.276-10.575,11.492-15.335
	c3.893-5.763,7.918-11.722,14.625-18.727c8.902-9.297,25.998-18.053,35.503-22.49l-18.427-18.428
	c-4.437,9.506-13.192,26.603-22.49,35.504c-7,6.702-12.976,10.703-18.754,14.572c-4.782,3.202-9.726,6.513-15.384,11.468
	c-8.457,7.407-12.514,13.824-12.06,19.071C10.146,360.512,10.885,362.159,12.025,363.71z M72.607,257.147l45.981,45.98
	l185.164-185.164l-45.98-45.981L72.607,257.147z M289.091,89.161l7.994,7.994c4.437-9.506,13.191-26.602,22.489-35.504
	c7.006-6.708,12.965-10.733,18.728-14.625c4.76-3.216,9.683-6.541,15.336-11.492c8.457-7.407,12.515-13.824,12.06-19.071
	c-0.107-1.239-0.846-2.885-1.986-4.437c-1.55-1.14-3.196-1.879-4.438-1.987c-0.285-0.025-0.58-0.039-0.886-0.039
	c-5.035,0-11.153,4.07-18.186,12.098c-4.955,5.659-8.267,10.603-11.468,15.385c-3.869,5.779-7.87,11.754-14.573,18.754
	c-8.902,9.298-25.998,18.053-35.504,22.49L289.091,89.161z"/>
<g>
</g>
<g>
</g>
<g>
</g>
<g>
</g>
<g>
</g>
<g>
</g>
<g>
</g>
<g>
</g>
<g>
</g>
<g>
</g>
<g>
</g>
<g>
</g>
<g>
</g>
<g>
</g>
<g>
</g>
</svg>
