<?xml version="1.0" encoding="iso-8859-1"?>
<!-- Generator: Adobe Illustrator 17.1.0, SVG Export Plug-In . SVG Version: 6.00 Build 0)  -->
<!DOCTYPE svg PUBLIC "-//W3C//DTD SVG 1.1//EN" "http://www.w3.org/Graphics/SVG/1.1/DTD/svg11.dtd">
<svg version="1.1" id="Capa_1" xmlns="http://www.w3.org/2000/svg" xmlns:xlink="http://www.w3.org/1999/xlink" x="0px" y="0px"
	 viewBox="0 0 375.238 375.238" style="enable-background:new 0 0 375.238 375.238;" xml:space="preserve">
<g id="pumpkin">
	<path d="M187.619,357.196c-12.986,0-25.533-4.013-37.061-11.661c-4.59,0.978-9.248,1.473-13.877,1.473
		c-11.738,0-23.124-3.061-33.725-8.921c-0.339,0.118-0.695,0.2-1.062,0.242c-2.7,0.313-5.404,0.472-8.036,0.472
		c-25.391,0-49.148-13.634-66.896-38.391C9.575,276.158,0,243.996,0,209.852s9.575-66.305,26.962-90.559
		C44.71,94.537,68.468,80.903,93.858,80.903c4.487,0,9.004,0.442,13.454,1.315c8.329-3.928,17.088-6.171,26.081-6.611
		c0.021-0.263,0.063-0.528,0.128-0.793c0.954-3.911,4.898-11.218,13.628-13.797c7.001-2.069,22.045-5.032,28.188-6.21
		c0.782-0.149,1.521-0.367,2.261-0.664c8.304-3.338,12.029-6.481,12.843-7.811c-0.039-0.041-0.084-0.086-0.137-0.135
		c-5.512-5.151-19.301-0.561-26.711,1.904c-1.225,0.408-2.352,0.783-3.354,1.094c-1.739,0.541-3.735,1.302-6.045,2.184
		c-8.4,3.204-19.906,7.591-33.215,6.469c-10.914-0.92-20.365-5.525-25.282-12.318c-2.875-3.973-3.917-8.438-2.934-12.57
		c1.107-4.65,3.928-7.905,7.943-9.167c5.145-1.617,11.583,0.426,17.229,5.46c2.883,2.572,15-0.867,25.689-3.902
		c5.927-1.683,12.645-3.59,19.696-5.169c24.352-5.456,44.812-0.243,50.911,12.971c3.378,7.318,3.085,17.081,2.334,23.618
		c7.452,0.664,23.275,2.956,32.385,19.564c6.506,1.021,12.856,2.997,18.975,5.882c4.449-0.873,8.968-1.315,13.454-1.315
		c25.391,0,49.148,13.634,66.896,38.391c17.387,24.253,26.962,56.414,26.962,90.559s-9.575,66.306-26.962,90.559
		c-17.748,24.756-41.506,38.391-66.896,38.391c-2.631,0-5.335-0.159-8.036-0.472c-0.367-0.042-0.723-0.125-1.062-0.242
		c-10.602,5.861-21.986,8.921-33.725,8.921c-4.63,0-9.288-0.495-13.878-1.473C213.151,353.183,200.604,357.196,187.619,357.196z
		 M155.145,336.591c9.992,6.827,20.967,10.605,32.474,10.605c11.506,0,22.48-3.777,32.472-10.604
		c0.194-0.191,0.405-0.368,0.633-0.527c30.802-21.661,50.715-70.572,50.754-124.638c0-0.004,0,0.002,0-0.002
		c0-0.023,0-0.045,0-0.068c0-0.004,0-0.012,0-0.017c0-0.023,0-0.048,0-0.071s0-0.048,0-0.071c0-0.004,0-0.012,0-0.017
		c0-0.023,0-0.045,0-0.068c0-0.004,0,0.002,0-0.002c-0.039-54.066-19.952-102.977-50.754-124.638
		c-0.227-0.159-0.438-0.335-0.631-0.526c-9.992-6.827-20.968-10.605-32.474-10.605c-11.509,0-22.481,3.775-32.475,10.606
		c-0.193,0.19-0.403,0.366-0.629,0.525c-30.802,21.661-50.715,70.572-50.754,124.638c0,0.005,0-0.002,0,0.002
		c0,0.023,0,0.045,0,0.068c0,0.005,0,0.013,0,0.017c0,0.023,0,0.048,0,0.071s0,0.048,0,0.071c0,0.005,0,0.013,0,0.017
		c0,0.023,0,0.045,0,0.068c0,0.004,0-0.002,0,0.002c0.039,54.066,19.952,102.977,50.754,124.638
		C154.741,336.224,154.952,336.4,155.145,336.591z M235.587,336.929c0.991,0.053,1.981,0.08,2.97,0.08
		c46.239,0,83.858-56.407,83.858-125.741c0-69.333-37.619-125.741-83.858-125.741c-0.988,0-1.979,0.027-2.97,0.08
		c6.908,6.377,13.322,14.191,19.093,23.343c17.242,27.345,26.755,63.58,26.797,102.061c0,0.003,0,0.004,0,0.007
		c0,0.019,0,0.039,0,0.058c0,0.018,0,0.036,0,0.053c0,0.014,0,0.026,0,0.04c0,0.032,0,0.068,0,0.099s0,0.067,0,0.099
		c0,0.014,0,0.026,0,0.04c0,0.017,0,0.035,0,0.053c0,0.019,0,0.04,0,0.058c0,0.004,0,0.004,0,0.007
		c-0.042,38.48-9.555,74.715-26.797,102.061C248.91,322.738,242.496,330.551,235.587,336.929z M136.681,85.526
		c-46.24,0-83.858,56.407-83.858,125.741c0,69.334,37.619,125.741,83.858,125.741c0.988,0,1.979-0.027,2.969-0.08
		c-6.908-6.378-13.322-14.191-19.093-23.343c-17.242-27.346-26.754-63.581-26.796-102.061c0-0.003,0-0.003,0-0.007
		c0-0.019,0-0.039,0-0.058c0-0.018,0-0.036,0-0.053c0-0.014,0-0.026,0-0.04c0-0.032,0-0.068,0-0.099s0-0.067,0-0.099
		c0-0.014,0-0.026,0-0.04c0-0.017,0-0.035,0-0.053c0-0.019,0-0.04,0-0.058c0-0.003,0-0.004,0-0.007
		c0.042-38.48,9.555-74.715,26.796-102.061c5.771-9.152,12.185-16.966,19.093-23.343C138.659,85.553,137.669,85.526,136.681,85.526z
		 M283.1,90.927c31.24,22.749,51.387,69.15,51.387,121.189c0,48.22-17.316,91.865-45.116,116.149
		c42.505-5.727,75.867-56.648,75.867-118.414C365.238,145.08,328.547,92.233,283.1,90.927z M92.138,90.927
		C46.69,92.233,10,145.08,10,209.852c0,61.766,33.361,112.687,75.866,118.414c-27.8-24.285-45.116-67.93-45.116-116.149
		C40.75,160.077,60.897,113.676,92.138,90.927z M143.752,75.909c2.277,0.246,4.549,0.61,6.806,1.091
		c11.528-7.648,24.074-11.661,37.06-11.661c12.985,0,25.532,4.012,37.06,11.66c3.813-0.812,7.67-1.291,11.52-1.43
		c-7.188-7.771-16.748-8.539-21.845-8.948c-0.587-0.047-1.104-0.089-1.538-0.134c-1.988-0.206-3.831-1.231-5.055-2.812
		c-1.224-1.581-1.754-3.623-1.454-5.602c1.3-8.597,0.869-16.347-1.154-20.729c-3.303-7.155-18.318-12.182-39.646-7.404
		c-6.777,1.518-13.351,3.384-19.151,5.031c-16.31,4.63-28.093,7.974-35.076,1.745c-3.506-3.127-6.454-3.733-7.575-3.383
		c-0.538,0.169-0.945,0.822-1.212,1.942c-0.383,1.609,0.499,3.276,1.306,4.391c2.496,3.448,8.541,7.417,18.021,8.217
		c11.043,0.936,20.893-2.828,28.811-5.848c2.366-0.902,4.6-1.755,6.639-2.389c0.946-0.294,2.01-0.649,3.167-1.034
		c10.04-3.341,26.842-8.934,36.697,0.279c3.676,3.436,3.633,7.112,3.28,8.997c-1.054,5.639-7.475,10.865-19.086,15.533
		c-1.326,0.533-2.707,0.938-4.106,1.207c-4.679,0.897-20.476,3.981-27.238,5.979C146.34,71.682,144.542,74.298,143.752,75.909z"/>
</g>
<g>
</g>
<g>
</g>
<g>
</g>
<g>
</g>
<g>
</g>
<g>
</g>
<g>
</g>
<g>
</g>
<g>
</g>
<g>
</g>
<g>
</g>
<g>
</g>
<g>
</g>
<g>
</g>
<g>
</g>
</svg>
