<?xml version="1.0" encoding="iso-8859-1"?>
<!-- Generator: Adobe Illustrator 17.1.0, SVG Export Plug-In . SVG Version: 6.00 Build 0)  -->
<!DOCTYPE svg PUBLIC "-//W3C//DTD SVG 1.1//EN" "http://www.w3.org/Graphics/SVG/1.1/DTD/svg11.dtd">
<svg version="1.1" id="Capa_1" xmlns="http://www.w3.org/2000/svg" xmlns:xlink="http://www.w3.org/1999/xlink" x="0px" y="0px"
	 viewBox="0 0 357 357" style="enable-background:new 0 0 357 357;" xml:space="preserve">
<path d="M273.156,357H83.844c-2.762,0-5-2.239-5-5s2.238-5,5-5H90.2c2.546-26.183,12.206-50.358,27.451-68.503
	c12.785-15.218,28.616-25.145,45.649-28.857v-88.011c-6.109-3.712-10.199-10.432-10.199-18.088V21.149
	C153.102,9.487,162.589,0,174.25,0h8.5c11.661,0,21.148,9.487,21.148,21.149v122.392c0,7.656-4.09,14.376-10.199,18.088v88.011
	c17.033,3.712,32.864,13.64,45.649,28.857c15.245,18.145,24.905,42.32,27.45,68.503h6.357c2.762,0,5,2.239,5,5
	S275.918,357,273.156,357z M100.251,347h156.497c-2.488-23.808-11.289-45.685-25.056-62.07C217.103,267.564,198.211,258,178.5,258
	s-38.603,9.564-53.192,26.93C111.541,301.315,102.74,323.192,100.251,347z M173.301,246.785h10.398V164.69h-10.398V246.785z
	 M174.25,154.69h8.5c6.147,0,11.148-5.001,11.148-11.149V21.149c0-6.147-5.001-11.149-11.148-11.149h-8.5
	c-6.147,0-11.148,5.001-11.148,11.149v122.392C163.102,149.688,168.103,154.69,174.25,154.69z"/>
<g>
</g>
<g>
</g>
<g>
</g>
<g>
</g>
<g>
</g>
<g>
</g>
<g>
</g>
<g>
</g>
<g>
</g>
<g>
</g>
<g>
</g>
<g>
</g>
<g>
</g>
<g>
</g>
<g>
</g>
</svg>
