<?xml version="1.0" encoding="iso-8859-1"?>
<!-- Generator: Adobe Illustrator 17.1.0, SVG Export Plug-In . SVG Version: 6.00 Build 0)  -->
<!DOCTYPE svg PUBLIC "-//W3C//DTD SVG 1.1//EN" "http://www.w3.org/Graphics/SVG/1.1/DTD/svg11.dtd">
<svg version="1.1" id="Capa_1" xmlns="http://www.w3.org/2000/svg" xmlns:xlink="http://www.w3.org/1999/xlink" x="0px" y="0px"
	 viewBox="0 0 369.666 369.666" style="enable-background:new 0 0 369.666 369.666;" xml:space="preserve">
<g id="refrigerator">
	<path d="M267.706,369.666H103.057c-2.761,0-5-2.238-5-5v-16.587h-3.185c-10.752,0-19.5-8.748-19.5-19.5v-203.15
		c-0.236-0.581-0.366-1.216-0.366-1.882s0.13-1.301,0.366-1.882V19.5c0-10.752,8.748-19.5,19.5-19.5h180.287
		c10.752,0,19.5,8.748,19.5,19.5v309.079c0,10.752-8.748,19.5-19.5,19.5h-2.453v16.587
		C272.706,367.428,270.468,369.666,267.706,369.666z M108.057,359.666h154.649v-11.587H108.057V359.666z M267.706,338.079h7.453
		c5.238,0,9.5-4.262,9.5-9.5V128.547h-9.758v57.566c0,2.762-2.238,5-5,5h-16.465c-2.762,0-5-2.238-5-5s2.238-5,5-5h11.465v-52.566
		H85.373v200.032c0,5.238,4.262,9.5,9.5,9.5H267.706z M274.902,118.547h9.758V19.5c0-5.238-4.262-9.5-9.5-9.5H94.873
		c-5.238,0-9.5,4.262-9.5,9.5v99.047h179.529V65.98h-13.66c-2.762,0-5-2.238-5-5s2.238-5,5-5h18.66c2.762,0,5,2.238,5,5V118.547z"/>
</g>
<g>
</g>
<g>
</g>
<g>
</g>
<g>
</g>
<g>
</g>
<g>
</g>
<g>
</g>
<g>
</g>
<g>
</g>
<g>
</g>
<g>
</g>
<g>
</g>
<g>
</g>
<g>
</g>
<g>
</g>
</svg>
