<?xml version="1.0" encoding="iso-8859-1"?>
<!-- Generator: Adobe Illustrator 17.1.0, SVG Export Plug-In . SVG Version: 6.00 Build 0)  -->
<!DOCTYPE svg PUBLIC "-//W3C//DTD SVG 1.1//EN" "http://www.w3.org/Graphics/SVG/1.1/DTD/svg11.dtd">
<svg version="1.1" id="Capa_1" xmlns="http://www.w3.org/2000/svg" xmlns:xlink="http://www.w3.org/1999/xlink" x="0px" y="0px"
	 viewBox="0 0 353 353" style="enable-background:new 0 0 353 353;" xml:space="preserve">
<path d="M334.841,353H18.159c-2.762,0-5-2.239-5-5s2.238-5,5-5h152.245V56.719c-12.898-2.802-22.589-14.307-22.589-28.033
	C147.815,12.868,160.683,0,176.5,0c15.817,0,28.686,12.868,28.686,28.686c0,14.494-10.804,26.511-24.781,28.42V343h154.438
	c2.762,0,5,2.239,5,5S337.603,353,334.841,353z M176.5,10c-10.303,0-18.685,8.382-18.685,18.686
	c0,10.303,8.382,18.685,18.685,18.685s18.686-8.382,18.686-18.685C195.185,18.382,186.802,10,176.5,10z M297.574,334.665h-70.37
	c-8.695,0-16.951-3.479-22.649-9.545c-5.152-5.484-7.74-12.505-7.286-19.769l9.035-144.559c0.003-0.052,0.007-0.104,0.012-0.156
	c-0.012-0.37-0.021-0.74-0.021-1.112c0-30.931,25.164-56.095,56.096-56.095c30.931,0,56.095,25.164,56.095,56.095
	c0,0.374-0.01,0.745-0.021,1.116c0.005,0.051,0.009,0.102,0.012,0.153l9.035,144.559c0.454,7.264-2.134,14.285-7.286,19.769
	C314.525,331.186,306.269,334.665,297.574,334.665z M215.991,166.103l-8.742,139.871c-0.28,4.479,1.352,8.847,4.594,12.298
	c3.816,4.063,9.415,6.393,15.361,6.393h70.37c5.946,0,11.545-2.33,15.361-6.393c3.242-3.451,4.874-7.818,4.594-12.298l0,0
	l-8.742-139.871H215.991z M216.419,156.103h91.938c-1.104-14.999-9.418-28.024-21.479-35.618v5.852c0,2.761-2.238,5-5,5
	s-5-2.239-5-5V115.76c-3.036-1.008-6.213-1.708-9.489-2.063v12.64c0,2.761-2.238,5-5,5s-5-2.239-5-5v-12.641
	c-3.278,0.355-6.453,1.055-9.49,2.063v10.577c0,2.761-2.238,5-5,5s-5-2.239-5-5v-5.852
	C225.836,128.079,217.524,141.104,216.419,156.103z M124.313,334.665H53.944c-8.695,0-16.951-3.479-22.649-9.545
	c-5.152-5.484-7.74-12.505-7.286-19.769l9.034-144.559c0.003-0.052,0.007-0.104,0.012-0.156c-0.012-0.37-0.021-0.74-0.021-1.113
	c0-30.931,25.164-56.095,56.096-56.095s56.096,25.164,56.096,56.095c0,0.373-0.01,0.743-0.021,1.112
	c0.005,0.052,0.009,0.104,0.012,0.156l9.034,144.559c0.454,7.264-2.134,14.285-7.286,19.769
	C141.264,331.186,133.008,334.665,124.313,334.665z M42.73,166.103l-8.741,139.871c-0.28,4.479,1.352,8.847,4.594,12.298
	c3.816,4.063,9.415,6.393,15.361,6.393h70.369c5.946,0,11.545-2.33,15.361-6.393c3.242-3.451,4.874-7.818,4.594-12.298
	l-8.741-139.871H42.73z M43.159,156.103h91.939c-1.104-14.999-9.417-28.024-21.479-35.618v5.852c0,2.761-2.238,5-5,5s-5-2.239-5-5
	V115.76c-3.037-1.008-6.212-1.708-9.49-2.063v12.641c0,2.761-2.238,5-5,5s-5-2.239-5-5v-12.641c-3.278,0.355-6.453,1.055-9.49,2.063
	v10.577c0,2.761-2.238,5-5,5s-5-2.239-5-5v-5.852C52.576,128.079,44.263,141.104,43.159,156.103z M89.841,287.313
	c-11.393,0-19.614-6.645-25.505-12.434c-1.97-1.936-1.997-5.101-0.062-7.071c1.938-1.97,5.102-1.997,7.071-0.061
	c6.822,6.705,12.354,9.566,18.495,9.566c5.639,0,18-4.533,18-18c0-13.427-11.072-19-17-19c-11.107,0-23-9.644-23-24
	c0-13.234,10.767-24,24-24c12.532,0,19.854,10.768,20.16,11.227c1.532,2.297,0.911,5.402-1.387,6.934
	c-2.298,1.533-5.401,0.911-6.934-1.387c-0.029-0.043-4.722-6.773-11.84-6.773c-6.733,0-14,5.353-14,14c0,8.25,6.852,14,13,14
	c11.319,0,27,10.078,27,29C117.841,278.415,101.133,287.313,89.841,287.313z M241.841,285.313c-2.762,0-5-2.239-5-5v-82
	c0-2.465,1.796-4.562,4.231-4.94c1.099-0.171,27.082-4.046,41.478,8.284c6.165,5.28,9.291,12.566,9.291,21.656
	c0,9.323-3.163,16.74-9.401,22.045c-10.845,9.222-28.003,8.976-35.599,8.332v26.623
	C246.841,283.075,244.603,285.313,241.841,285.313z M246.841,243.642c5.639,0.554,20.738,1.245,29.137-5.915
	c3.945-3.364,5.863-8.078,5.863-14.413c0-6.114-1.891-10.709-5.781-14.048c-7.989-6.858-22.162-6.903-29.219-6.431V243.642z"/>
<g>
</g>
<g>
</g>
<g>
</g>
<g>
</g>
<g>
</g>
<g>
</g>
<g>
</g>
<g>
</g>
<g>
</g>
<g>
</g>
<g>
</g>
<g>
</g>
<g>
</g>
<g>
</g>
<g>
</g>
</svg>
