<?xml version="1.0" encoding="iso-8859-1"?>
<!-- Generator: Adobe Illustrator 17.1.0, SVG Export Plug-In . SVG Version: 6.00 Build 0)  -->
<!DOCTYPE svg PUBLIC "-//W3C//DTD SVG 1.1//EN" "http://www.w3.org/Graphics/SVG/1.1/DTD/svg11.dtd">
<svg version="1.1" id="Capa_1" xmlns="http://www.w3.org/2000/svg" xmlns:xlink="http://www.w3.org/1999/xlink" x="0px" y="0px"
	 viewBox="0 0 412.189 412.189" style="enable-background:new 0 0 412.189 412.189;" xml:space="preserve">
<g id="saucers">
	<path d="M246.611,316.094H130.233c-4.168,0-8.034-1.579-10.604-4.334c-2.121-2.271-3.178-5.131-2.977-8.051
		c0.43-6.225,1.856-14.262,9.122-21.226c2.832-2.713,5.007-4.226,6.755-5.441c1.977-1.374,2.982-2.073,4.167-3.971
		c-1.458-1.683-6.353-4.204-8.557-5.339c-1.448-0.746-2.815-1.45-3.897-2.111c-5.811-3.552-28.035-23.458-44.457-52.858
		c-7.212-12.911-12.84-26.074-18.283-38.803c-6.492-15.184-12.624-29.524-19.812-38.647C29.065,119.29,3.237,107.745,2.978,107.63
		c-1.94-0.857-3.127-2.847-2.962-4.961c0.165-2.115,1.647-3.896,3.696-4.442c0.906-0.242,22.493-5.824,49.56,2.116
		c13.518,3.965,29.965,12.75,49.01,22.922c18.025,9.627,38.455,20.539,58.632,28.233c37.938,14.469,92.479,11.691,112.947,8.08
		c17.04-3.008,38.449-11.123,38.663-11.205c1.66-0.632,3.525-0.336,4.908,0.772c1.384,1.109,2.076,2.868,1.819,4.623
		c-0.128,0.877-2.271,15.235-7.492,31.786l5.608,1.121c0.678,0.136,1.296,0.402,1.834,0.769
		c4.198-17.983,14.599-32.086,30.141-40.838c17.717-9.978,36.105-9.302,49.189,1.804c12.533,10.64,16.983,28.677,11.073,44.882
		c-11.318,31.035-47.781,54.834-84.816,55.358c-24.706,0.349-41.284,5.893-47.943,16.032c-6.506,9.905-1.724,21.688-1.675,21.806
		c1.058,2.54-0.132,5.47-2.668,6.539c-2.534,1.068-5.455-0.1-6.536-2.631c-0.275-0.644-6.375-15.296,1.31-29.198l-5.267-2.341
		c-3.293,2.668-6.637,5.057-9.659,7.215c-3.055,2.182-7.072,5.052-8.638,6.748c0.935,1.016,2.72,2.507,3.997,3.573
		c3.695,3.088,8.295,6.929,10.703,11.964c4.425,9.251,5.047,16.513,1.852,21.584C258.495,312.748,254.691,316.094,246.611,316.094z
		 M21.537,106.13c9.071,5.397,20.419,13.364,28.006,22.993c8.008,10.164,14.393,25.096,21.152,40.905
		c5.341,12.49,10.864,25.406,17.818,37.857c15.379,27.533,36.614,46.558,40.941,49.202c0.771,0.471,1.981,1.095,3.262,1.755
		c5.45,2.807,12.232,6.3,13.86,11.771c0.682,2.291,0.404,4.625-0.803,6.75c-2.488,4.379-4.941,6.084-7.538,7.89
		c-1.537,1.068-3.279,2.28-5.544,4.451c-4.751,4.554-5.723,9.753-6.064,14.693c-0.005,0.077,0.073,0.285,0.31,0.539
		c0.522,0.56,1.662,1.157,3.294,1.157h116.379c2.705,0,4.598-0.541,5.192-1.483c0.933-1.48,0.549-5.746-2.413-11.938
		c-1.469-3.07-4.987-6.01-8.093-8.603c-4.303-3.595-8.019-6.698-8.019-11.26c0-5.405,5.274-9.173,13.259-14.875
		c3.572-2.551,7.618-5.44,11.297-8.619c0.053-0.048,0.106-0.095,0.161-0.14c10.3-8.935,23.592-22.043,35.213-44.291
		c7.853-15.031,12.452-33.658,14.619-44.22c-8.123,2.766-20.9,6.761-32.229,8.761c-16.98,2.996-75.154,7.852-118.249-8.584
		c-20.767-7.92-41.493-18.99-59.78-28.757c-17.785-9.499-34.583-18.472-47.113-22.146C39.362,106.684,29.265,105.956,21.537,106.13z
		 M270.267,251.585l2.328,1.034c0.356,0.159,0.685,0.354,0.983,0.579c10.048-9.324,27.172-14.21,51.069-14.547
		c33.105-0.469,65.591-21.441,75.563-48.785c4.483-12.292,1.208-25.889-8.15-33.832c-9.905-8.408-23.687-8.669-37.812-0.715
		c-32.36,18.224-26.733,56.97-26.673,57.359c0.425,2.729-1.442,5.285-4.171,5.71c-2.728,0.428-5.284-1.442-5.71-4.171
		c-0.059-0.379-1.164-7.72-0.031-17.804c-0.714,0.189-1.482,0.221-2.257,0.068l-6.941-1.389c-1.851,4.893-3.973,9.79-6.393,14.422
		C291.736,229.302,280.18,242.297,270.267,251.585z M106.237,206.095c-1.686,0-3.332-0.853-4.274-2.397
		c-12.717-20.857-19.277-44.283-19.55-45.271c-0.736-2.661,0.824-5.414,3.485-6.151c2.659-0.737,5.415,0.823,6.153,3.484
		c0.063,0.229,6.481,23.102,18.45,42.731c1.438,2.357,0.692,5.434-1.666,6.871C108.023,205.858,107.124,206.095,106.237,206.095z"/>
</g>
<g>
</g>
<g>
</g>
<g>
</g>
<g>
</g>
<g>
</g>
<g>
</g>
<g>
</g>
<g>
</g>
<g>
</g>
<g>
</g>
<g>
</g>
<g>
</g>
<g>
</g>
<g>
</g>
<g>
</g>
</svg>
