<?xml version="1.0" encoding="iso-8859-1"?>
<!-- Generator: Adobe Illustrator 17.1.0, SVG Export Plug-In . SVG Version: 6.00 Build 0)  -->
<!DOCTYPE svg PUBLIC "-//W3C//DTD SVG 1.1//EN" "http://www.w3.org/Graphics/SVG/1.1/DTD/svg11.dtd">
<svg version="1.1" id="Capa_1" xmlns="http://www.w3.org/2000/svg" xmlns:xlink="http://www.w3.org/1999/xlink" x="0px" y="0px"
	 viewBox="0 0 373.048 373.048" style="enable-background:new 0 0 373.048 373.048;" xml:space="preserve">
<path d="M308.109,373.048H203.939c-2.761,0-5-2.239-5-5V105.993c0-2.761,2.239-5,5-5h11.277V68.557c0-2.761,2.239-5,5-5h18.537
	l9.235-56.562c0.666-4.078,4.016-6.954,8.147-6.995c4.137-0.05,7.539,2.769,8.285,6.833l10.418,56.724h16.995c2.761,0,5,2.239,5,5
	v32.436h11.277c2.761,0,5,2.239,5,5v262.055C313.109,370.809,310.871,373.048,308.109,373.048z M208.939,363.048h94.171V110.993
	h-94.171V363.048z M225.215,100.993h61.617V73.557h-61.617V100.993z M248.885,63.557h15.786l-8.357-45.5L248.885,63.557z
	 M169.109,373.048H64.939c-2.761,0-5-2.239-5-5V184.993c0-2.761,2.239-5,5-5h11.277v-32.436c0-2.761,2.239-5,5-5h18.537
	l9.235-56.562c0.666-4.078,4.016-6.954,8.147-6.995c4.101-0.073,7.539,2.769,8.285,6.833l10.418,56.724h16.995c2.761,0,5,2.239,5,5
	v32.436h11.277c2.761,0,5,2.239,5,5v183.055C174.109,370.809,171.871,373.048,169.109,373.048z M69.939,363.048h94.171V189.993
	H69.939V363.048z M86.215,179.993h61.617v-27.436H86.215V179.993z M109.885,142.557h15.786l-8.357-45.5L109.885,142.557z
	 M223.939,353.048c-2.761,0-5-2.239-5-5v-223c0-2.761,2.239-5,5-5s5,2.239,5,5v223C228.939,350.809,226.7,353.048,223.939,353.048z
	 M84.939,353.048c-2.761,0-5-2.239-5-5v-144c0-2.761,2.239-5,5-5s5,2.239,5,5v144C89.939,350.809,87.7,353.048,84.939,353.048z"/>
<g>
</g>
<g>
</g>
<g>
</g>
<g>
</g>
<g>
</g>
<g>
</g>
<g>
</g>
<g>
</g>
<g>
</g>
<g>
</g>
<g>
</g>
<g>
</g>
<g>
</g>
<g>
</g>
<g>
</g>
</svg>
