<?xml version="1.0" encoding="iso-8859-1"?>
<!-- Generator: Adobe Illustrator 17.1.0, SVG Export Plug-In . SVG Version: 6.00 Build 0)  -->
<!DOCTYPE svg PUBLIC "-//W3C//DTD SVG 1.1//EN" "http://www.w3.org/Graphics/SVG/1.1/DTD/svg11.dtd">
<svg version="1.1" id="Capa_1" xmlns="http://www.w3.org/2000/svg" xmlns:xlink="http://www.w3.org/1999/xlink" x="0px" y="0px"
	 viewBox="0 0 375.938 375.938" style="enable-background:new 0 0 375.938 375.938;" xml:space="preserve">
<path d="M133.258,374.938c-18.86,0-33.317-1.727-40.756-2.858c-0.907-0.138-1.854-0.218-2.998-0.296
	c-14.977-1.021-29.078-8.254-38.688-19.843c-3.533-4.26-6.357-8.935-8.436-13.893L6.554,349.692c-1.523,0.495-3.19,0.231-4.484-0.71
	c-1.295-0.941-2.062-2.445-2.062-4.045c0-0.837,0.071-8.322,2.528-13.236c0.737-1.477,1.945-3.559,3.69-6.364
	c0.936-1.503,0.672-3.457-0.64-4.752l-0.114-0.113c-0.978-0.977-2.011-2.287-3.159-4.005c-2.176-3.253-2.858-7.297-1.872-11.093
	c0.984-3.786,3.541-6.975,7.016-8.751l0.314-0.159c1.183-0.591,2.588-1.087,4.176-1.475c1.603-0.391,2.626-1.83,2.432-3.419
	c-0.114-0.938-0.231-1.98-0.347-3.138c-1.234-12.346,5.123-17.817,5.853-18.4c1.956-1.566,4.772-1.441,6.583,0.294l19.283,18.48
	c8.727-14.723,24.156-25.124,41.924-26.923c7.714-0.781,14.237,0.326,20.14,1.639c0.729,0.162,2.009,0.371,2.683,0.438
	c25.396,2.527,88.134,4.739,122.106-29.233c33.994-33.995,30.943-96.217,28.054-121.392c-0.188-1.644-0.409-2.969-0.693-4.17
	c-1.48-6.24-1.86-12.651-1.131-19.055c1.803-15.833,10.247-29.556,22.437-38.391l-21.345-19.665
	c-1.844-1.699-2.145-4.501-0.703-6.552c0.536-0.764,5.557-7.458,18.003-6.984c1.161,0.043,2.208,0.095,3.149,0.15
	c1.573,0.097,2.973-1.014,3.263-2.639c0.288-1.611,0.696-3.044,1.213-4.261l0.139-0.324c1.558-3.578,4.582-6.328,8.3-7.545
	c3.729-1.221,7.804-0.79,11.188,1.18c1.79,1.043,3.161,1.992,4.193,2.903l0.143,0.128c1.35,1.207,3.315,1.348,4.759,0.322
	c2.688-1.915,4.69-3.25,6.121-4.08c4.752-2.758,12.218-3.294,13.053-3.346c1.606-0.097,3.146,0.571,4.166,1.806
	c1.02,1.234,1.387,2.881,0.987,4.431l-9.306,36.144c19.387,5.559,34.957,21.576,39.279,42.376c0.795,2.906,9.143,34.526,7.95,76.228
	c-1.63,57.014-20.699,105.358-55.147,139.806c-36.578,36.579-82.61,59.773-136.818,68.938
	C165.158,373.899,147.884,374.938,133.258,374.938z M92.785,271.624c-1.383,0-2.735,0.071-4.102,0.209
	c-20.846,2.111-37.758,18.674-40.215,39.383c-1.487,12.541,2.08,24.737,10.045,34.342c7.871,9.491,19.414,15.414,31.67,16.25
	c1.203,0.082,2.5,0.185,3.822,0.386c22.052,3.354,136.275,15.856,219.599-67.466l3.535,3.536l-3.535-3.536
	c41.119-41.119,51.09-94.873,52.213-132.726c1.229-41.392-7.536-73.403-7.625-73.722c-0.031-0.112-0.059-0.227-0.082-0.341
	c-4.601-22.484-25.175-38.194-47.854-36.552c-21.587,1.567-39.034,18.329-41.486,39.856c-0.599,5.25-0.287,10.504,0.926,15.616
	c0.378,1.596,0.663,3.291,0.898,5.336c3.055,26.617,6.158,92.527-30.919,129.604c-36.993,36.994-103.354,34.779-130.168,32.113
	c-1.073-0.107-2.731-0.376-3.86-0.627C100.555,272.153,96.558,271.624,92.785,271.624z M24.212,282.016
	c-0.305,1.407-0.451,3.197-0.229,5.423c0.107,1.079,0.215,2.048,0.321,2.919c0.806,6.593-3.488,12.76-9.987,14.346
	c-1.074,0.262-1.72,0.527-2.073,0.704l-0.238,0.12c-1.276,0.652-1.729,1.76-1.886,2.362c-0.158,0.607-0.303,1.808,0.507,3.018
	c1.01,1.511,1.634,2.21,1.916,2.492c4.73,4.668,5.596,11.722,2.174,17.22c-1.94,3.118-2.831,4.74-3.236,5.551
	c-0.223,0.445-0.417,0.99-0.584,1.593l28.482-9.256c-0.644-2.975-1.04-6.017-1.183-9.097l-15.334-3.608
	c-2.688-0.632-4.354-3.324-3.722-6.012c0.633-2.688,3.317-4.356,6.013-3.722l13.484,3.173c0.503-3.755,1.395-7.397,2.632-10.879
	L24.212,282.016z M271.452,29.079l18.822,17.341c2.896-1.353,5.931-2.461,9.072-3.298l-3.241-16.204
	c-0.541-2.708,1.215-5.342,3.923-5.883c2.715-0.545,5.343,1.215,5.884,3.922l3.296,16.481c0.107-0.008,0.216-0.017,0.323-0.024
	c3.111-0.226,6.194-0.184,9.217,0.106l7.518-29.197c-0.592,0.205-1.123,0.432-1.554,0.682c-0.786,0.456-2.351,1.447-5.339,3.576
	c-5.278,3.757-12.371,3.331-17.252-1.036l-0.118-0.106c-0.249-0.22-0.983-0.797-2.56-1.715c-1.259-0.732-2.445-0.513-3.042-0.317
	c-0.591,0.193-1.669,0.715-2.242,2.033l-0.104,0.243c-0.153,0.363-0.379,1.024-0.573,2.113c-1.179,6.584-7.058,11.251-13.698,10.859
	c-0.875-0.052-1.85-0.099-2.932-0.14C274.616,28.429,272.836,28.687,271.452,29.079z M287.014,167.938
	c-0.303,0-0.608-0.027-0.916-0.084c-2.716-0.503-4.509-3.112-4.006-5.827c3.765-20.33,0.465-41.72-1.718-55.875
	c-0.599-3.879-1.115-7.229-1.346-9.762c-1.294-14.235,11.211-20.658,11.743-20.925c2.471-1.235,5.474-0.233,6.708,2.236
	c1.229,2.458,0.244,5.445-2.2,6.69c-0.328,0.172-6.959,3.752-6.292,11.093c0.202,2.222,0.696,5.429,1.27,9.143
	c2.147,13.921,5.741,37.221,1.667,59.22C291.479,166.255,289.377,167.938,287.014,167.938z"/>
<g>
</g>
<g>
</g>
<g>
</g>
<g>
</g>
<g>
</g>
<g>
</g>
<g>
</g>
<g>
</g>
<g>
</g>
<g>
</g>
<g>
</g>
<g>
</g>
<g>
</g>
<g>
</g>
<g>
</g>
</svg>
