<?xml version="1.0" encoding="iso-8859-1"?>
<!-- Generator: Adobe Illustrator 17.1.0, SVG Export Plug-In . SVG Version: 6.00 Build 0)  -->
<!DOCTYPE svg PUBLIC "-//W3C//DTD SVG 1.1//EN" "http://www.w3.org/Graphics/SVG/1.1/DTD/svg11.dtd">
<svg version="1.1" id="Capa_1" xmlns="http://www.w3.org/2000/svg" xmlns:xlink="http://www.w3.org/1999/xlink" x="0px" y="0px"
	 viewBox="0 0 413.001 413.001" style="enable-background:new 0 0 413.001 413.001;" xml:space="preserve">
<path d="M301.001,288.577h-256c-0.333,0-0.663-0.033-0.983-0.098c-7.936-0.124-15.322-2.172-21.822-6.151
	c-13.824-8.463-21.698-24.479-22.173-45.098c-0.456-19.809,6.016-41.698,18.222-61.635c12.206-19.937,28.758-35.653,46.608-44.255
	c10.983-5.293,21.71-7.556,31.504-6.764h204.644c39.682,0,72.871,28.334,80.399,65.833l17.855-7.142
	c1.6-0.64,3.415-0.411,4.806,0.605c1.391,1.016,2.161,2.676,2.038,4.394l-0.949,13.278l5.756,4.111
	c1.405,1.004,2.193,2.661,2.084,4.384c-0.109,1.723-1.1,3.268-2.62,4.087l-10.314,5.554l4.194,6.99
	c1.083,1.806,0.919,4.097-0.411,5.73c-1.33,1.632-3.54,2.257-5.528,1.562l-18.054-6.319
	C370.936,262.685,338.936,288.577,301.001,288.577z M78.293,278.577h222.708c39.701,0,72-32.299,72-72s-32.299-72-72-72H120.707
	c10.428,9.047,16.307,23.374,16.715,41.103c0.456,19.809-6.015,41.698-18.221,61.635l0,0
	C108.14,255.381,93.633,269.735,78.293,278.577z M92.484,134.441c-7.23,0-15.125,1.973-23.291,5.908
	c-16.141,7.778-31.206,22.15-42.421,40.468l0,0c-11.215,18.318-17.165,38.271-16.752,56.183
	c0.394,17.103,6.572,30.172,17.397,36.799c5.011,3.068,10.693,4.589,16.748,4.71c0.283-0.05,0.573-0.077,0.868-0.078
	c13.833-0.036,29.221-7.198,42.955-19.22c8.259-7.288,15.999-16.442,22.536-27.12c11.215-18.318,17.165-38.271,16.752-56.183
	c-0.394-17.103-6.572-30.172-17.397-36.799c-3.268-2-6.868-3.357-10.723-4.072c-1.263-0.225-2.558-0.383-3.882-0.472
	c-0.165-0.011-0.327-0.03-0.487-0.057C94.028,134.464,93.26,134.441,92.484,134.441z M382.243,217.744l6.342,2.22
	c-0.535-1.091-0.657-2.345-0.332-3.527c0.362-1.317,1.248-2.429,2.451-3.077l7.858-4.231l-1.505-1.075
	c-1.417-1.012-2.205-2.688-2.081-4.425l0.58-8.11l-12.769,5.107c0.142,1.965,0.214,3.951,0.214,5.952
	C383.001,210.364,382.742,214.093,382.243,217.744z M42.415,263.571c-2.225,0-4.371-0.572-6.242-1.705
	c-6.429-3.892-7.883-13.298-3.241-20.967v0c4.643-7.669,13.65-10.743,20.08-6.851c3.285,1.988,5.433,5.528,5.894,9.711
	c0.413,3.75-0.529,7.748-2.653,11.256c-2.124,3.508-5.229,6.196-8.743,7.569C45.823,263.244,44.096,263.571,42.415,263.571z
	 M41.487,246.077c-1.854,3.064-1.602,6.347-0.135,7.234c0.824,0.499,1.932,0.188,2.52-0.041c1.456-0.569,2.851-1.82,3.827-3.434
	c0.977-1.614,1.439-3.43,1.268-4.983c-0.069-0.626-0.308-1.752-1.132-2.251C46.368,241.716,43.342,243.013,41.487,246.077
	L41.487,246.077z M85.415,236.571c-2.225,0-4.371-0.572-6.242-1.705c-6.429-3.892-7.883-13.298-3.241-20.967v0
	c4.643-7.67,13.65-10.742,20.08-6.851c3.285,1.988,5.433,5.528,5.894,9.711c0.413,3.75-0.529,7.748-2.653,11.256
	c-2.124,3.508-5.229,6.196-8.743,7.569C88.823,236.244,87.096,236.571,85.415,236.571z M84.487,219.077
	c-1.854,3.064-1.602,6.347-0.135,7.234c0.824,0.5,1.932,0.189,2.52-0.041c1.456-0.569,2.851-1.82,3.827-3.434
	c0.977-1.614,1.439-3.43,1.268-4.983c-0.069-0.626-0.308-1.752-1.132-2.251C89.367,214.715,86.341,216.014,84.487,219.077
	L84.487,219.077z M43.415,210.571c-2.225,0-4.371-0.572-6.242-1.705c-6.429-3.892-7.883-13.298-3.241-20.967v0
	c4.643-7.67,13.65-10.743,20.08-6.851c3.285,1.988,5.433,5.528,5.894,9.711c0.413,3.75-0.529,7.748-2.653,11.256
	c-2.124,3.508-5.229,6.196-8.743,7.569C46.823,210.244,45.096,210.571,43.415,210.571z M42.487,193.077
	c-1.854,3.064-1.602,6.347-0.135,7.234c0.824,0.499,1.932,0.189,2.52-0.041c1.456-0.569,2.851-1.82,3.827-3.434
	c0.977-1.614,1.439-3.43,1.268-4.983c-0.069-0.626-0.308-1.752-1.132-2.251C47.368,188.715,44.342,190.013,42.487,193.077
	L42.487,193.077z M90.415,182.812c-2.225,0-4.371-0.572-6.242-1.705c-6.429-3.892-7.883-13.298-3.241-20.967
	c0-0.001,0-0.001,0-0.001c4.643-7.67,13.651-10.742,20.08-6.851c3.285,1.988,5.433,5.528,5.894,9.711
	c0.413,3.75-0.529,7.748-2.653,11.256c-2.124,3.508-5.229,6.196-8.743,7.569C93.823,182.485,92.096,182.812,90.415,182.812z
	 M89.487,165.318c-1.854,3.064-1.602,6.347-0.135,7.234c0.824,0.499,1.932,0.189,2.52-0.041c1.456-0.569,2.851-1.82,3.827-3.434
	c0.977-1.614,1.439-3.43,1.268-4.983c-0.069-0.627-0.308-1.752-1.132-2.251C94.367,160.958,91.342,162.254,89.487,165.318
	L89.487,165.318z"/>
<g>
</g>
<g>
</g>
<g>
</g>
<g>
</g>
<g>
</g>
<g>
</g>
<g>
</g>
<g>
</g>
<g>
</g>
<g>
</g>
<g>
</g>
<g>
</g>
<g>
</g>
<g>
</g>
<g>
</g>
</svg>
