<?xml version="1.0" encoding="iso-8859-1"?>
<!-- Generator: Adobe Illustrator 17.1.0, SVG Export Plug-In . SVG Version: 6.00 Build 0)  -->
<!DOCTYPE svg PUBLIC "-//W3C//DTD SVG 1.1//EN" "http://www.w3.org/Graphics/SVG/1.1/DTD/svg11.dtd">
<svg version="1.1" id="Capa_1" xmlns="http://www.w3.org/2000/svg" xmlns:xlink="http://www.w3.org/1999/xlink" x="0px" y="0px"
	 viewBox="0 0 327.147 327.147" style="enable-background:new 0 0 327.147 327.147;" xml:space="preserve">
<path d="M254.846,327.147h-181c-2.761,0-5-2.238-5-5v-185.5c0-23.435,19.065-42.5,42.5-42.5h39.377V73.469H81.766
	c-24.801,0-44.978-20.178-44.978-44.979V10H26.074c-2.761,0-5-2.238-5-5s2.239-5,5-5h275c2.761,0,5,2.238,5,5s-2.239,5-5,5h-10.714
	v18.49c0,24.801-20.177,44.979-44.978,44.979h-68.957v20.679h40.921c23.435,0,42.5,19.065,42.5,42.5v185.5
	C259.846,324.909,257.607,327.147,254.846,327.147z M78.846,317.147h171v-180.5c0-17.921-14.58-32.5-32.5-32.5h-106
	c-17.92,0-32.5,14.579-32.5,32.5V317.147z M160.723,93.544h5.701V73.469h-5.701V93.544z M46.788,10v18.49
	c0,19.287,15.691,34.979,34.978,34.979h163.615c19.287,0,34.978-15.691,34.978-34.979V10H46.788z M163.574,267.168
	c-39.438,0-71.524-32.085-71.524-71.523s32.085-71.524,71.524-71.524s71.524,32.086,71.524,71.524S203.012,267.168,163.574,267.168z
	 M163.574,134.12c-33.924,0-61.524,27.6-61.524,61.524c0,33.924,27.6,61.523,61.524,61.523s61.524-27.6,61.524-61.523
	C225.098,161.72,197.498,134.12,163.574,134.12z M163.574,213.453c-9.364,0-16.982-7.618-16.982-16.982
	c0-7.625,5.05-14.092,11.982-16.231v-33.765c0-2.762,2.239-5,5-5s5,2.238,5,5v33.765c6.932,2.14,11.982,8.606,11.982,16.231
	C180.556,205.835,172.938,213.453,163.574,213.453z M163.574,189.488c-3.85,0-6.982,3.132-6.982,6.982s3.132,6.982,6.982,6.982
	s6.982-3.132,6.982-6.982S167.424,189.488,163.574,189.488z"/>
<g>
</g>
<g>
</g>
<g>
</g>
<g>
</g>
<g>
</g>
<g>
</g>
<g>
</g>
<g>
</g>
<g>
</g>
<g>
</g>
<g>
</g>
<g>
</g>
<g>
</g>
<g>
</g>
<g>
</g>
</svg>
