<?xml version="1.0" encoding="iso-8859-1"?>
<!-- Generator: Adobe Illustrator 17.1.0, SVG Export Plug-In . SVG Version: 6.00 Build 0)  -->
<!DOCTYPE svg PUBLIC "-//W3C//DTD SVG 1.1//EN" "http://www.w3.org/Graphics/SVG/1.1/DTD/svg11.dtd">
<svg version="1.1" id="Capa_1" xmlns="http://www.w3.org/2000/svg" xmlns:xlink="http://www.w3.org/1999/xlink" x="0px" y="0px"
	 viewBox="0 0 363.356 363.356" style="enable-background:new 0 0 363.356 363.356;" xml:space="preserve">
<path d="M274.319,363.356H89.037c-4.304,0-8.446-1.566-11.664-4.411c-3.644-3.22-8.718-7.839-12.2-11.553l-0.08-0.085
	c-5.678-6.057-18.976-20.241-18.976-37.635c0-15.634,7.761-43.263,17.906-77.757c8.646-29.396,31.43-86.508,41.093-96.172
	c7.58-7.58,21.054-11.423,40.049-11.423c7.263,0,9.051-6.966,9.384-8.699V90.595c0-1.232-0.198-1.78-0.271-1.94
	c-3.346-2.662-5.261-6.475-5.261-10.485v-7.491c0-1.847,1.018-3.543,2.647-4.412c0.063-0.037,2.885-1.677,2.885-4.439
	c0-3.706-1.407-7.151-3.962-13.407c-0.707-1.731-1.487-3.641-2.33-5.787c-4.524-11.516-4.888-22.074-1.081-31.383
	c4.659-11.389,31.595-11.294,34.502-11.241c2.912-0.056,29.844-0.147,34.502,11.242c3.808,9.309,3.444,19.867-1.081,31.382
	c-0.843,2.146-1.622,4.056-2.33,5.787c-2.555,6.256-3.962,9.701-3.962,13.407c0,2.776,2.856,4.424,2.885,4.439
	c1.63,0.869,2.647,2.565,2.647,4.412v7.491c0,4.011-1.915,7.824-5.261,10.485c-0.073,0.16-0.271,0.707-0.271,1.94v25.033
	c0.317,1.667,2.09,8.692,9.384,8.692c18.995,0,32.47,3.843,40.049,11.423c9.663,9.663,32.447,66.775,41.094,96.172
	c10.146,34.498,17.906,62.129,17.906,77.757c0,17.394-13.298,31.578-18.977,37.635l-0.079,0.085
	c-3.485,3.717-8.559,8.334-12.2,11.553C282.766,361.79,278.623,363.356,274.319,363.356z M159.017,76.395v1.774
	c0,1.354,1.068,2.333,1.527,2.691c1.827,1.425,4.005,4.271,4.005,9.734v25.448c0,0.23-0.016,0.46-0.047,0.688
	c-0.845,6.084-5.974,17.59-19.336,17.59c-15.789,0-27.5,3.017-32.978,8.493c-6.873,6.873-29.222,60.137-38.571,91.924
	c-7.797,26.508-17.5,59.498-17.5,74.935c0,13.439,10.99,25.162,16.271,30.796l0.08,0.084c3.217,3.432,8.044,7.821,11.527,10.9
	c1.389,1.228,3.179,1.903,5.042,1.903h185.283c1.862,0,3.652-0.676,5.041-1.903c3.482-3.077,8.309-7.467,11.528-10.9l0.079-0.084
	c5.281-5.634,16.271-17.356,16.271-30.796c0-15.431-9.703-48.424-17.5-74.935c-9.35-31.787-31.699-85.052-38.571-91.924
	c-5.477-5.477-17.188-8.493-32.978-8.493c-13.363,0-18.491-11.506-19.336-17.59c-0.032-0.228-0.048-0.457-0.048-0.688V90.595
	c0-5.462,2.178-8.309,4.005-9.734c0.46-0.358,1.527-1.337,1.527-2.691v-1.774H159.017z M163.784,66.395h35.789
	c-0.479-1.383-0.766-2.908-0.766-4.568c0-5.669,1.872-10.252,4.705-17.188c0.691-1.694,1.455-3.563,2.28-5.663
	c3.602-9.167,3.972-16.997,1.132-23.939C205.275,12.39,191.249,9.539,181.93,10c-0.168,0.01-0.336,0.01-0.504,0
	c-9.302-0.466-23.345,2.389-25.025,5.1c-2.809,6.878-2.439,14.709,1.163,23.876c0.825,2.1,1.588,3.969,2.28,5.663
	c2.833,6.936,4.705,11.519,4.705,17.188C164.549,63.487,164.262,65.012,163.784,66.395z M89.57,346.37
	c-1.763,0-3.473-0.935-4.384-2.588c-1.333-2.419-0.452-5.46,1.966-6.792c1.522-0.839,37.932-20.537,95.355-20.537
	c57.496,0,91.826,19.763,93.26,20.604c2.381,1.398,3.179,4.462,1.781,6.844c-1.399,2.38-4.459,3.179-6.844,1.781
	c-0.612-0.354-33.842-19.229-88.197-19.229c-54.876,0-90.179,19.103-90.529,19.295C91.213,346.169,90.386,346.37,89.57,346.37z
	 M226.169,269.286h-88.983c-2.761,0-5-2.238-5-5v-69.337c0-2.762,2.239-5,5-5h88.983c2.762,0,5,2.238,5,5v69.337
	C231.169,267.047,228.931,269.286,226.169,269.286z M142.186,259.286h78.983v-59.337h-78.983V259.286z"/>
<g>
</g>
<g>
</g>
<g>
</g>
<g>
</g>
<g>
</g>
<g>
</g>
<g>
</g>
<g>
</g>
<g>
</g>
<g>
</g>
<g>
</g>
<g>
</g>
<g>
</g>
<g>
</g>
<g>
</g>
</svg>
