<?xml version="1.0" encoding="iso-8859-1"?>
<!-- Generator: Adobe Illustrator 17.1.0, SVG Export Plug-In . SVG Version: 6.00 Build 0)  -->
<!DOCTYPE svg PUBLIC "-//W3C//DTD SVG 1.1//EN" "http://www.w3.org/Graphics/SVG/1.1/DTD/svg11.dtd">
<svg version="1.1" id="Capa_1" xmlns="http://www.w3.org/2000/svg" xmlns:xlink="http://www.w3.org/1999/xlink" x="0px" y="0px"
	 viewBox="0 0 334.93 334.93" style="enable-background:new 0 0 334.93 334.93;" xml:space="preserve">
<path d="M215.351,301.862c-18.579,0-36.26-8.324-48.209-22.485c-17.648,11.588-37.979,17.689-59.096,17.689
	C48.469,297.066,0,248.602,0,189.033c0-28.183,10.799-54.843,30.409-75.068c18.832-19.424,43.849-30.942,70.735-32.64
	c14.329-29.417,44.252-48.257,77.087-48.257c30.728,0,58.924,16.352,74.258,42.864c46.453,3.579,82.441,42.164,82.441,89.045
	c0,36.971-22.861,70.076-57.211,83.351C273.076,279.062,246.801,301.862,215.351,301.862z M168.187,267.589
	c0.268,0,0.537,0.021,0.804,0.065c1.31,0.213,2.481,0.938,3.256,2.016c9.989,13.896,26.103,22.191,43.104,22.191
	c27.36,0,50.065-20.5,52.814-47.684c0.196-1.937,1.497-3.583,3.335-4.221c31.958-11.089,53.429-41.221,53.429-74.98
	c0-42.466-33.255-77.267-75.708-79.228c-1.759-0.082-3.345-1.082-4.177-2.634c-13.237-24.702-38.839-40.048-66.813-40.048
	c-29.921,0-57.105,17.714-69.255,45.129c-0.776,1.75-2.483,2.903-4.396,2.971C51.544,93.022,10,136.009,10,189.033
	c0,54.056,43.983,98.033,98.046,98.033c20.608,0,40.394-6.408,57.217-18.533C166.12,267.916,167.144,267.589,168.187,267.589z
	 M142.698,213.453c-30.356,0-55.053-24.696-55.053-55.052c0-30.356,24.697-55.053,55.053-55.053
	c30.359,0,55.059,24.696,55.059,55.053C197.756,188.756,173.057,213.453,142.698,213.453z M142.698,113.348
	c-24.842,0-45.053,20.211-45.053,45.053s20.211,45.052,45.053,45.052c24.845,0,45.059-20.21,45.059-45.052
	S167.543,113.348,142.698,113.348z M115.014,151.98c-0.699,0-1.408-0.146-2.084-0.457c-2.509-1.152-3.609-4.121-2.457-6.631
	c5.49-11.953,17.17-17.116,17.665-17.33c2.535-1.1,5.478,0.068,6.574,2.604c1.094,2.529-0.064,5.465-2.587,6.567
	c-0.215,0.097-8.738,4.002-12.564,12.333C118.718,150.899,116.907,151.98,115.014,151.98z"/>
<g>
</g>
<g>
</g>
<g>
</g>
<g>
</g>
<g>
</g>
<g>
</g>
<g>
</g>
<g>
</g>
<g>
</g>
<g>
</g>
<g>
</g>
<g>
</g>
<g>
</g>
<g>
</g>
<g>
</g>
</svg>
