<?xml version="1.0" encoding="iso-8859-1"?>
<!-- Generator: Adobe Illustrator 17.1.0, SVG Export Plug-In . SVG Version: 6.00 Build 0)  -->
<!DOCTYPE svg PUBLIC "-//W3C//DTD SVG 1.1//EN" "http://www.w3.org/Graphics/SVG/1.1/DTD/svg11.dtd">
<svg version="1.1" id="Capa_1" xmlns="http://www.w3.org/2000/svg" xmlns:xlink="http://www.w3.org/1999/xlink" x="0px" y="0px"
	 viewBox="0 0 403.771 403.771" style="enable-background:new 0 0 403.771 403.771;" xml:space="preserve">
<path d="M176.106,397.754c-1.28,0-2.559-0.488-3.536-1.464l-42.958-42.958c-0.938-0.938-1.464-2.209-1.464-3.536
	s0.527-2.598,1.465-3.536l7.334-7.334c2.197-2.196,5.117-3.433,8.223-3.48l41.721-0.642l30.83-30.83l-6.588-6.588
	c-7.421-7.421-7.421-19.497,0-26.918l0.2-0.2c7.422-7.421,19.496-7.421,26.918,0l6.588,6.588l16.556-16.556l-6.588-6.588
	c-7.421-7.421-7.421-19.497,0-26.918l0.2-0.2c3.595-3.595,8.375-5.575,13.459-5.575s9.864,1.98,13.459,5.575l6.588,6.588
	l16.556-16.556l-6.588-6.588c-7.421-7.421-7.421-19.497,0-26.918l0.2-0.2c7.422-7.421,19.496-7.421,26.918,0l6.588,6.588
	l16.556-16.556l-6.588-6.588c-7.421-7.421-7.421-19.497,0-26.918l0.2-0.2c7.422-7.421,19.496-7.421,26.918,0l6.588,6.588
	l19.375-19.376c1.953-1.952,5.118-1.952,7.071,0c1.953,1.953,1.953,5.119,0,7.071l-19.375,19.375l6.588,6.588
	c7.421,7.421,7.421,19.497,0,26.918l-0.201,0.201c-3.595,3.595-8.375,5.575-13.458,5.575c-5.084,0-9.864-1.98-13.459-5.575
	l-6.588-6.588l-16.556,16.556l6.588,6.588c7.421,7.421,7.421,19.497,0,26.918l-0.201,0.201c-7.421,7.422-19.497,7.421-26.917,0
	l-6.588-6.588l-16.556,16.556l6.588,6.588c3.595,3.595,5.575,8.375,5.575,13.459s-1.98,9.864-5.575,13.459l-0.201,0.201
	c-7.421,7.422-19.497,7.421-26.917,0l-6.588-6.588l-16.556,16.556l6.588,6.588c7.421,7.421,7.421,19.497,0,26.918l-0.201,0.201
	c-7.421,7.42-19.497,7.421-26.917,0l-6.588-6.588l-32.263,32.263c-0.919,0.919-2.16,1.444-3.458,1.464l-43.747,0.673
	c-0.494,0.007-0.957,0.204-1.305,0.552l-3.799,3.798l35.887,35.887l4.34-4.34c1.953-1.952,5.118-1.952,7.071,0
	c1.953,1.953,1.953,5.119,0,7.071l-7.875,7.875C178.665,397.265,177.386,397.754,176.106,397.754z M224.792,274.698
	c-2.313,0-4.626,0.88-6.388,2.642l-0.2,0.2c-1.707,1.706-2.646,3.975-2.646,6.388s0.939,4.682,2.646,6.388l20.248,20.248
	c3.521,3.522,9.253,3.521,12.775,0l0.201-0.201c1.707-1.706,2.646-3.975,2.646-6.388s-0.939-4.682-2.646-6.388l-10.094-10.094
	c-0.01-0.01-0.02-0.02-0.03-0.029s-0.02-0.02-0.029-0.03l-10.094-10.094C229.418,275.578,227.105,274.698,224.792,274.698z
	 M268.465,231.024c-2.313,0-4.626,0.88-6.388,2.642l-0.2,0.2c-3.522,3.522-3.522,9.253,0,12.775l20.248,20.248
	c3.521,3.522,9.253,3.523,12.775,0l0.201-0.201c1.707-1.706,2.646-3.975,2.646-6.388s-0.939-4.682-2.646-6.388l-10.092-10.092
	c-0.011-0.01-0.021-0.021-0.032-0.031c-0.01-0.011-0.021-0.021-0.031-0.032l-10.092-10.092
	C273.092,231.904,270.779,231.024,268.465,231.024z M312.139,187.35c-2.313,0-4.626,0.88-6.388,2.642l-0.2,0.2
	c-3.522,3.522-3.522,9.253,0,12.775l20.248,20.248c3.521,3.522,9.253,3.523,12.775,0l0.201-0.201c3.522-3.522,3.522-9.253,0-12.775
	l-20.248-20.247C316.766,188.23,314.453,187.35,312.139,187.35z M355.813,143.676c-2.313,0-4.626,0.88-6.388,2.642l-0.2,0.2
	c-3.522,3.522-3.522,9.253,0,12.775l20.248,20.248c1.706,1.707,3.975,2.646,6.388,2.646c2.413,0,4.681-0.939,6.387-2.646
	l0.201-0.201c3.522-3.522,3.522-9.253,0-12.775l-20.248-20.247C360.44,144.556,358.127,143.676,355.813,143.676z M85.982,366.264
	c-1.326,0-2.598-0.527-3.536-1.464l-42.958-42.958c-1.953-1.953-1.953-5.119,0-7.071l7.334-7.334
	c2.197-2.196,5.117-3.432,8.222-3.48l41.722-0.642l30.83-30.83l-6.588-6.588c-7.421-7.421-7.421-19.497,0-26.918l0.196-0.196
	c7.426-7.425,19.501-7.425,26.922-0.004l6.588,6.588l16.556-16.556l-6.588-6.588c-7.421-7.421-7.421-19.496,0-26.917l0.196-0.196
	c7.426-7.425,19.501-7.425,26.922-0.004l6.588,6.588l16.556-16.556l-6.588-6.588c-3.595-3.595-5.575-8.375-5.575-13.458
	c0-5.084,1.98-9.864,5.575-13.459l0.196-0.196c7.426-7.425,19.501-7.425,26.922-0.004l6.588,6.588l16.556-16.556l-6.588-6.588
	c-3.595-3.595-5.575-8.375-5.575-13.459c0-5.083,1.98-9.863,5.575-13.458l0.196-0.196c3.6-3.599,8.379-5.579,13.463-5.579
	s9.864,1.98,13.459,5.575l6.588,6.588l16.556-16.556l-6.588-6.588c-3.595-3.595-5.575-8.375-5.575-13.459
	c0-5.083,1.98-9.863,5.575-13.458l0.196-0.196c7.426-7.425,19.501-7.425,26.922-0.004l6.588,6.588l31.482-31.482
	c1.953-1.952,5.118-1.952,7.071,0c1.953,1.953,1.953,5.119,0,7.071l-31.482,31.481l6.588,6.588c7.421,7.421,7.421,19.497,0,26.918
	l-0.205,0.205c-3.591,3.59-8.371,5.57-13.454,5.57c-5.084,0-9.864-1.98-13.459-5.575l-6.588-6.588l-16.556,16.556l6.588,6.588
	c7.421,7.421,7.421,19.497,0,26.918l-0.205,0.205c-3.591,3.59-8.371,5.57-13.454,5.57c-5.084,0-9.864-1.98-13.459-5.575
	l-6.588-6.588l-16.556,16.556l6.588,6.588c7.421,7.421,7.421,19.497,0,26.918l-0.205,0.205c-3.591,3.59-8.371,5.57-13.455,5.57
	c-5.083,0-9.863-1.98-13.458-5.575l-6.588-6.588l-16.556,16.556l6.588,6.588c7.421,7.421,7.421,19.497,0,26.918l-0.205,0.205
	c-7.417,7.417-19.492,7.417-26.914-0.004l-6.588-6.588l-16.556,16.556l6.588,6.588c7.421,7.421,7.421,19.497,0,26.918l-0.205,0.205
	c-7.417,7.417-19.492,7.417-26.914-0.004l-6.588-6.588l-32.263,32.263c-0.919,0.919-2.16,1.444-3.459,1.464l-43.747,0.673
	c-0.493,0.007-0.957,0.204-1.306,0.553l-3.798,3.798l35.887,35.887l4.34-4.34c1.952-1.952,5.118-1.952,7.071,0
	c1.953,1.953,1.953,5.118,0,7.071l-7.875,7.876C88.58,365.738,87.308,366.264,85.982,366.264z M134.667,243.208
	c-2.313,0-4.626,0.88-6.388,2.642l-0.196,0.196c-3.527,3.526-3.527,9.258-0.004,12.78l20.247,20.247
	c1.706,1.707,3.975,2.646,6.388,2.646s4.682-0.939,6.388-2.646l0.205-0.205c3.518-3.518,3.518-9.249-0.004-12.771l-10.082-10.082
	c-0.014-0.014-0.028-0.027-0.042-0.042s-0.028-0.028-0.042-0.042l-10.082-10.082C139.294,244.088,136.981,243.208,134.667,243.208z
	 M192,235.399c3.522,3.522,9.253,3.522,12.775,0l0.205-0.205c3.518-3.518,3.518-9.249-0.004-12.771l-10.084-10.084
	c-0.013-0.013-0.026-0.026-0.04-0.039s-0.026-0.026-0.039-0.04l-10.084-10.084c-3.522-3.522-9.253-3.522-12.775,0l-0.196,0.196
	c-3.527,3.526-3.527,9.257-0.004,12.779L192,235.399z M222.015,155.856c-2.413,0-4.682,0.939-6.388,2.646l-0.196,0.196
	c-3.526,3.526-3.526,9.257-0.004,12.779l20.248,20.248c1.706,1.707,3.975,2.646,6.387,2.646c2.413,0,4.682-0.939,6.388-2.646
	l0.205-0.205c3.518-3.518,3.518-9.249-0.004-12.771l-10.084-10.084c-0.013-0.013-0.026-0.026-0.04-0.039s-0.026-0.026-0.039-0.04
	l-10.084-10.084C226.696,156.795,224.428,155.856,222.015,155.856z M265.689,112.186c-2.313,0-4.626,0.88-6.388,2.642l-0.196,0.196
	c-3.527,3.526-3.527,9.257-0.004,12.779l20.248,20.248c1.706,1.707,3.975,2.646,6.388,2.646c2.413,0,4.681-0.939,6.387-2.646
	l0.205-0.205c3.518-3.518,3.518-9.249-0.004-12.771l-10.079-10.079c-0.015-0.015-0.03-0.029-0.045-0.044s-0.03-0.03-0.044-0.045
	l-10.079-10.079C270.315,113.067,268.002,112.186,265.689,112.186z M309.362,68.512c-2.313,0-4.626,0.88-6.388,2.642l-0.196,0.196
	c-1.711,1.71-2.65,3.979-2.65,6.392c0,2.413,0.939,4.682,2.646,6.388l20.248,20.248c1.706,1.707,3.975,2.646,6.388,2.646
	c2.413,0,4.681-0.939,6.387-2.646l0.205-0.205c3.518-3.518,3.518-9.249-0.004-12.771L325.916,81.32
	c-0.014-0.014-0.028-0.028-0.042-0.042s-0.028-0.028-0.042-0.042L315.75,71.154C313.989,69.393,311.676,68.512,309.362,68.512z
	 M47.958,278.777c-1.326,0-2.598-0.527-3.536-1.464L1.464,234.354c-1.953-1.953-1.953-5.119,0-7.071l7.334-7.334
	c2.197-2.196,5.117-3.432,8.222-3.48l41.722-0.642l30.83-30.83l-6.588-6.588c-7.421-7.421-7.421-19.497,0-26.918l0.196-0.196
	c3.6-3.599,8.379-5.579,13.463-5.579s9.864,1.98,13.459,5.575l6.588,6.588l16.556-16.556l-6.588-6.588
	c-3.595-3.595-5.575-8.375-5.575-13.459s1.98-9.864,5.575-13.459l0.196-0.196c3.6-3.599,8.379-5.579,13.463-5.579
	s9.864,1.98,13.459,5.575l6.588,6.588l16.556-16.556l-6.588-6.588c-3.595-3.595-5.575-8.375-5.575-13.458
	c0-5.084,1.98-9.864,5.575-13.459l0.201-0.201c7.422-7.421,19.498-7.42,26.917,0l6.588,6.588l16.556-16.556l-6.588-6.588
	c-7.421-7.421-7.421-19.496,0-26.917l0.201-0.201c7.421-7.421,19.497-7.42,26.917,0l6.588,6.588l19.375-19.375
	c1.953-1.952,5.118-1.952,7.071,0c1.953,1.953,1.953,5.119,0,7.071l-19.375,19.375l6.588,6.588
	c3.595,3.595,5.575,8.375,5.575,13.459s-1.98,9.864-5.575,13.459l-0.2,0.2c-7.422,7.421-19.496,7.421-26.918,0l-6.588-6.588
	l-16.556,16.556l6.588,6.588c7.421,7.421,7.421,19.497,0,26.918l-0.2,0.2c-7.422,7.421-19.496,7.421-26.918,0l-6.588-6.588
	l-16.556,16.556l6.588,6.588c7.421,7.421,7.421,19.497,0,26.918l-0.205,0.205c-7.417,7.418-19.492,7.417-26.913-0.004l-6.588-6.588
	l-16.556,16.556l6.588,6.588c7.421,7.421,7.421,19.497,0,26.918l-0.205,0.205c-7.417,7.418-19.492,7.417-26.913-0.004l-6.588-6.588
	l-32.262,32.263c-0.919,0.919-2.159,1.444-3.458,1.464l-43.748,0.673c-0.493,0.007-0.957,0.204-1.306,0.553l-3.798,3.798
	l35.887,35.887l4.34-4.34c1.952-1.952,5.118-1.952,7.071,0c1.953,1.953,1.953,5.118,0,7.071l-7.875,7.876
	C50.556,278.25,49.284,278.777,47.958,278.777z M96.644,155.716c-2.413,0-4.682,0.939-6.388,2.646l-0.196,0.196
	c-3.527,3.526-3.527,9.258-0.004,12.78l20.248,20.247c3.521,3.522,9.253,3.523,12.775,0l0.205-0.205
	c3.518-3.518,3.518-9.249-0.004-12.771l-20.248-20.248C101.325,156.655,99.057,155.716,96.644,155.716z M140.318,112.046
	c-2.313,0-4.626,0.88-6.388,2.642l-0.196,0.196c-1.711,1.71-2.65,3.979-2.65,6.392s0.939,4.682,2.646,6.388l20.248,20.247l0,0
	c3.521,3.522,9.253,3.521,12.775,0l0.205-0.205c3.518-3.518,3.518-9.249-0.004-12.771l-20.248-20.248
	C144.944,112.927,142.631,112.046,140.318,112.046z M183.991,68.372c-2.313,0-4.626,0.88-6.387,2.642l-0.201,0.201
	c-1.707,1.706-2.646,3.975-2.646,6.388c0,2.413,0.939,4.681,2.646,6.387l20.248,20.248c3.522,3.522,9.253,3.522,12.775,0l0.2-0.2
	c3.522-3.522,3.522-9.253,0-12.775l-20.248-20.248C188.618,69.253,186.305,68.372,183.991,68.372z M227.665,24.698
	c-2.313,0-4.626,0.88-6.387,2.642l-0.201,0.201c-1.707,1.706-2.646,3.975-2.646,6.388c0,2.413,0.939,4.681,2.646,6.387
	l20.248,20.248c3.522,3.522,9.253,3.522,12.775,0l0.2-0.2c1.707-1.706,2.646-3.975,2.646-6.388s-0.939-4.682-2.646-6.388
	L234.053,27.34C232.292,25.579,229.979,24.698,227.665,24.698z"/>
<g>
</g>
<g>
</g>
<g>
</g>
<g>
</g>
<g>
</g>
<g>
</g>
<g>
</g>
<g>
</g>
<g>
</g>
<g>
</g>
<g>
</g>
<g>
</g>
<g>
</g>
<g>
</g>
<g>
</g>
</svg>
