<?xml version="1.0" encoding="iso-8859-1"?>
<!-- Generator: Adobe Illustrator 17.1.0, SVG Export Plug-In . SVG Version: 6.00 Build 0)  -->
<!DOCTYPE svg PUBLIC "-//W3C//DTD SVG 1.1//EN" "http://www.w3.org/Graphics/SVG/1.1/DTD/svg11.dtd">
<svg version="1.1" id="Capa_1" xmlns="http://www.w3.org/2000/svg" xmlns:xlink="http://www.w3.org/1999/xlink" x="0px" y="0px"
	 viewBox="0 0 274.999 274.999" style="enable-background:new 0 0 274.999 274.999;" xml:space="preserve">
<path d="M224.999,256.499h-175c-2.761,0-5-2.238-5-5c0-0.407-0.112-41.52-8.957-108.344C27.275,76.912,0.846,26.341,0.579,25.837
	c-0.819-1.55-0.767-3.416,0.138-4.917s2.529-2.42,4.282-2.42h265c1.753,0,3.377,0.919,4.282,2.42s0.957,3.368,0.138,4.917
	c-0.266,0.503-26.696,51.075-35.463,117.318c-8.844,66.825-8.957,107.937-8.957,108.344
	C229.999,254.261,227.76,256.499,224.999,256.499z M54.919,246.499H220.08c0.228-9.607,1.104-32.683,4.452-66H50.467
	C53.815,213.816,54.691,236.892,54.919,246.499z M49.418,170.499H225.58c0.974-8.933,2.118-18.502,3.462-28.656
	c7.136-53.919,25.171-96.778,32.932-113.344H13.024c7.76,16.566,25.795,59.425,32.932,113.344
	C47.3,151.997,48.444,161.566,49.418,170.499z M66.993,134.5c-2.485,0-4.639-1.851-4.955-4.38
	C57.187,91.313,39.58,49.882,39.403,49.468c-1.087-2.538,0.089-5.477,2.627-6.564c2.537-1.086,5.477,0.088,6.564,2.626
	c0.747,1.742,18.336,43.112,23.366,83.35c0.342,2.74-1.601,5.239-4.341,5.582C67.409,134.487,67.2,134.5,66.993,134.5z"/>
<g>
</g>
<g>
</g>
<g>
</g>
<g>
</g>
<g>
</g>
<g>
</g>
<g>
</g>
<g>
</g>
<g>
</g>
<g>
</g>
<g>
</g>
<g>
</g>
<g>
</g>
<g>
</g>
<g>
</g>
</svg>
