<?xml version="1.0" encoding="iso-8859-1"?>
<!-- Generator: Adobe Illustrator 17.1.0, SVG Export Plug-In . SVG Version: 6.00 Build 0)  -->
<!DOCTYPE svg PUBLIC "-//W3C//DTD SVG 1.1//EN" "http://www.w3.org/Graphics/SVG/1.1/DTD/svg11.dtd">
<svg version="1.1" id="Capa_1" xmlns="http://www.w3.org/2000/svg" xmlns:xlink="http://www.w3.org/1999/xlink" x="0px" y="0px"
	 viewBox="0 0 414.019 414.019" style="enable-background:new 0 0 414.019 414.019;" xml:space="preserve">
<path d="M207.01,414.019c-51.28,0-93-41.72-93-93c0-46.106,33.723-84.484,77.801-91.759v-67.631
	c-6.109-3.712-10.199-10.432-10.199-18.088V21.149C181.611,9.487,191.098,0,202.76,0h8.499c11.662,0,21.149,9.487,21.149,21.149
	v122.392c0,7.656-4.09,14.375-10.199,18.088v67.632c44.078,7.274,77.801,45.652,77.801,91.758
	C300.01,372.299,258.29,414.019,207.01,414.019z M207.01,238.019c-45.767,0-83,37.234-83,83c0,45.767,37.233,83,83,83
	s83-37.233,83-83C290.01,275.253,252.776,238.019,207.01,238.019z M201.81,227.785h10.398V164.69H201.81V227.785z M202.76,154.69
	h8.499c6.147,0,11.149-5.001,11.149-11.149V21.149c0-6.147-5.001-11.149-11.149-11.149h-8.499c-6.147,0-11.149,5.001-11.149,11.149
	v122.392C191.611,149.688,196.613,154.69,202.76,154.69z M239.776,379.849c-2.761,0-5-2.239-5-5v-8.425c0-2.761,2.239-5,5-5
	s5,2.239,5,5v8.425C244.776,377.61,242.537,379.849,239.776,379.849z M207.01,379.849c-2.761,0-5-2.239-5-5v-8.425
	c0-2.761,2.239-5,5-5s5,2.239,5,5v8.425C212.01,377.61,209.771,379.849,207.01,379.849z M174.243,379.849c-2.761,0-5-2.239-5-5
	v-8.425c0-2.761,2.239-5,5-5s5,2.239,5,5v8.425C179.243,377.61,177.005,379.849,174.243,379.849z M257.563,354.572
	c-2.761,0-5-2.239-5-5v-8.426c0-2.761,2.239-5,5-5s5,2.239,5,5v8.426C262.563,352.333,260.324,354.572,257.563,354.572z
	 M223.861,354.572c-2.761,0-5-2.239-5-5v-8.426c0-2.761,2.239-5,5-5s5,2.239,5,5v8.426
	C228.861,352.333,226.622,354.572,223.861,354.572z M190.158,354.572c-2.761,0-5-2.239-5-5v-8.426c0-2.761,2.239-5,5-5s5,2.239,5,5
	v8.426C195.158,352.333,192.92,354.572,190.158,354.572z M156.456,354.572c-2.761,0-5-2.239-5-5v-8.426c0-2.761,2.239-5,5-5
	s5,2.239,5,5v8.426C161.456,352.333,159.218,354.572,156.456,354.572z M272.541,330.232c-2.761,0-5-2.239-5-5v-8.426
	c0-2.761,2.239-5,5-5s5,2.239,5,5v8.426C277.541,327.993,275.302,330.232,272.541,330.232z M239.776,330.232c-2.761,0-5-2.239-5-5
	v-8.426c0-2.761,2.239-5,5-5s5,2.239,5,5v8.426C244.776,327.993,242.537,330.232,239.776,330.232z M207.01,330.232
	c-2.761,0-5-2.239-5-5v-8.426c0-2.761,2.239-5,5-5s5,2.239,5,5v8.426C212.01,327.993,209.771,330.232,207.01,330.232z
	 M174.243,330.232c-2.761,0-5-2.239-5-5v-8.426c0-2.761,2.239-5,5-5s5,2.239,5,5v8.426
	C179.243,327.993,177.005,330.232,174.243,330.232z M141.478,330.232c-2.761,0-5-2.239-5-5v-8.426c0-2.761,2.239-5,5-5s5,2.239,5,5
	v8.426C146.478,327.993,144.239,330.232,141.478,330.232z M257.563,304.955c-2.761,0-5-2.239-5-5v-8.425c0-2.761,2.239-5,5-5
	s5,2.239,5,5v8.425C262.563,302.716,260.324,304.955,257.563,304.955z M223.861,304.955c-2.761,0-5-2.239-5-5v-8.425
	c0-2.761,2.239-5,5-5s5,2.239,5,5v8.425C228.861,302.716,226.622,304.955,223.861,304.955z M190.158,304.955c-2.761,0-5-2.239-5-5
	v-8.425c0-2.761,2.239-5,5-5s5,2.239,5,5v8.425C195.158,302.716,192.92,304.955,190.158,304.955z M156.456,304.955
	c-2.761,0-5-2.239-5-5v-8.425c0-2.761,2.239-5,5-5s5,2.239,5,5v8.425C161.456,302.716,159.218,304.955,156.456,304.955z
	 M239.776,280.615c-2.761,0-5-2.239-5-5v-8.425c0-2.761,2.239-5,5-5s5,2.239,5,5v8.425
	C244.776,278.376,242.537,280.615,239.776,280.615z M207.01,280.615c-2.761,0-5-2.239-5-5v-8.425c0-2.761,2.239-5,5-5s5,2.239,5,5
	v8.425C212.01,278.376,209.771,280.615,207.01,280.615z M174.243,280.615c-2.761,0-5-2.239-5-5v-8.425c0-2.761,2.239-5,5-5
	s5,2.239,5,5v8.425C179.243,278.376,177.005,280.615,174.243,280.615z"/>
<g>
</g>
<g>
</g>
<g>
</g>
<g>
</g>
<g>
</g>
<g>
</g>
<g>
</g>
<g>
</g>
<g>
</g>
<g>
</g>
<g>
</g>
<g>
</g>
<g>
</g>
<g>
</g>
<g>
</g>
</svg>
