<?xml version="1.0" encoding="iso-8859-1"?>
<!-- Generator: Adobe Illustrator 17.1.0, SVG Export Plug-In . SVG Version: 6.00 Build 0)  -->
<!DOCTYPE svg PUBLIC "-//W3C//DTD SVG 1.1//EN" "http://www.w3.org/Graphics/SVG/1.1/DTD/svg11.dtd">
<svg version="1.1" id="Capa_1" xmlns="http://www.w3.org/2000/svg" xmlns:xlink="http://www.w3.org/1999/xlink" x="0px" y="0px"
	 viewBox="0 0 381.668 381.668" style="enable-background:new 0 0 381.668 381.668;" xml:space="preserve">
<path d="M263.262,381.668H116.465c-8.288,0-15.03-6.742-15.03-15.029v-32.824c0-0.298,0.009-0.595,0.027-0.892
	c-52.079-29.101-86.747-81.438-93.001-140.73c-0.148-1.409,0.308-2.815,1.256-3.869s2.299-1.655,3.716-1.655h354.8
	c1.417,0,2.768,0.602,3.716,1.655s1.405,2.46,1.256,3.869c-6.344,60.145-41.733,112.891-94.915,141.774v32.672
	C278.292,374.926,271.55,381.668,263.262,381.668z M111.436,335.295v31.344c0,2.773,2.256,5.029,5.03,5.029h146.797
	c2.773,0,5.03-2.256,5.03-5.029v-31.344H111.436z M108.341,325.295h164.583c0.12,0,0.24,0.004,0.358,0.013
	c48.779-26.397,81.775-73.999,89.308-128.64H19.079C26.602,251.191,59.621,298.899,108.341,325.295z M110.232,306.469
	c-0.643,0-1.296-0.124-1.926-0.388c-0.896-0.374-22.2-9.466-43.882-34.975c-21.677-25.502-28.76-54.061-29.05-55.264
	c-0.649-2.684,1.001-5.386,3.685-6.035c2.683-0.643,5.383,1,6.034,3.681l0,0c0.066,0.272,6.873,27.521,26.951,51.142
	c20.146,23.701,39.921,32.142,40.118,32.225c2.548,1.064,3.75,3.993,2.686,6.541C114.046,305.314,112.189,306.469,110.232,306.469z
	 M246.339,146.669c-1.664,0-3.291-0.83-4.24-2.344c-1.466-2.336-0.763-5.417,1.568-6.887l0,0
	c0.231-0.146,23.142-14.951,23.142-39.728c0-11.513-4.739-15.895-10.739-21.441c-6.907-6.386-14.735-13.624-14.735-31.308
	c0-33.198,22.869-44.061,23.843-44.506c2.51-1.151,5.478-0.049,6.628,2.462c1.15,2.511,0.048,5.478-2.462,6.629
	c-0.706,0.335-18.009,8.863-18.009,35.415c0,13.311,5.34,18.248,11.524,23.965c6.539,6.046,13.951,12.897,13.951,28.784
	c0,30.389-26.681,47.479-27.817,48.192C248.166,146.422,247.247,146.669,246.339,146.669z M178.102,146.669
	c-1.664,0-3.291-0.83-4.24-2.344c-1.466-2.336-0.763-5.417,1.568-6.887l0,0c0.231-0.146,23.142-14.951,23.142-39.728
	c0-11.513-4.739-15.895-10.739-21.441c-6.907-6.386-14.735-13.624-14.735-31.308c0-33.198,22.869-44.061,23.843-44.506
	c2.511-1.151,5.478-0.049,6.628,2.462s0.048,5.478-2.462,6.629c-0.706,0.335-18.009,8.863-18.009,35.415
	c0,13.311,5.34,18.248,11.524,23.965c6.539,6.046,13.951,12.897,13.951,28.784c0,30.389-26.681,47.479-27.817,48.192
	C179.928,146.422,179.009,146.669,178.102,146.669z M109.864,146.669c-1.664,0-3.291-0.83-4.24-2.344
	c-1.466-2.336-0.763-5.417,1.568-6.887l0,0c0.231-0.146,23.142-14.951,23.142-39.728c0-11.513-4.739-15.895-10.739-21.441
	c-6.907-6.386-14.735-13.624-14.735-31.308c0-33.198,22.869-44.061,23.843-44.506c2.509-1.151,5.478-0.049,6.628,2.462
	c1.15,2.511,0.048,5.478-2.462,6.629c-0.706,0.335-18.009,8.863-18.009,35.415c0,13.311,5.34,18.248,11.524,23.965
	c6.539,6.046,13.951,12.897,13.951,28.784c0,30.389-26.681,47.479-27.817,48.192C111.691,146.422,110.772,146.669,109.864,146.669z"
	/>
<g>
</g>
<g>
</g>
<g>
</g>
<g>
</g>
<g>
</g>
<g>
</g>
<g>
</g>
<g>
</g>
<g>
</g>
<g>
</g>
<g>
</g>
<g>
</g>
<g>
</g>
<g>
</g>
<g>
</g>
</svg>
