<?xml version="1.0" encoding="iso-8859-1"?>
<!-- Generator: Adobe Illustrator 17.1.0, SVG Export Plug-In . SVG Version: 6.00 Build 0)  -->
<!DOCTYPE svg PUBLIC "-//W3C//DTD SVG 1.1//EN" "http://www.w3.org/Graphics/SVG/1.1/DTD/svg11.dtd">
<svg version="1.1" id="Capa_1" xmlns="http://www.w3.org/2000/svg" xmlns:xlink="http://www.w3.org/1999/xlink" x="0px" y="0px"
	 viewBox="0 0 352.918 352.918" style="enable-background:new 0 0 352.918 352.918;" xml:space="preserve">
<path d="M75.964,278.366c-19.462,0-38.924-7.408-53.74-22.224l0,0c-29.632-29.633-29.632-77.848,0-107.48
	c1.953-1.952,5.118-1.952,7.071,0l96.874,96.874L284.561,87.142c0.033-0.034,0.067-0.067,0.102-0.1
	c0.292-0.275,7.262-6.789,17.354-10.282c9.734-3.37,24.18-4.55,37.697,8.968c25.605,25.605,6.118,48.982,5.918,49.216
	c-1.796,2.098-4.953,2.339-7.05,0.542c-2.097-1.797-2.34-4.954-0.542-7.05c0.015-0.019,3.543-4.305,4.603-10.771
	c1.389-8.476-1.976-16.842-9.999-24.866c-18.612-18.612-39.653,0.166-41.077,1.479L127.583,258.262
	c-0.249,0.249-0.517,0.465-0.8,0.651C112.38,271.881,94.172,278.366,75.964,278.366z M29.295,249.07
	c12.465,12.466,29.04,19.331,46.669,19.331c15.952,0,31.041-5.622,43.002-15.926L25.892,159.4
	C3.616,185.301,4.751,224.526,29.295,249.07L29.295,249.07z M24.34,215.18c-2.334,0-4.422-1.644-4.897-4.021
	c-3.163-15.812,5.169-30.448,5.525-31.063c1.383-2.389,4.442-3.206,6.833-1.822c2.386,1.382,3.203,4.434,1.828,6.822
	c-0.094,0.165-6.784,12.082-4.38,24.102c0.542,2.708-1.214,5.342-3.922,5.883C24.995,215.148,24.665,215.18,24.34,215.18z"/>
<g>
</g>
<g>
</g>
<g>
</g>
<g>
</g>
<g>
</g>
<g>
</g>
<g>
</g>
<g>
</g>
<g>
</g>
<g>
</g>
<g>
</g>
<g>
</g>
<g>
</g>
<g>
</g>
<g>
</g>
</svg>
