<?xml version="1.0" encoding="iso-8859-1"?>
<!-- Generator: Adobe Illustrator 17.1.0, SVG Export Plug-In . SVG Version: 6.00 Build 0)  -->
<!DOCTYPE svg PUBLIC "-//W3C//DTD SVG 1.1//EN" "http://www.w3.org/Graphics/SVG/1.1/DTD/svg11.dtd">
<svg version="1.1" id="Capa_1" xmlns="http://www.w3.org/2000/svg" xmlns:xlink="http://www.w3.org/1999/xlink" x="0px" y="0px"
	 viewBox="0 0 377.98 377.98" style="enable-background:new 0 0 377.98 377.98;" xml:space="preserve">
<path d="M134.09,377.98c-25.433,0-49.19-7.813-69.901-23.175c-27.844-20.653-46.073-54.961-47.575-89.537
	c-0.962-22.149,4.469-54.38,35.803-82.142c24.77-21.947,57.481-24.933,86.343-27.567c12.615-1.152,24.531-2.239,33.754-4.914
	c21.81-6.324,41.318-23.117,57.985-49.912c10.166-16.342,34.97-49.473,56.081-57.891c7.786-3.104,20.633-3.518,26.865-2.817
	c6.312,0.708,12.378,2.701,17.961,5.817c1.772-3.251,4.387-8.911,6.175-16.614c2.878-12.397,0.083-22.786,0.055-22.89
	c-0.733-2.656,0.818-5.412,3.473-6.153c2.654-0.739,5.405,0.796,6.154,3.448c0.146,0.518,3.543,12.849,0.059,27.856
	c-2.197,9.466-5.5,16.301-7.657,20.081c4.797,4.05,9.037,9.048,12.514,14.854c7.411,12.375,10.412,30.186,8.918,52.937
	c-1.854,28.251-14.153,65.376-34.631,104.537c-19.71,37.693-45.051,73.113-69.523,97.179c-27.119,26.668-59.622,45.53-91.521,53.113
	C154.767,376.722,144.293,377.98,134.09,377.98z M247.892,92.936c-3.465,4.729-6.502,9.221-8.901,13.079
	c-18.012,28.955-39.44,47.202-63.692,54.234c-10.145,2.941-22.523,4.071-35.63,5.268c-27.33,2.495-58.307,5.323-80.621,25.093
	c-28.387,25.151-33.311,54.246-32.442,74.224c1.374,31.64,18.059,63.038,43.541,81.94c57.649,42.76,131.835,14.323,179.783-32.826
	c42.711-42.001,83.232-114.074,96.703-168.248c-4.997-3.127-15.053-10.299-19.297-19.637c-1.01-2.222-1.659-4.683-2.055-7.192
	c-1.303,1.438-2.732,2.81-4.29,4.043c-13.307,10.534-26.759,10.097-27.312,10.075c-1.799-0.075-3.418-1.11-4.24-2.711
	c-0.277-0.542-6.818-13.396-7.542-24.972c-0.224-3.572-0.18-6.968,0.006-10.032c-3.282,1.947-7.222,3.455-11.73,3.712
	C260.729,99.523,252.216,95.469,247.892,92.936z M330.885,94.993c0.447,0,0.9,0.06,1.35,0.186c2.528,0.708,4.078,3.25,3.55,5.821
	c-0.761,3.741-2.128,14.803,0.654,20.925c2.373,5.219,7.965,10.079,12.499,13.302c1.1-5.793,1.838-11.326,2.179-16.52l0,0
	c1.358-20.684-1.172-36.545-7.52-47.144c-7.382-12.327-18.778-20.2-31.268-21.6c-6.129-0.686-16.692,0.034-22.047,2.169
	c-11.21,4.47-25.03,18.67-36.262,32.78c3.477,1.893,9.394,4.442,15.581,4.09c8.885-0.508,15.027-9.632,15.087-9.725
	c1.339-2.067,3.98-2.852,6.231-1.852c2.249,1.001,3.436,3.491,2.795,5.869c-0.024,0.09-2.563,9.788-1.838,21.388
	c0.412,6.586,3.321,14.078,5.091,18.102c3.798-0.503,10.825-2.176,17.815-7.71c6.181-4.893,10.321-13.759,11.396-16.763
	C326.905,96.278,328.822,94.993,330.885,94.993z M47.887,273.98c-1.973,0-3.834-1.171-4.619-3.112
	c-0.335-0.828-8.039-20.595,6.191-48.168c16.954-32.849,71.301-42.255,73.605-42.639c2.726-0.458,5.3,1.387,5.754,4.11
	c0.454,2.724-1.386,5.3-4.109,5.754c-0.656,0.111-51.732,9.014-66.363,37.361c-12,23.251-6.055,39.197-5.795,39.865
	c0.993,2.561-0.259,5.461-2.813,6.474C49.13,273.866,48.503,273.98,47.887,273.98z"/>
<g>
</g>
<g>
</g>
<g>
</g>
<g>
</g>
<g>
</g>
<g>
</g>
<g>
</g>
<g>
</g>
<g>
</g>
<g>
</g>
<g>
</g>
<g>
</g>
<g>
</g>
<g>
</g>
<g>
</g>
</svg>
