<?xml version="1.0" encoding="iso-8859-1"?>
<!-- Generator: Adobe Illustrator 17.1.0, SVG Export Plug-In . SVG Version: 6.00 Build 0)  -->
<!DOCTYPE svg PUBLIC "-//W3C//DTD SVG 1.1//EN" "http://www.w3.org/Graphics/SVG/1.1/DTD/svg11.dtd">
<svg version="1.1" id="Capa_1" xmlns="http://www.w3.org/2000/svg" xmlns:xlink="http://www.w3.org/1999/xlink" x="0px" y="0px"
	 viewBox="0 0 388.037 388.037" style="enable-background:new 0 0 388.037 388.037;" xml:space="preserve">
<path d="M362,315.679H26.037C11.68,315.679,0,303.998,0,289.642V98.396c0-14.356,11.68-26.037,26.037-26.037H362
	c14.356,0,26.037,11.681,26.037,26.037v191.246C388.037,303.998,376.356,315.679,362,315.679z M10,267.642v22
	c0,8.843,7.194,16.037,16.037,16.037H362c8.843,0,16.037-7.194,16.037-16.037v-22H10z M10,257.642h368.037V98.396
	c0-8.843-7.194-16.037-16.037-16.037H26.037C17.194,82.358,10,89.553,10,98.396V257.642z M101,302.642c-8.822,0-16-7.178-16-16
	s7.178-16,16-16s16,7.178,16,16S109.822,302.642,101,302.642z M101,280.642c-3.309,0-6,2.691-6,6s2.691,6,6,6s6-2.691,6-6
	S104.309,280.642,101,280.642z M49.75,302.642c-8.822,0-16-7.178-16-16s7.178-16,16-16s16,7.178,16,16S58.572,302.642,49.75,302.642
	z M49.75,280.642c-3.309,0-6,2.691-6,6s2.691,6,6,6s6-2.691,6-6S53.059,280.642,49.75,280.642z M358.037,292.358h-46
	c-2.762,0-5-2.238-5-5s2.238-5,5-5h46c2.762,0,5,2.238,5,5S360.799,292.358,358.037,292.358z M285.303,248.358c-2.762,0-5-2.238-5-5
	v-14.57c-27.991-2.379-50.425-24.554-53.209-52.43h-51.9c-2.842,33.394-29.743,60.033-63.252,62.461v4.539c0,2.762-2.239,5-5,5
	s-5-2.238-5-5v-4.539c-33.509-2.428-60.41-29.067-63.252-62.461H21.037c-2.761,0-5-2.238-5-5s2.239-5,5-5h17.528
	c2.049-34.194,29.295-61.709,63.376-64.178v-6.822c0-2.762,2.239-5,5-5s5,2.238,5,5v6.822c34.082,2.469,61.328,29.983,63.376,64.178
	h51.631c2.015-28.678,24.79-51.719,53.354-54.146V95.358c0-2.762,2.238-5,5-5s5,2.238,5,5v16.854
	c28.564,2.428,51.34,25.469,53.354,54.146h19.38c2.762,0,5,2.238,5,5s-2.238,5-5,5h-19.525
	c-2.784,27.876-25.218,50.051-53.209,52.43v14.57C290.303,246.12,288.064,248.358,285.303,248.358z M111.941,209.686v19.103
	c27.992-2.379,50.425-24.554,53.209-52.43h-19.143C143.412,193.744,129.445,207.464,111.941,209.686z M48.732,176.358
	c2.784,27.876,25.217,50.051,53.209,52.43v-19.103c-17.503-2.222-31.471-15.941-34.066-33.327H48.732z M237.154,176.358
	c2.705,22.354,20.677,40.074,43.148,42.386v-15.116c-14.189-2.133-25.495-13.198-27.987-27.27H237.154z M290.303,203.628v15.116
	c22.472-2.312,40.443-20.031,43.148-42.386H318.29C315.798,190.43,304.492,201.495,290.303,203.628z M111.941,176.358v23.218
	c11.98-2.054,21.517-11.357,23.916-23.218H111.941z M78.025,176.358c2.399,11.86,11.936,21.164,23.916,23.218v-23.218H78.025z
	 M262.542,176.358c2.2,8.544,9.097,15.222,17.761,17.106v-17.106H262.542z M290.303,176.358v17.106
	c8.664-1.885,15.561-8.563,17.761-17.106H290.303z M318.548,166.358h15.08c-1.969-23.159-20.281-41.732-43.325-44.103v15.116
	C305.064,139.591,316.705,151.479,318.548,166.358z M290.303,166.358h18.135c-1.671-9.357-8.898-16.813-18.135-18.823V166.358z
	 M262.168,166.358h18.135v-18.823C271.066,149.545,263.839,157.001,262.168,166.358z M236.978,166.358h15.08
	c1.843-14.88,13.483-26.768,28.245-28.986v-15.116C257.259,124.626,238.946,143.199,236.978,166.358z M146.226,166.358h19.071
	c-2.015-28.678-24.791-51.719-53.355-54.146v19.103C130.017,133.608,144.322,148.166,146.226,166.358z M111.941,166.358h24.21
	c-1.788-12.671-11.657-22.783-24.21-24.935V166.358z M77.731,166.358h24.21v-24.935C89.389,143.575,79.52,153.688,77.731,166.358z
	 M48.586,166.358h19.07c1.904-18.192,16.209-32.75,34.285-35.044v-19.103C73.377,114.64,50.601,137.681,48.586,166.358z"/>
<g>
</g>
<g>
</g>
<g>
</g>
<g>
</g>
<g>
</g>
<g>
</g>
<g>
</g>
<g>
</g>
<g>
</g>
<g>
</g>
<g>
</g>
<g>
</g>
<g>
</g>
<g>
</g>
<g>
</g>
</svg>
