<?xml version="1.0" encoding="iso-8859-1"?>
<!-- Generator: Adobe Illustrator 17.1.0, SVG Export Plug-In . SVG Version: 6.00 Build 0)  -->
<!DOCTYPE svg PUBLIC "-//W3C//DTD SVG 1.1//EN" "http://www.w3.org/Graphics/SVG/1.1/DTD/svg11.dtd">
<svg version="1.1" id="Capa_1" xmlns="http://www.w3.org/2000/svg" xmlns:xlink="http://www.w3.org/1999/xlink" x="0px" y="0px"
	 viewBox="0 0 350.335 350.335" style="enable-background:new 0 0 350.335 350.335;" xml:space="preserve">
<path d="M175.167,350.335c-3.715,0-7.431-0.464-11.043-1.392c-7.932-2.038-19.57-6.111-29.966-13.949
	c-16.069-12.114-33.92-35.016-46.065-52.095l-0.173-0.243c-10.78-15.159-27.072-38.068-41.563-89.293
	c-7.065-24.974-6.78-46.581,0.847-64.221c6.798-15.723,19.08-28.322,37.548-38.518c12.43-6.862,28.368-9.199,43.793-9.348
	c-4.342-4.702-9.261-11.193-12.807-19.263c-3-6.825-5.146-13.802-6.379-20.736c-0.687-3.866,0.547-7.851,3.302-10.66
	c2.771-2.825,6.758-4.146,10.663-3.527c9.708,1.531,23.785,4.98,35.712,12.717c6.418,4.163,11.367,8.78,15.13,13.139
	c-0.495-11.481-2.491-32.703-10.314-45.308c-1.457-2.346-0.735-5.429,1.611-6.885c2.347-1.458,5.428-0.735,6.885,1.611
	c7.016,11.303,9.94,27.683,11.148,40.284c3.403-7.089,8.127-14.17,14.65-19.515c10.735-8.797,22.743-12.449,30.925-13.962
	c4.706-0.874,9.521,0.381,13.205,3.435c3.684,3.054,5.807,7.55,5.824,12.337c0.031,8.796-2.085,17.627-6.291,26.249
	c-5.989,12.277-16.784,23.024-25.135,30.11c16.954-0.343,35.098,1.695,48.91,9.32c18.468,10.196,30.75,22.795,37.548,38.518
	c7.627,17.64,7.912,39.247,0.847,64.221c-14.491,51.225-30.783,74.134-41.563,89.293l-0.173,0.243
	c-12.145,17.079-29.996,39.981-46.065,52.095c-10.396,7.837-22.034,11.911-29.966,13.949
	C182.598,349.87,178.883,350.335,175.167,350.335z M138.167,325.441c0.673,0.542,1.344,1.066,2.01,1.568
	c9.077,6.843,19.386,10.438,26.435,12.249c5.597,1.438,11.514,1.438,17.11,0c7.049-1.811,17.358-5.405,26.435-12.249
	c0.666-0.502,1.336-1.025,2.01-1.568v-10.439c0-2.761,2.239-5,5-5s5,2.239,5,5v1.295c4.839-4.893,9.692-10.408,14.336-16.063
	c-1.404-0.885-2.336-2.45-2.336-4.232v-14c0-2.761,2.239-5,5-5s5,2.239,5,5v8.562c3.578-4.668,6.928-9.245,9.925-13.459l0.173-0.244
	c6.728-9.461,15.686-22.057,24.974-43.244c-1.805-0.754-3.073-2.537-3.073-4.615v-14c0-2.761,2.239-5,5-5s5,2.239,5,5v1.226
	c2.758-7.614,5.504-16.097,8.189-25.586c12.137-42.904,1.459-71.903-33.605-91.262c-22.859-12.62-61.893-7.377-77.615-4.538
	c-5.286,0.956-10.649,0.956-15.937,0c-15.721-2.84-54.755-8.083-77.615,4.538c-35.064,19.358-45.743,48.357-33.605,91.262
	c3.333,11.782,6.761,22.011,10.189,30.954v-6.593c0-2.761,2.239-5,5-5s5,2.239,5,5v14c0,2.729-2.187,4.948-4.904,4.999
	c9.228,20.957,18.118,33.456,24.805,42.86l0.173,0.244c3.549,4.991,7.594,10.49,11.925,16.047v-11.149c0-2.761,2.239-5,5-5
	s5,2.239,5,5v14c0,2.355-1.628,4.33-3.82,4.86c4.487,5.434,9.161,10.723,13.82,15.435v-1.295c0-2.761,2.239-5,5-5s5,2.239,5,5
	V325.441z M143.867,81.784c9.539,0.694,18.28,1.982,25.109,3.215c4.108,0.742,8.274,0.742,12.381,0
	c4.94-0.892,10.883-1.813,17.403-2.517c0.238-0.241,0.505-0.46,0.799-0.654c0.353-0.234,24.016-16.067,33.261-35.019
	c3.528-7.234,5.304-14.578,5.278-21.829c-0.006-1.814-0.811-3.518-2.206-4.675c-1.396-1.157-3.221-1.631-5.003-1.301
	c-7.029,1.3-17.315,4.414-26.407,11.864c-16.164,13.246-19.382,41.384-19.413,41.667c-0.254,2.339-2.104,4.188-4.445,4.436
	c-2.34,0.25-4.537-1.167-5.274-3.401c-0.042-0.125-5.103-14.57-21.758-25.374c-10.453-6.78-23.078-9.849-31.828-11.229
	c-1.002-0.16-1.662,0.34-1.966,0.651c-0.296,0.301-0.766,0.95-0.596,1.907c1.095,6.152,3.009,12.365,5.689,18.464
	C131.088,72.091,142.378,80.692,143.867,81.784z M175.167,334.001c-2.761,0-5-2.239-5-5v-14c0-2.761,2.239-5,5-5s5,2.239,5,5v14
	C180.167,331.762,177.929,334.001,175.167,334.001z M197.167,301.001c-2.761,0-5-2.239-5-5v-14c0-2.761,2.239-5,5-5s5,2.239,5,5v14
	C202.167,298.762,199.929,301.001,197.167,301.001z M155.167,301.001c-2.761,0-5-2.239-5-5v-14c0-2.761,2.239-5,5-5s5,2.239,5,5v14
	C160.167,298.762,157.929,301.001,155.167,301.001z M256.167,267.001c-2.761,0-5-2.239-5-5v-14c0-2.761,2.239-5,5-5s5,2.239,5,5v14
	C261.167,264.762,258.929,267.001,256.167,267.001z M217.167,267.001c-2.761,0-5-2.239-5-5v-14c0-2.761,2.239-5,5-5s5,2.239,5,5v14
	C222.167,264.762,219.929,267.001,217.167,267.001z M175.167,267.001c-2.761,0-5-2.239-5-5v-14c0-2.761,2.239-5,5-5s5,2.239,5,5v14
	C180.167,264.762,177.929,267.001,175.167,267.001z M133.167,267.001c-2.761,0-5-2.239-5-5v-14c0-2.761,2.239-5,5-5s5,2.239,5,5v14
	C138.167,264.762,135.929,267.001,133.167,267.001z M94.167,267.001c-2.761,0-5-2.239-5-5v-14c0-2.761,2.239-5,5-5s5,2.239,5,5v14
	C99.167,264.762,96.929,267.001,94.167,267.001z M239.167,234.001c-2.761,0-5-2.239-5-5v-14c0-2.761,2.239-5,5-5s5,2.239,5,5v14
	C244.167,231.762,241.929,234.001,239.167,234.001z M197.167,234.001c-2.761,0-5-2.239-5-5v-14c0-2.761,2.239-5,5-5s5,2.239,5,5v14
	C202.167,231.762,199.929,234.001,197.167,234.001z M155.167,234.001c-2.761,0-5-2.239-5-5v-14c0-2.761,2.239-5,5-5s5,2.239,5,5v14
	C160.167,231.762,157.929,234.001,155.167,234.001z M113.167,234.001c-2.761,0-5-2.239-5-5v-14c0-2.761,2.239-5,5-5s5,2.239,5,5v14
	C118.167,231.762,115.929,234.001,113.167,234.001z M259.167,200.001c-2.761,0-5-2.239-5-5v-14c0-2.761,2.239-5,5-5s5,2.239,5,5v14
	C264.167,197.762,261.929,200.001,259.167,200.001z M217.167,200.001c-2.761,0-5-2.239-5-5v-14c0-2.761,2.239-5,5-5s5,2.239,5,5v14
	C222.167,197.762,219.929,200.001,217.167,200.001z M175.167,200.001c-2.761,0-5-2.239-5-5v-14c0-2.761,2.239-5,5-5s5,2.239,5,5v14
	C180.167,197.762,177.929,200.001,175.167,200.001z M133.167,200.001c-2.761,0-5-2.239-5-5v-14c0-2.761,2.239-5,5-5s5,2.239,5,5v14
	C138.167,197.762,135.929,200.001,133.167,200.001z M91.167,200.001c-2.761,0-5-2.239-5-5v-14c0-2.761,2.239-5,5-5s5,2.239,5,5v14
	C96.167,197.762,93.929,200.001,91.167,200.001z M281.167,167.001c-2.761,0-5-2.239-5-5v-14c0-2.761,2.239-5,5-5s5,2.239,5,5v14
	C286.167,164.762,283.929,167.001,281.167,167.001z M239.167,167.001c-2.761,0-5-2.239-5-5v-14c0-2.761,2.239-5,5-5s5,2.239,5,5v14
	C244.167,164.762,241.929,167.001,239.167,167.001z M197.167,167.001c-2.761,0-5-2.239-5-5v-14c0-2.761,2.239-5,5-5s5,2.239,5,5v14
	C202.167,164.762,199.929,167.001,197.167,167.001z M155.167,167.001c-2.761,0-5-2.239-5-5v-14c0-2.761,2.239-5,5-5s5,2.239,5,5v14
	C160.167,164.762,157.929,167.001,155.167,167.001z M113.167,167.001c-2.761,0-5-2.239-5-5v-14c0-2.761,2.239-5,5-5s5,2.239,5,5v14
	C118.167,164.762,115.929,167.001,113.167,167.001z M71.167,167.001c-2.761,0-5-2.239-5-5v-14c0-2.761,2.239-5,5-5s5,2.239,5,5v14
	C76.167,164.762,73.929,167.001,71.167,167.001z M259.167,133.001c-2.761,0-5-2.239-5-5v-14c0-2.761,2.239-5,5-5s5,2.239,5,5v14
	C264.167,130.762,261.929,133.001,259.167,133.001z M217.167,133.001c-2.761,0-5-2.239-5-5v-14c0-2.761,2.239-5,5-5s5,2.239,5,5v14
	C222.167,130.762,219.929,133.001,217.167,133.001z M175.167,133.001c-2.761,0-5-2.239-5-5v-14c0-2.761,2.239-5,5-5s5,2.239,5,5v14
	C180.167,130.762,177.929,133.001,175.167,133.001z M133.167,133.001c-2.761,0-5-2.239-5-5v-14c0-2.761,2.239-5,5-5s5,2.239,5,5v14
	C138.167,130.762,135.929,133.001,133.167,133.001z M91.167,133.001c-2.761,0-5-2.239-5-5v-14c0-2.761,2.239-5,5-5s5,2.239,5,5v14
	C96.167,130.762,93.929,133.001,91.167,133.001z"/>
<g>
</g>
<g>
</g>
<g>
</g>
<g>
</g>
<g>
</g>
<g>
</g>
<g>
</g>
<g>
</g>
<g>
</g>
<g>
</g>
<g>
</g>
<g>
</g>
<g>
</g>
<g>
</g>
<g>
</g>
</svg>
