<?xml version="1.0" encoding="iso-8859-1"?>
<!-- Generator: Adobe Illustrator 17.1.0, SVG Export Plug-In . SVG Version: 6.00 Build 0)  -->
<!DOCTYPE svg PUBLIC "-//W3C//DTD SVG 1.1//EN" "http://www.w3.org/Graphics/SVG/1.1/DTD/svg11.dtd">
<svg version="1.1" id="Capa_1" xmlns="http://www.w3.org/2000/svg" xmlns:xlink="http://www.w3.org/1999/xlink" x="0px" y="0px"
	 viewBox="0 0 368.967 368.967" style="enable-background:new 0 0 368.967 368.967;" xml:space="preserve">
<path d="M234.422,368.967h-99.878c-0.991,0-1.96-0.295-2.783-0.846c-26.369-17.668-42.111-47.139-42.111-78.836
	c0-0.878,0.016-1.753,0.042-2.625c-0.033-0.252-0.047-0.507-0.04-0.764c0.004-0.139,0.045-1.415,0.267-3.765
	c0.3-4.019,0.858-8.04,1.66-11.956c2.147-12.234,6.873-32.196,17.191-57.939c18.497-46.149,22.069-61.787,22.735-77.582
	c0.532-12.639,0.669-18.001,0.704-19.868c-0.046-0.273-0.07-0.553-0.07-0.839v-12.274c0-14.731,11.984-26.716,26.716-26.716h9.501V5
	c0-2.022,1.218-3.846,3.087-4.619c1.865-0.774,4.019-0.348,5.448,1.084l22.256,22.256c0.938,0.938,1.465,2.209,1.465,3.535v47.701
	h9.5c14.731,0,26.717,11.984,26.717,26.716v12.274c0,0.287-0.024,0.569-0.071,0.844c0.036,1.868,0.173,7.232,0.705,19.863
	c0.667,15.797,4.238,31.436,22.735,77.582c10.315,25.735,15.042,45.701,17.191,57.939c0.805,3.933,1.364,7.971,1.664,12.005
	c0.217,2.283,0.258,3.576,0.262,3.716c0.008,0.264-0.006,0.524-0.039,0.782c0.025,0.866,0.041,1.734,0.041,2.606
	c0,31.697-15.742,61.168-42.111,78.836C236.382,368.672,235.414,368.967,234.422,368.967z M136.089,358.967h96.79
	c22.846-15.892,36.438-41.827,36.438-69.682c0-1.029-0.025-2.052-0.062-3.072c-0.009-0.246,0.001-0.491,0.028-0.732
	c-0.032-0.531-0.091-1.358-0.194-2.459c-0.279-3.732-0.784-7.368-1.51-10.905c-0.01-0.048-0.02-0.095-0.027-0.143
	c-2.062-11.764-6.621-31.031-16.636-56.017c-2.708-6.755-5.104-12.879-7.227-18.468l-137.757,54.401
	c-2.18,8.085-3.598,14.831-4.518,20.082c-0.008,0.049-0.018,0.097-0.027,0.145c-0.727,3.536-1.231,7.172-1.501,10.805
	c-0.003,0.034-0.006,0.068-0.009,0.103c-0.105,1.109-0.164,1.94-0.195,2.473c0.026,0.235,0.036,0.475,0.028,0.716
	c-0.036,1.021-0.062,2.043-0.062,3.072C99.65,317.14,113.243,343.076,136.089,358.967z M142.105,118.948
	c-0.098,3.198-0.278,8.271-0.609,16.128c-0.715,16.954-4.405,33.381-23.444,80.882c-3.459,8.631-6.269,16.58-8.548,23.771
	l58.224-22.992v-97.789H142.105z M177.727,120.332v91.722l13.514-5.197v-86.524H177.727z M201.241,118.948v84.554l38.963-15.387
	c-9.845-27.119-12.179-39.92-12.731-53.038c-0.332-7.858-0.512-12.93-0.61-16.129H201.241z M142.139,108.948h84.689v-7.274
	c0-9.217-7.499-16.716-16.717-16.716h-51.257c-9.217,0-16.716,7.499-16.716,16.716V108.948z M178.356,74.957h12.256v-45.63
	l-12.256-12.256V74.957z"/>
<g>
</g>
<g>
</g>
<g>
</g>
<g>
</g>
<g>
</g>
<g>
</g>
<g>
</g>
<g>
</g>
<g>
</g>
<g>
</g>
<g>
</g>
<g>
</g>
<g>
</g>
<g>
</g>
<g>
</g>
</svg>
