<?xml version="1.0" encoding="iso-8859-1"?>
<!-- Generator: Adobe Illustrator 17.1.0, SVG Export Plug-In . SVG Version: 6.00 Build 0)  -->
<!DOCTYPE svg PUBLIC "-//W3C//DTD SVG 1.1//EN" "http://www.w3.org/Graphics/SVG/1.1/DTD/svg11.dtd">
<svg version="1.1" id="Capa_1" xmlns="http://www.w3.org/2000/svg" xmlns:xlink="http://www.w3.org/1999/xlink" x="0px" y="0px"
	 viewBox="0 0 406.55 406.55" style="enable-background:new 0 0 406.55 406.55;" xml:space="preserve">
<path d="M377.402,387.784c-2.762,0-5-2.238-5-5V75.698h-12.78v307.086c0,2.762-2.238,5-5,5s-5-2.238-5-5V75.698h-7.147
	c-9.374,0-17-7.626-17-17v-6.981c0-9.374,7.626-17,17-17h7.147V23.766c0-2.762,2.238-5,5-5s5,2.238,5,5v10.951h12.78V23.766
	c0-2.762,2.238-5,5-5s5,2.238,5,5v10.951h7.147c9.374,0,17,7.626,17,17v6.981c0,9.374-7.626,17-17,17h-7.147v307.086
	C382.402,385.546,380.164,387.784,377.402,387.784z M382.402,65.698h7.147c3.859,0,7-3.141,7-7v-6.981c0-3.859-3.141-7-7-7h-7.147
	V65.698z M359.622,65.698h12.78V44.717h-12.78V65.698z M342.475,44.717c-3.859,0-7,3.141-7,7v6.981c0,3.859,3.141,7,7,7h7.147
	V44.717H342.475z M163.032,371.87C73.136,371.87,0,298.737,0,208.845C0,118.948,73.136,45.813,163.032,45.813
	c89.893,0,163.026,73.136,163.026,163.032C326.059,298.737,252.925,371.87,163.032,371.87z M163.032,55.813
	C78.65,55.813,10,124.463,10,208.845c0,84.379,68.65,153.025,153.032,153.025c84.379,0,153.026-68.646,153.026-153.025
	C316.059,124.463,247.411,55.813,163.032,55.813z M129.059,306.692h-24.355c-15.696,0-28.466-12.771-28.466-28.467V253.87
	c0-15.696,12.77-28.466,28.466-28.466h24.355c15.696,0,28.467,12.77,28.467,28.466v24.355
	C157.525,293.922,144.755,306.692,129.059,306.692z M104.703,235.404c-10.182,0-18.466,8.284-18.466,18.466v24.355
	c0,10.183,8.284,18.467,18.466,18.467h24.355c10.183,0,18.467-8.284,18.467-18.467V253.87c0-10.182-8.284-18.466-18.467-18.466
	H104.703z M121.481,289.952h-9.2c-10.645,0-19.304-8.659-19.304-19.304v-9.2c0-10.645,8.659-19.305,19.304-19.305h9.2
	c10.645,0,19.304,8.66,19.304,19.305v9.2C140.785,281.293,132.126,289.952,121.481,289.952z M112.281,252.144
	c-5.13,0-9.304,4.174-9.304,9.305v9.2c0,5.13,4.174,9.304,9.304,9.304h9.2c5.13,0,9.304-4.174,9.304-9.304v-9.2
	c0-5.131-4.174-9.305-9.304-9.305H112.281z M215.445,277.193H191.09c-15.696,0-28.466-12.77-28.466-28.466v-24.355
	c0-15.696,12.77-28.467,28.466-28.467h24.355c15.696,0,28.467,12.771,28.467,28.467v24.355
	C243.912,264.424,231.142,277.193,215.445,277.193z M191.09,205.905c-10.182,0-18.466,8.284-18.466,18.467v24.355
	c0,10.182,8.284,18.466,18.466,18.466h24.355c10.183,0,18.467-8.284,18.467-18.466v-24.355c0-10.183-8.284-18.467-18.467-18.467
	H191.09z M207.867,260.454h-9.199c-10.645,0-19.305-8.66-19.305-19.305v-9.199c0-10.645,8.66-19.305,19.305-19.305h9.199
	c10.645,0,19.305,8.66,19.305,19.305v9.199C227.172,251.794,218.512,260.454,207.867,260.454z M198.668,222.646
	c-5.131,0-9.305,4.174-9.305,9.305v9.199c0,5.131,4.174,9.305,9.305,9.305h9.199c5.131,0,9.305-4.174,9.305-9.305v-9.199
	c0-5.131-4.174-9.305-9.305-9.305H198.668z M129.059,218.628h-24.355c-15.696,0-28.466-12.77-28.466-28.466v-24.355
	c0-15.696,12.77-28.467,28.466-28.467h24.355c15.696,0,28.467,12.771,28.467,28.467v24.355
	C157.525,205.858,144.755,218.628,129.059,218.628z M104.703,147.34c-10.182,0-18.466,8.284-18.466,18.467v24.355
	c0,10.182,8.284,18.466,18.466,18.466h24.355c10.183,0,18.467-8.284,18.467-18.466v-24.355c0-10.183-8.284-18.467-18.467-18.467
	H104.703z M121.481,201.888h-9.2c-10.645,0-19.304-8.659-19.304-19.304v-9.2c0-10.645,8.659-19.304,19.304-19.304h9.2
	c10.645,0,19.304,8.659,19.304,19.304v9.2C140.785,193.229,132.126,201.888,121.481,201.888z M112.281,164.08
	c-5.13,0-9.304,4.174-9.304,9.304v9.2c0,5.13,4.174,9.304,9.304,9.304h9.2c5.13,0,9.304-4.174,9.304-9.304v-9.2
	c0-5.13-4.174-9.304-9.304-9.304H112.281z M215.445,189.13H191.09c-15.696,0-28.466-12.771-28.466-28.467v-24.355
	c0-15.696,12.77-28.466,28.466-28.466h24.355c15.696,0,28.467,12.77,28.467,28.466v24.355
	C243.912,176.359,231.142,189.13,215.445,189.13z M191.09,117.842c-10.182,0-18.466,8.284-18.466,18.466v24.355
	c0,10.183,8.284,18.467,18.466,18.467h24.355c10.183,0,18.467-8.284,18.467-18.467v-24.355c0-10.182-8.284-18.466-18.467-18.466
	H191.09z M207.867,172.39h-9.199c-10.645,0-19.305-8.66-19.305-19.305v-9.199c0-10.645,8.66-19.305,19.305-19.305h9.199
	c10.645,0,19.305,8.66,19.305,19.305v9.199C227.172,163.729,218.512,172.39,207.867,172.39z M198.668,134.581
	c-5.131,0-9.305,4.174-9.305,9.305v9.199c0,5.131,4.174,9.305,9.305,9.305h9.199c5.131,0,9.305-4.174,9.305-9.305v-9.199
	c0-5.131-4.174-9.305-9.305-9.305H198.668z M46.525,133.211c-0.894,0-1.799-0.24-2.615-0.742c-2.353-1.447-3.086-4.527-1.639-6.879
	c19.446-31.601,55.391-48.415,56.911-49.116c2.508-1.152,5.479-0.058,6.633,2.45c1.155,2.508,0.06,5.476-2.446,6.632l0,0
	c-0.346,0.16-34.752,16.303-52.58,45.274C49.844,132.365,48.204,133.211,46.525,133.211z"/>
<g>
</g>
<g>
</g>
<g>
</g>
<g>
</g>
<g>
</g>
<g>
</g>
<g>
</g>
<g>
</g>
<g>
</g>
<g>
</g>
<g>
</g>
<g>
</g>
<g>
</g>
<g>
</g>
<g>
</g>
</svg>
