<?xml version="1.0" encoding="iso-8859-1"?>
<!-- Generator: Adobe Illustrator 17.1.0, SVG Export Plug-In . SVG Version: 6.00 Build 0)  -->
<!DOCTYPE svg PUBLIC "-//W3C//DTD SVG 1.1//EN" "http://www.w3.org/Graphics/SVG/1.1/DTD/svg11.dtd">
<svg version="1.1" id="Capa_1" xmlns="http://www.w3.org/2000/svg" xmlns:xlink="http://www.w3.org/1999/xlink" x="0px" y="0px"
	 viewBox="0 0 329 329" style="enable-background:new 0 0 329 329;" xml:space="preserve">
<path d="M186.5,329H7.5c-1.364,0-2.67-0.558-3.613-1.544s-1.442-2.315-1.382-3.679l9-202c0.045-0.998,0.387-1.959,0.982-2.761l29-39
	C42.431,78.748,43.919,78,45.5,78h39.226c1.975-8.172,5.158-17.74,10.289-27.354C107.346,27.542,133.573,0,188.5,0
	c54.818,0,81.587,26.089,94.391,47.975c13.797,23.586,14.581,46.908,14.607,47.889c0.001,0.045,0.002,0.09,0.002,0.136v120h24
	c2.762,0,5,2.239,5,5v73c0,2.761-2.238,5-5,5h-57c-2.762,0-5-2.239-5-5v-73c0-2.761,2.238-5,5-5h23V96.086
	c-0.048-1.172-1.092-22.499-13.438-43.397C257.326,24.363,228.539,10,188.5,10c-40.117,0-68.602,15.259-84.663,45.354
	C99.649,63.2,96.884,71.063,95.056,78H135.5c1.581,0,3.069,0.748,4.013,2.017l28.947,38.93c0.545,0.705,0.907,1.563,1.011,2.512
	l22,202c0.153,1.412-0.3,2.823-1.249,3.88C189.273,328.396,187.92,329,186.5,329z M159.754,319h21.172l-9.735-89.386l-7.088,1.531
	L159.754,319z M12.728,319h137.014l4.241-85.668L15.209,263.314L12.728,319z M269.5,289h47v-63h-47V289z M21.427,123.753
	l-5.758,129.23l138.825-29.993l4.923-99.446L132.987,88h-40.1c-1.331,7.779-1.388,12.917-1.388,13.024
	c-0.014,2.753-2.25,4.976-4.999,4.976c-0.009,0-0.017,0-0.025,0c-2.762-0.014-4.989-2.263-4.976-5.024
	c0.002-0.453,0.056-5.432,1.236-12.976H48.013L21.427,123.753z M166.37,185.351l-1.755,35.454l5.487-1.186L166.37,185.351z"/>
<g>
</g>
<g>
</g>
<g>
</g>
<g>
</g>
<g>
</g>
<g>
</g>
<g>
</g>
<g>
</g>
<g>
</g>
<g>
</g>
<g>
</g>
<g>
</g>
<g>
</g>
<g>
</g>
<g>
</g>
</svg>
