<?xml version="1.0" encoding="iso-8859-1"?>
<!-- Generator: Adobe Illustrator 17.1.0, SVG Export Plug-In . SVG Version: 6.00 Build 0)  -->
<!DOCTYPE svg PUBLIC "-//W3C//DTD SVG 1.1//EN" "http://www.w3.org/Graphics/SVG/1.1/DTD/svg11.dtd">
<svg version="1.1" id="Capa_1" xmlns="http://www.w3.org/2000/svg" xmlns:xlink="http://www.w3.org/1999/xlink" x="0px" y="0px"
	 viewBox="0 0 340.342 340.342" style="enable-background:new 0 0 340.342 340.342;" xml:space="preserve">
<path d="M233,308.671H5c-1.87,0-3.583-1.043-4.441-2.704c-0.859-1.66-0.719-3.661,0.362-5.187l123.971-174.959
	c1.208-10.104,4.053-25.23,10.75-40.492c10.744-24.479,33.674-53.658,81.903-53.658c48.103,0,71.512,27.078,82.679,49.794
	c11.903,24.211,12.577,48.088,12.6,49.092c0.001,0.038,0.001,0.076,0.001,0.114v75h22.517c2.761,0,5,2.238,5,5v69.37
	c0,2.762-2.239,5-5,5h-54.166c-2.761,0-5-2.238-5-5v-69.37c0-2.762,2.239-5,5-5h21.649v-74.928
	c-0.037-1.106-0.913-23.352-11.715-45.148c-14.444-29.146-39.195-43.924-73.566-43.924c-34.286,0-58.722,15.952-72.63,47.415
	c-6.577,14.88-9.193,29.949-10.232,39.36l102.616,172.67c0.918,1.546,0.937,3.465,0.047,5.027
	C236.457,307.706,234.797,308.671,233,308.671z M142.75,298.671h81.463l-31.525-53.047c-0.094,0.013-0.189,0.023-0.286,0.03
	l-52.163,4.201L142.75,298.671z M14.671,298.671h118.065l-2.469-48.012l-86.513,6.967L14.671,298.671z M286.177,275.041h44.166
	v-59.37h-44.166V275.041z M124.747,143.322L51.293,246.988l78.461-6.319L124.747,143.322z M135.032,148.608l4.693,91.258
	l47.277-3.808L135.032,148.608z"/>
<g>
</g>
<g>
</g>
<g>
</g>
<g>
</g>
<g>
</g>
<g>
</g>
<g>
</g>
<g>
</g>
<g>
</g>
<g>
</g>
<g>
</g>
<g>
</g>
<g>
</g>
<g>
</g>
<g>
</g>
</svg>
