<?xml version="1.0" encoding="iso-8859-1"?>
<!-- Generator: Adobe Illustrator 17.1.0, SVG Export Plug-In . SVG Version: 6.00 Build 0)  -->
<!DOCTYPE svg PUBLIC "-//W3C//DTD SVG 1.1//EN" "http://www.w3.org/Graphics/SVG/1.1/DTD/svg11.dtd">
<svg version="1.1" id="Capa_1" xmlns="http://www.w3.org/2000/svg" xmlns:xlink="http://www.w3.org/1999/xlink" x="0px" y="0px"
	 viewBox="0 0 391.779 391.779" style="enable-background:new 0 0 391.779 391.779;" xml:space="preserve">
<path d="M246.623,391.779H77.644c-37.084,0-67.255-30.17-67.255-67.255V184.894c0-2.761,2.239-5,5-5h293.488c2.761,0,5,2.239,5,5
	v15.682c3.834-1.091,7.807-1.642,11.878-1.642h12.189c23.955,0,43.444,19.489,43.444,43.444v47.821
	c0,23.955-19.489,43.444-43.444,43.444h-12.189c-4.213,0-8.32-0.589-12.278-1.758C309.799,365.52,281.22,391.779,246.623,391.779z
	 M20.389,189.894v134.629c0,31.571,25.685,57.255,57.255,57.255h168.979c31.57,0,57.255-25.685,57.255-57.255V189.894H20.389z
	 M313.878,321.471c3.78,1.442,7.763,2.172,11.878,2.172h12.189c18.441,0,33.444-15.003,33.444-33.444v-47.821
	c0-18.441-15.003-33.444-33.444-33.444h-12.189c-4.115,0-8.098,0.729-11.878,2.172V321.471z M289.187,221.124H36.018
	c-2.761,0-5-2.239-5-5s2.239-5,5-5h253.169c2.761,0,5,2.239,5,5S291.948,221.124,289.187,221.124z M222.918,146.669
	c-1.664,0-3.291-0.83-4.24-2.343c-1.466-2.336-0.763-5.417,1.568-6.887l0,0c0.231-0.146,23.142-14.951,23.142-39.728
	c0-11.512-4.739-15.894-10.739-21.441c-6.907-6.386-14.736-13.624-14.736-31.308c0-33.197,22.869-44.061,23.842-44.507
	c2.513-1.149,5.478-0.048,6.629,2.462c1.15,2.511,0.048,5.478-2.462,6.629c-0.706,0.335-18.009,8.865-18.009,35.416
	c0,13.311,5.34,18.248,11.524,23.965c6.539,6.045,13.95,12.897,13.95,28.783c0,30.389-26.681,47.48-27.817,48.193
	C224.745,146.422,223.826,146.669,222.918,146.669z M154.681,146.669c-1.664,0-3.291-0.83-4.24-2.343
	c-1.466-2.336-0.763-5.417,1.568-6.887l0,0c0.231-0.146,23.142-14.951,23.142-39.728c0-11.512-4.739-15.894-10.739-21.441
	c-6.907-6.386-14.736-13.624-14.736-31.308c0-33.197,22.869-44.061,23.842-44.507c2.511-1.149,5.478-0.048,6.629,2.462
	c1.15,2.511,0.048,5.478-2.462,6.629c-0.706,0.335-18.009,8.865-18.009,35.416c0,13.311,5.34,18.248,11.524,23.965
	c6.539,6.045,13.95,12.897,13.95,28.783c0,30.389-26.681,47.48-27.817,48.193C156.507,146.422,155.589,146.669,154.681,146.669z
	 M86.443,146.669c-1.664,0-3.291-0.83-4.24-2.343c-1.466-2.337-0.762-5.42,1.572-6.889c0.409-0.262,23.138-15.047,23.138-39.726
	c0-11.512-4.739-15.894-10.739-21.441c-6.907-6.386-14.736-13.624-14.736-31.308c0-33.197,22.869-44.061,23.842-44.507
	c2.512-1.149,5.478-0.048,6.629,2.462c1.15,2.511,0.048,5.479-2.462,6.629c-0.706,0.335-18.009,8.865-18.009,35.416
	c0,13.311,5.341,18.248,11.524,23.965c6.539,6.045,13.951,12.897,13.951,28.783c0,30.389-26.682,47.48-27.818,48.193
	C88.27,146.422,87.351,146.669,86.443,146.669z"/>
<g>
</g>
<g>
</g>
<g>
</g>
<g>
</g>
<g>
</g>
<g>
</g>
<g>
</g>
<g>
</g>
<g>
</g>
<g>
</g>
<g>
</g>
<g>
</g>
<g>
</g>
<g>
</g>
<g>
</g>
</svg>
