<?xml version="1.0" encoding="iso-8859-1"?>
<!-- Generator: Adobe Illustrator 17.1.0, SVG Export Plug-In . SVG Version: 6.00 Build 0)  -->
<!DOCTYPE svg PUBLIC "-//W3C//DTD SVG 1.1//EN" "http://www.w3.org/Graphics/SVG/1.1/DTD/svg11.dtd">
<svg version="1.1" id="Capa_1" xmlns="http://www.w3.org/2000/svg" xmlns:xlink="http://www.w3.org/1999/xlink" x="0px" y="0px"
	 viewBox="0 0 367.698 367.698" style="enable-background:new 0 0 367.698 367.698;" xml:space="preserve">
<path d="M248.526,367.698h-166c-2.761,0-5-2.238-5-5V120.302c0-0.105,0.003-0.209,0.01-0.313c-0.006-0.104-0.01-0.208-0.01-0.313
	V98.475L49.103,66.311c-1.302-1.473-1.62-3.573-0.812-5.365C49.099,59.152,50.883,58,52.849,58h107.338V43.427
	c-9.73-2.27-17-11.016-17-21.427c0-12.131,9.869-22,22-22c12.131,0,22,9.869,22,22c0,10.411-7.27,19.157-17,21.427V58h59.582
	c13.1,0,23.757,10.658,23.757,23.758V105h23.073c23.848,0,43.25,19.402,43.25,43.25v111.5c0,23.848-19.402,43.25-43.25,43.25
	h-23.073v59.698C253.526,365.46,251.288,367.698,248.526,367.698z M87.526,357.698h156V125.302h-73.338v134.836
	c17.239,0.951,33.357,6.812,45.828,16.742c13.966,11.121,21.803,26.05,22.066,42.037c0.022,1.341-0.494,2.634-1.435,3.589
	c-0.939,0.956-2.224,1.494-3.564,1.494H97.293c-1.34,0-2.625-0.538-3.564-1.494c-0.94-0.955-1.457-2.248-1.435-3.588
	c0.264-15.988,8.101-30.917,22.066-42.038c12.471-9.931,28.589-15.791,45.828-16.742V125.302H87.526V357.698z M102.707,314h124.962
	c-3.635-24.685-30.419-44-62.481-44C133.125,270,106.341,289.315,102.707,314z M253.849,293h22.75
	c18.334,0,33.25-14.916,33.25-33.25v-111.5c0-18.334-14.916-33.25-33.25-33.25h-22.75V293z M87.526,114.676h156V81.758
	c0-7.586-6.171-13.758-13.757-13.758H63.94l22.332,25.271c0.808,0.913,1.253,2.091,1.253,3.311V114.676z M165.188,10
	c-6.617,0-12,5.383-12,12s5.383,12,12,12c6.617,0,12-5.383,12-12S171.805,10,165.188,10z"/>
<g>
</g>
<g>
</g>
<g>
</g>
<g>
</g>
<g>
</g>
<g>
</g>
<g>
</g>
<g>
</g>
<g>
</g>
<g>
</g>
<g>
</g>
<g>
</g>
<g>
</g>
<g>
</g>
<g>
</g>
</svg>
