<?xml version="1.0" encoding="iso-8859-1"?>
<!-- Generator: Adobe Illustrator 17.1.0, SVG Export Plug-In . SVG Version: 6.00 Build 0)  -->
<!DOCTYPE svg PUBLIC "-//W3C//DTD SVG 1.1//EN" "http://www.w3.org/Graphics/SVG/1.1/DTD/svg11.dtd">
<svg version="1.1" id="Capa_1" xmlns="http://www.w3.org/2000/svg" xmlns:xlink="http://www.w3.org/1999/xlink" x="0px" y="0px"
	 viewBox="0 0 404.078 404.078" style="enable-background:new 0 0 404.078 404.078;" xml:space="preserve">
<path d="M278.998,341.149H136.564c-2.521,0-4.648-1.878-4.961-4.38l-0.699-5.587c-2.138-2.053-6.76-6.736-15.642-16.673
	c-0.055-0.062-0.108-0.123-0.164-0.185c-0.524-0.02-1.055-0.125-1.573-0.32c-1.86-0.702-45.813-17.419-68.398-36.006
	C22.665,259.512,0,229.715,0,204.813c0-6.801,1.045-24.282,10.727-39.672c9.33-14.832,23.74-22.671,41.673-22.671
	c29.408,0,44.947,15.905,51.154,24.413c7.146-7.756,14.026-12.793,17.345-15.021l2.41-14.462c0.401-2.411,2.487-4.178,4.932-4.178
	h5.819c8.8-18.194,29.022-32.02,53.456-36.905c-1.791-3.274-2.77-6.984-2.77-10.813c0-12.447,10.126-22.573,22.573-22.573
	c12.446,0,22.572,10.126,22.572,22.573c0,3.829-0.979,7.54-2.77,10.813c24.434,4.885,44.656,18.711,53.456,36.905h6.744
	c2.444,0,4.53,1.767,4.932,4.178l2.41,14.462c4.229,2.84,14.243,10.243,23.22,22.018l40.459-25.894
	c3.018-1.931,6.626-2.662,10.157-2.06l27.941,4.77c3.247,0.554,5.877,2.724,7.036,5.803c1.165,3.096,0.613,6.48-1.477,9.055
	c-2.828,3.486-5.779,6.049-8.769,7.617c-3.549,1.861-10.934,5.734-18.778,33.909c-2.468,8.867-3.692,14.885-4.676,19.721
	c-2.057,10.108-3.298,16.21-12.385,33.101c-13.544,25.174-51.817,50.673-53.44,51.746c-0.565,0.374-1.18,0.618-1.807,0.74
	c-0.653,0.77-1.271,1.477-1.847,2.121c-8.881,9.938-13.504,14.621-15.643,16.674l-0.697,5.587
	C283.646,339.271,281.52,341.149,278.998,341.149z M140.979,331.149h133.605l0.378-3.02c0.157-1.258,0.786-2.41,1.761-3.221
	c0.126-0.108,3.84-3.321,16.12-17.063c9.629-10.775,32.024-40.673,32.024-85.459c0-40.472-36.96-63.001-37.333-63.224
	c-1.262-0.753-2.128-2.022-2.369-3.472l-2.078-12.47H132.476l-2.078,12.47c-0.241,1.449-1.107,2.719-2.369,3.472
	c-0.367,0.22-37.333,22.904-37.333,63.224c0,44.786,22.396,74.683,32.024,85.459c12.281,13.742,15.994,16.955,16.146,17.085
	c0.947,0.81,1.58,1.963,1.734,3.199L140.979,331.149z M52.399,152.47C18.93,152.47,10,185.372,10,204.813
	c0,20.566,20.867,48.499,41.48,65.463c13.882,11.424,37.294,22.47,52.067,28.835c-2.007-3.074-4.058-6.481-6.069-10.214
	c-0.011-0.005-0.021-0.01-0.032-0.015c-1.161-0.544-28.64-13.482-46.33-26.75c-17.356-13.017-36.089-38.633-36.089-57.319
	c0-37.364,20.306-45.208,37.341-45.208c22.679,0,36.3,11.68,42.297,18.463c0.74-1.092,1.494-2.154,2.257-3.183
	C93.493,169.418,80.591,152.47,52.399,152.47z M323.507,182.153c6.461,10.759,11.36,24.203,11.36,40.233
	c0,27.38-7.791,49.614-16.429,65.848c11.086-9.194,23.864-21.39,30.148-33.071c8.388-15.592,9.392-20.526,11.392-30.356
	c1.016-4.99,2.278-11.201,4.843-20.41c7.913-28.422,16.099-36.062,23.767-40.083c1.484-0.779,3.111-2.151,4.752-4.004l-26.522-4.528
	c-1.072-0.184-2.167,0.039-3.084,0.626L323.507,182.153z M52.368,169.606c-18.653,0-27.341,11.188-27.341,35.208
	c0,13.452,14.995,36.498,32.089,49.319c10.09,7.567,23.97,15.234,33.548,20.198c-5.711-14.272-9.969-31.7-9.969-51.944
	c0-13.598,3.524-25.334,8.538-35.149C86.668,183.662,75.133,169.606,52.368,169.606z M146.093,132.296h122.452
	c-9.818-14.643-29.19-25.114-51.677-27.425c-2.077-0.213-3.804-1.695-4.328-3.716c-0.525-2.021,0.261-4.156,1.971-5.353
	c3.369-2.359,5.381-6.209,5.381-10.3c0-6.933-5.64-12.573-12.572-12.573s-12.573,5.64-12.573,12.573c0,4.09,2.012,7.941,5.381,10.3
	c1.71,1.197,2.496,3.332,1.971,5.353c-0.524,2.021-2.251,3.503-4.328,3.716C175.283,107.182,155.911,117.654,146.093,132.296z
	 M117.249,264.04c-1.99,0-3.872-1.197-4.649-3.16c-0.3-0.758-7.352-18.796-7.352-39.842c0-22.269,17.852-38.977,18.611-39.677
	c2.028-1.871,5.193-1.744,7.065,0.289c1.869,2.028,1.742,5.186-0.281,7.059l0,0c-0.154,0.143-15.396,14.505-15.396,32.33
	c0,19.157,6.582,35.99,6.648,36.158c1.018,2.567-0.239,5.473-2.807,6.49C118.485,263.927,117.862,264.04,117.249,264.04z"/>
<g>
</g>
<g>
</g>
<g>
</g>
<g>
</g>
<g>
</g>
<g>
</g>
<g>
</g>
<g>
</g>
<g>
</g>
<g>
</g>
<g>
</g>
<g>
</g>
<g>
</g>
<g>
</g>
<g>
</g>
</svg>
