<?xml version="1.0" encoding="iso-8859-1"?>
<!-- Generator: Adobe Illustrator 17.1.0, SVG Export Plug-In . SVG Version: 6.00 Build 0)  -->
<!DOCTYPE svg PUBLIC "-//W3C//DTD SVG 1.1//EN" "http://www.w3.org/Graphics/SVG/1.1/DTD/svg11.dtd">
<svg version="1.1" id="Capa_1" xmlns="http://www.w3.org/2000/svg" xmlns:xlink="http://www.w3.org/1999/xlink" x="0px" y="0px"
	 viewBox="0 0 298.589 298.589" style="enable-background:new 0 0 298.589 298.589;" xml:space="preserve">
<path d="M255.551,298.589H43.038c-10.25,0-18.589-8.339-18.589-18.589V125.717c0-0.089,0.002-0.177,0.007-0.265v-0.013
	c-0.003-0.198-0.007-0.396-0.007-0.594C24.449,56.006,80.454,0,149.294,0c68.84,0,124.846,56.006,124.846,124.846
	c0,0.192-0.003,0.384-0.007,0.576v0.028c0.004,0.088,0.007,0.177,0.007,0.267V280C274.14,290.25,265.801,298.589,255.551,298.589z
	 M34.449,126.052V280c0,4.736,3.853,8.589,8.589,8.589h212.513c4.736,0,8.589-3.853,8.589-8.589V126.05
	c-0.008-0.122-0.012-0.244-0.011-0.366l0.011-0.838C264.14,61.52,212.62,10,149.294,10C85.969,10,34.449,61.52,34.449,124.846
	l0.011,0.829C34.461,125.801,34.457,125.927,34.449,126.052z M161.628,277h-24.667c-11.396,0-20.667-9.271-20.667-20.667v-4.666
	c0-11.396,9.271-20.667,20.667-20.667h24.667c11.396,0,20.667,9.271,20.667,20.667v4.666C182.294,267.729,173.023,277,161.628,277z
	 M136.961,241c-5.882,0-10.667,4.785-10.667,10.667v4.666c0,5.882,4.785,10.667,10.667,10.667h24.667
	c5.881,0,10.667-4.785,10.667-10.667v-4.666c0-5.882-4.785-10.667-10.667-10.667H136.961z M149.294,214.875
	c-48.523,0-88-39.477-88-88s39.477-88,88-88s88,39.477,88,88S197.818,214.875,149.294,214.875z M149.294,48.875
	c-43.009,0-78,34.99-78,78s34.991,78,78,78s78-34.99,78-78S192.303,48.875,149.294,48.875z M116.414,183.141
	c-1.326,0-2.598-0.526-3.536-1.465l-18.385-18.385c-1.953-1.952-1.953-5.118,0-7.07l75.045-75.046
	c6.968-6.966,18.305-6.966,25.271-0.001l0.189,0.189c3.371,3.37,5.229,7.858,5.229,12.631c0,4.774-1.859,9.262-5.234,12.637l0-0.001
	l-75.045,75.046C119.011,182.614,117.74,183.141,116.414,183.141z M105.1,159.756l11.313,11.313l71.51-71.51c0,0,0-0.001,0-0.001
	c1.486-1.485,2.305-3.462,2.305-5.564c0-2.102-0.819-4.078-2.305-5.563l-0.189-0.189c-3.064-3.064-8.057-3.063-11.125,0.005
	L105.1,159.756z M255.494,131.875h-9c-2.761,0-5-2.238-5-5s2.239-5,5-5h9c2.761,0,5,2.238,5,5S258.256,131.875,255.494,131.875z
	 M52.494,131.875h-9c-2.761,0-5-2.238-5-5s2.239-5,5-5h9c2.761,0,5,2.238,5,5S55.256,131.875,52.494,131.875z M222.494,67
	c-1.28,0-2.559-0.488-3.535-1.464c-1.953-1.953-1.953-5.119,0-7.071l6.364-6.364c1.952-1.953,5.119-1.952,7.071-0.001
	c1.953,1.953,1.953,5.119,0,7.071l-6.364,6.364C225.054,66.512,223.774,67,222.494,67z M74.858,67c-1.28,0-2.559-0.488-3.536-1.465
	l-6.364-6.364c-1.953-1.952-1.953-5.118,0-7.071c1.953-1.951,5.118-1.951,7.071,0.001l6.364,6.364c1.953,1.952,1.953,5.118,0,7.071
	C77.417,66.512,76.137,67,74.858,67z M149.294,34c-2.761,0-5-2.238-5-5v-9c0-2.762,2.239-5,5-5s5,2.238,5,5v9
	C154.294,31.762,152.055,34,149.294,34z"/>
<g>
</g>
<g>
</g>
<g>
</g>
<g>
</g>
<g>
</g>
<g>
</g>
<g>
</g>
<g>
</g>
<g>
</g>
<g>
</g>
<g>
</g>
<g>
</g>
<g>
</g>
<g>
</g>
<g>
</g>
</svg>
