<?xml version="1.0" encoding="iso-8859-1"?>
<!-- Generator: Adobe Illustrator 17.1.0, SVG Export Plug-In . SVG Version: 6.00 Build 0)  -->
<!DOCTYPE svg PUBLIC "-//W3C//DTD SVG 1.1//EN" "http://www.w3.org/Graphics/SVG/1.1/DTD/svg11.dtd">
<svg version="1.1" id="Capa_1" xmlns="http://www.w3.org/2000/svg" xmlns:xlink="http://www.w3.org/1999/xlink" x="0px" y="0px"
	 viewBox="0 0 359.083 359.083" style="enable-background:new 0 0 359.083 359.083;" xml:space="preserve">
<path d="M286.666,327.042H265c-2.762,0-5-2.238-5-5v-19H53v19c0,2.762-2.238,5-5,5H26.333c-2.762,0-5-2.238-5-5v-19H5
	c-2.762,0-5-2.238-5-5v-138.5c0-27.846,22.654-50.5,50.5-50.5h19.07V91.309c-7.545-5.94-11.975-14.946-11.975-24.597v-3.334
	c0-17.279,14.059-31.337,31.338-31.337h128.273c17.28,0,31.338,14.058,31.338,31.337v3.334c0,9.65-4.43,18.656-11.975,24.597v17.732
	h25.93c27.846,0,50.5,22.654,50.5,50.5v2.735h30.26c8.725,0,15.823,7.099,15.823,15.823v8.118c0,8.725-7.099,15.823-15.823,15.823
	H313v96c0,2.762-2.238,5-5,5h-16.334v19C291.666,324.803,289.428,327.042,286.666,327.042z M270,317.042h11.666v-14H270V317.042z
	 M31.333,317.042H43v-14H31.333V317.042z M10,293.042h293v-133.5c0-22.332-18.168-40.5-40.5-40.5h-212
	c-22.332,0-40.5,18.168-40.5,40.5V293.042z M313.083,192.042h30.177c3.211,0,5.823-2.612,5.823-5.823V178.1
	c0-3.211-2.612-5.823-5.823-5.823h-30.177V192.042z M79.57,109.042h147v-20.29c0-1.686,0.85-3.258,2.26-4.182
	c6.083-3.987,9.715-10.663,9.715-17.857v-3.334c0-11.766-9.572-21.337-21.338-21.337H88.934c-11.766,0-21.338,9.571-21.338,21.337
	v3.334c0,7.194,3.632,13.87,9.715,17.857c1.41,0.924,2.26,2.496,2.26,4.182V109.042z M29.25,280.042c-2.762,0-5-2.238-5-5v-117
	c0-2.762,2.238-5,5-5s5,2.238,5,5v117C34.25,277.803,32.012,280.042,29.25,280.042z"/>
<g>
</g>
<g>
</g>
<g>
</g>
<g>
</g>
<g>
</g>
<g>
</g>
<g>
</g>
<g>
</g>
<g>
</g>
<g>
</g>
<g>
</g>
<g>
</g>
<g>
</g>
<g>
</g>
<g>
</g>
</svg>
