<?xml version="1.0" encoding="iso-8859-1"?>
<!-- Generator: Adobe Illustrator 17.1.0, SVG Export Plug-In . SVG Version: 6.00 Build 0)  -->
<!DOCTYPE svg PUBLIC "-//W3C//DTD SVG 1.1//EN" "http://www.w3.org/Graphics/SVG/1.1/DTD/svg11.dtd">
<svg version="1.1" id="Capa_1" xmlns="http://www.w3.org/2000/svg" xmlns:xlink="http://www.w3.org/1999/xlink" x="0px" y="0px"
	 viewBox="0 0 330.001 330.001" style="enable-background:new 0 0 330.001 330.001;" xml:space="preserve">
<path d="M164.992,330.001c-41.986,0-81.385-16.522-111.166-46.672C23.522,252.649,7.444,212.178,8.554,169.37
	c0.123-4.703,0.468-9.27,1.029-13.576c2.028-25.197,13.38-48.575,31.975-65.835C60.286,72.574,84.682,63,110.251,63
	c15.105,0,29.792,3.317,43.215,9.688c-2.815-4.641-6.518-9.431-11.061-12.577c-11.9-8.238-35.706-12.135-35.945-12.174
	c-2.726-0.438-4.582-3.002-4.145-5.729c0.437-2.726,2.995-4.583,5.726-4.146c1.066,0.17,26.28,4.289,40.056,13.826
	c4.825,3.34,8.807,7.941,11.974,12.598c-0.322-9.469-1.43-20.264-4.444-27.583C149.186,21.26,134.248,9.003,134.098,8.88
	c-2.144-1.741-2.469-4.89-0.728-7.033c1.741-2.143,4.891-2.469,7.033-0.728c0.694,0.563,17.072,14.008,24.471,31.977
	c3.424,8.315,4.738,19.884,5.154,30.027c3.432-4.553,7.684-9.656,12.687-14.659c15.019-15.018,37.894-18.287,38.86-18.418
	c2.743-0.371,5.257,1.542,5.63,4.278c0.373,2.734-1.539,5.252-4.271,5.629l0,0c-0.204,0.028-20.551,2.987-33.147,15.583
	c-6.141,6.14-11.092,12.5-14.654,17.586C188.799,66.468,203.806,63,219.251,63c32.656,0,63.443,15.908,82.382,42.559
	c13.74,17.433,19.868,38.393,19.868,67.941c0,41.424-16.026,80.471-45.126,109.946c-29.073,29.448-67.854,45.976-109.2,46.539
	C166.448,329.995,165.716,330.001,164.992,330.001z M110.251,73c-47.147,0-86.992,36.771-90.709,83.712
	c-0.007,0.086-0.016,0.171-0.027,0.256c-0.525,3.999-0.849,8.259-0.963,12.661c-1.039,40.063,14.015,77.946,42.39,106.672
	c28.366,28.717,66.056,44.241,106.098,43.685c79.656-1.085,144.462-66.799,144.462-146.486c0-27.203-5.488-46.276-17.794-61.843
	c-0.054-0.068-0.106-0.138-0.157-0.209C276.489,87.373,248.714,73,219.251,73c-18.55,0-36.396,5.55-51.615,16.051
	c-0.564,0.399-1.215,0.685-1.922,0.823c-0.004,0-0.008,0-0.011,0.002c-0.162,0.031-0.324,0.055-0.487,0.07
	c-0.803,0.076-1.593-0.046-2.309-0.331c-0.29-0.115-0.572-0.259-0.842-0.431c-0.002-0.001-0.005-0.004-0.007-0.004
	c-0.055-0.036-0.11-0.072-0.164-0.109C146.67,78.557,128.813,73,110.251,73z M178.836,307.338c-1.705,0-3.367-0.632-4.647-1.787
	c-1.462-1.318-2.301-3.203-2.301-5.17v-0.302l-1.925-61.602c-0.064-2.037,0.765-3.992,2.273-5.363
	c1.506-1.369,3.526-2.01,5.546-1.747c12.588,1.606,28.924,1.06,37.017-5.298c12.077-9.489,14.831-27.966,7.366-49.426
	c-5.862-16.852-36.74-16.898-42.87-16.742c-2.053,0.071-4.002-0.789-5.366-2.313c-1.362-1.522-1.982-3.556-1.703-5.581
	c0.834-6.031,3.473-22.063,9.938-40.65c3.774-10.849,13.023-18.67,26.749-22.617c4.604-1.324,9.375-1.687,14.183-1.079
	c23.945,3.032,45.746,15.605,59.833,34.501c11.817,14.31,17.321,32.249,17.321,56.442c0,32.152-12.419,62.98-34.971,86.806
	c-22.331,23.593-52.778,38.47-85.732,41.891C179.31,307.326,179.072,307.338,178.836,307.338z M180.067,241.677l1.728,55.296
	c62.064-7.992,108.456-58.334,108.456-118.369c0-22.089-4.659-37.56-15.105-50.163c-0.056-0.068-0.111-0.138-0.164-0.209
	c-12.469-16.781-31.838-27.953-53.142-30.65c-3.451-0.438-6.87-0.179-10.162,0.768c-10.618,3.054-17.37,8.535-20.068,16.292
	c-5.174,14.874-7.776,28-8.95,35.235c13.094,0.134,41.776,2.856,48.95,23.48c8.932,25.68,4.957,48.325-10.633,60.574
	C209.551,242.907,190.548,242.658,180.067,241.677z M147.668,306.98c-0.292,0-0.586-0.019-0.879-0.056
	c-32.742-4.198-62.785-19.818-84.596-43.983c-22.086-24.469-33.769-55.636-32.895-87.758c0.106-3.892,0.406-7.674,0.892-11.244
	c1.585-18.698,9.84-36.562,23.256-50.315c13.331-13.668,31.256-22.781,50.473-25.659c4.88-0.73,9.904-0.375,14.527,1.028
	c13.248,4.022,22.201,11.756,25.892,22.365c6.465,18.586,9.104,34.621,9.938,40.652c0.28,2.024-0.34,4.058-1.701,5.58
	c-1.363,1.523-3.307,2.384-5.364,2.312c-6.133-0.159-37.011-0.113-42.873,16.742c-7.464,21.46-4.71,39.937,7.367,49.426
	c8.091,6.358,24.427,6.906,37.017,5.297c2.014-0.259,4.038,0.379,5.545,1.748c1.509,1.371,2.337,3.326,2.273,5.364l-1.925,61.609
	c-0.018,1.976-0.877,3.854-2.363,5.162C150.976,306.37,149.343,306.98,147.668,306.98z M108.91,97.592
	c-1.17,0-2.345,0.087-3.511,0.261c-35.586,5.331-62.42,32.902-65.255,67.048c-0.007,0.09-0.018,0.179-0.03,0.268
	c-0.447,3.248-0.723,6.708-0.82,10.284c-1.633,60.057,43.47,111.547,105.427,121.08l1.714-54.856
	c-10.481,0.981-29.485,1.231-40.909-7.746c-15.59-12.25-19.565-34.894-10.633-60.574c7.173-20.624,35.852-23.346,48.949-23.48
	c-1.174-7.236-3.776-20.362-8.949-35.234c-2.634-7.572-9.145-12.983-19.352-16.082C113.422,97.918,111.176,97.592,108.91,97.592z
	 M254.248,235.002c-0.678,0-1.368-0.139-2.028-0.433l-9-4c-2.523-1.121-3.66-4.076-2.538-6.6c1.121-2.523,4.073-3.662,6.6-2.538l9,4
	c2.523,1.121,3.66,4.076,2.538,6.6C257.991,233.894,256.163,235.002,254.248,235.002z M73.254,235.002
	c-1.916,0-3.744-1.107-4.572-2.971c-1.122-2.523,0.015-5.479,2.538-6.6l9-4c2.527-1.121,5.479,0.016,6.6,2.538
	c1.122,2.523-0.015,5.479-2.538,6.6l-9,4C74.621,234.862,73.932,235.002,73.254,235.002z M251.245,196.001
	c-2.587,0-4.778-1.994-4.98-4.617c-0.212-2.753,1.849-5.157,4.602-5.369l13-1c2.754-0.203,5.157,1.849,5.369,4.602
	c0.212,2.753-1.849,5.157-4.602,5.369l-13,1C251.504,195.995,251.374,196.001,251.245,196.001z M76.256,196.001
	c-0.129,0-0.258-0.005-0.389-0.015l-13-1c-2.753-0.212-4.814-2.616-4.602-5.369c0.212-2.754,2.628-4.8,5.369-4.602l13,1
	c2.753,0.212,4.814,2.616,4.602,5.369C81.034,194.006,78.843,196.001,76.256,196.001z M243.255,162.001
	c-1.834,0-3.6-1.013-4.476-2.765c-1.235-2.47-0.234-5.473,2.236-6.708l12-6c2.467-1.236,5.473-0.234,6.708,2.236
	c1.235,2.47,0.234,5.474-2.236,6.708l-12,6C244.769,161.831,244.006,162.001,243.255,162.001z M84.247,162.001
	c-0.751,0-1.514-0.17-2.232-0.529l-12-6c-2.47-1.235-3.471-4.238-2.236-6.708c1.234-2.47,4.237-3.472,6.708-2.236l12,6
	c2.47,1.235,3.471,4.238,2.236,6.708C87.847,160.988,86.081,162.001,84.247,162.001z M219.248,142.002
	c-0.692,0-1.395-0.145-2.066-0.45c-2.514-1.143-3.625-4.107-2.483-6.621l5-11c1.143-2.514,4.11-3.625,6.621-2.483
	c2.514,1.143,3.625,4.107,2.483,6.621l-5,11C222.965,140.912,221.148,142.002,219.248,142.002z M108.254,142.002
	c-1.9,0-3.717-1.089-4.555-2.933l-5-11c-1.143-2.514-0.031-5.478,2.483-6.621c2.514-1.143,5.478-0.032,6.621,2.483l5,11
	c1.143,2.514,0.031,5.478-2.483,6.621C109.649,141.857,108.945,142.002,108.254,142.002z"/>
<g>
</g>
<g>
</g>
<g>
</g>
<g>
</g>
<g>
</g>
<g>
</g>
<g>
</g>
<g>
</g>
<g>
</g>
<g>
</g>
<g>
</g>
<g>
</g>
<g>
</g>
<g>
</g>
<g>
</g>
</svg>
