<?xml version="1.0" encoding="iso-8859-1"?>
<!-- Generator: Adobe Illustrator 17.1.0, SVG Export Plug-In . SVG Version: 6.00 Build 0)  -->
<!DOCTYPE svg PUBLIC "-//W3C//DTD SVG 1.1//EN" "http://www.w3.org/Graphics/SVG/1.1/DTD/svg11.dtd">
<svg version="1.1" id="Capa_1" xmlns="http://www.w3.org/2000/svg" xmlns:xlink="http://www.w3.org/1999/xlink" x="0px" y="0px"
	 viewBox="0 0 335.077 335.077" style="enable-background:new 0 0 335.077 335.077;" xml:space="preserve">
<path d="M249.124,321.576H85.957c-2.761,0-5-2.239-5-5V176.733c-2.377,0.253-4.602,0.375-6.779,0.375
	C33.276,177.108,0,143.832,0,102.93c0-40.905,33.276-74.183,74.178-74.183c11.545,0,22.987,2.737,33.317,7.945
	c16.496-14.984,37.675-23.192,60.045-23.192c22.371,0,43.55,8.208,60.046,23.192c10.33-5.208,21.771-7.945,33.316-7.945
	c40.9,0,74.175,33.278,74.175,74.183c0,40.901-33.274,74.177-74.175,74.177c-2.177,0-4.401-0.122-6.778-0.375v139.844
	C254.124,319.338,251.886,321.576,249.124,321.576z M226.264,311.576h17.86V170.974c0-1.475,0.651-2.875,1.78-3.825
	c1.129-0.951,2.619-1.354,4.073-1.102c4.176,0.723,7.647,1.06,10.925,1.06c35.386,0,64.175-28.79,64.175-64.177
	c0-35.391-28.789-64.183-64.175-64.183c-11.055,0-22.002,2.905-31.66,8.4c-1.944,1.106-4.389,0.786-5.981-0.784
	c-14.968-14.744-34.756-22.863-55.721-22.863c-20.964,0-40.752,8.12-55.72,22.863c-1.594,1.57-4.037,1.89-5.981,0.784
	c-9.658-5.496-20.606-8.4-31.661-8.4C38.79,38.747,10,67.54,10,102.93c0,35.387,28.79,64.177,64.178,64.177
	c3.277,0,6.749-0.337,10.926-1.06c1.454-0.251,2.945,0.151,4.073,1.102c1.129,0.95,1.78,2.35,1.78,3.825v140.602h17.548v-44.805
	c0-2.761,2.239-5,5-5s5,2.239,5,5v44.805h16.941v-44.805c0-2.761,2.239-5,5-5s5,2.239,5,5v44.805h16.938v-44.805
	c0-2.761,2.239-5,5-5c2.762,0,5,2.239,5,5v44.805h16.941v-44.805c0-2.761,2.238-5,5-5s5,2.239,5,5v44.805h16.938v-44.805
	c0-2.761,2.238-5,5-5s5,2.239,5,5V311.576z M167.54,182.958c-37.02,0-56.544-16.981-57.357-17.704
	c-2.063-1.835-2.249-4.996-0.415-7.059c1.832-2.059,4.979-2.249,7.044-0.427l0,0c0.174,0.152,17.741,15.19,50.728,15.19
	c33.347,0,51.848-15.125,52.031-15.278c2.118-1.771,5.271-1.486,7.042,0.633c1.77,2.12,1.486,5.273-0.633,7.042
	C225.119,166.074,204.474,182.958,167.54,182.958z"/>
<g>
</g>
<g>
</g>
<g>
</g>
<g>
</g>
<g>
</g>
<g>
</g>
<g>
</g>
<g>
</g>
<g>
</g>
<g>
</g>
<g>
</g>
<g>
</g>
<g>
</g>
<g>
</g>
<g>
</g>
</svg>
