<?xml version="1.0" encoding="iso-8859-1"?>
<!-- Generator: Adobe Illustrator 17.1.0, SVG Export Plug-In . SVG Version: 6.00 Build 0)  -->
<!DOCTYPE svg PUBLIC "-//W3C//DTD SVG 1.1//EN" "http://www.w3.org/Graphics/SVG/1.1/DTD/svg11.dtd">
<svg version="1.1" id="Capa_1" xmlns="http://www.w3.org/2000/svg" xmlns:xlink="http://www.w3.org/1999/xlink" x="0px" y="0px"
	 viewBox="0 0 354.582 354.582" style="enable-background:new 0 0 354.582 354.582;" xml:space="preserve">
<path d="M247.714,308.291H108.497c-1.405,0-2.755-0.364-3.703-1.402c-0.921-1.009-1.397-2.134-1.306-3.481
	c-0.146-0.826-1.479-6.344-11.694-12.911c-2.022-1.3-4.234-2.646-6.577-4.071c-13.993-8.513-33.156-20.171-57.532-48.9
	c-15.248-17.971-24.89-38.127-27.151-56.758c-2.63-21.668,4.503-40.757,20.627-55.201c12.457-11.159,24.839-17.132,34.788-21.932
	c13.555-6.54,19.548-9.791,19.548-18.344c0-18.827-10.567-30.493-10.674-30.608c-1.347-1.459-1.703-3.578-0.906-5.397
	c0.796-1.819,2.594-2.995,4.58-2.995h219.217c1.986,0,3.784,1.175,4.58,2.995c0.797,1.819,0.441,3.938-0.906,5.397
	c-0.093,0.103-10.674,11.966-10.674,30.608c0,8.254,5.789,11.346,18.883,17.553c10.24,4.854,22.985,10.895,35.558,22.819
	c14.313,13.575,21.089,32.831,19.081,54.22c-1.861,19.826-10.992,40.297-25.709,57.643c-24.375,28.729-43.539,40.387-57.532,48.9
	c-2.343,1.425-4.555,2.771-6.577,4.071c-10.215,6.566-11.549,12.085-11.694,12.911c0.091,1.347-0.385,2.473-1.306,3.481
	C250.47,307.927,249.119,308.291,247.714,308.291z M112.325,298.291h131.561c1.651-4.073,5.616-10.093,15.125-16.206
	c2.125-1.366,4.39-2.744,6.787-4.202c13.41-8.158,31.775-19.331,55.104-46.827c6.626-7.809,12.222-16.64,16.32-25.889
	l-18.804,18.804c-11.018,11.017-28.946,11.017-39.963,0l-7.084-7.084c-3.448-3.449-8.033-5.348-12.91-5.348
	c-4.876,0-9.462,1.899-12.91,5.348l-4.554,4.554c-11.017,11.018-28.944,11.018-39.963,0l-7.084-7.084
	c-7.119-7.119-18.702-7.119-25.82,0l-11.133,11.133c-11.017,11.017-28.944,11.018-39.963,0l-8.602-8.603
	c-3.448-3.449-8.034-5.348-12.91-5.348c-4.877,0-9.462,1.899-12.91,5.348l-9.108,9.108c-11.018,11.017-28.946,11.017-39.963,0
	l-7.877-7.877c2.973,4.569,6.23,8.911,9.646,12.938c23.33,27.496,41.695,38.668,55.104,46.827c2.397,1.458,4.661,2.836,6.787,4.202
	C106.709,288.198,110.674,294.218,112.325,298.291z M12.992,191.306c0.014,0.013,0.027,0.026,0.041,0.04l27.579,27.578
	c7.118,7.119,18.702,7.119,25.82,0l9.108-9.108c5.337-5.337,12.433-8.276,19.981-8.276c7.548,0,14.644,2.939,19.981,8.276
	l8.602,8.603c7.12,7.12,18.703,7.12,25.82,0l11.133-11.133c11.018-11.017,28.944-11.018,39.963,0l7.084,7.085
	c7.12,7.119,18.703,7.119,25.82,0l4.554-4.554c5.337-5.337,12.434-8.276,19.981-8.276c7.548,0,14.645,2.939,19.981,8.276
	l7.084,7.084c7.118,7.119,18.702,7.119,25.82,0l30.614-30.615c0.453-0.452,0.97-0.8,1.523-1.043
	c1.5-8.133,1.671-16.261,0.221-24.004l-25.287,25.287c-11.019,11.018-28.945,11.017-39.963,0l-7.084-7.084
	c-3.448-3.449-8.033-5.348-12.91-5.348c-4.876,0-9.462,1.899-12.91,5.348l-4.554,4.554c-11.017,11.017-28.944,11.018-39.963,0
	l-7.084-7.084c-7.119-7.119-18.702-7.118-25.82,0l-11.133,11.133c-11.017,11.017-28.944,11.018-39.963,0l-8.602-8.603
	c-3.448-3.449-8.034-5.348-12.91-5.348c-4.877,0-9.462,1.899-12.91,5.348l-9.108,9.108c-5.337,5.337-12.434,8.277-19.981,8.277
	c-7.548,0-14.645-2.94-19.981-8.277l-23.113-23.113C9.405,173.951,10.463,182.719,12.992,191.306z M13.163,154.031l27.448,27.448
	c3.448,3.449,8.033,5.348,12.91,5.348c4.876,0,9.462-1.899,12.91-5.348l9.108-9.108c5.337-5.337,12.433-8.277,19.981-8.277
	c7.548,0,14.644,2.939,19.981,8.277l8.602,8.603c7.12,7.12,18.703,7.119,25.82,0l11.133-11.133
	c11.018-11.017,28.944-11.018,39.963,0l7.084,7.084c7.12,7.12,18.703,7.119,25.82,0l4.554-4.554
	c5.337-5.337,12.434-8.277,19.981-8.277c7.548,0,14.645,2.939,19.981,8.277l7.084,7.084c7.118,7.119,18.702,7.119,25.82,0l29.1-29.1
	c-2.67-6.318-6.665-12.211-12.173-17.436c-11.416-10.827-23.361-16.489-32.959-21.039c-13.2-6.257-24.6-11.661-24.6-26.589
	c0-12.589,3.934-22.537,7.53-29H77.967c3.596,6.463,7.53,16.411,7.53,29c0,15.191-11.68,20.826-25.204,27.351
	c-9.381,4.526-21.057,10.159-32.46,20.374C20.67,139.431,15.935,146.546,13.163,154.031z"/>
<g>
</g>
<g>
</g>
<g>
</g>
<g>
</g>
<g>
</g>
<g>
</g>
<g>
</g>
<g>
</g>
<g>
</g>
<g>
</g>
<g>
</g>
<g>
</g>
<g>
</g>
<g>
</g>
<g>
</g>
</svg>
