<?xml version="1.0" encoding="iso-8859-1"?>
<!-- Generator: Adobe Illustrator 17.1.0, SVG Export Plug-In . SVG Version: 6.00 Build 0)  -->
<!DOCTYPE svg PUBLIC "-//W3C//DTD SVG 1.1//EN" "http://www.w3.org/Graphics/SVG/1.1/DTD/svg11.dtd">
<svg version="1.1" id="Capa_1" xmlns="http://www.w3.org/2000/svg" xmlns:xlink="http://www.w3.org/1999/xlink" x="0px" y="0px"
	 viewBox="0 0 375 375" style="enable-background:new 0 0 375 375;" xml:space="preserve">
<path d="M220.632,375h-66.264c-5.757,0-11.478-1.343-16.544-3.882c-37.835-18.963-61.339-57.005-61.339-99.28
	c0-48.878,32.098-91.988,78.529-106.163V89.404h-2.229c-2.762,0-5-2.238-5-5s2.238-5,5-5h16.588v-2.471
	c-14.89-7.395-23.761-23.005-22.323-39.879c1.682-19.742,17.87-35.632,37.656-36.961c11.373-0.755,22.22,3.087,30.518,10.847
	c8.183,7.651,12.876,18.462,12.876,29.66c0,15.585-8.715,29.496-22.475,36.332v2.472h16.588c2.762,0,5,2.238,5,5s-2.238,5-5,5
	h-2.229v76.271c46.432,14.175,78.529,57.285,78.529,106.163c0,42.275-23.505,80.317-61.341,99.28
	C232.11,373.657,226.389,375,220.632,375z M94.687,232c-5.299,12.316-8.202,25.818-8.202,39.838
	c0,38.467,21.389,73.084,55.82,90.341c3.683,1.846,7.854,2.821,12.063,2.821h66.264c4.209,0,8.38-0.976,12.061-2.821
	c34.433-17.258,55.822-51.874,55.822-90.341c0-14.02-2.903-27.521-8.202-39.838H120.49c-5.641,9.051-10.005,19.949-10.005,32
	c0,2.762-2.238,5-5,5s-5-2.238-5-5c0-11.939,3.491-22.733,8.389-32H94.687z M127.73,222H275.34
	c-13.038-22.951-34.894-40.563-61.647-47.728c-2.187-0.586-3.707-2.566-3.707-4.83V89.676h-4.359v15.538
	c0,6.39-5.198,11.588-11.588,11.588h-13.076c-6.39,0-11.588-5.198-11.588-11.588V89.676h-4.359v79.766
	c0,2.264-1.521,4.244-3.707,4.83c-26.754,7.164-48.609,24.776-61.647,47.728h15.375c10.742-15.221,23.652-24.442,24.575-25.091
	c2.259-1.587,5.378-1.043,6.966,1.216c1.588,2.26,1.043,5.378-1.216,6.966C145.081,205.29,136.374,211.559,127.73,222z
	 M179.374,89.676v15.538c0,0.876,0.712,1.588,1.588,1.588h13.076c0.876,0,1.588-0.712,1.588-1.588V89.676H179.374z M179.374,79.404
	h16.252v-5.712c0-2.049,1.25-3.891,3.155-4.647C210.517,64.385,218.1,53.22,218.1,40.6c0-8.564-3.447-16.504-9.706-22.356
	c-6.253-5.847-14.426-8.745-23.018-8.173c-14.903,1.001-27.097,12.967-28.362,27.833c-1.159,13.606,6.559,26.121,19.204,31.141
	c1.904,0.757,3.155,2.599,3.155,4.647V79.404z"/>
<g>
</g>
<g>
</g>
<g>
</g>
<g>
</g>
<g>
</g>
<g>
</g>
<g>
</g>
<g>
</g>
<g>
</g>
<g>
</g>
<g>
</g>
<g>
</g>
<g>
</g>
<g>
</g>
<g>
</g>
</svg>
