<?xml version="1.0" encoding="iso-8859-1"?>
<!-- Generator: Adobe Illustrator 17.1.0, SVG Export Plug-In . SVG Version: 6.00 Build 0)  -->
<!DOCTYPE svg PUBLIC "-//W3C//DTD SVG 1.1//EN" "http://www.w3.org/Graphics/SVG/1.1/DTD/svg11.dtd">
<svg version="1.1" id="Capa_1" xmlns="http://www.w3.org/2000/svg" xmlns:xlink="http://www.w3.org/1999/xlink" x="0px" y="0px"
	 viewBox="0 0 403 403" style="enable-background:new 0 0 403 403;" xml:space="preserve">
<path d="M230.899,403h-58.798c-8.698,0-16.211-6.807-20.612-18.673c-3.882-10.465-4.999-27.969-3.985-62.433
	c0.992-33.701,4.622-86.78,6.166-98.481c0.879-6.658,3.31-10.55,5.083-13.391c1.542-2.47,2.224-3.65,2.224-5.771
	c0-1.304-1.725-5.035-8.19-10.75c-3.487-3.082-5.488-7.407-5.488-11.865v-80.451c0-3.555,1.381-6.983,3.889-9.654l13.396-14.272
	c1.624-1.73,2.519-3.897,2.519-6.103v-3.912h-4.8c-2.762,0-5-2.238-5-5s2.238-5,5-5h4.8V35.823c0-2.762,2.238-5,5-5h6.872
	c0.898,0,1.735-0.383,2.131-0.976l0.177-0.266c0.34-0.508,0.52-1.076,0.52-1.642V10.195C181.8,4.573,186.637,0,192.582,0h17.838
	c5.944,0,10.78,4.573,10.78,10.195V27.94c0,0.565,0.18,1.134,0.521,1.645l0.176,0.262c0.396,0.593,1.232,0.977,2.131,0.977h6.872
	c2.762,0,5,2.238,5,5v21.421h3.575c2.762,0,5,2.238,5,5s-2.238,5-5,5h-3.575v3.912c0,2.205,0.895,4.372,2.519,6.103l13.396,14.273
	c2.508,2.67,3.889,6.099,3.889,9.653v80.451c0,4.458-2.001,8.783-5.489,11.866c-6.465,5.714-8.189,9.445-8.189,10.749
	c0,2.12,0.682,3.301,2.224,5.77c1.774,2.842,4.204,6.733,5.083,13.392c1.544,11.69,5.174,64.767,6.166,98.481
	c1.014,34.464-0.104,51.968-3.985,62.433l0,0C247.11,396.193,239.597,403,230.899,403z M157.297,178.429v3.208
	c0,1.617,0.75,3.17,2.11,4.372c7.677,6.786,11.568,12.923,11.568,18.243c0,5.075-1.987,8.258-3.741,11.066
	c-1.571,2.518-3.056,4.895-3.651,9.403c-1.362,10.324-5.039,61.957-6.084,97.468c-0.961,32.633,0.015,49.628,3.364,58.659
	c2.822,7.609,7.023,12.151,11.237,12.151h58.798c4.214,0,8.415-4.542,11.237-12.15v-0.001c3.35-9.031,4.325-26.026,3.364-58.659
	c-1.045-35.525-4.722-87.152-6.084-97.468c-0.595-4.509-2.08-6.887-3.651-9.403c-1.754-2.809-3.741-5.991-3.741-11.066
	c0-5.32,3.892-11.457,11.567-18.242c1.361-1.203,2.111-2.756,2.111-4.373v-3.208H157.297z M157.297,168.429h88.405v-49.445h-88.405
	V168.429z M157.297,108.983h88.405v-7.798c0-1.002-0.419-1.999-1.18-2.809l-13.396-14.274c-3.371-3.591-5.228-8.188-5.228-12.946
	v-3.912h-48.798v3.912c0,4.758-1.856,9.355-5.228,12.946l-13.396,14.273c-0.761,0.811-1.18,1.808-1.18,2.81V108.983z
	 M177.101,57.244h48.798V40.823h-48.798V57.244z M191.47,30.823h20.06c-0.219-0.942-0.33-1.908-0.33-2.883V10.274
	c-0.086-0.097-0.352-0.274-0.78-0.274h-17.838c-0.429,0-0.695,0.178-0.781,0.274V27.94C191.8,28.915,191.689,29.881,191.47,30.823z"
	/>
<g>
</g>
<g>
</g>
<g>
</g>
<g>
</g>
<g>
</g>
<g>
</g>
<g>
</g>
<g>
</g>
<g>
</g>
<g>
</g>
<g>
</g>
<g>
</g>
<g>
</g>
<g>
</g>
<g>
</g>
</svg>
