<?xml version="1.0" encoding="iso-8859-1"?>
<!-- Generator: Adobe Illustrator 17.1.0, SVG Export Plug-In . SVG Version: 6.00 Build 0)  -->
<!DOCTYPE svg PUBLIC "-//W3C//DTD SVG 1.1//EN" "http://www.w3.org/Graphics/SVG/1.1/DTD/svg11.dtd">
<svg version="1.1" id="Capa_1" xmlns="http://www.w3.org/2000/svg" xmlns:xlink="http://www.w3.org/1999/xlink" x="0px" y="0px"
	 viewBox="0 0 348.891 348.891" style="enable-background:new 0 0 348.891 348.891;" xml:space="preserve">
<path d="M133.253,348.891c-46.19,0-92.524-14.729-131.31-44.687c-1.137-0.879-1.842-2.204-1.934-3.638
	c-0.091-1.435,0.438-2.839,1.455-3.854l18.455-18.456c0.019-0.019,0.037-0.037,0.056-0.056L278.201,19.975
	c0.006-0.007,0.013-0.014,0.02-0.02l18.491-18.491c1.016-1.016,2.407-1.54,3.854-1.455c1.434,0.092,2.759,0.797,3.638,1.934
	c65.979,85.422,58.093,207.479-18.345,283.916C244.128,327.591,188.795,348.891,133.253,348.891z M12.611,299.708
	c81.188,59.194,194.635,50.623,266.179-20.92c71.542-71.543,80.113-184.991,20.919-266.179l-11.362,11.362
	c55.013,74.76,47.282,179.592-18.75,245.623c-66.03,66.032-170.862,73.763-245.623,18.751L12.611,299.708z M31.13,281.189
	c70.719,51.118,169.216,43.515,231.396-18.664c62.179-62.18,69.78-160.679,18.663-231.396L31.13,281.189z M141.025,292.264
	c-0.1,0-0.198-0.003-0.299-0.009c-2.756-0.162-4.859-2.528-4.697-5.285l0.707-12.021c0.162-2.758,2.538-4.862,5.285-4.697
	c2.756,0.162,4.859,2.528,4.697,5.285l-0.707,12.021C145.855,290.214,143.652,292.264,141.025,292.264z M72.433,284.486
	c-0.455,0-0.918-0.063-1.377-0.193c-2.655-0.759-4.192-3.526-3.434-6.182l2.829-9.899c0.76-2.655,3.531-4.188,6.182-3.434
	c2.655,0.759,4.192,3.526,3.434,6.182l-2.829,9.899C76.61,283.056,74.608,284.486,72.433,284.486z M206.783,268.93
	c-1.916,0-3.744-1.106-4.572-2.97l-5.657-12.728c-1.121-2.523,0.015-5.479,2.538-6.601c2.522-1.12,5.479,0.015,6.601,2.538
	l5.657,12.728c1.121,2.523-0.015,5.479-2.538,6.601C208.152,268.791,207.462,268.93,206.783,268.93z M114.15,261.152
	c-2.762,0-5-2.238-5-5v-9.9c0-2.762,2.238-5,5-5s5,2.238,5,5v9.9C119.15,258.913,116.911,261.152,114.15,261.152z M165.763,250.545
	c-2.381,0-4.49-1.706-4.918-4.132l-2.122-12.021c-0.48-2.72,1.335-5.313,4.055-5.793c2.726-0.48,5.313,1.336,5.793,4.055
	l2.122,12.021c0.48,2.72-1.335,5.313-4.055,5.793C166.344,250.52,166.051,250.545,165.763,250.545z M206.074,221.553
	c-1.279,0-2.56-0.488-3.535-1.465l-8.485-8.485c-1.953-1.952-1.953-5.118,0-7.07c1.951-1.953,5.119-1.953,7.07,0l8.485,8.485
	c1.953,1.952,1.953,5.118,0,7.07C208.633,221.065,207.353,221.553,206.074,221.553z M254.861,218.019
	c-0.679,0-1.368-0.139-2.028-0.432l-12.728-5.657c-2.523-1.122-3.659-4.077-2.538-6.601c1.122-2.523,4.076-3.657,6.601-2.538
	l12.728,5.657c2.523,1.122,3.659,4.077,2.538,6.601C258.605,216.912,256.777,218.019,254.861,218.019z M238.6,179.128
	c-0.583,0-1.176-0.103-1.755-0.319l-11.314-4.243c-2.585-0.97-3.896-3.852-2.926-6.438c0.97-2.585,3.848-3.896,6.438-2.926
	l11.314,4.243c2.585,0.97,3.896,3.852,2.926,6.438C242.53,177.89,240.624,179.128,238.6,179.128z M266.173,152.964
	c-2.627,0-4.83-2.05-4.986-4.706c-0.162-2.757,1.941-5.123,4.697-5.285l12.021-0.707c2.774-0.15,5.123,1.941,5.285,4.697
	c0.162,2.757-1.941,5.123-4.697,5.285l-12.021,0.707C266.371,152.961,266.272,152.964,266.173,152.964z M237.887,126.095
	c-2.485,0-4.64-1.852-4.955-4.381c-0.343-2.74,1.601-5.239,4.341-5.581l11.314-1.414c2.746-0.346,5.239,1.603,5.581,4.341
	c0.343,2.74-1.601,5.239-4.341,5.582l-11.314,1.413C238.303,126.081,238.093,126.095,237.887,126.095z M260.518,86.496
	c-2.176,0-4.178-1.431-4.805-3.628c-0.759-2.654,0.779-5.422,3.435-6.181l9.899-2.828c2.648-0.759,5.421,0.777,6.181,3.435
	c0.759,2.654-0.779,5.422-3.435,6.181l-9.899,2.828C261.436,86.434,260.973,86.496,260.518,86.496z"/>
<g>
</g>
<g>
</g>
<g>
</g>
<g>
</g>
<g>
</g>
<g>
</g>
<g>
</g>
<g>
</g>
<g>
</g>
<g>
</g>
<g>
</g>
<g>
</g>
<g>
</g>
<g>
</g>
<g>
</g>
</svg>
