<?xml version="1.0" encoding="iso-8859-1"?>
<!-- Generator: Adobe Illustrator 17.1.0, SVG Export Plug-In . SVG Version: 6.00 Build 0)  -->
<!DOCTYPE svg PUBLIC "-//W3C//DTD SVG 1.1//EN" "http://www.w3.org/Graphics/SVG/1.1/DTD/svg11.dtd">
<svg version="1.1" id="Capa_1" xmlns="http://www.w3.org/2000/svg" xmlns:xlink="http://www.w3.org/1999/xlink" x="0px" y="0px"
	 viewBox="0 0 371.667 371.667" style="enable-background:new 0 0 371.667 371.667;" xml:space="preserve">
<path d="M245.833,371.667h-120c-9.374,0-17-7.626-17-17v-273c0-8.136,5.715-15.024,13.538-16.641l34.373-19.872
	c-0.264-0.609-0.41-1.281-0.41-1.987V5c0-2.761,2.238-5,5-5h51c2.762,0,5,2.239,5,5v38.167c0,0.671-0.132,1.312-0.372,1.896
	l32.391,19.975c7.793,1.638,13.48,8.515,13.48,16.628v273C262.833,364.041,255.208,371.667,245.833,371.667z M118.833,302.667v52
	c0,3.86,3.141,7,7,7h120c3.859,0,7-3.14,7-7v-52H118.833z M118.833,292.667h134v-13h-134V292.667z M118.833,269.667h134v-13h-134
	V269.667z M118.833,246.667h134v-13h-134V246.667z M118.833,223.667h134v-13h-134V223.667z M118.833,200.667h134v-13h-134V200.667z
	 M118.833,177.667h134v-13h-134V177.667z M118.833,154.667h134v-72h-134V154.667z M129.134,72.667h113.538l-39.729-24.5h-31.43
	L129.134,72.667z M204.361,38.167h2.974V10h-41v28.167H204.361z"/>
<g>
</g>
<g>
</g>
<g>
</g>
<g>
</g>
<g>
</g>
<g>
</g>
<g>
</g>
<g>
</g>
<g>
</g>
<g>
</g>
<g>
</g>
<g>
</g>
<g>
</g>
<g>
</g>
<g>
</g>
</svg>
