<?xml version="1.0" encoding="iso-8859-1"?>
<!-- Generator: Adobe Illustrator 17.1.0, SVG Export Plug-In . SVG Version: 6.00 Build 0)  -->
<!DOCTYPE svg PUBLIC "-//W3C//DTD SVG 1.1//EN" "http://www.w3.org/Graphics/SVG/1.1/DTD/svg11.dtd">
<svg version="1.1" id="Capa_1" xmlns="http://www.w3.org/2000/svg" xmlns:xlink="http://www.w3.org/1999/xlink" x="0px" y="0px"
	 viewBox="0 0 398 398" style="enable-background:new 0 0 398 398;" xml:space="preserve">
<path d="M245.915,398h-93.83c-1.459,0-2.846-0.638-3.796-1.746c-0.836-0.976-5.007-6.512-5.007-19.737
	c0-4.989,1.922-16.648,4.582-32.786c3.953-23.981,9.366-56.824,9.366-76.26c0-14.617-8.48-80.445-11.653-99.903
	c-0.846-5.184,0.656-10.421,4.121-14.368c4.657-5.306,13.161-14.931,17.791-19.782c5.117-5.36,6.16-13.969,6.241-14.705
	l4.982-79.713l-1.889-3.777c-0.359-0.683-0.565-1.458-0.573-2.281v-0.01v-0.005c0-0.005,0-0.009,0-0.014V32.91v-0.015V5
	c0-2.762,2.239-5,5-5h35.503c2.761,0,5,2.238,5,5v27.896v0.015v0.002c0,0.005,0,0.009,0,0.014v0.005v0.01
	c-0.007,0.823-0.213,1.599-0.573,2.281l-1.889,3.777l4.982,79.718c0.071,0.66,1.102,9.317,6.24,14.7
	c4.63,4.852,13.134,14.477,17.792,19.781c3.464,3.947,4.966,9.185,4.121,14.369c-2.816,17.269-11.653,83.254-11.653,99.903
	c0,19.436,5.413,52.278,9.366,76.26c2.66,16.138,4.582,27.797,4.582,32.786c0,13.226-4.171,18.762-5.007,19.737
	C248.761,397.362,247.375,398,245.915,398z M155.053,388h87.894c0.783-1.984,1.772-5.646,1.772-11.483
	c0-2.126-0.536-6.419-1.377-12.035h-88.683c-0.842,5.616-1.377,9.909-1.377,12.035C153.281,382.354,154.271,386.016,155.053,388z
	 M156.233,354.481h85.534c-0.471-2.903-0.977-5.968-1.497-9.125c-2.8-16.989-6.054-36.727-7.935-54.006h-66.672
	c-1.881,17.279-5.134,37.017-7.934,54.006C157.209,348.514,156.705,351.578,156.233,354.481z M166.611,281.351h64.778
	c-0.393-5.02-0.618-9.699-0.618-13.88c0-17.123,8.936-84.051,11.784-101.513c0.362-2.225-0.281-4.47-1.767-6.162
	c-4.605-5.247-13.004-14.755-17.51-19.475c-3.656-3.83-5.847-8.535-7.147-12.499h-34.262c-1.3,3.964-3.492,8.669-7.148,12.499
	c-4.505,4.72-12.904,14.228-17.509,19.475c-1.485,1.692-2.129,3.938-1.767,6.162c2.887,17.7,11.784,85.415,11.784,101.513
	C167.229,271.651,167.004,276.331,166.611,281.351z M183.803,117.822h30.394l-4.971-79.543c-0.008-0.128-0.011-0.256-0.009-0.384
	h-20.433c0.002,0.128-0.001,0.256-0.009,0.384L183.803,117.822z M186.249,27.896h25.503V10h-25.503V27.896z"/>
<g>
</g>
<g>
</g>
<g>
</g>
<g>
</g>
<g>
</g>
<g>
</g>
<g>
</g>
<g>
</g>
<g>
</g>
<g>
</g>
<g>
</g>
<g>
</g>
<g>
</g>
<g>
</g>
<g>
</g>
</svg>
