<?xml version="1.0" encoding="iso-8859-1"?>
<!-- Generator: Adobe Illustrator 17.1.0, SVG Export Plug-In . SVG Version: 6.00 Build 0)  -->
<!DOCTYPE svg PUBLIC "-//W3C//DTD SVG 1.1//EN" "http://www.w3.org/Graphics/SVG/1.1/DTD/svg11.dtd">
<svg version="1.1" id="Capa_1" xmlns="http://www.w3.org/2000/svg" xmlns:xlink="http://www.w3.org/1999/xlink" x="0px" y="0px"
	 viewBox="0 0 397 397" style="enable-background:new 0 0 397 397;" xml:space="preserve">
<path d="M333.711,354h-232.2c-2.762,0-5-2.238-5-5v-42.388c-14.791-6.879-28.163-15.143-39.824-24.699
	c-8.091-6.632-12.731-16.422-12.731-26.858v-22.41h-24.86c-5.015,0-9.095,4.08-9.095,9.095v8.839c0,2.762-2.238,5-5,5s-5-2.238-5-5
	v-8.839c0-9.998,7.725-18.226,17.519-19.03v-6.759c-7.837-1.806-13.696-8.84-13.696-17.217v-11.223c0-2.762,2.238-5,5-5h25.8
	c2.762,0,5,2.238,5,5v11.223c0,7.799-5.08,14.434-12.104,16.77v7.142h16.437V119.012c0-10.437,4.641-20.227,12.731-26.858
	C95.359,60.456,152.85,43,218.566,43c67.643,0,128.445,19.446,166.816,53.354l0,0C392.766,102.878,397,112.32,397,122.259v129.55
	c0,9.939-4.234,19.381-11.617,25.904c-13.136,11.607-28.903,21.521-46.672,29.54V349C338.711,351.762,336.473,354,333.711,354z
	 M106.511,344h222.2v-32.518c-0.069,0.027-0.133,0.053-0.202,0.08c-0.95,0.935-2.298,1.48-3.723,1.433
	c-31.247,11.738-67.621,18.071-106.22,18.071c-41.526,0-79.771-6.972-112.056-20.101V344z M124.667,307.008
	c27.854,9.211,59.689,14.059,93.899,14.059c36.907,0,71.621-5.932,101.434-16.935v-30.116c-24.055,6.81-55.785,12.14-96.178,12.14
	c-41.039,0-73.947-4.976-99.155-11.269V307.008z M53.955,245.506v9.549c0,7.429,3.307,14.399,9.071,19.124
	c14.563,11.937,31.984,21.755,51.641,29.269v-31.232c-10.183-2.905-18.879-5.968-26.126-8.875
	C71.944,256.683,60.621,250.011,53.955,245.506z M330,270.966v29.207c18.73-7.939,35.24-18.006,48.762-29.954
	c5.235-4.626,8.238-11.336,8.238-18.41v-10.574c-6.011,5.03-16.182,12.327-31.431,19.591C348.593,264.148,340.1,267.656,330,270.966
	z M124.667,264.572c24.759,6.396,57.64,11.583,99.155,11.583c40.47,0,72.063-5.38,96.178-12.534v-44.64
	c-24.479,2.831-56.088,4.903-96.179,4.903c-40.728,0-73.479-1.928-99.154-4.537V264.572z M53.955,233.11
	c2.989,2.423,15.464,11.863,38.944,21.202c6.159,2.45,13.406,5.016,21.768,7.491v-43.545c-32.316-3.764-51.799-8.477-60.712-11.015
	V233.11z M330,217.734v42.682c40.131-13.86,56.033-31.898,56.284-32.193c0.22-0.258,0.46-0.487,0.716-0.688v-22.123
	C378.938,208.283,361.125,213.555,330,217.734z M124.667,209.224c25.565,2.661,58.351,4.661,99.154,4.661
	c40.277,0,71.903-2.158,96.179-5.04v-47.322c-26.201-2.907-60.496-5.163-103.823-5.163c-37.748,0-67.89,1.895-91.51,4.506V209.224z
	 M53.955,196.796c6.339,1.919,25.715,7.142,60.712,11.313V162.06c-36.526,4.701-55.059,10.938-60.712,13.108V196.796z M330,162.71
	v44.853c35.772-4.935,52.941-11.22,57-12.863v-20.956C382.082,172.197,363.971,167.017,330,162.71z M13.822,192.511v6.223
	c0,4.228,3.439,7.667,7.667,7.667h0.466c4.228,0,7.667-3.439,7.667-7.667v-6.223H13.822z M53.955,141.757v22.74
	c8.903-3.082,27.914-8.483,60.712-12.593v-43.633C73.766,121.438,56.169,139.361,53.955,141.757z M330,152.546
	c30.702,3.806,48.972,8.388,57,10.73v-25.345c-0.083-0.065-0.165-0.134-0.245-0.205c-0.212-0.188-12.66-11.059-39.654-21.795
	c-4.983-1.982-10.679-4.04-17.101-6.065V152.546z M216.177,146.359c43.242,0,77.485,2.172,103.823,5.026v-44.469
	c-25.241-6.953-59.642-12.828-103.822-12.828c-37.909,0-68.03,4.721-91.511,11.198v45.454
	C148.458,148.182,178.591,146.359,216.177,146.359z M114.667,70.619c-19.656,7.514-37.078,17.332-51.641,29.269
	c-5.765,4.725-9.071,11.695-9.071,19.124v9.208c6.109-4.987,16.007-11.909,30.476-18.801c8.026-3.823,18.057-7.89,30.236-11.62
	V70.619z M330,99.402c8.198,2.485,15.346,5.05,21.459,7.502c17.418,6.986,29.026,13.989,35.541,18.485v-3.131
	c0-7.073-3.003-13.784-8.238-18.411l0,0C365.24,91.899,348.73,81.833,330,73.894V99.402z M216.178,84.089
	c43.622,0,78.057,5.621,103.822,12.472V69.935C290.188,58.932,255.474,53,218.566,53c-34.21,0-66.045,4.848-93.899,14.059v27.894
	C148.111,88.765,178.346,84.089,216.178,84.089z"/>
<g>
</g>
<g>
</g>
<g>
</g>
<g>
</g>
<g>
</g>
<g>
</g>
<g>
</g>
<g>
</g>
<g>
</g>
<g>
</g>
<g>
</g>
<g>
</g>
<g>
</g>
<g>
</g>
<g>
</g>
</svg>
