<?xml version="1.0" encoding="iso-8859-1"?>
<!-- Generator: Adobe Illustrator 17.1.0, SVG Export Plug-In . SVG Version: 6.00 Build 0)  -->
<!DOCTYPE svg PUBLIC "-//W3C//DTD SVG 1.1//EN" "http://www.w3.org/Graphics/SVG/1.1/DTD/svg11.dtd">
<svg version="1.1" id="Capa_1" xmlns="http://www.w3.org/2000/svg" xmlns:xlink="http://www.w3.org/1999/xlink" x="0px" y="0px"
	 viewBox="0 0 379.372 379.372" style="enable-background:new 0 0 379.372 379.372;" xml:space="preserve">
<path d="M280.032,379.372H99.34c-2.492,0-4.604-1.835-4.951-4.304s1.177-4.815,3.572-5.502l86.725-24.88V208.581
	c-54.727-3.257-98.44-59.744-98.44-128.711c0-28.206,7.172-54.989,20.741-77.455C107.892,0.916,109.516,0,111.267,0h156.838
	c1.751,0,3.374,0.916,4.28,2.415c13.569,22.465,20.742,49.249,20.742,77.455c0,68.967-43.714,125.454-98.441,128.711v136.104
	l86.726,24.88c2.396,0.688,3.92,3.034,3.572,5.502C284.637,377.537,282.524,379.372,280.032,379.372z M134.899,369.372h109.572
	l-54.545-15.648c-0.16,0.008-0.322,0.008-0.482,0L134.899,369.372z M105.616,131.729c15.169,39.627,47.153,67,84.069,67
	s68.901-27.373,84.07-67H105.616z M102.227,121.729h174.919c3.865-13.025,5.981-27.135,5.981-41.859
	c0-25.376-6.174-49.467-17.881-69.87H114.125c-11.706,20.404-17.88,44.495-17.88,69.87
	C96.245,94.595,98.361,108.705,102.227,121.729z M114.885,73.73c-0.194,0-0.392-0.011-0.59-0.035
	c-2.743-0.323-4.704-2.808-4.382-5.55c2.056-17.477,10.96-39.385,11.338-40.309c1.046-2.556,3.966-3.778,6.521-2.735
	c2.556,1.045,3.78,3.964,2.735,6.521c-0.087,0.214-8.768,21.583-10.662,37.691C119.545,71.858,117.386,73.73,114.885,73.73z"/>
<g>
</g>
<g>
</g>
<g>
</g>
<g>
</g>
<g>
</g>
<g>
</g>
<g>
</g>
<g>
</g>
<g>
</g>
<g>
</g>
<g>
</g>
<g>
</g>
<g>
</g>
<g>
</g>
<g>
</g>
</svg>
