<?xml version="1.0" encoding="iso-8859-1"?>
<!-- Generator: Adobe Illustrator 17.1.0, SVG Export Plug-In . SVG Version: 6.00 Build 0)  -->
<!DOCTYPE svg PUBLIC "-//W3C//DTD SVG 1.1//EN" "http://www.w3.org/Graphics/SVG/1.1/DTD/svg11.dtd">
<svg version="1.1" id="Capa_1" xmlns="http://www.w3.org/2000/svg" xmlns:xlink="http://www.w3.org/1999/xlink" x="0px" y="0px"
	 viewBox="0 0 404 404" style="enable-background:new 0 0 404 404;" xml:space="preserve">
<path d="M247.717,404h-91.435C145.65,404,137,395.35,137,384.717V177.546c0-0.33,0.019-0.654,0.041-0.979l0.008-0.117
	c0.79-26.653,17.677-49.924,42.452-59.043V5c0-2.761,2.239-5,5-5h35c2.761,0,5,2.239,5,5v112.408
	c24.774,9.119,41.662,32.39,42.452,59.043l0.008,0.117c0.022,0.324,0.041,0.648,0.041,0.979v207.171
	C267,395.35,258.35,404,247.717,404z M147,358v26.717c0,5.119,4.164,9.283,9.283,9.283h91.435c5.119,0,9.283-4.164,9.283-9.283V358
	H147z M147,348h110V199.031H147V348z M147,189.031h110v-11.484c0-0.1-0.011-0.199-0.017-0.298l-0.018-0.266
	c-0.003-0.052-0.005-0.104-0.007-0.157c-0.668-23.644-16.307-44.156-38.916-51.042c-2.104-0.641-3.543-2.583-3.543-4.783V10h-25v111
	c0,2.2-1.438,4.142-3.543,4.783c-22.609,6.886-38.248,27.399-38.916,51.042c-0.001,0.052-0.004,0.104-0.007,0.157l-0.018,0.266
	c-0.006,0.099-0.017,0.198-0.017,0.298V189.031z M161,337c-2.761,0-5-2.239-5-5V215c0-2.761,2.239-5,5-5s5,2.239,5,5v117
	C166,334.761,163.761,337,161,337z"/>
<g>
</g>
<g>
</g>
<g>
</g>
<g>
</g>
<g>
</g>
<g>
</g>
<g>
</g>
<g>
</g>
<g>
</g>
<g>
</g>
<g>
</g>
<g>
</g>
<g>
</g>
<g>
</g>
<g>
</g>
</svg>
